<svg width="425" height="520" viewBox="0 0 425 520" fill="none" xmlns="http://www.w3.org/2000/svg">
<g filter="url(#filter0_f)">
<path fill-rule="evenodd" clip-rule="evenodd" d="M252.262 294.999C270.489 298.851 288.356 303.794 303.837 320.112C320.097 337.251 335.53 359.082 341.671 389.242C347.841 419.545 344.032 452.738 336.893 482.458C330.089 510.788 316.661 531.593 302.689 551.541C287.347 573.445 272.504 600.844 252.262 603.287C231.524 605.79 209.593 590.573 196.168 564.398C183.7 540.088 192.236 502.714 185.406 472.938C177.989 440.608 154.111 419.58 155.026 385.049C155.985 348.828 170.915 313.829 190.091 296.071C208.613 278.918 231.19 290.545 252.262 294.999Z" fill="#D66E14"/>
</g>
<g filter="url(#filter1_f)">
<path fill-rule="evenodd" clip-rule="evenodd" d="M373.213 352.627C399.471 347.511 481.516 219.962 506.9 228.401C534.022 237.418 502.284 368.354 505.755 396.691C509.211 424.911 478.647 444.34 465.992 469.807C455.909 490.1 455.939 515.136 439.267 530.497C421.545 546.825 397.315 554.633 373.213 555.289C348.653 555.958 325.592 546.733 304.49 534.165C281.515 520.481 253.232 506.579 247.589 480.465C241.975 454.487 264.168 431.677 277.355 408.595C287.746 390.408 297.793 371.477 315.893 360.909C332.978 350.934 353.789 356.412 373.213 352.627Z" fill="#FA3E3E"/>
</g>
<defs>
<filter id="filter0_f" x="-45" y="87" width="589.767" height="716.555" filterUnits="userSpaceOnUse" color-interpolation-filters="sRGB">
<feFlood flood-opacity="0" result="BackgroundImageFix"/>
<feBlend mode="normal" in="SourceGraphic" in2="BackgroundImageFix" result="shape"/>
<feGaussianBlur stdDeviation="100" result="effect1_foregroundBlur"/>
</filter>
<filter id="filter1_f" x="14.6965" y="-4" width="735.263" height="791.323" filterUnits="userSpaceOnUse" color-interpolation-filters="sRGB">
<feFlood flood-opacity="0" result="BackgroundImageFix"/>
<feBlend mode="normal" in="SourceGraphic" in2="BackgroundImageFix" result="shape"/>
<feGaussianBlur stdDeviation="116" result="effect1_foregroundBlur"/>
</filter>
</defs>
</svg>
