<svg width="27" height="27" viewBox="0 0 27 27" fill="none" xmlns="http://www.w3.org/2000/svg">
<path d="M15.3476 13.5L26.6173 24.7697C27.1276 25.2799 27.1276 26.1071 26.6173 26.6173C26.1071 27.1276 25.2799 27.1276 24.7697 26.6173L13.5 15.3476L2.23025 26.6173C1.72005 27.1276 0.892852 27.1276 0.382651 26.6173C-0.12755 26.1071 -0.12755 25.2799 0.382651 24.7697L11.6524 13.5L0.382651 2.23025C-0.12755 1.72005 -0.12755 0.892852 0.382651 0.382651C0.892852 -0.12755 1.72005 -0.12755 2.23025 0.382651L13.5 11.6524L24.7697 0.382651C25.2799 -0.12755 26.1071 -0.12755 26.6173 0.382651C27.1276 0.892852 27.1276 1.72005 26.6173 2.23025L15.3476 13.5Z" fill="#02090F"/>
</svg>
