<svg width="36" height="32" viewBox="0 0 36 32" fill="none" xmlns="http://www.w3.org/2000/svg">
<path fill-rule="evenodd" clip-rule="evenodd" d="M27.3277 30.8146C29.4845 31.7582 30.2933 29.7811 30.2933 29.7811L35.9998 1.11389C35.9548 -0.818234 33.3487 0.350024 33.3487 0.350024L1.40135 12.8863C1.40135 12.8863 -0.126376 13.4255 0.00842326 14.3691C0.143222 15.3127 1.35641 15.762 1.35641 15.762L9.39942 18.458C9.39942 18.458 11.8258 26.4112 12.3201 27.9389C12.7694 29.4217 13.1738 29.4666 13.1738 29.4666C13.6231 29.6463 14.0275 29.3318 14.0275 29.3318L19.2397 24.6138L27.3277 30.8146ZM28.7206 6.19135C28.7206 6.19135 29.8439 5.51735 29.799 6.19135C29.799 6.19135 29.9787 6.28121 29.3946 6.91027C28.8554 7.44947 16.1394 18.8625 14.4319 20.3902C14.2971 20.48 14.2073 20.6148 14.2073 20.7946L13.713 25.0183C13.6231 25.4676 13.039 25.5125 12.9042 25.1081L10.7924 18.1885C10.7025 17.9189 10.7924 17.6043 11.062 17.4246L28.7206 6.19135Z" fill="#E62C2C"/>
</svg>
