<svg width="32" height="32" viewBox="0 0 32 32" fill="none" xmlns="http://www.w3.org/2000/svg">
<rect width="32" height="32" rx="16" fill="#E62C2C"/>
<path fill-rule="evenodd" clip-rule="evenodd" d="M19.5033 23.978C20.6216 24.4673 21.041 23.4422 21.041 23.4422L23.9999 8.57757C23.9766 7.57573 22.6253 8.1815 22.6253 8.1815L6.05988 14.6818C6.05988 14.6818 5.26772 14.9614 5.33762 15.4507C5.40752 15.94 6.03658 16.173 6.03658 16.173L10.2071 17.5709C10.2071 17.5709 11.4652 21.6948 11.7215 22.4869C11.9545 23.2558 12.1642 23.2791 12.1642 23.2791C12.3971 23.3723 12.6068 23.2092 12.6068 23.2092L15.3095 20.7628L19.5033 23.978ZM20.2256 11.2103C20.2256 11.2103 20.8081 10.8609 20.7848 11.2103C20.7848 11.2103 20.878 11.2569 20.5751 11.5831C20.2955 11.8627 13.702 17.7806 12.8166 18.5727C12.7467 18.6193 12.7001 18.6892 12.7001 18.7824L12.4438 20.9725C12.3972 21.2055 12.0944 21.2288 12.0245 21.0191L10.9294 17.4311C10.8828 17.2913 10.9294 17.1282 11.0692 17.035L20.2256 11.2103Z" fill="white"/>
</svg>
