<svg width="38" height="27" viewBox="0 0 38 27" fill="none" xmlns="http://www.w3.org/2000/svg">
<path fill-rule="evenodd" clip-rule="evenodd" d="M33.8681 0.912712C35.4957 1.35093 36.7791 2.63429 37.2173 4.26196C38.0311 7.23558 37.9998 13.4333 37.9998 13.4333C37.9998 13.4333 37.9998 19.5996 37.2173 22.5732C36.7791 24.2009 35.4957 25.4843 33.8681 25.9225C30.8944 26.705 18.9999 26.705 18.9999 26.705C18.9999 26.705 7.13671 26.705 4.13178 25.8912C2.50411 25.453 1.22075 24.1696 0.782534 22.5419C0 19.5996 0 13.402 0 13.402C0 13.402 0 7.23558 0.782534 4.26196C1.22075 2.63429 2.53541 1.31963 4.13178 0.881411C7.10541 0.098877 18.9999 0.098877 18.9999 0.098877C18.9999 0.098877 30.8944 0.098877 33.8681 0.912712ZM25.1038 13.402L15.2125 19.0988V7.70514L25.1038 13.402Z" fill="#E62C2C"/>
</svg>
