<svg width="24" height="24" viewBox="0 0 24 24" fill="none" xmlns="http://www.w3.org/2000/svg">
<path d="M6.83333 4C5.26853 4 4 5.26853 4 6.83333V9.1C4 15.6722 9.32781 21 15.9 21H18.1667C19.7315 21 21 19.7315 21 18.1667V16.6004C21 15.9565 20.6362 15.3679 20.0603 15.0799L17.3222 13.7109C16.3969 13.2482 15.2763 13.7124 14.9492 14.6938L14.6117 15.7062C14.4835 16.0909 14.0889 16.3199 13.6913 16.2404C11.2026 15.7426 9.25736 13.7974 8.75963 11.3087C8.68011 10.9111 8.9091 10.5165 9.29377 10.3883L10.5502 9.96947C11.3929 9.68856 11.8773 8.80619 11.6619 7.9444L10.9977 5.28769C10.8085 4.53091 10.1285 4 9.34845 4H6.83333Z" fill="#309D64"/>
</svg>
