<svg width="314" height="90" viewBox="0 0 314 90" fill="none" xmlns="http://www.w3.org/2000/svg">
<path d="M6.40967 12.1943H7.68298L14.0495 27.5214H12.4525L10.467 22.729H3.58251L1.6186 27.5214H0L6.40967 12.1943ZM10.1217 21.5416L7.03553 13.9645L3.90623 21.5416H10.1217Z" fill="#02090F"/>
<path d="M28.3316 12.1943V27.5214H26.8425V20.3543H17.7568V27.5214H16.2461V12.1943H17.7568V19.0159H26.8425V12.1943H28.3316Z" fill="#02090F"/>
<path d="M38.3515 27.6293C37.2724 27.6293 36.2941 27.4134 35.4164 26.9817C34.5388 26.5499 33.7834 25.9671 33.1504 25.2331C32.5173 24.4847 32.0281 23.65 31.6828 22.729C31.3375 21.7935 31.1649 20.8365 31.1649 19.8578C31.1649 18.836 31.3447 17.8646 31.7044 16.9435C32.0641 16.0081 32.5677 15.1805 33.2151 14.461C33.8769 13.727 34.6467 13.1513 35.5243 12.734C36.402 12.3022 37.3516 12.0863 38.3731 12.0863C39.4521 12.0863 40.4305 12.3094 41.3081 12.7556C42.1858 13.2017 42.9339 13.799 43.5526 14.5473C44.1857 15.2957 44.6748 16.1304 45.0201 17.0515C45.3654 17.9725 45.5381 18.9152 45.5381 19.8794C45.5381 20.9012 45.3582 21.8799 44.9986 22.8153C44.6389 23.7364 44.1353 24.5639 43.4879 25.2979C42.8404 26.0174 42.0779 26.5859 41.2002 27.0033C40.3226 27.4206 39.373 27.6293 38.3515 27.6293ZM32.6756 19.8578C32.6756 20.6925 32.8123 21.4985 33.0856 22.2756C33.359 23.0384 33.7475 23.722 34.251 24.3264C34.7546 24.9165 35.3517 25.3914 36.0423 25.7512C36.7473 26.0966 37.517 26.2693 38.3515 26.2693C39.2291 26.2693 40.0133 26.0894 40.7039 25.7296C41.4089 25.3554 42.0059 24.8661 42.4951 24.2617C42.9987 23.6428 43.38 22.952 43.6389 22.1893C43.8979 21.4265 44.0274 20.6494 44.0274 19.8578C44.0274 19.0231 43.8907 18.2244 43.6173 17.4616C43.344 16.6989 42.9483 16.0153 42.4304 15.4108C41.9268 14.8064 41.3297 14.3314 40.6391 13.986C39.9485 13.6406 39.186 13.4679 38.3515 13.4679C37.4882 13.4679 36.7041 13.6478 35.9991 14.0076C35.3085 14.3674 34.7114 14.8567 34.2079 15.4756C33.7187 16.08 33.3374 16.7636 33.064 17.5264C32.8051 18.2891 32.6756 19.0663 32.6756 19.8578Z" fill="#02090F"/>
<path d="M57.9605 12.1943H59.2338L65.6003 27.5214H64.0033L62.0178 22.729H55.1334L53.1695 27.5214H51.5509L57.9605 12.1943ZM61.6725 21.5416L58.5864 13.9645L55.4571 21.5416H61.6725Z" fill="#02090F"/>
<path d="M67.7969 27.5214V12.1943H76.4942V13.5327H69.3076V27.5214H67.7969Z" fill="#02090F"/>
<path d="M89.2192 26.1829V27.5214H78.9248V12.1943H89.0249V13.5327H80.4355V19.0591H87.9243V20.3328H80.4355V26.1829H89.2192Z" fill="#02090F"/>
<path d="M104.162 12.1943V27.5214H102.672V20.3543H93.5867V27.5214H92.076V12.1943H93.5867V19.0159H102.672V12.1943H104.162Z" fill="#02090F"/>
<path d="M118.886 13.5327H113.426V27.5214H111.915V13.5327H106.455V12.1943H118.886V13.5327Z" fill="#02090F"/>
<path d="M119.619 19.7499C119.619 18.8144 119.777 17.9006 120.094 17.0083C120.425 16.1016 120.9 15.2813 121.518 14.5473C122.137 13.799 122.899 13.2089 123.806 12.7771C124.712 12.331 125.741 12.1079 126.892 12.1079C128.259 12.1079 129.424 12.4246 130.388 13.0578C131.367 13.6766 132.086 14.4754 132.546 15.454L131.359 16.188C131.028 15.5116 130.611 14.9791 130.108 14.5905C129.604 14.1875 129.065 13.8997 128.489 13.727C127.928 13.5543 127.367 13.4679 126.806 13.4679C125.885 13.4679 125.072 13.655 124.367 14.0292C123.662 14.389 123.065 14.8783 122.576 15.4972C122.101 16.1016 121.741 16.7852 121.497 17.548C121.252 18.2963 121.13 19.0591 121.13 19.8362C121.13 20.6853 121.274 21.4985 121.561 22.2756C121.849 23.0528 122.252 23.7436 122.77 24.348C123.288 24.9381 123.892 25.413 124.583 25.7728C125.288 26.1182 126.05 26.2909 126.87 26.2909C127.446 26.2909 128.036 26.1901 128.64 25.9887C129.244 25.7872 129.806 25.4778 130.323 25.0604C130.856 24.643 131.28 24.1034 131.597 23.4413L132.848 24.089C132.532 24.8517 132.043 25.4993 131.381 26.0318C130.719 26.5643 129.978 26.9673 129.158 27.2407C128.352 27.5142 127.561 27.6509 126.784 27.6509C125.734 27.6509 124.77 27.4278 123.892 26.9817C123.015 26.5211 122.252 25.9167 121.605 25.1683C120.972 24.4056 120.482 23.5565 120.137 22.621C119.792 21.6712 119.619 20.7141 119.619 19.7499Z" fill="#02090F"/>
<path d="M146.263 13.5327H140.803V27.5214H139.293V13.5327H133.832V12.1943H146.263V13.5327Z" fill="#02090F"/>
<path d="M160.083 23.5709C160.083 24.3336 159.889 25.0172 159.5 25.6217C159.112 26.2117 158.587 26.6795 157.925 27.0249C157.277 27.3559 156.565 27.5214 155.788 27.5214H148.559V12.1943H155.939C156.659 12.1943 157.277 12.3886 157.795 12.7771C158.328 13.1513 158.731 13.6406 159.004 14.2451C159.292 14.8352 159.436 15.454 159.436 16.1016C159.436 16.8644 159.241 17.5696 158.853 18.2172C158.464 18.8648 157.925 19.3469 157.234 19.6635C158.112 19.9226 158.803 20.4047 159.306 21.1099C159.824 21.8151 160.083 22.6354 160.083 23.5709ZM158.572 23.3118C158.572 22.7937 158.457 22.3188 158.227 21.887C157.997 21.4409 157.68 21.0811 157.277 20.8077C156.889 20.5342 156.443 20.3975 155.939 20.3975H150.069V26.2045H155.788C156.306 26.2045 156.774 26.0678 157.191 25.7944C157.608 25.5209 157.939 25.1683 158.184 24.7366C158.443 24.2904 158.572 23.8155 158.572 23.3118ZM150.069 13.5111V19.167H155.335C155.839 19.167 156.285 19.0375 156.673 18.7785C157.062 18.505 157.371 18.1524 157.601 17.7207C157.831 17.2889 157.946 16.8284 157.946 16.3391C157.946 15.821 157.839 15.3532 157.623 14.9359C157.407 14.5041 157.112 14.1587 156.738 13.8997C156.364 13.6406 155.939 13.5111 155.465 13.5111H150.069Z" fill="#02090F"/>
<path d="M169.104 27.6293C168.025 27.6293 167.047 27.4134 166.169 26.9817C165.292 26.5499 164.536 25.9671 163.903 25.2331C163.27 24.4847 162.781 23.65 162.436 22.729C162.09 21.7935 161.918 20.8365 161.918 19.8578C161.918 18.836 162.098 17.8646 162.457 16.9435C162.817 16.0081 163.321 15.1805 163.968 14.461C164.63 13.727 165.4 13.1513 166.277 12.734C167.155 12.3022 168.104 12.0863 169.126 12.0863C170.205 12.0863 171.183 12.3094 172.061 12.7556C172.939 13.2017 173.687 13.799 174.305 14.5473C174.939 15.2957 175.428 16.1304 175.773 17.0515C176.118 17.9725 176.291 18.9152 176.291 19.8794C176.291 20.9012 176.111 21.8799 175.751 22.8153C175.392 23.7364 174.888 24.5639 174.241 25.2979C173.593 26.0174 172.831 26.5859 171.953 27.0033C171.075 27.4206 170.126 27.6293 169.104 27.6293ZM163.428 19.8578C163.428 20.6925 163.565 21.4985 163.839 22.2756C164.112 23.0384 164.5 23.722 165.004 24.3264C165.507 24.9165 166.105 25.3914 166.795 25.7512C167.5 26.0966 168.27 26.2693 169.104 26.2693C169.982 26.2693 170.766 26.0894 171.457 25.7296C172.162 25.3554 172.759 24.8661 173.248 24.2617C173.752 23.6428 174.133 22.952 174.392 22.1893C174.651 21.4265 174.78 20.6494 174.78 19.8578C174.78 19.0231 174.644 18.2244 174.37 17.4616C174.097 16.6989 173.701 16.0153 173.183 15.4108C172.68 14.8064 172.083 14.3314 171.392 13.986C170.701 13.6406 169.939 13.4679 169.104 13.4679C168.241 13.4679 167.457 13.6478 166.752 14.0076C166.061 14.3674 165.464 14.8567 164.961 15.4756C164.472 16.08 164.09 16.7636 163.817 17.5264C163.558 18.2891 163.428 19.0663 163.428 19.8578Z" fill="#02090F"/>
<path d="M184.64 27.5214V12.1943H190.985C191.647 12.1943 192.251 12.331 192.798 12.6044C193.359 12.8779 193.841 13.2521 194.244 13.727C194.647 14.1875 194.963 14.7056 195.193 15.2813C195.423 15.8426 195.539 16.4182 195.539 17.0083C195.539 17.843 195.352 18.6345 194.977 19.3829C194.618 20.1169 194.107 20.7141 193.445 21.1747C192.783 21.6352 192.006 21.8655 191.114 21.8655H186.151V27.5214H184.64ZM186.151 20.527H191.05C191.654 20.527 192.179 20.3615 192.625 20.0305C193.071 19.6995 193.416 19.2678 193.661 18.7353C193.906 18.2028 194.028 17.6271 194.028 17.0083C194.028 16.3751 193.884 15.7922 193.596 15.2597C193.308 14.7272 192.927 14.3099 192.452 14.0076C191.992 13.691 191.481 13.5327 190.92 13.5327H186.151V20.527Z" fill="#02090F"/>
<path d="M201.759 12.1943H203.033L209.399 27.5214H207.802L205.817 22.729H198.932L196.968 27.5214H195.35L201.759 12.1943ZM205.471 21.5416L202.385 13.9645L199.256 21.5416H205.471Z" fill="#02090F"/>
<path d="M215.353 27.7157C214.303 27.7157 213.36 27.4926 212.526 27.0464C211.691 26.5859 211.037 25.9527 210.562 25.1468L211.727 24.4344C212.087 25.0676 212.576 25.5569 213.195 25.9023C213.813 26.2477 214.526 26.4204 215.331 26.4204C216.425 26.4204 217.288 26.1398 217.921 25.5785C218.568 25.0028 218.892 24.2401 218.892 23.2902C218.892 22.6858 218.755 22.1533 218.482 21.6928C218.223 21.2178 217.849 20.8509 217.36 20.5918C216.871 20.3328 216.281 20.2032 215.59 20.2032H214.123V18.9943H215.612C216.144 18.9943 216.612 18.872 217.015 18.6273C217.417 18.3683 217.734 18.0301 217.964 17.6127C218.194 17.1954 218.309 16.7276 218.309 16.2096C218.309 15.6483 218.18 15.159 217.921 14.7416C217.676 14.3242 217.324 13.9932 216.863 13.7486C216.417 13.5039 215.892 13.3816 215.288 13.3816C214.554 13.3816 213.907 13.5471 213.346 13.8781C212.785 14.2091 212.339 14.6696 212.008 15.2597L210.907 14.5257C211.353 13.7342 211.943 13.1154 212.677 12.6692C213.425 12.2231 214.317 12 215.353 12C216.23 12 216.993 12.1727 217.64 12.5181C218.302 12.8491 218.82 13.3168 219.194 13.9213C219.583 14.5113 219.777 15.2093 219.777 16.0153C219.777 16.7924 219.583 17.4976 219.194 18.1308C218.82 18.7497 218.273 19.2174 217.554 19.534C218.461 19.7787 219.158 20.2536 219.648 20.9588C220.151 21.664 220.403 22.4843 220.403 23.4198C220.403 24.312 220.187 25.082 219.755 25.7296C219.324 26.3628 218.727 26.8522 217.964 27.1976C217.216 27.543 216.346 27.7157 215.353 27.7157Z" fill="#02090F"/>
<path d="M234.796 23.5709C234.796 24.3336 234.602 25.0172 234.213 25.6217C233.825 26.2117 233.3 26.6795 232.638 27.0249C231.99 27.3559 231.278 27.5214 230.501 27.5214H223.271V12.1943H230.652C231.372 12.1943 231.99 12.3886 232.508 12.7771C233.041 13.1513 233.444 13.6406 233.717 14.2451C234.005 14.8352 234.148 15.454 234.148 16.1016C234.148 16.8644 233.954 17.5696 233.566 18.2172C233.177 18.8648 232.638 19.3469 231.947 19.6635C232.825 19.9226 233.515 20.4047 234.019 21.1099C234.537 21.8151 234.796 22.6354 234.796 23.5709ZM233.285 23.3118C233.285 22.7937 233.17 22.3188 232.94 21.887C232.71 21.4409 232.393 21.0811 231.99 20.8077C231.602 20.5342 231.156 20.3975 230.652 20.3975H224.782V26.2045H230.501C231.019 26.2045 231.487 26.0678 231.904 25.7944C232.321 25.5209 232.652 25.1683 232.897 24.7366C233.156 24.2904 233.285 23.8155 233.285 23.3118ZM224.782 13.5111V19.167H230.048C230.552 19.167 230.998 19.0375 231.386 18.7785C231.775 18.505 232.084 18.1524 232.314 17.7207C232.544 17.2889 232.659 16.8284 232.659 16.3391C232.659 15.821 232.551 15.3532 232.336 14.9359C232.12 14.5041 231.825 14.1587 231.451 13.8997C231.077 13.6406 230.652 13.5111 230.178 13.5111H224.782Z" fill="#02090F"/>
<path d="M237.731 27.5214V12.1943H239.22V25.449L248.716 12.1943H250.119V27.5214H248.63V14.5041L239.242 27.5214H237.731Z" fill="#02090F"/>
<path d="M264.919 13.5327H259.459V27.5214H257.948V13.5327H252.488V12.1943H264.919V13.5327Z" fill="#02090F"/>
<path d="M267.3 27.5214V12.1943H268.79V25.449L278.285 12.1943H279.688V27.5214H278.199V14.5041L268.811 27.5214H267.3Z" fill="#02090F"/>
<path d="M283.093 27.5214L287.193 21.0235C286.086 20.7645 285.229 20.2392 284.625 19.4477C284.035 18.6561 283.74 17.7135 283.74 16.6197C283.74 15.7994 283.942 15.0582 284.345 14.3962C284.762 13.7198 285.345 13.1873 286.093 12.7987C286.841 12.3958 287.733 12.1943 288.769 12.1943H293.517V27.5214H292.028V21.2178H289.287C289.2 21.2178 289.107 21.2178 289.006 21.2178C288.92 21.2178 288.834 21.2178 288.747 21.2178L284.819 27.5214H283.093ZM288.834 19.901H292.028V13.5111H288.92C288.215 13.5111 287.582 13.6406 287.021 13.8997C286.46 14.1587 286.028 14.5185 285.726 14.9791C285.424 15.4396 285.273 15.9865 285.273 16.6197C285.273 17.2529 285.409 17.8142 285.683 18.3035C285.956 18.7928 286.352 19.1814 286.87 19.4693C287.402 19.7571 288.057 19.901 288.834 19.901Z" fill="#02090F"/>
<path d="M13.7473 37.3796V52.7067H12.2582V45.5397H3.17247V52.7067H1.66177V37.3796H3.17247V44.2013H12.2582V37.3796H13.7473Z" fill="#02090F"/>
<path d="M22.3428 37.3796H23.6161L29.9826 52.7067H28.3856L26.4001 47.9143H19.5156L17.5517 52.7067H15.9331L22.3428 37.3796ZM26.0548 46.727L22.9687 39.1498L19.8394 46.727H26.0548Z" fill="#02090F"/>
<path d="M33.8626 52.7499V51.4762H34.8337C35.1646 51.4762 35.4092 51.3827 35.5675 51.1956C35.7401 51.0085 35.9272 50.7279 36.1286 50.3537L36.7976 48.9505L30.2585 37.3796H31.9202L37.4882 47.4178L42.1282 37.3796H43.7037L37.294 51.0877C37.0062 51.6777 36.7113 52.1023 36.4092 52.3613C36.107 52.6204 35.6826 52.7499 35.1359 52.7499H33.8626Z" fill="#02090F"/>
<path d="M54.0457 52.7067V46.101C53.7292 46.2449 53.3623 46.3816 52.9451 46.5111C52.5278 46.6406 52.0746 46.7486 51.5854 46.8349C51.0963 46.9069 50.5711 46.9429 50.01 46.9429C48.3123 46.9429 47.0605 46.5759 46.2548 45.8419C45.4491 45.0935 45.0463 43.9134 45.0463 42.3016V37.3796H46.5138V42.1289C46.5138 43.3234 46.8016 44.1941 47.3771 44.7409C47.967 45.2878 48.9165 45.5613 50.2258 45.5613C50.9596 45.5613 51.6718 45.4821 52.3624 45.3238C53.0674 45.1655 53.6285 44.9712 54.0457 44.7409V37.3796H55.5132V52.7067H54.0457Z" fill="#02090F"/>
<path d="M71.4523 37.3796V52.7067H69.9632V45.5397H60.8774V52.7067H59.3667V37.3796H60.8774V44.2013H69.9632V37.3796H71.4523Z" fill="#02090F"/>
<path d="M81.4721 52.8146C80.393 52.8146 79.4147 52.5988 78.537 52.167C77.6594 51.7353 76.9041 51.1524 76.271 50.4184C75.6379 49.6701 75.1488 48.8354 74.8035 47.9143C74.4582 46.9788 74.2855 46.0218 74.2855 45.0432C74.2855 44.0214 74.4654 43.0499 74.8251 42.1289C75.1847 41.1934 75.6883 40.3659 76.3357 39.6463C76.9976 38.9123 77.7673 38.3367 78.645 37.9193C79.5226 37.4876 80.4722 37.2717 81.4937 37.2717C82.5728 37.2717 83.5511 37.4948 84.4288 37.9409C85.3064 38.387 86.0546 38.9843 86.6732 39.7327C87.3063 40.481 87.7955 41.3157 88.1408 42.2368C88.4861 43.1579 88.6587 44.1005 88.6587 45.0648C88.6587 46.0866 88.4789 47.0652 88.1192 48.0007C87.7595 48.9217 87.2559 49.7492 86.6085 50.4832C85.961 51.2028 85.1985 51.7713 84.3209 52.1886C83.4432 52.606 82.4936 52.8146 81.4721 52.8146ZM75.7962 45.0432C75.7962 45.8779 75.9329 46.6838 76.2063 47.461C76.4796 48.2237 76.8681 48.9073 77.3717 49.5118C77.8752 50.1018 78.4723 50.5768 79.1629 50.9365C79.8679 51.2819 80.6376 51.4546 81.4721 51.4546C82.3498 51.4546 83.1339 51.2747 83.8245 50.915C84.5295 50.5408 85.1266 50.0515 85.6157 49.447C86.1193 48.8282 86.5006 48.1374 86.7596 47.3746C87.0185 46.6119 87.148 45.8347 87.148 45.0432C87.148 44.2085 87.0113 43.4097 86.738 42.647C86.4646 41.8842 86.069 41.2006 85.551 40.5962C85.0474 39.9917 84.4503 39.5168 83.7597 39.1714C83.0691 38.826 82.3066 38.6533 81.4721 38.6533C80.6089 38.6533 79.8247 38.8332 79.1197 39.193C78.4291 39.5528 77.8321 40.0421 77.3285 40.6609C76.8393 41.2654 76.458 41.949 76.1847 42.7117C75.9257 43.4745 75.7962 44.2516 75.7962 45.0432Z" fill="#02090F"/>
<path d="M90.989 47.5041V46.1441H97.2908V47.5041H90.989Z" fill="#02090F"/>
<path d="M106.784 52.8146C105.705 52.8146 104.726 52.5988 103.849 52.167C102.971 51.7353 102.216 51.1524 101.583 50.4184C100.95 49.6701 100.461 48.8354 100.115 47.9143C99.7699 46.9788 99.5973 46.0218 99.5973 45.0432C99.5973 44.0214 99.7771 43.0499 100.137 42.1289C100.497 41.1934 101 40.3659 101.648 39.6463C102.309 38.9123 103.079 38.3367 103.957 37.9193C104.834 37.4876 105.784 37.2717 106.805 37.2717C107.885 37.2717 108.863 37.4948 109.741 37.9409C110.618 38.387 111.366 38.9843 111.985 39.7327C112.618 40.481 113.107 41.3157 113.453 42.2368C113.798 43.1579 113.97 44.1005 113.97 45.0648C113.97 46.0866 113.791 47.0652 113.431 48.0007C113.071 48.9217 112.568 49.7492 111.92 50.4832C111.273 51.2028 110.51 51.7713 109.633 52.1886C108.755 52.606 107.805 52.8146 106.784 52.8146ZM101.108 45.0432C101.108 45.8779 101.245 46.6838 101.518 47.461C101.791 48.2237 102.18 48.9073 102.683 49.5118C103.187 50.1018 103.784 50.5768 104.475 50.9365C105.18 51.2819 105.949 51.4546 106.784 51.4546C107.662 51.4546 108.446 51.2747 109.136 50.915C109.841 50.5408 110.438 50.0515 110.928 49.447C111.431 48.8282 111.812 48.1374 112.071 47.3746C112.33 46.6119 112.46 45.8347 112.46 45.0432C112.46 44.2085 112.323 43.4097 112.05 42.647C111.776 41.8842 111.381 41.2006 110.863 40.5962C110.359 39.9917 109.762 39.5168 109.072 39.1714C108.381 38.826 107.618 38.6533 106.784 38.6533C105.921 38.6533 105.137 38.8332 104.432 39.193C103.741 39.5528 103.144 40.0421 102.64 40.6609C102.151 41.2654 101.77 41.949 101.496 42.7117C101.237 43.4745 101.108 44.2516 101.108 45.0432Z" fill="#02090F"/>
<path d="M116.819 52.7067V37.3796H127.091V38.7181H118.329V44.0501H123.379C125.063 44.0501 126.307 44.4459 127.113 45.2375C127.919 46.0146 128.322 47.0292 128.322 48.2813C128.322 49.1016 128.142 49.85 127.782 50.5264C127.437 51.1884 126.904 51.7209 126.185 52.1239C125.48 52.5124 124.588 52.7067 123.509 52.7067H116.819ZM118.329 51.3683H123.336C124.171 51.3683 124.84 51.2172 125.343 50.915C125.847 50.6127 126.214 50.2242 126.444 49.7492C126.674 49.2599 126.789 48.7562 126.789 48.2381C126.789 47.72 126.689 47.2379 126.487 46.7918C126.286 46.3312 125.926 45.9642 125.408 45.6908C124.905 45.403 124.192 45.259 123.272 45.259H118.329V51.3683Z" fill="#02090F"/>
<path d="M130.897 52.7067V37.3796H137.242C137.904 37.3796 138.508 37.5164 139.055 37.7898C139.616 38.0632 140.098 38.4374 140.501 38.9123C140.904 39.3729 141.22 39.891 141.451 40.4666C141.681 41.0279 141.796 41.6036 141.796 42.1936C141.796 43.0283 141.609 43.8199 141.235 44.5682C140.875 45.3022 140.364 45.8995 139.702 46.36C139.041 46.8205 138.264 47.0508 137.372 47.0508H132.408V52.7067H130.897ZM132.408 45.7124H137.307C137.911 45.7124 138.436 45.5469 138.882 45.2159C139.328 44.8849 139.674 44.4531 139.918 43.9206C140.163 43.3881 140.285 42.8125 140.285 42.1936C140.285 41.5604 140.141 40.9775 139.854 40.445C139.566 39.9126 139.184 39.4952 138.71 39.193C138.249 38.8764 137.739 38.7181 137.177 38.7181H132.408V45.7124Z" fill="#02090F"/>
<path d="M148.016 37.3796H149.29L155.656 52.7067H154.059L152.074 47.9143H145.189L143.225 52.7067H141.607L148.016 37.3796ZM151.729 46.727L148.642 39.1498L145.513 46.727H151.729Z" fill="#02090F"/>
<path d="M161.61 52.901C160.56 52.901 159.617 52.6779 158.783 52.2318C157.948 51.7713 157.294 51.138 156.819 50.3321L157.984 49.6197C158.344 50.2529 158.833 50.7423 159.452 51.0877C160.071 51.4331 160.783 51.6058 161.589 51.6058C162.682 51.6058 163.545 51.3251 164.178 50.7638C164.826 50.1882 165.149 49.4254 165.149 48.4756C165.149 47.8711 165.013 47.3386 164.739 46.8781C164.48 46.4032 164.106 46.0362 163.617 45.7771C163.128 45.5181 162.538 45.3886 161.847 45.3886H160.38V44.1797H161.869C162.401 44.1797 162.869 44.0573 163.272 43.8127C163.675 43.5536 163.991 43.2154 164.221 42.7981C164.452 42.3807 164.567 41.913 164.567 41.3949C164.567 40.8336 164.437 40.3443 164.178 39.9269C163.934 39.5096 163.581 39.1786 163.121 38.9339C162.675 38.6893 162.15 38.5669 161.545 38.5669C160.812 38.5669 160.164 38.7324 159.603 39.0635C159.042 39.3945 158.596 39.855 158.265 40.445L157.164 39.7111C157.61 38.9195 158.2 38.3007 158.934 37.8546C159.682 37.4084 160.574 37.1853 161.61 37.1853C162.488 37.1853 163.25 37.358 163.898 37.7034C164.56 38.0345 165.077 38.5022 165.452 39.1066C165.84 39.6967 166.034 40.3947 166.034 41.2006C166.034 41.9778 165.84 42.6829 165.452 43.3162C165.077 43.935 164.531 44.4027 163.811 44.7194C164.718 44.964 165.416 45.4389 165.905 46.1441C166.408 46.8493 166.66 47.6696 166.66 48.6051C166.66 49.4974 166.444 50.2673 166.013 50.915C165.581 51.5482 164.984 52.0375 164.221 52.3829C163.473 52.7283 162.603 52.901 161.61 52.901Z" fill="#02090F"/>
<path d="M175.701 52.8146C174.622 52.8146 173.644 52.5988 172.766 52.167C171.888 51.7353 171.133 51.1524 170.5 50.4184C169.867 49.6701 169.378 48.8354 169.032 47.9143C168.687 46.9788 168.514 46.0218 168.514 45.0432C168.514 44.0214 168.694 43.0499 169.054 42.1289C169.414 41.1934 169.917 40.3659 170.565 39.6463C171.226 38.9123 171.996 38.3367 172.874 37.9193C173.752 37.4876 174.701 37.2717 175.723 37.2717C176.802 37.2717 177.78 37.4948 178.658 37.9409C179.535 38.387 180.283 38.9843 180.902 39.7327C181.535 40.481 182.024 41.3157 182.37 42.2368C182.715 43.1579 182.888 44.1005 182.888 45.0648C182.888 46.0866 182.708 47.0652 182.348 48.0007C181.988 48.9217 181.485 49.7492 180.837 50.4832C180.19 51.2028 179.427 51.7713 178.55 52.1886C177.672 52.606 176.723 52.8146 175.701 52.8146ZM170.025 45.0432C170.025 45.8779 170.162 46.6838 170.435 47.461C170.709 48.2237 171.097 48.9073 171.601 49.5118C172.104 50.1018 172.701 50.5768 173.392 50.9365C174.097 51.2819 174.867 51.4546 175.701 51.4546C176.579 51.4546 177.363 51.2747 178.053 50.915C178.758 50.5408 179.355 50.0515 179.845 49.447C180.348 48.8282 180.73 48.1374 180.988 47.3746C181.247 46.6119 181.377 45.8347 181.377 45.0432C181.377 44.2085 181.24 43.4097 180.967 42.647C180.694 41.8842 180.298 41.2006 179.78 40.5962C179.276 39.9917 178.679 39.5168 177.989 39.1714C177.298 38.826 176.536 38.6533 175.701 38.6533C174.838 38.6533 174.054 38.8332 173.349 39.193C172.658 39.5528 172.061 40.0421 171.557 40.6609C171.068 41.2654 170.687 41.949 170.414 42.7117C170.155 43.4745 170.025 44.2516 170.025 45.0432Z" fill="#02090F"/>
<path d="M197.26 48.7562C197.26 49.519 197.066 50.2026 196.678 50.807C196.289 51.3971 195.764 51.8648 195.102 52.2102C194.455 52.5412 193.743 52.7067 192.966 52.7067H185.736V37.3796H193.117C193.836 37.3796 194.455 37.5739 194.973 37.9625C195.505 38.3367 195.908 38.826 196.181 39.4304C196.469 40.0205 196.613 40.6393 196.613 41.287C196.613 42.0497 196.419 42.7549 196.03 43.4025C195.642 44.0501 195.102 44.5323 194.412 44.8489C195.289 45.1079 195.98 45.5901 196.483 46.2952C197.001 47.0004 197.26 47.8208 197.26 48.7562ZM195.75 48.4972C195.75 47.9791 195.635 47.5041 195.404 47.0724C195.174 46.6263 194.858 46.2665 194.455 45.993C194.066 45.7196 193.62 45.5829 193.117 45.5829H187.247V51.3899H192.966C193.484 51.3899 193.951 51.2532 194.368 50.9797C194.786 50.7063 195.117 50.3537 195.361 49.9219C195.62 49.4758 195.75 49.0009 195.75 48.4972ZM187.247 38.6965V44.3524H192.512C193.016 44.3524 193.462 44.2228 193.85 43.9638C194.239 43.6904 194.548 43.3378 194.778 42.906C195.009 42.4743 195.124 42.0137 195.124 41.5244C195.124 41.0063 195.016 40.5386 194.8 40.1212C194.584 39.6895 194.289 39.3441 193.915 39.085C193.541 38.826 193.117 38.6965 192.642 38.6965H187.247Z" fill="#02090F"/>
<path d="M204.541 37.3796H205.814L212.181 52.7067H210.584L208.598 47.9143H201.714L199.75 52.7067H198.132L204.541 37.3796ZM208.253 46.727L205.167 39.1498L202.038 46.727H208.253Z" fill="#02090F"/>
<path d="M223.8 38.7181H218.34V52.7067H216.83V38.7181H211.37V37.3796H223.8V38.7181Z" fill="#02090F"/>
<path d="M236.39 51.3683V52.7067H226.096V37.3796H236.196V38.7181H227.606V44.2444H235.095V45.5181H227.606V51.3683H236.39Z" fill="#02090F"/>
<path d="M249.606 52.7067V38.7181H243.347L243.261 41.9562C243.189 44.0717 243.038 45.8275 242.808 47.2235C242.578 48.6195 242.254 49.7205 241.837 50.5264C241.419 51.3179 240.909 51.8864 240.304 52.2318C239.7 52.5628 238.981 52.7283 238.146 52.7283V51.3899C238.707 51.3899 239.204 51.246 239.635 50.9581C240.067 50.6703 240.434 50.1666 240.736 49.447C241.038 48.7274 241.275 47.7344 241.448 46.4679C241.635 45.1871 241.757 43.568 241.815 41.6108L241.944 37.3796H251.095V52.7067H249.606Z" fill="#02090F"/>
<path d="M254.927 52.7067V37.3796H256.438V43.3378H260.322C261.43 43.3378 262.351 43.5321 263.085 43.9206C263.819 44.3092 264.365 44.8561 264.725 45.5613C265.099 46.2665 265.286 47.0868 265.286 48.0222C265.286 48.8713 265.106 49.6557 264.747 50.3753C264.387 51.0949 263.847 51.6633 263.128 52.0807C262.409 52.498 261.509 52.7067 260.43 52.7067H254.927ZM256.438 51.4331H260.236C261.085 51.4331 261.768 51.2747 262.286 50.9581C262.804 50.6271 263.178 50.2026 263.408 49.6845C263.653 49.152 263.775 48.5979 263.775 48.0222C263.775 47.4178 263.667 46.8565 263.452 46.3384C263.236 45.8203 262.869 45.403 262.351 45.0863C261.833 44.7697 261.121 44.6114 260.214 44.6114H256.438V51.4331Z" fill="#02090F"/>
<path d="M280.185 37.3796V52.7067H278.696V45.5397H269.61V52.7067H268.099V37.3796H269.61V44.2013H278.696V37.3796H280.185Z" fill="#02090F"/>
<path d="M284.032 52.7067V37.3796H285.543V43.3378H289.428C290.536 43.3378 291.456 43.5321 292.19 43.9206C292.924 44.3092 293.471 44.8561 293.83 45.5613C294.204 46.2665 294.391 47.0868 294.391 48.0222C294.391 48.8713 294.212 49.6557 293.852 50.3753C293.492 51.0949 292.953 51.6633 292.233 52.0807C291.514 52.498 290.615 52.7067 289.536 52.7067H284.032ZM285.543 51.4331H289.341C290.19 51.4331 290.874 51.2747 291.392 50.9581C291.91 50.6271 292.284 50.2026 292.514 49.6845C292.758 49.152 292.881 48.5979 292.881 48.0222C292.881 47.4178 292.773 46.8565 292.557 46.3384C292.341 45.8203 291.974 45.403 291.456 45.0863C290.938 44.7697 290.226 44.6114 289.32 44.6114H285.543V51.4331ZM297.068 52.7067V37.4012H298.557V52.7067H297.068Z" fill="#02090F"/>
<path d="M302.303 37.3796L307.31 44.0501L312.295 37.3796H314L308.13 45.1511L313.827 52.7067H312.122L307.31 46.2521L302.476 52.7067H300.749L306.447 45.1511L300.576 37.3796H302.303Z" fill="#02090F"/>
<path d="M1.66177 77.8921V62.565H13.2294V77.8921H11.7187V63.9034H3.17247V77.8921H1.66177Z" fill="#02090F"/>
<path d="M17.068 77.8921V62.565H23.4129C24.0748 62.565 24.6791 62.7017 25.2258 62.9751C25.7869 63.2486 26.2689 63.6228 26.6717 64.0977C27.0746 64.5582 27.3911 65.0763 27.6213 65.652C27.8515 66.2133 27.9666 66.7889 27.9666 67.379C27.9666 68.2137 27.7796 69.0052 27.4055 69.7536C27.0458 70.4876 26.5351 71.0848 25.8732 71.5454C25.2114 72.0059 24.4345 72.2361 23.5424 72.2361H18.5787V77.8921H17.068ZM18.5787 70.8977H23.4777C24.082 70.8977 24.6071 70.7322 25.0531 70.4012C25.4991 70.0702 25.8444 69.6385 26.089 69.106C26.3336 68.5735 26.4559 67.9978 26.4559 67.379C26.4559 66.7457 26.312 66.1629 26.0243 65.6304C25.7365 65.0979 25.3553 64.6805 24.8805 64.3783C24.4201 64.0617 23.9093 63.9034 23.3482 63.9034H18.5787V70.8977Z" fill="#02090F"/>
<path d="M36.6654 78C35.5864 78 34.608 77.7841 33.7304 77.3524C32.8527 76.9206 32.0974 76.3378 31.4643 75.6038C30.8313 74.8554 30.3421 74.0207 29.9968 73.0996C29.6515 72.1642 29.4788 71.2071 29.4788 70.2285C29.4788 69.2067 29.6587 68.2353 30.0184 67.3142C30.3781 66.3788 30.8816 65.5512 31.5291 64.8317C32.1909 64.0977 32.9606 63.522 33.8383 63.1047C34.7159 62.6729 35.6655 62.457 36.687 62.457C37.7661 62.457 38.7444 62.6801 39.6221 63.1263C40.4997 63.5724 41.2479 64.1696 41.8666 64.918C42.4996 65.6664 42.9888 66.5011 43.3341 67.4221C43.6794 68.3432 43.852 69.2859 43.852 70.2501C43.852 71.2719 43.6722 72.2505 43.3125 73.186C42.9528 74.1071 42.4493 74.9346 41.8018 75.6686C41.1544 76.3881 40.3918 76.9566 39.5142 77.374C38.6365 77.7913 37.687 78 36.6654 78ZM30.9895 70.2285C30.9895 71.0632 31.1262 71.8692 31.3996 72.6463C31.6729 73.4091 32.0614 74.0927 32.565 74.6971C33.0685 75.2872 33.6656 75.7621 34.3562 76.1219C35.0612 76.4673 35.831 76.64 36.6654 76.64C37.5431 76.64 38.3272 76.4601 39.0178 76.1003C39.7228 75.7261 40.3199 75.2368 40.8091 74.6324C41.3126 74.0135 41.6939 73.3227 41.9529 72.56C42.2119 71.7972 42.3413 71.0201 42.3413 70.2285C42.3413 69.3938 42.2047 68.5951 41.9313 67.8323C41.6579 67.0696 41.2623 66.3859 40.7443 65.7815C40.2408 65.1771 39.6437 64.7021 38.9531 64.3567C38.2625 64.0113 37.4999 63.8386 36.6654 63.8386C35.8022 63.8386 35.0181 64.0185 34.3131 64.3783C33.6225 64.7381 33.0254 65.2274 32.5218 65.8463C32.0326 66.4507 31.6514 67.1343 31.378 67.8971C31.119 68.6598 30.9895 69.437 30.9895 70.2285Z" fill="#02090F"/>
<path d="M56.9946 76.5536V77.8921H46.7003V62.565H56.8004V63.9034H48.211V69.4298H55.6997V70.7034H48.211V76.5536H56.9946Z" fill="#02090F"/>
<path d="M59.8514 77.8921V62.565H61.3621V69.3866H63.6713L68.9372 62.565H70.6853L64.9231 69.9911L71.0522 77.8921H69.1962L63.7145 70.7682H61.3621V77.8921H59.8514Z" fill="#02090F"/>
<path d="M84.4065 63.9034H78.9464V77.8921H77.4357V63.9034H71.9756V62.565H84.4065V63.9034Z" fill="#02090F"/>
<path d="M92.326 78C91.247 78 90.2686 77.7841 89.391 77.3524C88.5133 76.9206 87.758 76.3378 87.1249 75.6038C86.4919 74.8554 86.0027 74.0207 85.6574 73.0996C85.3121 72.1642 85.1394 71.2071 85.1394 70.2285C85.1394 69.2067 85.3193 68.2353 85.679 67.3142C86.0387 66.3788 86.5422 65.5512 87.1897 64.8317C87.8515 64.0977 88.6212 63.522 89.4989 63.1047C90.3765 62.6729 91.3261 62.457 92.3476 62.457C93.4267 62.457 94.4051 62.6801 95.2827 63.1263C96.1603 63.5724 96.9085 64.1696 97.5272 64.918C98.1602 65.6664 98.6494 66.5011 98.9947 67.4221C99.34 68.3432 99.5126 69.2859 99.5126 70.2501C99.5126 71.2719 99.3328 72.2505 98.9731 73.186C98.6134 74.1071 98.1098 74.9346 97.4624 75.6686C96.815 76.3881 96.0524 76.9566 95.1748 77.374C94.2971 77.7913 93.3476 78 92.326 78ZM86.6501 70.2285C86.6501 71.0632 86.7868 71.8692 87.0602 72.6463C87.3335 73.4091 87.722 74.0927 88.2256 74.6971C88.7291 75.2872 89.3262 75.7621 90.0168 76.1219C90.7218 76.4673 91.4916 76.64 92.326 76.64C93.2037 76.64 93.9878 76.4601 94.6784 76.1003C95.3834 75.7261 95.9805 75.2368 96.4697 74.6324C96.9732 74.0135 97.3545 73.3227 97.6135 72.56C97.8725 71.7972 98.0019 71.0201 98.0019 70.2285C98.0019 69.3938 97.8653 68.5951 97.5919 67.8323C97.3185 67.0696 96.9229 66.3859 96.4049 65.7815C95.9014 65.1771 95.3043 64.7021 94.6137 64.3567C93.9231 64.0113 93.1605 63.8386 92.326 63.8386C91.4628 63.8386 90.6787 64.0185 89.9737 64.3783C89.2831 64.7381 88.686 65.2274 88.1824 65.8463C87.6932 66.4507 87.312 67.1343 87.0386 67.8971C86.7796 68.6598 86.6501 69.437 86.6501 70.2285Z" fill="#02090F"/>
<path d="M113.885 73.9416C113.885 74.7043 113.691 75.3879 113.303 75.9924C112.914 76.5824 112.389 77.0501 111.727 77.3955C111.08 77.7266 110.368 77.8921 109.591 77.8921H102.361V62.565H109.742C110.461 62.565 111.08 62.7593 111.598 63.1478C112.13 63.522 112.533 64.0113 112.806 64.6158C113.094 65.2058 113.238 65.8247 113.238 66.4723C113.238 67.2351 113.044 67.9402 112.655 68.5879C112.267 69.2355 111.727 69.7176 111.037 70.0342C111.914 70.2933 112.605 70.7754 113.108 71.4806C113.626 72.1858 113.885 73.0061 113.885 73.9416ZM112.375 73.6825C112.375 73.1644 112.26 72.6895 112.029 72.2577C111.799 71.8116 111.483 71.4518 111.08 71.1784C110.691 70.9049 110.245 70.7682 109.742 70.7682H103.872V76.5752H109.591C110.109 76.5752 110.576 76.4385 110.993 76.1651C111.411 75.8916 111.742 75.539 111.986 75.1073C112.245 74.6611 112.375 74.1862 112.375 73.6825ZM103.872 63.8818V69.5377H109.137C109.641 69.5377 110.087 69.4082 110.475 69.1491C110.864 68.8757 111.173 68.5231 111.403 68.0914C111.634 67.6596 111.749 67.1991 111.749 66.7098C111.749 66.1917 111.641 65.7239 111.425 65.3066C111.209 64.8748 110.914 64.5294 110.54 64.2704C110.166 64.0113 109.742 63.8818 109.267 63.8818H103.872Z" fill="#02090F"/>
</svg>
