<svg width="16" height="16" viewBox="0 0 16 16" fill="none" xmlns="http://www.w3.org/2000/svg">
<path d="M15.1274 0.872594C14.5647 0.309906 13.8166 3.125e-05 13.0208 6.25e-05L2.97919 0C1.33644 6.25e-05 0 1.33653 0 2.97916V13.0208C0 14.6635 1.3365 16 2.97919 16H13.0208C14.6635 16 16 14.6635 16 13.0208V2.97922C16 2.18344 15.6901 1.43528 15.1274 0.872594ZM5.18328 6.79669C5.36631 6.61366 5.66309 6.61366 5.84619 6.79669L7.53125 8.48175L7.53119 3.48122C7.53119 3.22234 7.74106 3.01247 7.99994 3.01247C8.25884 3.01247 8.46869 3.22234 8.46869 3.48122L8.46875 8.48162L10.1537 6.79663C10.3367 6.61359 10.6335 6.61359 10.8166 6.79663C10.9997 6.97966 10.9997 7.27647 10.8166 7.45953L8.33144 9.94478C8.2435 10.0327 8.12428 10.0821 7.99997 10.0821C7.87569 10.0821 7.75644 10.0327 7.66856 9.94478L5.18334 7.45959C5.00022 7.27656 5.00022 6.97975 5.18328 6.79669ZM12.5188 12.9875H3.48125C3.22241 12.9875 3.0125 12.7776 3.0125 12.5188C3.0125 12.2599 3.22241 12.05 3.48125 12.05H12.5188C12.7776 12.05 12.9875 12.2599 12.9875 12.5188C12.9876 12.7776 12.7777 12.9875 12.5188 12.9875Z" fill="black"/>
</svg>
