<svg width="77" height="72" viewBox="0 0 77 72" fill="none" xmlns="http://www.w3.org/2000/svg">
<path d="M76.5301 60.7062C76.5301 66.9427 71.4727 72 65.2362 72C58.9997 72 53.9424 66.9427 53.9424 60.7062C53.9424 54.4697 58.9997 49.4124 65.2362 49.4124C71.4727 49.4124 76.5301 54.4697 76.5301 60.7062Z" fill="black"/>
<path d="M76.5301 60.7062C76.5301 66.9427 71.4727 72 65.2362 72C58.9997 72 53.9424 66.9427 53.9424 60.7062C53.9424 54.4697 58.9997 49.4124 65.2362 49.4124C71.4727 49.4124 76.5301 54.4697 76.5301 60.7062Z" fill="black"/>
<path d="M19.5408 10.7297L0 12.8135V51.8951H19.5408V10.7297Z" fill="black"/>
<path d="M54.1401 0L34.5992 2.08006V49.4124H54.1401V0Z" fill="black"/>
</svg>
