<svg width="76" height="69" viewBox="0 0 76 69" fill="none" xmlns="http://www.w3.org/2000/svg">
<path d="M75.1783 57.4414C75.1783 63.6493 70.1442 68.6834 63.9363 68.6834C57.7284 68.6834 52.6943 63.6493 52.6943 57.4414C52.6943 51.2335 57.7284 46.1994 63.9363 46.1994C70.1442 46.1994 75.1783 51.2335 75.1783 57.4414Z" fill="black"/>
<path d="M75.1783 57.4414C75.1783 63.6493 70.1442 68.6834 63.9363 68.6834C57.7284 68.6834 52.6943 63.6493 52.6943 57.4414C52.6943 51.2335 57.7284 46.1994 63.9363 46.1994C70.1442 46.1994 75.1783 51.2335 75.1783 57.4414Z" fill="black"/>
<path d="M18.9082 9.9541L-1 11.9695V49.7705H18.9082V9.9541Z" fill="black"/>
<path d="M49.3672 0L29.459 2.09514V49.7705H49.3672V0Z" fill="black"/>
</svg>
