<svg width="72" height="16" viewBox="0 0 72 16" fill="none" xmlns="http://www.w3.org/2000/svg">
<path d="M34.5979 2.3978C33.8471 1.28548 33.4235 0.51834 33.231 0.000488281H29.053C29.1685 0.882689 29.207 1.74571 29.207 2.85803V12.9456C29.207 14.3647 29.1685 15.2086 29.053 15.9565H33.1539C33.0384 15.1319 32.9998 14.288 32.9998 12.9648V8.66891C32.9998 7.72918 32.9613 6.67439 32.8651 5.81137C33.4042 6.8278 33.7315 7.40318 34.2513 8.17023L37.8132 13.5209C38.4677 14.5181 38.9106 15.2278 39.2571 15.9565H43.4736C43.3773 15.151 43.3196 14.2688 43.3196 13.099V2.91556C43.3196 1.66901 43.3581 0.863513 43.4736 0.000488281H39.3726C39.4882 0.882689 39.5267 1.64983 39.5267 2.91556V7.28812C39.5267 8.36209 39.5652 9.24429 39.6422 10.1265C39.18 9.28264 38.8143 8.66891 38.2559 7.84433L34.5979 2.3978ZM22.4299 0.000488281C22.5454 0.844337 22.584 1.40054 22.584 2.83886V13.1183C22.584 14.4032 22.5454 15.2087 22.4299 15.9566H26.6656C26.5501 15.1511 26.5116 14.4415 26.5116 13.1183V2.83886C26.5116 1.4388 26.5501 0.786808 26.6656 0.000488281H22.4299ZM16.808 15.9566C16.8658 15.4963 17.0391 14.7675 17.2893 13.8662L20.3698 2.37862C20.6201 1.41972 20.8897 0.51834 21.0822 0.000579158H16.7118C16.6925 0.671841 16.6155 1.22804 16.423 2.11016L15.2101 7.82524C15.1331 8.13206 14.9983 9.05262 14.9405 9.47459C14.825 10.2801 14.825 10.2801 14.7865 10.6444C14.5363 9.09106 14.4015 8.45815 14.2474 7.84451L12.6879 1.93766C12.4377 1.03628 12.3222 0.499345 12.2452 0.000670034H8.81811C8.7411 0.537698 8.62559 1.13216 8.39448 1.99519L6.85418 7.94021C6.73867 8.343 6.60391 9.03335 6.31505 10.6443C6.08403 9.12923 5.94927 8.22794 5.89151 7.94021L4.65932 2.11006C4.50531 1.30457 4.40905 0.690926 4.3898 0.000488281H0C0.192515 0.51834 0.462128 1.40054 0.731558 2.37853L3.81207 13.8853C4.10094 14.9976 4.1972 15.4003 4.29345 15.9565H8.12487C8.18263 15.4387 8.29813 14.8826 8.5484 13.9237L9.97311 8.26612C10.2042 7.36483 10.4352 6.15654 10.5507 5.37022C10.7433 6.63595 10.8974 7.51815 11.0899 8.26612L12.5531 13.9044C12.7456 14.6715 12.8804 15.3427 12.9575 15.9565H16.808V15.9566Z" fill="#02090F"/>
<path d="M54.2074 9.75601C54.2074 11.7475 53.0907 13.0815 51.4157 13.0815C49.7599 13.0815 48.4892 11.6724 48.4892 9.81236C48.4892 7.98998 49.7406 6.67481 51.4927 6.67481C53.1869 6.67481 54.2074 7.83966 54.2074 9.75601ZM48.4625 15.9566L48.4594 15.8284C48.4572 15.7345 48.4314 14.7257 48.4314 14.6693C49.6829 15.6839 50.6263 15.956 52.2244 15.956C53.9187 15.956 55.2279 15.4676 56.2289 14.4906C57.3456 13.3445 57.9425 11.7287 57.9425 9.71848C57.9425 5.99837 55.9017 3.81908 52.3976 3.81908C50.7996 3.81908 49.5674 4.25114 48.4314 5.22813C48.4507 4.96512 48.4507 4.79599 48.4507 4.51416V2.93597C48.4507 1.56446 48.4909 0.901832 48.5872 0H44.6788C44.7943 0.901832 44.831 1.56464 44.831 2.93597V12.6681C44.831 13.9261 44.7915 15.0548 44.676 15.9566H48.4625Z" fill="#02090F"/>
<path d="M62.7009 9.75601C62.7009 11.7475 63.8176 13.0815 65.4925 13.0815C67.1484 13.0815 68.419 11.6724 68.419 9.81236C68.419 7.98998 67.1676 6.67481 65.4155 6.67481C63.7212 6.67481 62.7009 7.83966 62.7009 9.75601ZM68.4457 15.9566L68.4488 15.8284C68.4511 15.7345 68.4768 14.7257 68.4768 14.6693C67.2254 15.6839 66.2819 15.956 64.6839 15.956C62.9896 15.956 61.6804 15.4676 60.6792 14.4906C59.5625 13.3445 58.9656 11.7287 58.9656 9.71848C58.9656 5.99837 61.0065 3.81908 64.5105 3.81908C66.1086 3.81908 67.3408 4.25114 68.4767 5.22813C68.4575 4.96512 68.4575 4.79599 68.4575 4.51416V2.93597C68.4575 1.56446 68.4172 0.901832 68.321 0H72.2294C72.1139 0.901832 72.0771 1.56464 72.0771 2.93597V12.6681C72.0771 13.9261 72.1166 15.0548 72.2321 15.9566H68.4457Z" fill="#02090F"/>
</svg>
