<svg width="1082" height="655" viewBox="0 0 1082 655" fill="none" xmlns="http://www.w3.org/2000/svg">
<path fill-rule="evenodd" clip-rule="evenodd" d="M542.49 655C533.745 655 525.002 651.684 518.37 645.049L508.404 635.082L502.375 629.053L241.696 368.378L517.693 92.3778C520.077 89.9975 522.737 88.0554 525.565 86.5292C525.126 86.9116 524.698 87.3127 524.278 87.7282L302.72 309.29C292.704 319.306 292.704 335.693 302.72 345.71L524.278 567.268C529.288 572.275 535.889 574.779 542.49 574.779C549.091 574.779 555.691 572.275 560.698 567.268L782.259 345.71C792.276 335.693 792.276 319.306 782.259 309.29L560.698 87.7282L562.105 89.1368C563.436 90.1217 564.725 91.1755 565.931 92.3778L842.602 369.052L843.107 368.548L581.029 630.625L575 636.658L566.606 645.049C559.973 651.684 551.232 655 542.49 655V655ZM214.988 327.499C214.988 318.756 218.307 310.014 224.939 303.382L502.375 25.9463L508.404 19.9146L518.37 9.94762C525.002 3.31606 533.745 0 542.49 0C551.232 0 559.973 3.31606 566.606 9.94762L575 18.3421L581.029 24.3711L664.416 107.758L566.606 9.95093C559.973 3.31606 551.232 0 542.49 0C533.745 0 525.002 3.31606 518.37 9.95093L224.939 303.382C218.307 310.014 214.988 318.756 214.988 327.499V327.499Z" fill="#2B2A29"/>
<path fill-rule="evenodd" clip-rule="evenodd" d="M842.602 369.052L565.931 92.3778C564.725 91.1755 563.436 90.1217 562.105 89.1368L560.698 87.7282C555.697 82.7282 549.109 80.2326 542.52 80.2326C536.507 80.2326 530.488 82.3121 525.674 86.4702C525.639 86.4889 525.602 86.5071 525.565 86.5292C522.737 88.0554 520.077 89.9975 517.693 92.3778L241.696 368.378L224.939 351.618C218.307 344.985 214.988 336.24 214.988 327.499C214.988 318.756 218.307 310.014 224.939 303.382L518.37 9.95093C525.002 3.31606 533.745 0 542.49 0C551.232 0 559.973 3.31606 566.606 9.95093L664.416 107.758L860.04 303.382C873.304 316.646 873.304 338.351 860.04 351.618L843.107 368.548L842.602 369.052Z" fill="#C10E24"/>
<path fill-rule="evenodd" clip-rule="evenodd" d="M836.452 574.776C829.852 574.776 823.25 572.272 818.244 567.265L794.898 543.92L993.792 345.029C998.273 340.548 1000.75 334.789 1001.22 328.898H1081.43C1081.78 323.046 1080.66 317.122 1078.03 311.752C1083.56 323.036 1082.47 336.782 1074.82 347.112L854.664 567.265C849.654 572.272 843.053 574.776 836.452 574.776V574.776ZM1078.03 311.746C1078.02 311.727 1078.01 311.705 1078 311.687C1078.01 311.705 1078.02 311.727 1078.03 311.746ZM1077.99 311.668C1077.98 311.652 1077.97 311.636 1077.96 311.622C1077.97 311.636 1077.98 311.652 1077.99 311.668ZM1077.95 311.59C1077.95 311.581 1077.94 311.569 1077.93 311.556C1077.94 311.569 1077.95 311.581 1077.95 311.59ZM1077.91 311.516C1077.91 311.506 1077.91 311.5 1077.9 311.49C1077.91 311.5 1077.91 311.506 1077.91 311.516ZM1077.88 311.441C1077.87 311.435 1077.87 311.428 1077.87 311.422C1077.87 311.428 1077.87 311.435 1077.88 311.441ZM1077.83 311.36C1077.83 311.36 1077.83 311.36 1077.83 311.357C1077.83 311.36 1077.83 311.36 1077.83 311.36ZM994.049 308.871C994.049 308.871 994.049 308.871 994.049 308.868C994.049 308.871 994.049 308.871 994.049 308.871ZM993.99 308.809C993.988 308.805 993.984 308.803 993.984 308.803C993.984 308.803 993.988 308.805 993.99 308.809ZM993.929 308.744C993.925 308.744 993.923 308.74 993.919 308.737C993.923 308.74 993.925 308.744 993.929 308.744ZM993.863 308.681C993.863 308.678 993.857 308.675 993.857 308.672C993.86 308.675 993.863 308.678 993.863 308.681Z" fill="#C10E24"/>
<path fill-rule="evenodd" clip-rule="evenodd" d="M245.047 574.782C238.446 574.782 231.845 572.278 226.835 567.271L6.68312 347.117C-1.21527 336.458 -2.12346 322.165 4.01593 310.688C4.42368 310.216 4.82812 309.74 5.27614 309.293L226.835 87.7312C227.637 86.9295 228.479 86.1935 229.359 85.5192C228.479 86.1935 227.637 86.9295 226.835 87.7312L5.27614 309.293C4.82812 309.74 4.42368 310.216 4.01593 310.688C0.995618 316.335 -0.309838 322.662 0.074185 328.903H80.277C80.7487 334.795 83.2261 340.554 87.7075 345.035L286.601 543.926L263.255 567.271C258.248 572.278 251.648 574.782 245.047 574.782V574.782ZM87.3841 308.942C87.3869 308.942 87.3869 308.939 87.3869 308.939C87.3869 308.939 87.3869 308.942 87.3841 308.942ZM87.4459 308.88C87.4492 308.877 87.452 308.874 87.4553 308.871C87.452 308.874 87.4492 308.877 87.4459 308.88ZM87.505 308.818C87.511 308.815 87.5143 308.808 87.5171 308.805C87.5143 308.808 87.511 308.815 87.505 308.818ZM87.5673 308.755C87.5734 308.749 87.5761 308.746 87.5822 308.739C87.5761 308.746 87.5734 308.749 87.5673 308.755ZM87.6324 308.69C87.6352 308.686 87.6413 308.68 87.6451 308.678C87.6413 308.68 87.6352 308.686 87.6324 308.69ZM87.7075 308.615L285.919 110.4L263.255 87.7312C258.248 82.7251 251.648 80.2207 245.047 80.2207C251.648 80.2207 258.248 82.7251 263.255 87.7312L285.923 110.4L87.7075 308.615Z" fill="#C10E24"/>
<path d="M451.5 238.225C452.712 238.225 453.304 239.053 453.304 240.738V292.88C453.304 294.773 452.919 295.719 452.18 295.719H405.806C405.363 295.719 405.156 295.482 405.215 295.039V239.289C405.215 238.934 405.599 238.58 406.338 238.225H419.795C420.298 238.284 420.534 238.52 420.475 238.934V279.749H421.421H436.476C437.865 279.749 438.576 279.068 438.576 277.678V238.225H451.5ZM458.864 238.225H471.877C472.439 238.225 472.735 238.757 472.735 239.792L472.646 353.924C472.646 354.752 471.67 355.166 469.689 355.166H459.545C458.214 355.166 457.563 354.663 457.563 353.687L457.651 239.467C457.651 238.639 458.066 238.225 458.864 238.225ZM399.21 238.225C400.305 238.698 400.896 239.171 400.955 239.703V352.209C400.955 354.249 399.743 355.225 397.288 355.166H387.262C386.937 355.166 386.582 354.811 386.227 354.101L386.316 240.827C386.671 239.082 387.055 238.225 387.439 238.225H399.21ZM452.269 298.913C452.949 298.913 453.304 299.297 453.304 300.038V353.599C453.304 354.634 452.919 355.166 452.18 355.166H439.877C438.901 355.166 438.398 354.515 438.398 353.185V314.174L436.653 313.819L422.575 313.731C421.274 313.731 420.475 314.204 420.12 315.121V353.421C420.12 354.575 419.854 355.166 419.351 355.166H406.664C405.688 355.166 405.215 354.101 405.215 351.943V300.038C405.333 299.297 406.279 298.913 408.054 298.913H452.269ZM545.52 238.225C560.308 238.225 574.12 244.466 587.015 256.946C594.97 267.09 599.496 275.963 600.531 283.534C600.945 283.534 601.507 287.557 602.246 295.66V297.73C602.246 303.675 600.531 311.306 597.071 320.592C594.645 326.832 589.203 333.753 580.774 341.294C577.758 344.075 573.173 346.973 566.992 349.96C562.881 352.061 555.961 353.776 546.201 355.166H542.386C536.204 355.166 528.366 353.332 518.814 349.635C514.791 347.476 510.414 344.608 505.741 340.969C496.307 331.772 490.539 323.727 488.41 316.777C486.487 312.163 485.245 305.834 484.595 297.73V297.05V292.88C484.595 286.196 487.493 277.324 493.261 266.291C505.682 247.571 523.102 238.225 545.52 238.225ZM499.323 296.695C499.323 310.271 505.327 321.893 517.305 331.594C525.912 337.125 534.815 340.5 542.386 340.5C542.386 340.368 542.96 340.786 542.386 340.5C555.386 340.5 566.785 335.202 576.93 325.088C583.88 315.978 587.34 306.839 587.34 297.73C587.34 278.684 578.512 264.607 560.5 256C554.555 253.694 548.33 252.5 542.711 252.5C529.342 252.5 518.192 258.276 508.698 269.309C502.458 277.472 499.323 286.581 499.323 296.695ZM542.711 256.147C559.805 256.147 572.374 264.31 580.478 280.665C582.578 285.752 583.614 291.194 583.614 296.961C583.614 311.454 574.947 321.163 573 323.5C571.053 325.837 566.365 329.893 559.5 333C553.54 335.697 547.033 336.732 542.386 336.5C532.386 336 519 331 512 321C505 311 503.5 304.237 503.5 297.05C503.5 281.849 509.674 270.255 523.28 261.678C530.497 257.981 537.003 256.147 542.711 256.147ZM517.423 295.305V297.05C517.423 304.651 521.239 311.483 528.869 317.487C532.152 319.734 536.648 321.36 542.386 322.337C555.073 322.337 563.739 315.978 568.382 303.261C568.826 300.392 569.062 297.967 569.062 295.985C569.062 287.97 565.247 280.932 557.617 274.868C552.885 272.088 547.679 270.698 542.03 270.698C535.228 270.698 528.751 274.158 522.628 281.109C519.731 285.249 518.015 289.982 517.423 295.305ZM699.312 354.989C697.627 354.989 696.828 353.392 696.887 350.226L696.799 281.819C696.68 273.39 695.645 267.977 693.693 265.612C688.903 257.715 682.041 253.663 673.168 253.485H651.489C642.616 253.663 635.755 257.715 630.964 265.612C629.012 267.977 627.976 273.39 627.858 281.819L627.77 350.226C627.829 353.392 627.031 354.989 625.345 354.989L615.821 355.077C614.372 355.077 613.632 353.362 613.573 349.96V282.41C613.514 276.465 614.076 271.556 615.229 267.682H614.874C620.938 248.044 633.951 238.225 653.885 238.225H670.861C690.794 238.225 703.808 248.044 709.871 267.682H709.516C710.669 271.556 711.232 276.465 711.173 282.41V349.96C711.113 353.362 710.374 355.077 708.895 355.077L699.312 354.989ZM678.846 355.166C677.96 355.107 677.515 354.456 677.456 353.185V277.234C677.456 274.129 676.037 272.532 673.198 272.473H668.17H668.081H656.487H656.31H651.371C648.532 272.532 647.112 274.129 647.112 277.234V353.185C647.052 354.456 646.609 355.107 645.722 355.166H634.779C633.004 354.929 632.088 353.362 632.028 350.493V278.802C632.088 278.092 632.088 276.702 632.028 274.543C634.217 263.038 640.96 257.271 652.229 257.212H672.34C683.608 257.271 690.351 263.038 692.54 274.543C692.481 276.702 692.481 278.092 692.54 278.802V350.493C692.481 353.362 691.564 354.929 689.79 355.166H678.846Z" fill="#2B2A29"/>
<path d="M366.953 381.647H372.647V376.21H376.432V391.324H372.647V385.062H366.953V391.324H363.168V376.21H366.953V381.647ZM391.439 376.21H395.224V391.324H391.439V389.716C390.698 390.418 389.954 390.921 389.208 391.229C388.464 391.538 387.653 391.695 386.785 391.695C384.825 391.695 383.136 390.94 381.708 389.427C380.28 387.918 379.568 386.04 379.568 383.795C379.568 381.466 380.261 379.559 381.642 378.069C383.022 376.585 384.697 375.839 386.671 375.839C387.581 375.839 388.431 376.01 389.227 376.347C390.025 376.684 390.76 377.196 391.439 377.87V376.21ZM387.448 379.312C386.272 379.312 385.295 379.725 384.521 380.555C383.744 381.381 383.355 382.444 383.355 383.739C383.355 385.043 383.748 386.115 384.54 386.959C385.333 387.8 386.306 388.222 387.463 388.222C388.653 388.222 389.645 387.809 390.427 386.979C391.215 386.153 391.609 385.067 391.609 383.724C391.609 382.41 391.215 381.348 390.427 380.531C389.645 379.72 388.649 379.312 387.448 379.312ZM397.354 376.21H401.245L405.159 385.674L409.495 376.21H413.375L403.92 396.847H400.04L403.114 390.209L397.354 376.21V376.21ZM423.779 385.319H420.728C418.665 385.319 417.076 384.925 415.965 384.132C414.855 383.34 414.3 382.036 414.3 380.223V376.21H418.087V379.928C418.087 381.253 418.978 381.917 420.766 381.917L422.252 381.903H423.779V376.21H427.565V391.324H423.779V385.319ZM435.169 381.647H440.863V376.21H444.649V391.324H440.863V385.062H435.169V391.324H431.384V376.21H435.169V381.647ZM455.58 375.839C457.008 375.839 458.35 376.195 459.608 376.907C460.869 377.619 461.847 378.582 462.554 379.801C463.26 381.025 463.611 382.339 463.611 383.753C463.611 385.176 463.255 386.505 462.549 387.742C461.837 388.981 460.869 389.948 459.645 390.646C458.417 391.344 457.07 391.695 455.594 391.695C453.421 391.695 451.567 390.927 450.034 389.389C448.497 387.847 447.728 385.978 447.728 383.781C447.728 381.424 448.596 379.459 450.332 377.889C451.856 376.523 453.601 375.839 455.58 375.839ZM455.636 379.398C454.455 379.398 453.473 379.805 452.69 380.622C451.907 381.442 451.514 382.486 451.514 383.763C451.514 385.071 451.903 386.134 452.677 386.945C453.45 387.757 454.431 388.164 455.622 388.164C456.808 388.164 457.795 387.752 458.588 386.931C459.375 386.111 459.769 385.053 459.769 383.763C459.769 382.468 459.379 381.418 458.606 380.608C457.833 379.801 456.841 379.398 455.636 379.398ZM467.231 382.016H474.29V385.546H467.231V382.016ZM485.757 375.839C487.185 375.839 488.528 376.195 489.785 376.907C491.046 377.619 492.025 378.582 492.731 379.801C493.438 381.025 493.789 382.339 493.789 383.753C493.789 385.176 493.433 386.505 492.726 387.742C492.015 388.981 491.046 389.948 489.823 390.646C488.594 391.344 487.247 391.695 485.772 391.695C483.598 391.695 481.744 390.927 480.211 389.389C478.674 387.847 477.906 385.978 477.906 383.781C477.906 381.424 478.773 379.459 480.509 377.889C482.033 376.523 483.779 375.839 485.757 375.839V375.839ZM485.814 379.398C484.633 379.398 483.65 379.805 482.868 380.622C482.085 381.442 481.691 382.486 481.691 383.763C481.691 385.071 482.08 386.134 482.854 386.945C483.627 387.757 484.608 388.164 485.8 388.164C486.985 388.164 487.972 387.752 488.765 386.931C489.553 386.111 489.946 385.053 489.946 383.763C489.946 382.468 489.557 381.418 488.784 380.608C488.011 379.801 487.019 379.398 485.814 379.398ZM511.357 370.033V373.62C510.27 373.743 509.217 373.809 508.192 373.818C506.337 373.838 504.937 373.918 503.998 374.06C503.064 374.208 502.234 374.54 501.522 375.061C500.806 375.583 500.298 376.185 500.004 376.869C499.705 377.548 499.525 378.53 499.458 379.805C500.554 377.201 502.437 375.897 505.103 375.897C507.063 375.897 508.762 376.613 510.199 378.041C511.636 379.469 512.353 381.31 512.353 383.568C512.353 385.897 511.579 387.832 510.038 389.379C508.495 390.921 506.593 391.695 504.326 391.695C502.475 391.695 500.848 391.13 499.439 390.001C498.03 388.872 497.128 387.524 496.725 385.964C496.327 384.403 496.128 382.738 496.128 380.972C496.128 378.701 496.412 376.855 496.977 375.437C497.546 374.013 498.291 372.945 499.216 372.234C500.136 371.523 501.208 371.043 502.423 370.801C503.642 370.565 505.431 370.389 507.789 370.289C509.388 370.213 510.579 370.128 511.357 370.033V370.033ZM508.511 383.739C508.511 382.481 508.13 381.437 507.371 380.612C506.612 379.782 505.611 379.369 504.364 379.369C503.168 379.369 502.181 379.787 501.398 380.622C500.615 381.452 500.227 382.496 500.227 383.739C500.227 385.053 500.615 386.115 501.394 386.921C502.172 387.733 503.154 388.136 504.35 388.136C505.521 388.136 506.508 387.733 507.309 386.921C508.111 386.115 508.511 385.053 508.511 383.739ZM519.207 376.21V377.87C519.891 377.196 520.631 376.684 521.428 376.347C522.225 376.01 523.079 375.839 523.985 375.839C525.954 375.839 527.628 376.585 529.009 378.069C530.39 379.559 531.078 381.466 531.078 383.795C531.078 386.04 530.366 387.918 528.938 389.427C527.515 390.94 525.826 391.695 523.871 391.695C523.004 391.695 522.192 391.538 521.443 391.229C520.693 390.921 519.948 390.413 519.207 389.707V396.847H515.422V376.21H519.207V376.21ZM523.183 379.312C521.993 379.312 521.001 379.72 520.218 380.531C519.431 381.348 519.038 382.41 519.038 383.724C519.038 385.067 519.431 386.153 520.218 386.979C521.001 387.809 521.993 388.222 523.183 388.222C524.341 388.222 525.313 387.8 526.106 386.959C526.898 386.115 527.292 385.043 527.292 383.739C527.292 382.444 526.903 381.381 526.125 380.555C525.351 379.725 524.37 379.312 523.183 379.312ZM545.4 376.21H549.186V391.324H545.4V389.716C544.659 390.418 543.915 390.921 543.17 391.229C542.425 391.538 541.614 391.695 540.746 391.695C538.787 391.695 537.098 390.94 535.67 389.427C534.242 387.918 533.53 386.04 533.53 383.795C533.53 381.466 534.223 379.559 535.603 378.069C536.984 376.585 538.659 375.839 540.632 375.839C541.543 375.839 542.392 376.01 543.19 376.347C543.987 376.684 544.721 377.196 545.4 377.87V376.21V376.21ZM541.41 379.312C540.234 379.312 539.257 379.725 538.484 380.555C537.706 381.381 537.316 382.444 537.316 383.739C537.316 385.043 537.71 386.115 538.502 386.959C539.295 387.8 540.267 388.222 541.425 388.222C542.615 388.222 543.607 387.809 544.389 386.979C545.177 386.153 545.57 385.067 545.57 383.724C545.57 382.41 545.177 381.348 544.389 380.531C543.607 379.72 542.611 379.312 541.41 379.312V379.312ZM555.538 384.92V382.215H556.288C556.795 382.215 557.237 382.097 557.616 381.855C557.995 381.618 558.186 381.233 558.186 380.698C558.186 380.237 558.015 379.858 557.677 379.559C557.337 379.26 556.919 379.113 556.426 379.113C555.803 379.113 555.021 379.411 554.081 380.014L552.601 377.396C553.906 376.356 555.362 375.839 556.966 375.839C558.441 375.839 559.661 376.219 560.634 376.983C561.601 377.747 562.084 378.771 562.084 380.067C562.084 381.381 561.378 382.444 559.964 383.255C561.853 383.947 562.796 385.2 562.796 387.012C562.796 388.359 562.27 389.479 561.213 390.366C560.154 391.253 558.693 391.695 556.823 391.695C554.775 391.695 553.08 391.12 551.748 389.972L553.826 387.335C554.727 388.003 555.586 388.336 556.402 388.336C557.052 388.336 557.569 388.179 557.953 387.87C558.337 387.562 558.527 387.164 558.527 386.675C558.527 386.205 558.347 385.797 557.991 385.447C557.635 385.096 557.146 384.92 556.525 384.92H555.538V384.92ZM572.931 375.839C574.359 375.839 575.701 376.195 576.958 376.907C578.22 377.619 579.198 378.582 579.904 379.801C580.611 381.025 580.962 382.339 580.962 383.753C580.962 385.176 580.606 386.505 579.9 387.742C579.188 388.981 578.22 389.948 576.996 390.646C575.767 391.344 574.421 391.695 572.945 391.695C570.771 391.695 568.917 390.927 567.384 389.389C565.847 387.847 565.079 385.978 565.079 383.781C565.079 381.424 565.947 379.459 567.683 377.889C569.206 376.523 570.952 375.839 572.931 375.839V375.839ZM572.987 379.398C571.806 379.398 570.824 379.805 570.041 380.622C569.258 381.442 568.864 382.486 568.864 383.763C568.864 385.071 569.253 386.134 570.027 386.945C570.801 387.757 571.782 388.164 572.973 388.164C574.159 388.164 575.146 387.752 575.938 386.931C576.726 386.111 577.12 385.053 577.12 383.763C577.12 382.468 576.73 381.418 575.957 380.608C575.184 379.801 574.192 379.398 572.987 379.398ZM584.041 391.324V376.21H590.123C592.116 376.21 593.472 376.603 594.184 377.386C594.901 378.168 595.257 379.057 595.257 380.048C595.257 381.523 594.525 382.581 593.064 383.231C595.057 383.919 596.053 385.209 596.053 387.107C596.053 388.132 595.787 388.981 595.261 389.65C594.734 390.324 594.061 390.769 593.249 390.992C592.443 391.215 591.309 391.324 589.853 391.324H584.041V391.324ZM587.827 382.159H589.302C589.933 382.159 590.417 382.002 590.759 381.694C591.1 381.386 591.271 381.04 591.271 380.66C591.271 380.095 591.105 379.658 590.777 379.341C590.45 379.027 590.061 378.871 589.61 378.871L589.122 378.886H587.827V382.159ZM587.827 388.393H589.748C590.498 388.393 591.024 388.222 591.328 387.875C591.632 387.529 591.784 387.192 591.784 386.865C591.784 386.376 591.613 385.93 591.271 385.527C590.929 385.124 590.312 384.92 589.426 384.92H587.827V388.393V388.393ZM610.461 376.21H614.247V391.324H610.461V389.716C609.72 390.418 608.976 390.921 608.231 391.229C607.486 391.538 606.675 391.695 605.807 391.695C603.847 391.695 602.159 390.94 600.731 389.427C599.303 387.918 598.591 386.04 598.591 383.795C598.591 381.466 599.284 379.559 600.664 378.069C602.045 376.585 603.719 375.839 605.693 375.839C606.603 375.839 607.453 376.01 608.25 376.347C609.047 376.684 609.782 377.196 610.461 377.87V376.21V376.21ZM606.471 379.312C605.295 379.312 604.318 379.725 603.544 380.555C602.767 381.381 602.377 382.444 602.377 383.739C602.377 385.043 602.771 386.115 603.563 386.959C604.356 387.8 605.328 388.222 606.486 388.222C607.676 388.222 608.668 387.809 609.45 386.979C610.237 386.153 610.631 385.067 610.631 383.724C610.631 382.41 610.237 381.348 609.45 380.531C608.668 379.72 607.672 379.312 606.471 379.312V379.312ZM616.728 376.21H630.818V379.825H625.779V391.324H621.994V379.825H616.728V376.21ZM648.428 384.835H636.259C636.435 385.911 636.904 386.77 637.663 387.41C638.422 388.046 639.395 388.365 640.572 388.365C641.985 388.365 643.195 387.866 644.21 386.869L647.389 388.374C646.596 389.503 645.644 390.338 644.538 390.883C643.428 391.424 642.113 391.695 640.591 391.695C638.227 391.695 636.302 390.95 634.816 389.455C633.332 387.965 632.587 386.096 632.587 383.852C632.587 381.551 633.332 379.64 634.816 378.122C636.302 376.599 638.162 375.839 640.405 375.839C642.782 375.839 644.718 376.599 646.207 378.112C647.697 379.63 648.442 381.627 648.442 384.118L648.428 384.835V384.835ZM644.656 381.874C644.405 381.048 643.912 380.375 643.176 379.858C642.436 379.341 641.582 379.085 640.604 379.085C639.547 379.085 638.621 379.374 637.82 379.958C637.322 380.318 636.857 380.959 636.43 381.874H644.656V381.874ZM665.052 391.324H661.213L657.399 381.774L653.528 391.324H649.695L656.127 376.21H658.576L665.052 391.324V391.324ZM670.82 381.675H671.949C673.544 381.675 674.763 381.798 675.612 382.041C676.466 382.287 677.182 382.8 677.77 383.572C678.353 384.351 678.648 385.328 678.648 386.5C678.648 387.662 678.383 388.635 677.856 389.403C677.325 390.177 676.651 390.688 675.83 390.945C675.01 391.197 673.861 391.324 672.376 391.324H667.035V376.21H670.82V381.675V381.675ZM670.82 388.393H671.977C672.671 388.393 673.168 388.345 673.477 388.246C673.78 388.151 674.051 387.965 674.284 387.69C674.516 387.41 674.634 387.079 674.634 386.68C674.634 385.394 673.89 384.749 672.4 384.749H670.82V388.393V388.393ZM685.333 381.647H691.026V376.21H694.811V391.324H691.026V385.062H685.333V391.324H681.547V376.21H685.333V381.647ZM709.818 376.21H713.603V391.324H709.818V389.716C709.077 390.418 708.333 390.921 707.588 391.229C706.843 391.538 706.032 391.695 705.164 391.695C703.204 391.695 701.515 390.94 700.087 389.427C698.659 387.918 697.947 386.04 697.947 383.795C697.947 381.466 698.641 379.559 700.021 378.069C701.401 376.585 703.076 375.839 705.05 375.839C705.96 375.839 706.81 376.01 707.607 376.347C708.404 376.684 709.139 377.196 709.818 377.87V376.21V376.21ZM705.828 379.312C704.651 379.312 703.675 379.725 702.901 380.555C702.123 381.381 701.733 382.444 701.733 383.739C701.733 385.043 702.127 386.115 702.919 386.959C703.712 387.8 704.685 388.222 705.842 388.222C707.033 388.222 708.025 387.809 708.807 386.979C709.594 386.153 709.988 385.067 709.988 383.724C709.988 382.41 709.594 381.348 708.807 380.531C708.025 379.72 707.028 379.312 705.828 379.312V379.312ZM720.003 385.124C719.182 384.853 718.508 384.346 717.982 383.601C717.456 382.856 717.194 382.016 717.194 381.082C717.194 379.962 717.512 378.98 718.153 378.14C718.793 377.297 719.557 376.764 720.444 376.542C721.331 376.319 722.712 376.21 724.596 376.21H728.438V391.324H724.652V385.859H723.917L720.297 391.324H715.795L720.003 385.124V385.124ZM724.652 383.013V379.369H723.324C721.877 379.369 721.151 379.972 721.151 381.181C721.151 382.401 721.958 383.013 723.576 383.013H724.652ZM484.344 425.833H480.559V410.719H493.823V425.833H490.038V414.362H484.344V425.833V425.833ZM504.755 410.348C506.183 410.348 507.526 410.704 508.783 411.416C510.044 412.128 511.022 413.091 511.728 414.31C512.435 415.534 512.787 416.848 512.787 418.262C512.787 419.685 512.43 421.014 511.724 422.251C511.012 423.49 510.044 424.457 508.821 425.155C507.591 425.853 506.244 426.204 504.769 426.204C502.596 426.204 500.741 425.435 499.209 423.898C497.671 422.356 496.903 420.487 496.903 418.29C496.903 415.933 497.771 413.968 499.507 412.398C501.03 411.032 502.776 410.348 504.755 410.348V410.348ZM504.811 413.907C503.63 413.907 502.648 414.314 501.865 415.131C501.082 415.951 500.688 416.995 500.688 418.272C500.688 419.58 501.078 420.643 501.851 421.454C502.625 422.266 503.606 422.674 504.797 422.674C505.983 422.674 506.969 422.261 507.762 421.44C508.55 420.62 508.944 419.562 508.944 418.272C508.944 416.977 508.554 415.927 507.781 415.117C507.008 414.31 506.017 413.907 504.811 413.907ZM529.396 425.833H525.558L521.743 416.283L517.872 425.833H514.039L520.472 410.719H522.92L529.396 425.833V425.833ZM533.395 425.833H531.379V410.719H535.079V419.595L542.821 410.719H544.643V425.833H540.943V417.138L533.395 425.833ZM547.125 410.719H561.215V414.334H556.176V425.833H552.391V414.334H547.125V410.719ZM565.712 425.833H563.696V410.719H567.396V419.595L575.138 410.719H576.96V425.833H573.26V417.138L565.712 425.833V425.833ZM580.78 410.719H584.565V416.379L589.827 410.719H594.452L587.683 418.062L594.538 425.833H589.495L584.974 420.506L584.565 420.971V425.833H580.78V410.719ZM607.257 410.719H611.043V425.833H607.257V424.225C606.516 424.927 605.772 425.43 605.027 425.739C604.282 426.047 603.471 426.204 602.603 426.204C600.643 426.204 598.954 425.449 597.527 423.936C596.099 422.427 595.387 420.549 595.387 418.304C595.387 415.975 596.08 414.068 597.46 412.578C598.841 411.094 600.515 410.348 602.489 410.348C603.4 410.348 604.249 410.519 605.046 410.857C605.844 411.193 606.578 411.705 607.257 412.379V410.719V410.719ZM603.267 413.821C602.091 413.821 601.113 414.234 600.34 415.064C599.562 415.89 599.173 416.953 599.173 418.248C599.173 419.552 599.567 420.624 600.359 421.468C601.152 422.309 602.124 422.731 603.282 422.731C604.472 422.731 605.464 422.318 606.246 421.488C607.034 420.662 607.427 419.576 607.427 418.234C607.427 416.919 607.034 415.857 606.246 415.04C605.464 414.229 604.468 413.821 603.267 413.821V413.821Z" fill="#E52933"/>
<path fill-rule="evenodd" clip-rule="evenodd" d="M245.047 84.002C238.446 84.002 231.845 86.5064 226.835 91.513L6.68312 311.667C-1.21527 322.326 -2.12346 336.619 4.01593 348.096C4.42368 348.568 4.82812 349.044 5.27669 349.491L226.835 571.053C227.637 571.855 228.479 572.591 229.359 573.265C228.479 572.591 227.637 571.855 226.835 571.053L5.27669 349.491C4.82812 349.044 4.42368 348.568 4.01593 348.096C0.996169 342.449 -0.309287 336.122 0.0747359 329.881H80.277C80.7493 323.989 83.2266 318.23 87.7075 313.749L286.601 114.858L263.255 91.513C258.249 86.5064 251.648 84.002 245.047 84.002ZM87.3847 349.842C87.3869 349.842 87.3869 349.845 87.3869 349.845C87.3869 349.845 87.3869 349.842 87.3847 349.842ZM87.4459 349.904C87.4498 349.907 87.452 349.91 87.4559 349.913C87.452 349.91 87.4498 349.907 87.4459 349.904ZM87.505 349.966C87.511 349.97 87.5149 349.976 87.5177 349.979C87.5149 349.976 87.511 349.97 87.505 349.966ZM87.5679 350.029C87.5739 350.035 87.5767 350.038 87.5828 350.045C87.5767 350.038 87.5739 350.035 87.5679 350.029ZM87.633 350.094C87.6357 350.098 87.6418 350.104 87.6451 350.106C87.6418 350.104 87.6357 350.098 87.633 350.094ZM87.7075 350.169L285.92 548.384L263.255 571.053C258.249 576.059 251.648 578.563 245.047 578.563C251.648 578.563 258.249 576.059 263.255 571.053L285.923 548.384L87.7075 350.169V350.169Z" fill="#2B2A29"/>
<path fill-rule="evenodd" clip-rule="evenodd" d="M836.452 83.0215C829.852 83.0215 823.25 85.5259 818.244 90.5326L794.898 113.878L993.792 312.768C998.273 317.25 1000.75 323.009 1001.22 328.9H1081.43C1081.78 334.753 1080.66 340.676 1078.03 346.046C1083.56 334.762 1082.47 321.016 1074.82 310.686L854.664 90.5326C849.654 85.5259 843.053 83.0215 836.452 83.0215V83.0215ZM1078.03 346.052C1078.02 346.071 1078.01 346.093 1078 346.111C1078.01 346.093 1078.02 346.071 1078.03 346.052ZM1077.99 346.13C1077.98 346.146 1077.97 346.161 1077.96 346.176C1077.97 346.161 1077.98 346.146 1077.99 346.13ZM1077.95 346.208C1077.95 346.217 1077.94 346.229 1077.93 346.242C1077.94 346.229 1077.95 346.217 1077.95 346.208ZM1077.91 346.282C1077.91 346.292 1077.91 346.298 1077.9 346.308C1077.91 346.298 1077.91 346.292 1077.91 346.282ZM1077.88 346.357C1077.87 346.363 1077.87 346.369 1077.87 346.375C1077.87 346.369 1077.87 346.363 1077.88 346.357ZM1077.83 346.438C1077.83 346.438 1077.83 346.438 1077.83 346.44C1077.83 346.438 1077.83 346.438 1077.83 346.438ZM994.049 348.927C994.049 348.927 994.049 348.927 994.049 348.93C994.049 348.927 994.049 348.927 994.049 348.927ZM993.99 348.989C993.988 348.993 993.984 348.996 993.984 348.996C993.984 348.996 993.988 348.993 993.99 348.989ZM993.929 349.055C993.925 349.055 993.923 349.058 993.919 349.061C993.923 349.058 993.925 349.055 993.929 349.055ZM993.863 349.117C993.863 349.12 993.857 349.123 993.857 349.126C993.86 349.123 993.863 349.12 993.863 349.117Z" fill="#2B2A29"/>
</svg>
