<svg width="28" height="26" viewBox="0 0 28 26" fill="none" xmlns="http://www.w3.org/2000/svg">
<path d="M27.47 21.79C27.47 24.0286 25.6547 25.8439 23.4161 25.8439C21.1776 25.8439 19.3623 24.0286 19.3623 21.79C19.3623 19.5515 21.1776 17.7362 23.4161 17.7362C25.6547 17.7362 27.47 19.5515 27.47 21.79Z" fill="white"/>
<path d="M27.47 21.79C27.47 24.0286 25.6547 25.8439 23.4161 25.8439C21.1776 25.8439 19.3623 24.0286 19.3623 21.79C19.3623 19.5515 21.1776 17.7362 23.4161 17.7362C25.6547 17.7362 27.47 19.5515 27.47 21.79Z" fill="white"/>
<path d="M7.01404 3.85138L0 4.59932V18.6274H7.01404V3.85138Z" fill="white"/>
<path d="M19.433 0L12.4189 0.746623V17.7362H19.433V0Z" fill="white"/>
</svg>
