<svg width="81" height="34" viewBox="0 0 81 34" fill="none" xmlns="http://www.w3.org/2000/svg">
<path d="M37.5012 33.7938V0H37.7602V33.7938H37.5012Z" fill="#02090F"/>
<path d="M42.9463 14.5126H42.6955C42.6197 14.5126 42.6007 14.4938 42.6007 14.3882V14.2527C42.6007 14.166 42.616 14.1434 42.7034 14.1434H42.9426C43.0263 14.1434 43.0226 14.1889 43.0226 14.2715V14.3997C43.0222 14.4901 43.0073 14.5126 42.9463 14.5126ZM42.9463 16.9018H42.6807C42.6123 16.9018 42.6007 16.8679 42.6007 16.7701V14.9877C42.6007 14.9125 42.616 14.8748 42.6919 14.8748H42.9315C43.0226 14.8748 43.0226 14.9051 43.0226 14.9877V16.7701C43.0222 16.8679 43.0189 16.9018 42.9463 16.9018Z" fill="#02090F"/>
<path d="M45.2582 16.9015H45.0116C44.9468 16.9015 44.9126 16.8602 44.9126 16.766V15.5677C44.9126 15.3681 44.8177 15.1949 44.5555 15.1949C44.263 15.1949 44.1339 15.4396 44.1339 15.6242V16.7587C44.1339 16.8569 44.1303 16.9019 44.0581 16.9019H43.8189C43.7351 16.9019 43.7125 16.8606 43.7125 16.7624V14.9907C43.7125 14.9154 43.7278 14.8736 43.8037 14.8736H44.0465C44.1112 14.8736 44.1376 14.9379 44.1376 15.111C44.2667 14.9338 44.4528 14.8282 44.7414 14.8282C45.0639 14.8282 45.341 14.994 45.341 15.4765V16.7276C45.3414 16.8524 45.3266 16.9015 45.2582 16.9015Z" fill="#02090F"/>
<path d="M46.9746 15.217H46.6253C46.6253 15.2849 46.6253 16.3285 46.6253 16.4378C46.6253 16.5622 46.6859 16.6375 46.7886 16.6375C46.8645 16.6375 46.9024 16.6338 46.9783 16.615C47.0199 16.6076 47.0505 16.8826 47.0162 16.8978C46.9556 16.9203 46.8001 16.9428 46.6595 16.9428C46.295 16.9428 46.1848 16.6981 46.1848 16.4493C46.1848 16.257 46.1848 15.2735 46.1848 15.2133C46.1506 15.2133 45.9952 15.2133 45.9952 15.2133C45.9457 15.2133 45.9345 15.183 45.9345 15.1343V14.9911C45.9345 14.9309 45.9461 14.9158 46.0178 14.9158H46.2001V14.5388C46.2001 14.4709 46.2459 14.4521 46.3065 14.4447L46.5115 14.4071C46.5915 14.3919 46.6142 14.4259 46.6142 14.5012V14.9158H46.9787C47.0508 14.9158 47.0662 14.9498 47.0662 14.9985V15.1417C47.0657 15.1904 47.0542 15.217 46.9746 15.217Z" fill="#02090F"/>
<path d="M49.1426 16.0124C48.8465 16.0124 48.0147 16.0124 48.0147 16.0124C48.0147 16.4495 48.2311 16.6267 48.5883 16.6267C48.8997 16.6267 49.0819 16.5665 49.1503 16.544C49.2188 16.5174 49.2567 16.5362 49.2567 16.578V16.7662C49.2567 16.8342 49.2299 16.8489 49.1314 16.8792C49.0782 16.898 48.7933 16.9434 48.5693 16.9434C47.9165 16.9434 47.5821 16.6533 47.5821 15.9072C47.5821 15.1836 47.8856 14.8219 48.4629 14.8219C48.9908 14.8219 49.2984 15.1121 49.2984 15.6171V15.8508C49.2984 15.9596 49.2832 16.0124 49.1426 16.0124ZM48.4551 15.0928C48.1516 15.0928 48.03 15.349 48.0262 15.6506C48.0262 15.7035 48.0225 15.7259 48.0757 15.7259H48.8431C48.8811 15.7259 48.8848 15.7071 48.8848 15.6544C48.877 15.2925 48.7669 15.0928 48.4551 15.0928Z" fill="#02090F"/>
<path d="M51.0107 15.1269C51.0032 15.1645 50.988 15.1834 50.9537 15.1834C50.851 15.1834 50.7335 15.21 50.6461 15.2627C50.4713 15.3647 50.3574 15.5038 50.3574 15.6246V16.759C50.3574 16.8572 50.3538 16.9023 50.2816 16.9023H50.0424C49.9587 16.9023 49.936 16.8609 49.936 16.7627V14.9911C49.936 14.9157 49.9513 14.874 50.0271 14.874H50.27C50.3195 14.874 50.3611 14.8965 50.3611 14.9718C50.3611 15.0209 50.3611 15.0925 50.3611 15.1641C50.5129 14.9493 50.7294 14.8478 50.9608 14.8478C50.9912 14.8478 51.0255 14.8478 51.0214 14.8891L51.0107 15.1269Z" fill="#02090F"/>
<path d="M53.0764 16.9015H52.8298C52.765 16.9015 52.7308 16.8602 52.7308 16.766V15.5677C52.7308 15.3681 52.6359 15.1949 52.3736 15.1949C52.0813 15.1949 51.9522 15.4396 51.9522 15.6242V16.7587C51.9522 16.8569 51.9484 16.9019 51.8763 16.9019H51.637C51.5534 16.9019 51.5307 16.8606 51.5307 16.7624V14.9907C51.5307 14.9154 51.5459 14.8736 51.6218 14.8736H51.8647C51.9295 14.8736 51.9559 14.9379 51.9559 15.111C52.0849 14.9338 52.2709 14.8282 52.5596 14.8282C52.8821 14.8282 53.1592 14.994 53.1592 15.4765V16.7276C53.16 16.8524 53.1448 16.9015 53.0764 16.9015Z" fill="#02090F"/>
<path d="M55.423 16.9017H55.1838C55.1269 16.9017 55.0926 16.8902 55.0926 16.7924C55.0926 16.7847 55.0926 16.6455 55.0926 16.634C55.0164 16.7961 54.7697 16.943 54.4774 16.943C54.1054 16.943 53.7977 16.6492 53.7977 15.8995C53.7977 15.2365 54.0328 14.8219 54.4699 14.8219C54.7965 14.8219 54.9826 14.9426 55.0926 15.1345C55.0926 15.0854 55.0926 14.9913 55.0926 14.9688C55.0926 14.9124 55.1153 14.8747 55.1611 14.8747H55.404C55.5104 14.8747 55.5145 14.9086 55.5145 14.9876V16.7548C55.5141 16.8526 55.5067 16.9017 55.423 16.9017ZM55.0621 15.5864C55.0621 15.4206 54.9446 15.108 54.6444 15.108C54.3863 15.108 54.246 15.2889 54.246 15.7333V16.0496C54.246 16.4188 54.3825 16.6562 54.6522 16.6562C54.9104 16.6562 55.0621 16.3812 55.0621 16.2755V15.5864Z" fill="#02090F"/>
<path d="M57.1426 15.217H56.7934C56.7934 15.2849 56.7934 16.3285 56.7934 16.4378C56.7934 16.5622 56.854 16.6375 56.9567 16.6375C57.0326 16.6375 57.0705 16.6338 57.1464 16.615C57.188 16.6076 57.2181 16.8826 57.1844 16.8978C57.1237 16.9203 56.9683 16.9428 56.8276 16.9428C56.4631 16.9428 56.3529 16.6981 56.3529 16.4493C56.3529 16.257 56.3529 15.2735 56.3529 15.2133C56.3188 15.2133 56.1633 15.2133 56.1633 15.2133C56.1138 15.2133 56.1026 15.183 56.1026 15.1343V14.9911C56.1026 14.9309 56.1142 14.9158 56.1859 14.9158H56.3682V14.5388C56.3682 14.4709 56.414 14.4521 56.4746 14.4447L56.6796 14.4071C56.7596 14.3919 56.7822 14.4259 56.7822 14.5012V14.9158H57.1468C57.2185 14.9158 57.2342 14.9498 57.2342 14.9985V15.1417C57.2342 15.1904 57.2227 15.217 57.1426 15.217Z" fill="#02090F"/>
<path d="M58.153 14.5126H57.9023C57.8265 14.5126 57.8074 14.4938 57.8074 14.3882V14.2527C57.8074 14.166 57.8227 14.1434 57.9101 14.1434H58.1493C58.233 14.1434 58.2293 14.1889 58.2293 14.2715V14.3997C58.2289 14.4901 58.2137 14.5126 58.153 14.5126ZM58.153 16.9018H57.8875C57.819 16.9018 57.8074 16.8679 57.8074 16.7701V14.9877C57.8074 14.9125 57.8227 14.8748 57.8986 14.8748H58.1382C58.2293 14.8748 58.2293 14.9051 58.2293 14.9877V16.7701C58.2289 16.8679 58.2252 16.9018 58.153 16.9018Z" fill="#02090F"/>
<path d="M59.7938 16.943C59.2054 16.943 58.8635 16.702 58.8635 15.8995C58.8635 15.1121 59.2392 14.8219 59.8128 14.8219C60.3745 14.8219 60.6974 15.1231 60.6974 15.8958C60.6974 16.5739 60.3592 16.943 59.7938 16.943ZM60.2644 15.6883C60.2644 15.3568 60.1427 15.1116 59.7972 15.1116C59.52 15.1116 59.315 15.2962 59.315 15.7071V16.0763C59.315 16.4871 59.5316 16.6529 59.8013 16.6529C60.0895 16.6529 60.2644 16.4041 60.2644 16.0312V15.6883Z" fill="#02090F"/>
<path d="M62.8767 16.9015H62.6301C62.5653 16.9015 62.5311 16.8602 62.5311 16.766V15.5677C62.5311 15.3681 62.4363 15.1949 62.174 15.1949C61.8816 15.1949 61.7525 15.4396 61.7525 15.6242V16.7587C61.7525 16.8569 61.7488 16.9019 61.6766 16.9019H61.4375C61.3537 16.9019 61.3311 16.8606 61.3311 16.7624V14.9907C61.3311 14.9154 61.3464 14.8736 61.4222 14.8736H61.6651C61.7298 14.8736 61.7562 14.9379 61.7562 15.111C61.8853 14.9338 62.0713 14.8282 62.3599 14.8282C62.6824 14.8282 62.96 14.994 62.96 15.4765V16.7276C62.9604 16.8524 62.9451 16.9015 62.8767 16.9015Z" fill="#02090F"/>
<path d="M65.2234 16.9017H64.9843C64.9274 16.9017 64.8931 16.8902 64.8931 16.7924C64.8931 16.7847 64.8931 16.6455 64.8931 16.634C64.8168 16.7961 64.5702 16.943 64.2778 16.943C63.9059 16.943 63.5983 16.6492 63.5983 15.8995C63.5983 15.2365 63.8333 14.8219 64.2705 14.8219C64.597 14.8219 64.783 14.9426 64.8931 15.1345C64.8931 15.0854 64.8931 14.9913 64.8931 14.9688C64.8931 14.9124 64.9159 14.8747 64.9616 14.8747H65.2045C65.3109 14.8747 65.3146 14.9086 65.3146 14.9876V16.7548C65.3146 16.8526 65.3072 16.9017 65.2234 16.9017ZM64.8626 15.5864C64.8626 15.4206 64.7451 15.108 64.4448 15.108C64.1867 15.108 64.0465 15.2889 64.0465 15.7333V16.0496C64.0465 16.4188 64.183 16.6562 64.4527 16.6562C64.7109 16.6562 64.8626 16.3812 64.8626 16.2755V15.5864Z" fill="#02090F"/>
<path d="M66.4266 16.9015H66.1759C66.0959 16.9015 66.0811 16.8827 66.0811 16.7771V14.2033C66.0811 14.1354 66.0964 14.1014 66.1722 14.1014H66.4118C66.5029 14.1014 66.5029 14.1317 66.5029 14.2144V16.7693C66.5025 16.8676 66.4988 16.9015 66.4266 16.9015Z" fill="#02090F"/>
<path d="M43.6454 21.6044C43.3568 21.6044 43.1666 21.5218 43.0301 21.352V22.2262C43.0301 22.3165 43.0148 22.3505 42.9616 22.3505H42.7109C42.6198 22.3505 42.6083 22.3203 42.6083 22.2262V19.6712C42.6083 19.5885 42.6083 19.5357 42.7072 19.5357H42.9389C42.9959 19.5357 43.0301 19.5623 43.0301 19.6413C43.0301 19.6486 43.0301 19.7355 43.0301 19.7808C43.1745 19.5775 43.3988 19.4829 43.6681 19.4829C44.0895 19.4829 44.325 19.9016 44.325 20.5417C44.325 21.3143 44.0363 21.6044 43.6454 21.6044ZM43.8767 20.4062C43.8767 20.0293 43.7324 19.7694 43.4743 19.7694C43.1782 19.7694 43.0602 20.0481 43.0602 20.2405V20.9714C43.0602 21.0732 43.212 21.3143 43.4702 21.3143C43.7436 21.3143 43.8763 21.0884 43.8763 20.723V20.4062H43.8767Z" fill="#02090F"/>
<path d="M46.0327 19.7882C46.0253 19.8258 46.0101 19.8451 45.9758 19.8451C45.8731 19.8451 45.7556 19.8713 45.6682 19.9245C45.4934 20.0264 45.3796 20.1655 45.3796 20.2858V21.4203C45.3796 21.5185 45.3759 21.5635 45.3037 21.5635H45.0645C44.9808 21.5635 44.9581 21.5218 44.9581 21.424V19.6523C44.9581 19.5774 44.9734 19.5357 45.0492 19.5357H45.2921C45.3416 19.5357 45.3832 19.5586 45.3832 19.6339C45.3832 19.6826 45.3832 19.7542 45.3832 19.8258C45.535 19.6114 45.7515 19.5095 45.9829 19.5095C46.0134 19.5095 46.0476 19.5095 46.0434 19.5508L46.0327 19.7882Z" fill="#02090F"/>
<path d="M47.3123 21.6044C46.7239 21.6044 46.382 21.3634 46.382 20.5608C46.382 19.7735 46.7577 19.4833 47.3314 19.4833C47.893 19.4833 48.2159 19.7849 48.2159 20.5572C48.2163 21.2353 47.8782 21.6044 47.3123 21.6044ZM47.7833 20.3496C47.7833 20.0182 47.6616 19.7731 47.3161 19.7731C47.0389 19.7731 46.834 19.958 46.834 20.3685V20.7376C46.834 21.1486 47.0505 21.3139 47.3202 21.3139C47.6084 21.3139 47.7833 21.0655 47.7833 20.6923V20.3496Z" fill="#02090F"/>
<path d="M48.8617 22.3579C48.7099 22.3579 48.5808 22.3239 48.5161 22.3018C48.4782 22.2867 48.5239 22.0039 48.5693 22.008C48.6188 22.0191 48.6831 22.0305 48.7515 22.0305C48.8542 22.0305 48.8732 21.9176 48.8732 21.8198V19.6642C48.8732 19.5816 48.8885 19.5361 48.9759 19.5361H49.2155C49.2839 19.5361 49.3103 19.5701 49.3103 19.6606V21.8799C49.3099 22.1435 49.1883 22.3579 48.8617 22.3579ZM49.2151 19.174H48.9755C48.8996 19.174 48.8806 19.1629 48.8806 19.0495V18.9214C48.8806 18.8347 48.8959 18.8048 48.9833 18.8048H49.2114C49.3025 18.8048 49.2914 18.8347 49.2914 18.9178V19.061C49.291 19.1515 49.2869 19.174 49.2151 19.174Z" fill="#02090F"/>
<path d="M51.5041 20.6738C51.208 20.6738 50.3762 20.6738 50.3762 20.6738C50.3762 21.1105 50.5927 21.288 50.9499 21.288C51.2612 21.288 51.4435 21.2275 51.5119 21.2054C51.5804 21.1788 51.6183 21.1977 51.6183 21.2394V21.4276C51.6183 21.4956 51.5915 21.5103 51.493 21.5406C51.4398 21.5594 51.1549 21.6044 50.9309 21.6044C50.2781 21.6044 49.9436 21.3143 49.9436 20.5686C49.9436 19.8451 50.2471 19.4833 50.8245 19.4833C51.3524 19.4833 51.66 19.7735 51.66 20.2785V20.5117C51.66 20.621 51.6447 20.6738 51.5041 20.6738ZM50.8167 19.7542C50.5131 19.7542 50.3915 20.0108 50.3877 20.312C50.3877 20.3648 50.3841 20.3874 50.4368 20.3874H51.2043C51.2422 20.3874 51.246 20.3685 51.246 20.3157C51.2385 19.9544 51.1281 19.7542 50.8167 19.7542Z" fill="#02090F"/>
<path d="M53.1713 21.6044C52.5828 21.6044 52.2372 21.3634 52.2372 20.5608C52.2372 19.7735 52.617 19.4833 53.1902 19.4833C53.5127 19.4833 53.7371 19.566 53.8851 19.7661C53.9342 19.841 53.6154 20.0522 53.5775 19.9847C53.5016 19.8639 53.3837 19.7735 53.1861 19.7735C52.9053 19.7735 52.6999 19.9584 52.6999 20.3689V20.738C52.6999 21.149 52.9164 21.3143 53.1861 21.3143C53.3568 21.3143 53.4901 21.2124 53.5733 21.0769C53.6113 20.9979 53.9189 21.1448 53.8888 21.2124C53.756 21.4575 53.5201 21.6044 53.1713 21.6044Z" fill="#02090F"/>
<path d="M55.3738 19.8787H55.0245C55.0245 19.9466 55.0245 20.9902 55.0245 21.0999C55.0245 21.2243 55.0851 21.2995 55.1878 21.2995C55.2637 21.2995 55.3016 21.2955 55.3775 21.2771C55.4192 21.2697 55.4493 21.5447 55.4155 21.5598C55.3548 21.5828 55.1994 21.6049 55.0587 21.6049C54.6942 21.6049 54.5841 21.3601 54.5841 21.1114C54.5841 20.919 54.5841 19.936 54.5841 19.8754C54.5499 19.8754 54.3944 19.8754 54.3944 19.8754C54.3449 19.8754 54.3338 19.8455 54.3338 19.7964V19.6531C54.3338 19.5931 54.3453 19.5783 54.4171 19.5783H54.5994V19.2013C54.5994 19.1334 54.6451 19.1146 54.7058 19.1069L54.9107 19.0692C54.9907 19.054 55.0134 19.088 55.0134 19.1637V19.5783H55.378C55.4496 19.5783 55.4653 19.6123 55.4653 19.661V19.8042C55.4649 19.8525 55.4534 19.8787 55.3738 19.8787Z" fill="#02090F"/>
<path d="M45.202 26.2245H44.9513C44.8676 26.2245 44.8564 26.1828 44.8564 26.0891V24.8904C44.8564 24.6906 44.8032 24.5135 44.541 24.5135C44.2944 24.5135 44.1954 24.7058 44.1575 24.8904V26.051C44.1575 26.1754 44.1385 26.2245 44.0701 26.2245H43.8119C43.7513 26.2245 43.7281 26.1828 43.7281 26.0891V24.8904C43.7281 24.6906 43.675 24.5135 43.4094 24.5135C43.117 24.5135 43.0222 24.7623 43.0222 24.9468V26.0813C43.0222 26.1795 43.0184 26.2245 42.9463 26.2245H42.7071C42.6234 26.2245 42.6007 26.1828 42.6007 26.085V24.3137C42.6007 24.2388 42.616 24.1971 42.6919 24.1971H42.9348C42.9995 24.1971 43.0259 24.2347 43.0259 24.4083C43.1587 24.2311 43.3068 24.1521 43.5723 24.1521C43.8119 24.1521 43.9863 24.2426 44.0965 24.4909C44.2408 24.2798 44.423 24.1521 44.7002 24.1521C45.0189 24.1521 45.2849 24.3178 45.2849 24.7999V26.051C45.2853 26.1754 45.2705 26.2245 45.202 26.2245Z" fill="#02090F"/>
<path d="M47.5479 26.2246H47.3087C47.2518 26.2246 47.2176 26.2131 47.2176 26.1149C47.2176 26.1075 47.2176 25.968 47.2176 25.9565C47.1413 26.119 46.8947 26.2655 46.6023 26.2655C46.2303 26.2655 45.9227 25.9716 45.9227 25.2219C45.9227 24.5589 46.1578 24.1443 46.5949 24.1443C46.9215 24.1443 47.1075 24.265 47.2176 24.4574C47.2176 24.4083 47.2176 24.3141 47.2176 24.2917C47.2176 24.2351 47.2403 24.1975 47.286 24.1975H47.529C47.6353 24.1975 47.6394 24.2315 47.6394 24.3105V26.0776C47.639 26.1754 47.6317 26.2246 47.5479 26.2246ZM47.187 24.9096C47.187 24.7439 47.0695 24.4312 46.7693 24.4312C46.5112 24.4312 46.3709 24.6121 46.3709 25.0565V25.3729C46.3709 25.7421 46.5075 25.9794 46.7772 25.9794C47.0354 25.9794 47.187 25.7044 47.187 25.5988V24.9096Z" fill="#02090F"/>
<path d="M49.8754 26.2245H49.6288C49.564 26.2245 49.5298 26.1828 49.5298 26.0891V24.8904C49.5298 24.6906 49.435 24.5176 49.1727 24.5176C48.8803 24.5176 48.7512 24.7623 48.7512 24.9468V26.0813C48.7512 26.1795 48.7475 26.2245 48.6754 26.2245H48.4361C48.3525 26.2245 48.3297 26.1828 48.3297 26.085V24.3137C48.3297 24.2388 48.345 24.1971 48.4209 24.1971H48.6638C48.7286 24.1971 48.7549 24.2609 48.7549 24.4345C48.884 24.2573 49.07 24.1521 49.3586 24.1521C49.6811 24.1521 49.9583 24.3178 49.9583 24.7999V26.051C49.9587 26.1754 49.9435 26.2245 49.8754 26.2245Z" fill="#02090F"/>
<path d="M52.2216 26.2246H51.9825C51.9255 26.2246 51.8913 26.2131 51.8913 26.1149C51.8913 26.1075 51.8913 25.968 51.8913 25.9565C51.815 26.119 51.5684 26.2655 51.276 26.2655C50.904 26.2655 50.5964 25.9716 50.5964 25.2219C50.5964 24.5589 50.8315 24.1443 51.2686 24.1443C51.5952 24.1443 51.7812 24.265 51.8913 24.4574C51.8913 24.4083 51.8913 24.3141 51.8913 24.2917C51.8913 24.2351 51.914 24.1975 51.9598 24.1975H52.2027C52.309 24.1975 52.3127 24.2315 52.3127 24.3105V26.0776C52.3127 26.1754 52.3054 26.2246 52.2216 26.2246ZM51.8612 24.9096C51.8612 24.7439 51.7437 24.4312 51.4435 24.4312C51.1853 24.4312 51.0451 24.6121 51.0451 25.0565V25.3729C51.0451 25.7421 51.1816 25.9794 51.4513 25.9794C51.7094 25.9794 51.8612 25.7044 51.8612 25.5988V24.9096Z" fill="#02090F"/>
<path d="M53.8735 27.031C53.5205 27.031 53.3646 26.9934 53.2772 26.9742C53.2054 26.9554 53.167 26.9443 53.167 26.8764V26.684C53.167 26.6354 53.1934 26.6239 53.3151 26.6542C53.4516 26.6881 53.6264 26.7331 53.8277 26.7331C54.1048 26.7331 54.2339 26.5596 54.2454 26.1266C54.2454 26.1041 54.2417 26.0173 54.2417 25.9912C54.1048 26.1757 53.9151 26.2662 53.6264 26.2662C53.2351 26.2662 52.9468 25.976 52.9468 25.2033C52.9468 24.5632 53.1819 24.1447 53.6033 24.1447C53.8503 24.1447 54.0896 24.2126 54.2417 24.4123C54.2417 24.2273 54.257 24.1974 54.3329 24.1974H54.5646C54.6636 24.1974 54.6595 24.2502 54.6595 24.3328V25.9384C54.6595 26.7372 54.4054 27.031 53.8735 27.031ZM54.2116 24.9017C54.2116 24.7094 54.0941 24.4306 53.7976 24.4306C53.5394 24.4306 53.3951 24.6906 53.3951 25.0675V25.3842C53.3951 25.7497 53.5278 25.9756 53.8013 25.9756C54.0632 25.9756 54.2112 25.7346 54.2112 25.6253V24.9017H54.2116Z" fill="#02090F"/>
<path d="M56.8577 25.3355C56.5616 25.3355 55.7298 25.3355 55.7298 25.3355C55.7298 25.7722 55.9464 25.9498 56.3034 25.9498C56.6148 25.9498 56.7971 25.8892 56.8656 25.8672C56.934 25.8405 56.9719 25.8593 56.9719 25.9011V26.0894C56.9719 26.1573 56.9451 26.1721 56.8465 26.2024C56.7934 26.2212 56.5084 26.2662 56.2845 26.2662C55.6317 26.2662 55.2972 25.976 55.2972 25.2303C55.2972 24.5068 55.6008 24.145 56.1781 24.145C56.706 24.145 57.0136 24.4351 57.0136 24.9402V25.1735C57.0136 25.2827 56.9979 25.3355 56.8577 25.3355ZM56.1703 24.4155C55.8667 24.4155 55.7451 24.6721 55.7414 24.9734C55.7414 25.0261 55.7377 25.0486 55.7909 25.0486H56.5583C56.5963 25.0486 56.6 25.0298 56.6 24.977C56.5922 24.6156 56.4816 24.4155 56.1703 24.4155Z" fill="#02090F"/>
<path d="M60.2523 26.2245H60.0016C59.9178 26.2245 59.9067 26.1828 59.9067 26.0891V24.8904C59.9067 24.6906 59.8535 24.5135 59.5913 24.5135C59.3447 24.5135 59.2457 24.7058 59.2077 24.8904V26.051C59.2077 26.1754 59.1888 26.2245 59.1204 26.2245H58.8622C58.8016 26.2245 58.7784 26.1828 58.7784 26.0891V24.8904C58.7784 24.6906 58.7253 24.5135 58.4597 24.5135C58.1673 24.5135 58.0725 24.7623 58.0725 24.9468V26.0813C58.0725 26.1795 58.0687 26.2245 57.9966 26.2245H57.7574C57.6737 26.2245 57.651 26.1828 57.651 26.085V24.3137C57.651 24.2388 57.6663 24.1971 57.7421 24.1971H57.9851C58.0498 24.1971 58.0762 24.2347 58.0762 24.4083C58.2089 24.2311 58.357 24.1521 58.623 24.1521C58.8626 24.1521 59.037 24.2426 59.1472 24.4909C59.2915 24.2798 59.4737 24.1521 59.7508 24.1521C60.0696 24.1521 60.3357 24.3178 60.3357 24.7999V26.051C60.3357 26.1754 60.3207 26.2245 60.2523 26.2245Z" fill="#02090F"/>
<path d="M62.5349 25.3355C62.2389 25.3355 61.407 25.3355 61.407 25.3355C61.407 25.7722 61.6236 25.9498 61.9807 25.9498C62.2921 25.9498 62.4743 25.8892 62.5427 25.8672C62.6112 25.8405 62.6491 25.8593 62.6491 25.9011V26.0894C62.6491 26.1573 62.6223 26.1721 62.5238 26.2024C62.4706 26.2212 62.1856 26.2662 61.9617 26.2662C61.309 26.2662 60.9745 25.976 60.9745 25.2303C60.9745 24.5068 61.2779 24.145 61.8553 24.145C62.3832 24.145 62.6908 24.4351 62.6908 24.9402V25.1735C62.6904 25.2827 62.6751 25.3355 62.5349 25.3355ZM61.8475 24.4155C61.544 24.4155 61.4223 24.6721 61.4186 24.9734C61.4186 25.0261 61.4149 25.0486 61.4677 25.0486H62.2351C62.273 25.0486 62.2768 25.0298 62.2768 24.977C62.2689 24.6156 62.1589 24.4155 61.8475 24.4155Z" fill="#02090F"/>
<path d="M64.8735 26.2245H64.6265C64.5621 26.2245 64.5279 26.1828 64.5279 26.0891V24.8904C64.5279 24.6906 64.4331 24.5176 64.1708 24.5176C63.8784 24.5176 63.7493 24.7623 63.7493 24.9468V26.0813C63.7493 26.1795 63.7457 26.2245 63.6735 26.2245H63.4343C63.3506 26.2245 63.3279 26.1828 63.3279 26.085V24.3137C63.3279 24.2388 63.3432 24.1971 63.4191 24.1971H63.662C63.7267 24.1971 63.7531 24.2609 63.7531 24.4345C63.8822 24.2573 64.0681 24.1521 64.3568 24.1521C64.6792 24.1521 64.9564 24.3178 64.9564 24.7999V26.051C64.9568 26.1754 64.9416 26.2245 64.8735 26.2245Z" fill="#02090F"/>
<path d="M66.5896 24.54H66.2403C66.2403 24.608 66.2403 25.6516 66.2403 25.7613C66.2403 25.8856 66.3009 25.961 66.4036 25.961C66.4795 25.961 66.5175 25.9569 66.5933 25.9385C66.635 25.9311 66.6655 26.2061 66.6312 26.2213C66.5707 26.2442 66.4152 26.2663 66.2746 26.2663C65.91 26.2663 65.7999 26.0216 65.7999 25.7727C65.7999 25.5804 65.7999 24.5974 65.7999 24.5368C65.7656 24.5368 65.6102 24.5368 65.6102 24.5368C65.5607 24.5368 65.5496 24.5069 65.5496 24.4578V24.3146C65.5496 24.2544 65.5611 24.2396 65.6329 24.2396H65.8151V23.8628C65.8151 23.7948 65.8609 23.776 65.9215 23.7682L66.1265 23.7306C66.2065 23.7154 66.2291 23.7494 66.2291 23.8251V24.2396H66.5937C66.6659 24.2396 66.6811 24.2736 66.6811 24.3224V24.4656C66.6811 24.5139 66.6696 24.54 66.5896 24.54Z" fill="#02090F"/>
<path d="M44.1685 30.8862H43.9294C43.8724 30.8862 43.8382 30.8752 43.8382 30.777C43.8382 30.7695 43.8382 30.63 43.8382 30.6186C43.762 30.7806 43.5153 30.9275 43.2229 30.9275C42.8509 30.9275 42.5433 30.6337 42.5433 29.884C42.5433 29.2206 42.7784 28.8064 43.2155 28.8064C43.5421 28.8064 43.7281 28.9271 43.8382 29.119C43.8382 29.0699 43.8382 28.9758 43.8382 28.9533C43.8382 28.8965 43.8609 28.8588 43.9067 28.8588H44.1496C44.256 28.8588 44.2601 28.8927 44.2601 28.9721V30.7393C44.2597 30.8371 44.2522 30.8862 44.1685 30.8862ZM43.8077 29.5708C43.8077 29.4051 43.6902 29.0925 43.39 29.0925C43.1318 29.0925 42.9916 29.273 42.9916 29.7178V30.0346C42.9916 30.4037 43.1281 30.6411 43.3978 30.6411C43.6559 30.6411 43.8077 30.3661 43.8077 30.2605V29.5708Z" fill="#02090F"/>
<path d="M45.5466 30.9275C45.1747 30.9275 44.9697 30.8481 44.8934 30.8068C44.8554 30.7883 44.8703 30.4941 44.9462 30.5203C45.0225 30.5469 45.1552 30.6149 45.4514 30.6149C45.698 30.6149 45.8386 30.5432 45.8386 30.3509C45.8386 30.1962 45.7095 30.0758 45.455 29.9441C45.1668 29.7972 44.9086 29.6462 44.9086 29.3413C44.9086 28.9758 45.2654 28.8027 45.6489 28.8027C45.9297 28.8027 46.112 28.8436 46.1615 28.8665C46.2032 28.8854 46.1347 29.1567 46.0704 29.1453C46.0061 29.1268 45.8238 29.0851 45.6757 29.0851C45.4555 29.0851 45.3342 29.1677 45.3342 29.3302C45.3342 29.4468 45.4975 29.5446 45.6951 29.6503C46.0518 29.8385 46.2758 30.0161 46.2758 30.366C46.2758 30.8293 45.8885 30.9275 45.5466 30.9275Z" fill="#02090F"/>
<path d="M47.491 30.9275C47.119 30.9275 46.914 30.8481 46.8378 30.8068C46.7998 30.7883 46.8147 30.4941 46.8906 30.5203C46.9668 30.5469 47.0997 30.6149 47.3957 30.6149C47.6423 30.6149 47.783 30.5432 47.783 30.3509C47.783 30.1962 47.6539 30.0758 47.3994 29.9441C47.1112 29.7972 46.8527 29.6462 46.8527 29.3413C46.8527 28.9758 47.2093 28.8027 47.5928 28.8027C47.8737 28.8027 48.0559 28.8436 48.1054 28.8665C48.1471 28.8854 48.0786 29.1567 48.0143 29.1453C47.95 29.1268 47.7677 29.0851 47.6196 29.0851C47.3994 29.0851 47.2782 29.1677 47.2782 29.3302C47.2782 29.4468 47.4415 29.5446 47.639 29.6503C47.9957 29.8385 48.2197 30.0161 48.2197 30.366C48.2197 30.8293 47.8325 30.9275 47.491 30.9275Z" fill="#02090F"/>
<path d="M49.7123 30.9275C49.1239 30.9275 48.782 30.6865 48.782 29.884C48.782 29.0966 49.1577 28.8064 49.7314 28.8064C50.293 28.8064 50.6159 29.108 50.6159 29.8802C50.6159 30.558 50.2777 30.9275 49.7123 30.9275ZM50.1829 29.6728C50.1829 29.3409 50.0613 29.0962 49.7157 29.0962C49.4385 29.0962 49.2336 29.2811 49.2336 29.6916V30.0608C49.2336 30.4716 49.4501 30.6374 49.7198 30.6374C50.008 30.6374 50.1829 30.3886 50.1829 30.0158V29.6728Z" fill="#02090F"/>
<path d="M52.1236 30.9275C51.535 30.9275 51.1895 30.6865 51.1895 29.884C51.1895 29.0966 51.5693 28.8064 52.1425 28.8064C52.465 28.8064 52.6893 28.8891 52.8374 29.0892C52.8865 29.1645 52.5677 29.3752 52.5297 29.3077C52.4538 29.187 52.3359 29.097 52.1384 29.097C51.8575 29.097 51.6521 29.2819 51.6521 29.6925V30.0616C51.6521 30.4725 51.8687 30.6382 52.1384 30.6382C52.3091 30.6382 52.4423 30.5363 52.5256 30.4008C52.5636 30.3215 52.8712 30.4688 52.8411 30.5363C52.7083 30.7806 52.4729 30.9275 52.1236 30.9275Z" fill="#02090F"/>
<path d="M53.7336 28.4967H53.4829C53.407 28.4967 53.3881 28.4779 53.3881 28.3723V28.2369C53.3881 28.15 53.4033 28.1272 53.4908 28.1272H53.7299C53.8136 28.1272 53.8099 28.1726 53.8099 28.2553V28.3834C53.8095 28.4742 53.7942 28.4967 53.7336 28.4967ZM53.7336 30.8859H53.4681C53.3996 30.8859 53.3881 30.8519 53.3881 30.7541V28.9718C53.3881 28.8962 53.4033 28.8585 53.4792 28.8585H53.7188C53.8099 28.8585 53.8099 28.8888 53.8099 28.9718V30.7541C53.8095 30.8519 53.8058 30.8859 53.7336 30.8859Z" fill="#02090F"/>
<path d="M56.0686 30.8862H55.8294C55.7724 30.8862 55.7383 30.8752 55.7383 30.777C55.7383 30.7695 55.7383 30.63 55.7383 30.6186C55.662 30.7806 55.4154 30.9275 55.123 30.9275C54.751 30.9275 54.4434 30.6337 54.4434 29.884C54.4434 29.2206 54.6784 28.8064 55.1156 28.8064C55.4422 28.8064 55.6281 28.9271 55.7383 29.119C55.7383 29.0699 55.7383 28.9758 55.7383 28.9533C55.7383 28.8965 55.7609 28.8588 55.8067 28.8588H56.0496C56.156 28.8588 56.1601 28.8927 56.1601 28.9721V30.7393C56.1597 30.8371 56.1523 30.8862 56.0686 30.8862ZM55.7077 29.5708C55.7077 29.4051 55.5902 29.0925 55.29 29.0925C55.0318 29.0925 54.8916 29.273 54.8916 29.7178V30.0346C54.8916 30.4037 55.0281 30.6411 55.2979 30.6411C55.556 30.6411 55.7077 30.3661 55.7077 30.2605V29.5708Z" fill="#02090F"/>
<path d="M57.7886 29.2012H57.4393C57.4393 29.2691 57.4393 30.3131 57.4393 30.4224C57.4393 30.5468 57.4999 30.622 57.6026 30.622C57.6785 30.622 57.7165 30.618 57.7923 30.5996C57.834 30.5918 57.8645 30.8668 57.8303 30.8819C57.7696 30.9049 57.6142 30.9274 57.4735 30.9274C57.109 30.9274 56.9989 30.6826 56.9989 30.4339C56.9989 30.2415 56.9989 29.258 56.9989 29.1979C56.9647 29.1979 56.8092 29.1979 56.8092 29.1979C56.7597 29.1979 56.7486 29.1675 56.7486 29.1184V28.9752C56.7486 28.9151 56.7601 28.8999 56.8319 28.8999H57.0142V28.523C57.0142 28.455 57.0599 28.4362 57.1206 28.4289L57.3255 28.3912C57.4055 28.3761 57.4282 28.4101 57.4282 28.4853V28.8999H57.7928C57.8649 28.8999 57.8801 28.9339 57.8801 28.9826V29.1259C57.8797 29.175 57.8682 29.2012 57.7886 29.2012Z" fill="#02090F"/>
<path d="M58.7985 28.4967H58.5477C58.4718 28.4967 58.4529 28.4779 58.4529 28.3723V28.2369C58.4529 28.15 58.4681 28.1272 58.5556 28.1272H58.7947C58.8785 28.1272 58.8747 28.1726 58.8747 28.2553V28.3834C58.8743 28.4742 58.859 28.4967 58.7985 28.4967ZM58.7985 30.8859H58.5329C58.4645 30.8859 58.4529 30.8519 58.4529 30.7541V28.9718C58.4529 28.8962 58.4681 28.8585 58.544 28.8585H58.7836C58.8747 28.8585 58.8747 28.8888 58.8747 28.9718V30.7541C58.8743 30.8519 58.8706 30.8859 58.7985 30.8859Z" fill="#02090F"/>
<path d="M60.4389 30.9275C59.8504 30.9275 59.5085 30.6865 59.5085 29.884C59.5085 29.0966 59.8843 28.8064 60.4579 28.8064C61.0196 28.8064 61.3424 29.108 61.3424 29.8802C61.3424 30.558 61.0042 30.9275 60.4389 30.9275ZM60.9094 29.6728C60.9094 29.3409 60.7878 29.0962 60.4422 29.0962C60.165 29.0962 59.9601 29.2811 59.9601 29.6916V30.0608C59.9601 30.4716 60.1766 30.6374 60.4463 30.6374C60.7346 30.6374 60.9094 30.3886 60.9094 30.0158V29.6728Z" fill="#02090F"/>
<path d="M63.5224 30.8864H63.2753C63.211 30.8864 63.1768 30.845 63.1768 30.7509V29.5522C63.1768 29.3525 63.0819 29.1793 62.8197 29.1793C62.5272 29.1793 62.3982 29.4241 62.3982 29.6087V30.7427C62.3982 30.8409 62.3945 30.8859 62.3223 30.8859H62.0831C61.9994 30.8859 61.9767 30.8446 61.9767 30.7464V28.9756C61.9767 28.9002 61.992 28.8585 62.0679 28.8585H62.3108C62.3755 28.8585 62.4019 28.9228 62.4019 29.0963C62.531 28.919 62.717 28.8135 63.0056 28.8135C63.3281 28.8135 63.6053 28.9792 63.6053 29.4618V30.7128C63.6057 30.8372 63.5904 30.8864 63.5224 30.8864Z" fill="#02090F"/>
<path d="M42.5437 3.39201V9.73375C42.5437 9.9425 42.7139 10.1123 42.9231 10.1123C43.1322 10.1123 43.3029 9.9425 43.3029 9.73375V3.39201C43.3029 3.1837 43.1322 3.01672 42.9231 3.01672C42.7139 3.01672 42.5437 3.1837 42.5437 3.39201Z" fill="#02090F"/>
<path d="M47.3944 3.01604C47.1845 3.01604 47.0138 3.18301 47.0138 3.39132V9.73308C47.0138 9.94174 47.1845 10.1116 47.3944 10.1116C47.6056 10.1116 47.775 9.94174 47.775 9.73308C47.775 9.73308 47.775 4.43531 47.775 3.76987C48.411 3.76987 51.8672 3.76987 51.8672 3.76987C53.0932 3.76987 53.6391 4.44759 53.6391 5.1204C53.6391 5.78585 53.0861 6.49712 51.8672 6.49712H48.8696C48.6621 6.49712 48.4901 6.66492 48.4901 6.87527C48.4901 7.08235 48.6621 7.25137 48.8696 7.25137H51.8672C53.5315 7.25137 54.3984 6.17832 54.3984 5.1204C54.3984 4.07395 53.5315 3.01562 51.8672 3.01562H47.3944V3.01604Z" fill="#02090F"/>
<path d="M57.055 2.85893C56.8974 2.90887 56.791 3.05251 56.791 3.21702V9.77687C56.791 9.98601 56.9613 10.1538 57.1717 10.1538C57.3795 10.1538 57.5523 9.98561 57.5523 9.77687C57.5523 9.77687 57.5523 5.95695 57.5523 4.38011C58.4909 5.66721 60.8176 8.86266 60.8176 8.86266C60.8873 8.96047 61.0048 9.01692 61.1252 9.01692C61.2468 9.01692 61.359 8.96047 61.4325 8.86266C61.4325 8.86266 63.7133 5.74742 64.6466 4.47588C64.6466 6.03103 64.6466 9.72697 64.6466 9.72697C64.6466 9.93445 64.8181 10.1043 65.0276 10.1043C65.235 10.1043 65.4054 9.93445 65.4054 9.72697V3.31648C65.4054 3.15441 65.3014 3.01076 65.1447 2.96125C64.9888 2.90887 64.8177 2.96289 64.7212 3.09508C64.7212 3.09508 61.6477 7.28538 61.1269 7.99708C60.6031 7.28374 57.4785 2.99481 57.4785 2.99481C57.3824 2.86508 57.2104 2.80777 57.055 2.85893Z" fill="#02090F"/>
<path d="M76.3537 9.38814L72.3824 3.04146C72.3123 2.93014 72.1877 2.86548 72.0582 2.86548C71.9258 2.86548 71.8038 2.93219 71.7362 3.04227L67.7669 9.43432C67.6576 9.61318 67.715 9.84446 67.8931 9.95531C68.0716 10.0638 68.3055 10.0085 68.4156 9.83173C68.4156 9.83173 71.5175 4.83356 72.0599 3.95654C72.349 4.41858 73.3531 6.02162 74.2323 7.43107H71.1518C70.9435 7.43107 70.7703 7.59968 70.7703 7.80677C70.7703 8.01588 70.9435 8.18367 71.1518 8.18367H74.7074C75.2782 9.09511 75.71 9.78879 75.71 9.78879C75.8192 9.96472 76.0547 10.02 76.2316 9.91072C76.4118 9.79899 76.4671 9.56692 76.3537 9.38814Z" fill="#02090F"/>
<path d="M79.9368 3.10124L78.424 1.77281C78.3008 1.6615 78.0817 1.64676 77.9745 1.77281C77.8492 1.91891 77.8975 2.09653 78.0228 2.20785L79.3096 3.3427L78.0438 4.46078C77.9155 4.57005 77.8595 4.79145 77.9741 4.91259C78.0978 5.04274 78.3003 5.02186 78.4236 4.91259L79.9368 3.58252C80.1398 3.39959 80.1398 3.2629 79.9368 3.10124Z" fill="#02090F"/>
<path d="M78.0281 3.10124L76.5189 1.77281C76.3947 1.6615 76.1745 1.64676 76.0686 1.77281C75.9436 1.91891 75.991 2.09653 76.116 2.20785L77.4014 3.3427L76.1353 4.46078C76.0133 4.57005 75.9547 4.79145 76.0686 4.91259C76.1906 5.04274 76.3951 5.02186 76.5189 4.91259L78.0281 3.58252C78.2323 3.39959 78.2355 3.2629 78.0281 3.10124Z" fill="#02090F"/>
<path d="M79.1376 8.14587C79.2972 8.14587 79.4526 8.18636 79.6049 8.2678C79.7571 8.34924 79.8761 8.46548 79.9609 8.61689C80.0458 8.76831 80.0878 8.9263 80.0878 9.09045C80.0878 9.25286 80.0466 9.40926 79.9625 9.55941C79.8792 9.70964 79.7619 9.82627 79.6112 9.9089C79.4598 9.992 79.3028 10.0334 79.1376 10.0334C78.973 10.0334 78.8151 9.992 78.6641 9.9089C78.5132 9.82588 78.3957 9.70917 78.3119 9.55941C78.2278 9.40926 78.1858 9.25286 78.1858 9.09045C78.1858 8.9263 78.2282 8.76831 78.3136 8.61689C78.3989 8.46548 78.5177 8.34924 78.6695 8.2678C78.8213 8.18636 78.978 8.14587 79.1376 8.14587ZM79.1376 8.3022C79.004 8.3022 78.874 8.3362 78.7474 8.40412C78.6208 8.47204 78.5218 8.56906 78.4505 8.69549C78.3792 8.82192 78.3433 8.95334 78.3433 9.08997C78.3433 9.22589 78.3783 9.35644 78.4484 9.48082C78.5186 9.60567 78.6167 9.70269 78.7429 9.77227C78.8691 9.84177 79.0006 9.87656 79.1376 9.87656C79.2744 9.87656 79.4058 9.84177 79.5319 9.77227C79.658 9.70269 79.7563 9.60527 79.8261 9.48082C79.8959 9.35604 79.9308 9.22589 79.9308 9.08997C79.9308 8.95334 79.8951 8.82153 79.8245 8.69549C79.7532 8.56906 79.654 8.47204 79.5272 8.40412C79.4003 8.3362 79.2703 8.3022 79.1376 8.3022ZM78.7206 9.61183V8.59602H79.0724C79.1924 8.59602 79.2794 8.60543 79.3337 8.62425C79.3876 8.64315 79.4296 8.67588 79.4621 8.72253C79.4939 8.76918 79.5097 8.81868 79.5097 8.8715C79.5097 8.94551 79.4828 9.01019 79.4296 9.06546C79.3765 9.12026 79.3059 9.15141 79.2175 9.15797C79.2538 9.17307 79.2827 9.1911 79.3043 9.21158C79.3456 9.25167 79.3963 9.3188 79.4558 9.41289L79.5811 9.61183H79.3789L79.2885 9.4518C79.2171 9.32576 79.1594 9.24716 79.1157 9.21522C79.0856 9.19189 79.0415 9.18003 78.9834 9.18003H78.8864V9.61183H78.7206ZM78.8856 9.04008H79.086C79.1817 9.04008 79.2472 9.02577 79.2819 8.99754C79.3162 8.96931 79.3345 8.93159 79.3345 8.88494C79.3345 8.85513 79.3258 8.82809 79.3091 8.80437C79.2922 8.78065 79.2691 8.76302 79.239 8.75116C79.2093 8.7393 79.1541 8.73352 79.0732 8.73352H78.8856V9.04008Z" fill="#02090F"/>
<path fill-rule="evenodd" clip-rule="evenodd" d="M30.5078 0.303223H1.92872C0.86766 0.303223 0 1.15692 0 2.20133V32.102C0 33.146 0.86766 34.0001 1.92872 34.0005H30.5078C31.5689 34.0005 32.4361 33.1464 32.4361 32.102V2.20174C32.4361 1.15733 31.5685 0.303223 30.5078 0.303223ZM13.791 13.5675L7.90423 19.3784C7.35948 19.9174 7.32195 20.7596 7.82588 21.2561L8.04936 21.475C8.55289 21.9706 9.40446 21.9362 9.95049 21.4009L16.8468 14.5894C17.3808 14.0651 17.4237 13.247 16.9536 12.7457C16.8851 12.6188 16.7989 12.4968 16.6892 12.39L9.79253 5.58379C9.24658 5.04563 8.39335 5.00961 7.89063 5.50603L7.66876 5.72621C7.16689 6.22345 7.20153 7.06405 7.7434 7.60262L13.791 13.5675ZM17.4525 19.3784L23.3393 13.5675L17.2917 7.60262C16.7497 7.06405 16.7147 6.22345 17.217 5.72621L17.4388 5.50603C17.942 5.00961 18.7948 5.04563 19.3412 5.58379L26.2379 12.39C26.3472 12.4968 26.4338 12.6188 26.5014 12.7457C26.972 13.247 26.9291 14.0651 26.3954 14.5894L19.4987 21.4009C18.9528 21.9362 18.1011 21.9706 17.5977 21.475L17.3741 21.2561C16.8698 20.7596 16.9073 19.9174 17.4525 19.3784ZM5.41289 26.3303C5.79805 26.3303 6.17621 26.3868 6.5321 26.5411L6.47519 27.2237C6.16137 27.0408 5.81207 26.9491 5.44876 26.9491C4.30069 26.9491 3.5386 27.7651 3.5386 28.8693C3.5386 30.023 4.37945 30.7895 5.41289 30.7895C5.7696 30.7895 6.24714 30.6991 6.49623 30.5509L6.53911 31.2335C6.16137 31.3899 5.69826 31.4107 5.40588 31.4107C3.83098 31.4107 2.78312 30.4106 2.78312 28.8489C2.78312 27.3362 3.89532 26.3303 5.41289 26.3303ZM9.5326 26.9495C8.43522 26.943 7.89338 27.8712 7.89338 28.8697C7.89338 29.8478 8.38494 30.7899 9.5326 30.7899C10.6799 30.7899 11.1718 29.8478 11.1718 28.8697C11.1718 27.8712 10.6304 26.943 9.5326 26.9495ZM9.5326 31.4107C8.01463 31.4107 7.13789 30.3615 7.13789 28.8697C7.13789 27.4136 8.02161 26.3303 9.5326 26.3303C11.0436 26.3303 11.9273 27.4136 11.9273 28.8697C11.9273 30.3615 11.0502 31.4107 9.5326 31.4107ZM14.2227 31.3253H12.8972V26.415H14.2441C15.2775 26.415 15.9902 26.7453 15.9902 27.6526C15.9902 28.3283 15.5914 28.6663 14.9637 28.8206V28.8349C15.6409 28.891 16.1184 29.3272 16.1184 30.0164C16.1184 31.0719 15.235 31.3253 14.2227 31.3253ZM14.0729 29.0879H13.6095V30.7482H14.1439C14.786 30.7482 15.3629 30.6147 15.3629 29.9534C15.3629 29.1938 14.6857 29.0879 14.0729 29.0879ZM14.3579 26.9913H13.6095V28.5108H14.0012C14.6928 28.5108 15.2771 28.4473 15.2771 27.723C15.2771 27.1394 14.7711 26.9913 14.3579 26.9913ZM18.0422 31.3253H17.33V26.415H18.0422V28.4687H20.4228V26.415H21.1355V31.3253H20.4228V29.0879H18.0422V31.3253ZM25.2622 31.3253H22.4757V26.415H25.2622V27.0338H23.1883V28.4687H25.077V29.0879H23.1883V30.7061H25.2622V31.3253ZM28.106 31.3253H27.3934V27.0338H25.8469V26.415H29.6528V27.0338H28.106V31.3253Z" fill="#02090F"/>
</svg>
