<svg width="41" height="45" viewBox="0 0 41 45" fill="none" xmlns="http://www.w3.org/2000/svg">
<path d="M40.5524 34.8203C39.6723 35.4643 38.7062 35.9366 37.6973 36.2157C36.6883 36.4948 35.6364 36.6451 34.5415 36.6451C33.1246 36.6451 31.8151 36.4089 30.6558 35.9366C29.4751 35.4858 28.4876 34.8418 27.6718 34.0689C26.8346 33.2746 26.212 32.33 25.7612 31.2566C25.3104 30.1618 25.0957 29.0025 25.0957 27.7145C25.0957 26.4264 25.3318 25.2242 25.7612 24.1508C26.1906 23.056 26.8131 22.1329 27.6074 21.36C28.4017 20.5872 29.3892 19.9646 30.5056 19.5353C31.6433 19.1059 32.9099 18.8912 34.3053 18.8912C35.0352 18.8912 35.7007 18.9556 36.3233 19.0844C36.9459 19.2132 37.5469 19.3635 38.0622 19.5782C38.5989 19.7929 39.0927 20.0505 39.522 20.3296C39.9514 20.6087 40.3592 20.9307 40.7027 21.2527L39.522 23.0345C39.3503 23.3136 39.1141 23.4639 38.8136 23.5497C38.513 23.6141 38.2125 23.5283 37.869 23.3136C37.547 23.1204 37.2464 22.9486 36.9674 22.7984C36.6883 22.6696 36.3877 22.5407 36.1087 22.4549C35.8081 22.369 35.5075 22.3046 35.1855 22.2617C34.8635 22.2187 34.4986 22.1973 34.0907 22.1973C33.3393 22.1973 32.6738 22.3261 32.0512 22.5837C31.4501 22.8413 30.9349 23.2277 30.5056 23.7C30.0762 24.1723 29.7542 24.7519 29.5181 25.4389C29.2819 26.1044 29.1746 26.8772 29.1746 27.693C29.1746 28.6161 29.3033 29.4319 29.5395 30.1618C29.7756 30.8917 30.1406 31.4928 30.6129 31.9866C31.0852 32.4803 31.6219 32.8667 32.2659 33.1243C32.91 33.4034 33.6399 33.5108 34.4127 33.5108C34.9065 33.5108 35.3358 33.4678 35.7437 33.382C36.1516 33.2961 36.5165 33.1673 36.903 32.9955L36.9244 30.355H35.207C34.9494 30.355 34.7562 30.2691 34.6274 30.1403C34.4771 30.0115 34.4127 29.8398 34.4127 29.6251L34.4341 27.4139L40.5954 27.4569L40.5524 34.7774V34.8203Z" fill="#02090F"/>
<path fill-rule="evenodd" clip-rule="evenodd" d="M11.292 38.3629L0 44.9535L0.0429119 36.1088L14.8556 27.3499L14.92 29.6685C14.8986 31.7079 16.5946 33.4253 18.7199 33.4468C20.8452 33.4683 22.5626 31.7723 22.5626 29.647C22.5626 28.4663 22.1547 27.2855 21.3175 26.5986C20.652 26.0404 21.0384 24.967 20.1153 24.967C30.6345 23.7863 30.7847 40.8102 16.7663 40.7244C14.641 40.6814 12.7089 39.8012 11.292 38.3629Z" fill="#02090F"/>
<path fill-rule="evenodd" clip-rule="evenodd" d="M17.3674 14.9204C20.2441 16.7022 24.1512 19.0422 26.1907 20.5664C28.8741 22.5629 30.3554 25.9548 30.334 29.5614C30.2696 40.467 18.956 42.2274 14.7269 40.3597C19.6001 41.6907 24.5591 37.9982 24.5806 32.8889C24.602 30.2698 23.4213 27.8011 21.3604 26.5559L11.3779 20.4805L17.3674 14.9204Z" fill="#02090F"/>
<path fill-rule="evenodd" clip-rule="evenodd" d="M7.23438 17.947L7.25586 13.8038L30.6127 0L30.5269 9.03792L17.2813 16.8951C15.6712 17.8612 15.0916 18.8272 15.0272 20.3729C14.9842 21.5536 15.757 23.0778 16.4011 23.4642L7.27729 17.9041L7.23438 17.947Z" fill="#02090F"/>
</svg>
