<svg width="90" height="53" viewBox="0 0 90 53" fill="none" xmlns="http://www.w3.org/2000/svg">
<g clip-path="url(#clip0)">
<path fill-rule="evenodd" clip-rule="evenodd" d="M31.5378 24.2259L32.0485 23.9204L30.536 23.0324L31.2197 22.627C32.1824 23.178 33.1563 23.3579 34.2167 22.7269C35.3049 22.0845 34.9784 21.4849 34.0046 20.9111C33.0307 20.3286 31.962 20.1031 30.8709 20.754C29.897 21.3165 30.1203 21.8875 30.8709 22.4014L30.1761 22.8154L28.845 22.036L28.3344 22.3329L31.5378 24.2259ZM57.2882 20.734C57.4612 20.6341 57.6342 20.5256 57.8183 20.4285L56.1887 19.4721C56.6324 19.4435 57.0956 19.355 57.5281 19.098C58.5215 18.507 58.0304 17.9931 57.0565 17.4221C56.0827 16.851 55.1674 16.5256 54.174 17.1251C53.7499 17.3707 53.5657 17.7162 53.5768 18.0131C53.4234 17.9646 53.2587 17.9046 53.1053 17.8361L52.7397 18.0531L57.2882 20.734ZM64.0243 26.8897C64.1973 26.7812 64.3703 26.6813 64.5461 26.5842L62.9081 25.6278C63.3713 25.5992 63.8234 25.5107 64.2587 25.2537C65.2521 24.6627 64.7694 24.1602 63.7955 23.5778C62.8133 23.0067 61.9064 22.6898 60.9046 23.2723C60.4804 23.5292 60.3074 23.8747 60.3158 24.1802C60.1512 24.1202 59.9977 24.0517 59.8247 24.0032C59.7103 24.0717 59.5847 24.1402 59.4787 24.2116L64.0243 26.8897ZM37.8442 28.7713C38.8181 29.3423 39.8199 29.5507 40.9193 28.9083C41.9992 28.2659 41.6616 27.6663 40.6877 27.0924C39.7139 26.51 38.6535 26.293 37.5652 26.9354C36.4741 27.5778 36.8704 28.2002 37.8442 28.7713ZM52.8513 22.884L52.3993 23.1495C52.0812 22.9611 51.7714 22.7755 51.4533 22.5984L49.2935 23.8718C49.5921 24.0688 49.8906 24.2659 50.1892 24.4543C50.0441 24.5342 49.899 24.6227 49.7567 24.7113L48.4452 23.9318L48.7717 23.7434C48.6182 23.2808 47.2397 22.4129 46.3328 21.839C46.9886 21.445 47.6527 21.0595 48.3196 20.6655L51.1547 22.3415C51.2998 22.253 51.4533 22.1645 51.5984 22.0645L52.8513 22.884ZM65.0958 12.4484C65.347 12.1829 65.3861 11.9259 65.0568 11.7289C64.535 11.4234 63.9294 11.4434 63.2625 11.8289L61.951 12.6083L65.16 14.5013C65.6121 14.2357 66.0669 13.9588 66.5301 13.6933C67.3701 13.1908 67.3505 12.8538 66.7338 12.4912C66.2623 12.2114 65.52 12.1629 65.0958 12.4484ZM56.0241 27.9433C56.1692 27.7548 56.4287 27.4893 55.9655 27.2238C55.4437 26.9183 54.8381 26.9383 54.1824 27.3237C53.7499 27.5807 53.3062 27.8376 52.882 28.0917C53.9508 28.7227 55.0111 29.3651 56.0827 29.9847L57.4528 29.1853C58.3011 28.6828 58.2816 28.3373 57.6649 27.9832C57.1905 27.7063 56.4594 27.6492 56.0241 27.9433ZM39.2785 19.6491L36.3876 18.0017L38.3242 20.2115L37.7466 20.557L34.0743 19.4435L36.8118 21.1109L36.329 21.3964L33.2456 19.4435L34.0157 18.981L37.6601 20.0945L35.7514 17.9646L36.502 17.522L39.8283 19.3379L39.2785 19.6491ZM57.3077 25.3879C58.3095 24.7969 59.0908 24.9625 60.2879 25.6649C59.5847 26.0903 58.8815 26.5043 58.1671 26.9183C58.2257 26.9468 58.2816 26.9782 58.3206 27.0068C59.1605 27.5007 59.8916 27.3922 60.3074 27.1553C60.7511 26.8983 61.0023 26.5928 61.1083 26.3872L61.6301 26.5157C61.5241 26.7413 61.2255 27.0382 60.6758 27.3751C59.674 27.9661 58.6332 27.8576 57.5895 27.2381C56.6129 26.6613 56.3031 25.9818 57.3077 25.3879ZM38.7595 16.0887C37.7577 16.6797 38.0647 17.3507 39.0386 17.9331C40.0794 18.5556 41.1119 18.6641 42.1053 18.0616C42.6634 17.7361 42.9061 17.4706 43.068 17.2136L42.5462 17.0766C42.4401 17.2936 42.1806 17.5905 41.7369 17.8561C41.3323 18.093 40.5984 18.2015 39.7697 17.7076C39.7222 17.6876 39.672 17.6476 39.6162 17.6191C40.3194 17.2051 41.0337 16.7911 41.7286 16.3657C40.5426 15.6633 39.7529 15.5063 38.7595 16.0887ZM73.4923 15.8318C72.4794 16.4342 72.8087 17.1052 73.7825 17.6847C74.815 18.2872 75.8559 18.3957 76.8493 17.8132C77.399 17.4792 77.6976 17.1708 77.812 16.9653C77.6278 16.9167 77.4548 16.8767 77.2818 16.8168C77.1757 17.0338 76.9162 17.3393 76.4809 17.5962C76.0651 17.8332 75.334 17.9417 74.5053 17.4478L74.3518 17.3593L76.4642 16.1059C75.2754 15.4063 74.4857 15.2493 73.4923 15.8318ZM66.3878 9.90449C67.4008 9.31347 68.1709 9.4705 69.3569 10.1814C68.6537 10.5869 67.9505 11.0094 67.2445 11.4234L67.398 11.5119C68.2379 12.0059 68.9802 11.8974 69.3848 11.6604C69.8285 11.3949 70.088 11.0979 70.1745 10.8809C70.3475 10.9409 70.5317 10.9894 70.713 11.0294C70.5875 11.2464 70.2973 11.5433 69.7392 11.8774C68.7458 12.4684 67.7161 12.3599 66.6725 11.7403C65.7042 11.1665 65.3944 10.4955 66.3878 9.90449ZM54.9721 20.517L54.6456 20.7055C54.4726 20.6455 54.3079 20.577 54.1433 20.517C54.1433 20.7626 54.0763 21.128 53.641 21.385C53.0243 21.7505 52.3965 21.9075 51.7044 21.5021C51.0961 21.1366 51.2133 20.7626 51.8384 20.3086C52.1844 20.0631 52.4272 19.9232 52.6672 19.7747L52.1453 19.4578C51.7882 19.2494 51.3054 19.2408 50.9203 19.4578C50.4962 19.7148 50.2562 20.0602 50.1585 20.2858C49.9855 20.2372 49.8209 20.1859 49.6479 20.1287C49.7455 19.9203 49.966 19.5948 50.5631 19.2408C51.4784 18.6983 52.2318 18.9067 52.7899 19.2408C53.5182 19.6576 54.241 20.0831 54.9721 20.517ZM78.8026 6.4412L80.0164 5.73027C80.3624 5.51328 80.5382 5.32484 80.5661 5.12783C80.6247 4.87087 80.4015 4.64532 80.0443 4.42832C79.6983 4.23132 79.369 4.1114 78.9756 4.15138C78.6575 4.17136 78.331 4.27986 77.9543 4.50541C77.7227 4.64246 77.4827 4.78236 77.2595 4.91941L76.1126 4.23989L75.5908 4.55681C76.6651 5.17923 77.7255 5.81021 78.8026 6.4412ZM54.174 10.8495L53.2671 8.40268L55.7841 9.90163L56.2864 9.6047L53.0662 7.70032L52.5834 7.97727L53.4987 10.4327L50.9733 8.9423L50.4906 9.22782L53.6913 11.1351L54.174 10.8495ZM52.9964 31.8006L52.5137 32.0861L49.313 30.1817L49.7958 29.8962L52.3211 31.3866L51.4059 28.9312L51.8886 28.6542L55.1088 30.5586L54.6065 30.8555L52.0895 29.3566L52.9964 31.8006ZM57.7402 8.74815L57.2575 9.03367L54.0568 7.12929L54.5395 6.84377L57.0649 8.33416L56.1496 5.87874L56.6324 5.60179L59.8526 7.50617L59.3503 7.8031L56.8333 6.30415L57.7402 8.74815ZM83.6524 3.57178L82.7455 1.12493L85.2625 2.62388L85.7648 2.32694L82.5446 0.422561L82.0618 0.69951L82.9771 3.15493L80.4517 1.66455L79.969 1.95006L83.1696 3.85444L83.6524 3.57178ZM69.6359 21.976L68.729 19.5292L71.246 21.0281L71.7483 20.7312L68.5281 18.8268L68.0454 19.1038L68.9606 21.5592L66.4353 20.0688L65.9525 20.3543L69.1532 22.2587L69.6359 21.976ZM38.4023 28.4458C37.6796 28.0204 37.1578 27.5578 37.9001 27.1238C38.6339 26.6899 39.2981 26.9154 40.1352 27.4208C40.964 27.9147 41.31 28.2688 40.5677 28.7142C39.8394 29.1481 39.1251 28.8712 38.4023 28.4458ZM47.1365 25.3594L47.4462 25.7534C47.7253 26.1274 47.2146 26.2559 46.6649 26.2959L46.877 26.6299C47.1281 26.6014 47.5327 26.4929 47.7532 26.3644C48.1857 26.1074 48.1689 25.8219 47.9262 25.4964C47.6667 25.1624 47.3569 24.8255 45.3227 22.43C45.1385 22.5385 44.946 22.6555 44.7646 22.7555L46.8072 24.8369L43.0764 23.7519L42.5183 24.086L47.1365 25.3594ZM46.9328 35.6065L47.2425 36.0005C47.5216 36.3745 47.0109 36.503 46.4612 36.543L46.6733 36.877C46.9244 36.8485 47.329 36.74 47.5495 36.6115C47.982 36.3545 47.9652 36.069 47.7225 35.7435C47.463 35.4095 47.1532 35.0726 45.119 32.6771C44.9348 32.7856 44.7423 32.9027 44.5609 33.0026L46.6035 35.084L42.8726 33.999L42.3146 34.3331L46.9328 35.6065ZM31.7108 22.2615C30.9881 21.8361 30.4774 21.3736 31.2002 20.951C31.9424 20.5085 32.6177 20.7426 33.4465 21.2365C34.2864 21.7305 34.6213 22.0959 33.8902 22.5299C33.1591 22.9639 32.4335 22.687 31.7108 22.2615ZM75.7973 8.2171L75.2866 8.5226C74.2067 7.89161 73.1463 7.26919 72.0776 6.62964L72.5882 6.32414L73.9193 7.10359L75.4122 6.21564L74.0923 5.43619L74.6225 5.13069L77.8231 7.02365C77.6501 7.13214 77.4771 7.23207 77.3013 7.32915L75.7582 6.41265L74.2541 7.3006L75.7973 8.2171ZM49.5363 33.862C49.0144 33.5451 48.515 33.251 47.9931 32.9455L49.486 32.0575L51.0375 32.9655L51.5593 32.66C50.4906 32.0375 49.4191 31.4066 48.3503 30.767C48.1661 30.8755 47.9931 30.9754 47.8397 31.0839L49.1595 31.8634C48.6573 32.1689 48.1578 32.4658 47.6667 32.7513C47.2146 32.4944 46.7709 32.2374 46.3356 31.9719C46.1514 32.0718 45.9784 32.1689 45.8054 32.2774L49.0144 34.1703C49.1902 34.059 49.3633 33.9591 49.5363 33.862ZM43.0959 15.5748L44.639 16.4827L44.1172 16.7882L40.9277 14.9038L41.4384 14.5983L42.7582 15.3778L44.2707 14.4898L42.9396 13.7104L43.4614 13.4049L46.6621 15.2978L46.1403 15.5948L44.5972 14.6868L43.0959 15.5748ZM72.2785 10.2985C71.7567 9.993 71.246 9.69606 70.7354 9.382L72.2394 8.49405L73.7825 9.40198L74.2932 9.10505L71.0925 7.21209L70.5819 7.51759L71.9018 8.29704L70.3893 9.18499L69.0695 8.40554L68.5588 8.71104C69.6276 9.34202 70.6879 9.96444 71.7595 10.604C71.9297 10.4955 72.1027 10.407 72.2785 10.2985ZM63.8904 25.0339C63.5806 25.2109 63.0811 25.3879 62.5789 25.4279L60.6507 24.283C60.7093 23.986 60.9409 23.692 61.2673 23.4835C61.711 23.218 62.3556 23.375 63.2346 23.909C64.122 24.4229 64.3341 24.7684 63.8904 25.0339ZM57.1626 18.8782C56.8528 19.0552 56.3533 19.2322 55.8622 19.2722L53.9256 18.1273C53.9842 17.8304 54.2159 17.5249 54.5423 17.3279C54.9944 17.0709 55.6306 17.2279 56.5096 17.7418C57.383 18.2786 57.6063 18.6127 57.1626 18.8782ZM49.2377 11.549C49.2767 11.5291 49.4498 11.432 49.6228 11.3235L49.4581 9.85309L49.9883 9.52761L50.0469 11.0751C50.4627 10.8495 50.8087 10.8495 51.1547 10.9466C51.4449 11.0351 52.8792 11.3806 53.1611 11.4491L52.5444 11.8346L50.8478 11.3606C50.538 11.2807 50.3455 11.3007 50.1334 11.4091L49.5642 11.7346L51.1157 12.6511L50.605 12.9566L47.4044 11.0722L47.915 10.7667L49.2377 11.549ZM23.9896 23.6434L26.8443 21.956L27.2684 22.2016L26.1299 22.8725L29.9752 25.1509L29.4254 25.4679L25.5802 23.198L24.4138 23.889L23.9896 23.6434ZM65.4223 20.9596C65.5088 21.0595 65.5953 21.168 65.6623 21.2651C65.4028 21.2851 64.9201 21.3536 64.4764 21.6191C63.9071 21.9532 64.0997 22.3301 64.987 22.8411C65.8744 23.3636 66.5301 23.4436 67.0492 23.1381C67.5012 22.8725 67.5989 22.587 67.6463 22.4271C67.8193 22.4871 67.9923 22.5271 68.1681 22.5842C68.1291 22.7012 67.9951 23.0267 67.4259 23.3636C66.452 23.9347 65.4112 23.7491 64.4289 23.1752C63.4662 22.6042 63.109 21.9618 64.0829 21.3793C64.574 21.0995 65.1349 20.9796 65.4223 20.9596ZM42.2671 24.4914C42.3536 24.5999 42.4401 24.7084 42.5266 24.7969C42.2476 24.8255 41.776 24.8968 41.3212 25.1624C40.7631 25.4879 40.964 25.8733 41.8513 26.3958C42.7275 26.9183 43.3833 26.9868 43.9051 26.6813C44.3572 26.4158 44.4548 26.1388 44.5134 25.9818L45.0241 26.1188C44.9962 26.2473 44.8595 26.5728 44.2902 26.9069C43.3163 27.4893 42.2671 27.3009 41.2932 26.7184C40.311 26.1474 39.9622 25.505 40.9472 24.934C41.43 24.6484 41.9881 24.52 42.2671 24.4914ZM46.8574 11.6575C46.5784 11.6861 46.0091 11.806 45.5264 12.0915C44.5441 12.674 44.8985 13.3135 45.8724 13.876C46.8463 14.4584 47.8871 14.644 48.8805 14.0644C49.4302 13.7389 49.5837 13.4049 49.6144 13.285L49.0926 13.1365C49.034 13.2935 48.9391 13.5791 48.4954 13.836C47.9652 14.1529 47.3206 14.073 46.4221 13.5505C45.5347 13.028 45.3422 12.654 45.9115 12.3171C46.3551 12.0516 46.8379 11.9916 47.1058 11.963L46.8574 11.6575ZM58.6945 14.8039L58.9457 15.1094C58.6666 15.138 58.195 15.1894 57.7402 15.4549C57.171 15.7889 57.3747 16.1744 58.2509 16.6969C59.1466 17.2194 59.8023 17.2879 60.3242 16.9824C60.7762 16.7254 60.8739 16.4313 60.9213 16.2715C61.0943 16.3314 61.259 16.3799 61.4431 16.4199C61.4152 16.5484 61.2701 16.8739 60.7093 17.2079C59.727 17.7904 58.6862 17.6019 57.7123 17.0309C56.7301 16.4485 56.3813 15.8089 57.3663 15.235C57.8462 14.9524 58.396 14.8239 58.6945 14.8039ZM47.156 21.779C47.9373 22.2416 49.1428 23.1209 49.2767 23.4464L50.6357 22.647L48.1689 21.188L47.156 21.779ZM73.8774 19.4806L73.3472 19.7861L70.5428 18.1301C70.2163 18.3272 69.8871 18.5242 69.5494 18.7126C69.4239 18.6327 69.2983 18.5556 69.1532 18.4756L71.6702 16.9967L72.0664 17.2336C71.7288 17.4221 71.4023 17.6276 71.0646 17.8161L73.8774 19.4806ZM63.5248 15.4663C63.3407 15.5662 63.1676 15.6747 62.9946 15.7718C62.0598 15.2093 61.125 14.6669 60.1902 14.1158C59.8637 14.3128 59.5345 14.5098 59.1968 14.6983C59.0713 14.6297 58.9262 14.5498 58.8006 14.4727C59.6489 13.9702 60.4776 13.4763 61.3259 12.9937L61.711 13.2193C61.3734 13.4077 61.0469 13.6133 60.7093 13.8103L63.5248 15.4663ZM79.9522 15.8917L79.4416 16.1887C78.5068 15.6462 77.572 15.0951 76.6372 14.5327L75.6354 15.1237C75.5015 15.0552 75.3759 14.9667 75.2392 14.8981C76.0679 14.3956 76.9162 13.9017 77.7562 13.4077L78.1524 13.6333C77.8148 13.8417 77.4883 14.0387 77.1395 14.2357L79.9522 15.8917ZM37.727 30.6956L37.2164 31.0126C36.1365 30.3701 35.0761 29.7392 34.0074 29.1196L35.81 28.0546C35.9439 28.1231 36.0807 28.2117 36.2062 28.2802L34.9254 29.0396L37.727 30.6956ZM77.5887 5.1107L78.3115 4.68529C78.4761 4.57679 78.6575 4.54824 78.8333 4.54824C79.0928 4.54824 79.316 4.65674 79.489 4.75667C79.6816 4.86516 79.9132 5.02219 79.9411 5.19921C79.9411 5.29914 79.8936 5.39622 79.7095 5.50471L78.9756 5.93869C78.5235 5.66175 78.0519 5.39622 77.5887 5.1107ZM81.6768 4.74525C80.6164 4.10284 79.5476 3.48327 78.4761 2.85229C78.6491 2.75236 78.8221 2.64386 78.9867 2.55535C80.0555 3.17777 81.1159 3.80876 82.1874 4.43975L81.6768 4.74525ZM55.0781 28.7912L55.8873 28.3173C56.4092 28.0004 56.8333 28.1289 57.1012 28.2887C57.3998 28.4658 57.623 28.6628 57.1403 28.9397L56.2334 29.4736C55.8511 29.2566 55.466 29.0197 55.0781 28.7912ZM64.161 13.2964L64.9703 12.8224C65.5005 12.5169 65.9162 12.634 66.1841 12.8025C66.4743 12.9795 66.6948 13.1679 66.212 13.4449C65.9135 13.6333 65.6149 13.8103 65.3163 13.9873L64.161 13.2964ZM68.5476 10.2871C67.8835 9.89307 67.3422 9.73603 66.7366 10.0986C66.1199 10.4641 66.3906 10.9181 66.9403 11.2321C67.4566 10.9181 67.9979 10.604 68.5476 10.2871ZM59.4563 25.7848C58.8006 25.3993 58.262 25.2337 57.6537 25.5963C57.037 25.9618 57.2965 26.4044 57.8462 26.7298L59.4563 25.7848ZM75.6326 16.2258L74.0337 17.1737C73.484 16.8482 73.2244 16.4056 73.83 16.0402C74.4467 15.6833 74.9852 15.8318 75.6326 16.2258ZM40.8998 16.4827C40.3696 16.7997 39.8394 17.1137 39.3092 17.4392C38.7511 17.1052 38.4888 16.6598 39.1055 16.2943C39.7139 15.9288 40.244 16.0973 40.8998 16.4827ZM53.295 21.1766C52.9295 21.3936 52.6588 21.4021 52.2625 21.1766C51.8775 20.9396 51.8775 20.7712 52.1844 20.5256C52.4746 20.2886 52.7062 20.1116 52.9657 19.9432L53.7666 20.4171C53.7694 20.6141 53.6913 20.9396 53.295 21.1766ZM62.8216 12.5084L63.5918 12.0544C63.9964 11.8174 64.3341 11.9373 64.5852 12.0744C64.7973 12.2114 65.001 12.3913 64.5461 12.6568C64.295 12.8053 64.0438 12.9424 63.8039 13.0908C63.4774 12.9024 63.1481 12.7054 62.8216 12.5084ZM53.7387 28.0032L54.5089 27.5493C54.9051 27.3123 55.2595 27.4322 55.5023 27.5778C55.7227 27.7063 55.9264 27.8747 55.4632 28.1403C55.212 28.2973 54.9721 28.4372 54.7209 28.5828C54.4056 28.3887 54.068 28.2002 53.7387 28.0032ZM54.9246 6.06718C55.2818 5.85875 55.3879 5.64176 55.3879 5.48473C55.3879 5.31627 55.2818 5.19921 55.2539 5.17923L54.8019 5.26774C54.8298 5.33626 54.8409 5.39622 54.8409 5.44476C54.8409 5.8302 54.2047 5.94726 53.895 5.94726C53.8085 5.94726 53.7108 5.93869 53.6243 5.92727L53.4206 6.25276C53.4485 6.27275 53.6522 6.3327 53.9424 6.3327C54.2131 6.3327 54.5675 6.27275 54.9246 6.06718ZM80.8368 0.887949C80.4796 1.09637 80.1225 1.15348 79.8546 1.15348C79.5644 1.15348 79.3635 1.09352 79.3328 1.07353L79.5365 0.748047C79.623 0.756613 79.7206 0.768033 79.8071 0.768033C80.1169 0.768033 80.7531 0.650972 80.7531 0.265528C80.7531 0.216991 80.7447 0.157033 80.714 0.0885094L81.1661 0C81.194 0.019986 81.3 0.137047 81.3 0.3055C81.3 0.462533 81.194 0.679524 80.8368 0.887949Z" fill="black"/>
<path fill-rule="evenodd" clip-rule="evenodd" d="M31.7582 42.1933C33.2707 42.1933 34.1692 41.0398 34.1692 39.2639C34.1692 36.109 32.2215 33.9476 30.1398 33.9476C29.0124 33.9476 28.2227 34.5986 27.8935 35.6636L27.9018 35.5636L27.034 35.0497L27.0256 32.1403L25.5495 31.2638V38.4359L27.034 39.3039V36.5715L27.7288 36.9969C27.7763 40.0947 29.7045 42.1933 31.7582 42.1933ZM40.9919 43.3296L41.1649 47.6694L42.535 48.4774L42.1694 41.1597L40.9361 40.4202L38.8432 44.4146L37.1466 38.1704L35.3524 37.1054L34.7831 43.9006L36.1532 44.7086L36.5299 40.7543L37.9084 45.7565L39.2478 46.5359L40.9919 43.3296ZM52.6365 46.1191L50.9203 49.4739L50.139 44.6515L48.0852 43.4495L49.9855 51.1241C49.6953 51.2812 49.1651 51.2326 48.434 50.7387L48.3866 52.1292C49.9492 53.0571 50.4599 52.5717 51.2022 51.4182L54.0735 46.9699L52.6365 46.1191ZM24.9802 31.4922L22.8678 30.2502L22.8762 36.8484L21.3833 35.9719L21.3749 29.3623L19.2821 28.1203V26.4243L24.9802 29.7962V31.4922ZM45.1859 50.0363L43.693 49.1484L43.6847 40.8428L47.6862 43.2211L47.6946 44.9171L45.1776 43.4267L45.1859 50.0363ZM31.4401 40.7457C30.1956 40.7457 29.3585 39.0098 29.3585 36.9969C29.3585 36.049 29.7156 35.398 30.4467 35.398C31.6996 35.398 32.5396 37.134 32.5396 39.1468C32.5396 40.0947 32.1824 40.7457 31.4513 40.7457H31.4401Z" fill="black"/>
<path fill-rule="evenodd" clip-rule="evenodd" d="M25.7113 15.0323L19.2821 11.235L0 22.627V30.2188L6.42642 34.0162V26.4215L25.7113 15.0323Z" fill="#02090F"/>
<path fill-rule="evenodd" clip-rule="evenodd" d="M12.8556 53.0001V30.2189L6.42639 34.0162V49.2056L12.8556 53.0001Z" fill="#02090F"/>
</g>
<defs>
<clipPath id="clip0">
<rect width="90" height="53" fill="white"/>
</clipPath>
</defs>
</svg>
