<svg width="144" height="87" viewBox="0 0 144 87" fill="none" xmlns="http://www.w3.org/2000/svg">
<g clip-path="url(#clip0)">
<path fill-rule="evenodd" clip-rule="evenodd" d="M52.9528 39.767L53.8102 39.2655L51.2708 37.8079L52.4187 37.1424C54.0398 38.047 55.6749 38.3422 57.4506 37.3065C59.2778 36.252 58.7297 35.2677 57.0945 34.3257C55.4594 33.3696 53.6649 32.9994 51.833 34.0679C50.1979 34.9912 50.568 35.9286 51.833 36.7722L50.6664 37.4518L48.4316 36.1723L47.5742 36.6597L52.9528 39.767ZM96.1879 34.0351C96.4784 33.8711 96.7689 33.693 97.0781 33.5336L94.342 31.9636C95.0869 31.9167 95.8647 31.7714 96.5909 31.3496C98.2588 30.3795 97.4342 29.5359 95.7991 28.5985C94.1639 27.6612 92.6272 27.1269 90.9592 28.1111C90.2471 28.5141 89.9379 29.0812 89.9566 29.5687C89.6989 29.489 89.4225 29.3906 89.1648 29.2781L88.551 29.6343L96.1879 34.0351ZM107.503 44.1351C107.793 43.957 108.084 43.7929 108.374 43.6336L105.624 42.0635C106.402 42.0166 107.161 41.8714 107.892 41.4496C109.56 40.4794 108.749 39.6498 107.114 38.6984C105.465 37.7611 103.942 37.2409 102.26 38.1969C101.548 38.6188 101.257 39.1859 101.271 39.6873C100.995 39.5889 100.737 39.4764 100.447 39.3968C100.255 39.5092 100.044 39.6217 99.8658 39.7342L107.503 44.1351ZM63.5414 47.2283C65.1765 48.1656 66.8585 48.5078 68.7045 47.4533C70.5177 46.3988 69.9507 45.4145 68.3156 44.4725C66.6805 43.5164 64.9001 43.1602 63.0729 44.2147C61.2409 45.2692 61.9062 46.291 63.5414 47.2283ZM88.7384 37.5642L87.9794 38.0001C87.4453 37.6908 86.93 37.3861 86.3912 37.0909L82.7648 39.1812C83.2661 39.5046 83.7674 39.8279 84.2688 40.1373C84.0251 40.2685 83.7815 40.4138 83.5379 40.5591L81.3358 39.2796L81.884 38.9703C81.6263 38.211 79.3118 36.7862 77.7891 35.8442C78.8901 35.1974 80.0052 34.5647 81.125 33.918L85.8852 36.6691C86.1288 36.5238 86.3865 36.3785 86.6301 36.2145L88.7384 37.5642ZM109.297 20.4342C109.719 19.9983 109.784 19.5765 109.232 19.2531C108.355 18.7517 107.339 18.7845 106.219 19.4172L104.017 20.6967L109.405 23.804C110.164 23.3681 110.928 22.9135 111.705 22.4776C113.116 21.6528 113.083 21.0997 112.047 20.4998C111.256 20.0452 110.009 19.9655 109.297 20.4342ZM94.0655 45.8691C94.3092 45.5598 94.7449 45.124 93.9671 44.6881C93.091 44.1866 92.0743 44.2194 90.9733 44.8521C90.2471 45.2739 89.5021 45.6957 88.79 46.1129C90.5844 47.1486 92.3648 48.2031 94.1639 49.2202L96.4644 47.9079C97.8887 47.083 97.8559 46.5159 96.8204 45.9301C96.0239 45.4801 94.7917 45.3817 94.0655 45.8691ZM65.9496 32.2542L61.0957 29.5499L64.3472 33.1774L63.3774 33.7445L57.2117 31.9167L61.8078 34.6538L60.9973 35.1224L55.8155 31.9167L57.1086 31.1575L63.2275 32.9853L60.0228 29.489L61.2831 28.7625L66.8679 31.7433L65.9496 32.2542ZM96.2207 41.6745C97.9027 40.7044 99.2146 40.9762 101.225 42.1291C100.044 42.8275 98.8632 43.507 97.6638 44.1866C97.7622 44.2335 97.8559 44.285 97.9215 44.3319C99.3317 45.1427 100.559 44.9646 101.257 44.5756C102.002 44.1538 102.424 43.6523 102.602 43.3149L103.478 43.5258C103.3 43.896 102.799 44.3834 101.876 44.9365C100.194 45.9066 98.4462 45.7285 96.6986 44.7115C95.0541 43.7648 94.534 42.6494 96.2207 41.6745ZM65.0781 26.4098C63.3961 27.3799 63.9115 28.4813 65.5466 29.4374C67.2942 30.4591 69.0278 30.6372 70.6957 29.6483C71.6327 29.114 72.0403 28.6782 72.3121 28.2564L71.436 28.0314C71.2579 28.3876 70.8222 28.875 70.0772 29.3109C69.3979 29.6999 68.1657 29.878 66.7742 29.0672C66.6945 29.0344 66.6102 28.9688 66.5165 28.9219C67.6972 28.2423 68.8966 27.5627 70.0632 26.8644C68.072 25.7115 66.7461 25.4537 65.0781 26.4098ZM123.395 25.988C121.694 26.9769 122.247 28.0783 123.882 29.0344C125.616 30.0233 127.363 30.2014 129.031 29.2453C129.954 28.6922 130.456 28.1954 130.652 27.8533C130.343 27.7736 130.053 27.708 129.762 27.6096C129.584 27.9658 129.148 28.4673 128.418 28.8891C127.719 29.2781 126.492 29.4562 125.1 28.6454L124.843 28.5001L128.389 26.4426C126.389 25.2897 125.063 25.0319 123.395 25.988ZM111.466 16.2536C113.167 15.2835 114.46 15.5412 116.451 16.7082C115.271 17.3738 114.09 18.0674 112.905 18.747L113.162 18.8923C114.568 19.7031 115.819 19.525 116.498 19.136C117.243 18.7001 117.679 18.2127 117.824 17.8565C118.115 17.9549 118.424 18.0346 118.728 18.1002C118.518 18.4564 118.03 18.9438 117.093 19.4922C115.425 20.4623 113.697 20.2842 111.944 19.2672C110.319 18.3298 109.798 17.2285 111.466 16.2536ZM92.3039 33.6789L91.7557 33.9883C91.4652 33.8898 91.1888 33.7774 90.9124 33.6789C90.9124 34.082 90.7999 34.6819 90.069 35.1037C89.0336 35.7036 87.9794 35.9614 86.8128 35.3005C85.7914 34.7006 85.9882 34.0867 87.0377 33.3415C87.6187 32.9384 88.0263 32.7088 88.4292 32.4697L87.5531 31.9495C86.9534 31.6121 86.1428 31.5933 85.4963 31.9495C84.7841 32.3713 84.3812 32.9384 84.2172 33.3087C83.9267 33.229 83.6503 33.1446 83.3598 33.0509C83.5238 32.7088 83.8939 32.1745 84.8966 31.5933C86.4333 30.7029 87.6983 31.045 88.6354 31.5933C89.8582 32.2682 91.0717 32.9665 92.3039 33.6789ZM132.311 10.5733L134.349 9.40629C134.93 9.0501 135.225 8.74077 135.272 8.41739C135.37 7.99558 134.996 7.62533 134.401 7.26914C133.82 6.94575 133.267 6.74891 132.606 6.81452C132.072 6.84733 131.519 7.02543 130.891 7.39568C130.502 7.62064 130.1 7.85029 129.725 8.07526L127.799 6.95981L126.923 7.48004C128.722 8.50175 130.502 9.53752 132.311 10.5733ZM90.9592 17.8096L89.4365 13.7931L93.6626 16.2536L94.5059 15.7662L89.0992 12.6401L88.2887 13.0948L89.8254 17.1254L85.5853 14.6789L84.7748 15.1476L90.1487 18.2783L90.9592 17.8096ZM88.9821 52.2009L88.1715 52.6696L82.7976 49.5436L83.6081 49.0749L87.8483 51.5214L86.3115 47.4908L87.122 47.0361L92.5288 50.1622L91.6854 50.6496L87.4594 48.1891L88.9821 52.2009ZM96.9469 14.3602L96.1364 14.8289L90.7625 11.7028L91.573 11.2341L95.8131 13.6806L94.2764 9.65L95.0869 9.19539L100.494 12.3214L99.6503 12.8089L95.4242 10.3483L96.9469 14.3602ZM140.454 5.86311L138.931 1.84658L143.157 4.30712L144.001 3.81969L138.594 0.693638L137.783 1.14825L139.32 5.17885L135.08 2.73237L134.269 3.20105L139.643 6.3271L140.454 5.86311ZM116.92 36.0739L115.397 32.0573L119.623 34.5179L120.467 34.0304L115.06 30.9044L114.249 31.359L115.786 35.3896L111.546 32.9431L110.736 33.4118L116.109 36.5378L116.92 36.0739ZM64.4784 46.694C63.2649 45.9957 62.3888 45.2364 63.6351 44.5241C64.8626 43.8117 65.9824 44.1819 67.3879 45.0115C68.7794 45.8223 69.3604 46.4034 68.1141 47.1346C66.8913 47.847 65.6919 47.3923 64.4784 46.694ZM79.1431 41.6276L79.6632 42.2744C80.1317 42.8884 79.2743 43.0993 78.3513 43.1649L78.7074 43.7179C79.1291 43.6711 79.8084 43.493 80.1786 43.2821C80.9095 42.8603 80.8767 42.3916 80.469 41.8573C80.0333 41.3089 79.5133 40.7559 76.0977 36.8237C75.7885 37.0018 75.4652 37.194 75.1607 37.358L78.5903 40.7747L72.3261 38.9937L71.3891 39.542L79.1431 41.6276ZM78.8011 58.4484L79.3212 59.0951C79.7897 59.7091 78.9323 59.92 78.0093 59.9856L78.3654 60.534C78.7871 60.4871 79.4664 60.309 79.8365 60.0981C80.5627 59.6763 80.5346 59.2076 80.127 58.6733C79.6913 58.1203 79.1712 57.5719 75.7557 53.6398C75.4465 53.8179 75.1232 54.01 74.8187 54.1741L78.2483 57.5907L71.9841 55.8097L71.0471 56.3581L78.8011 58.4484ZM53.2433 36.5425C52.0298 35.8442 51.1724 35.085 52.3859 34.3866C53.6321 33.6555 54.766 34.0492 56.1575 34.8553C57.5677 35.6661 58.1346 36.266 56.9024 36.9784C55.6749 37.6908 54.4567 37.2409 53.2433 36.5425ZM127.265 13.4884L126.408 13.9899C124.594 12.9542 122.814 11.9324 121.02 10.8826L121.877 10.3811L124.112 11.6606L126.618 10.203L124.402 8.92356L125.292 8.42208L130.666 11.5294C130.376 11.7075 130.085 11.8715 129.79 12.0309L127.199 10.5264L124.674 11.984L127.265 13.4884ZM83.1724 55.5848C82.2963 55.0645 81.4576 54.5818 80.5815 54.0803L83.0881 52.6227L85.6931 54.1131L86.5692 53.6116C84.7748 52.5946 82.9756 51.5542 81.1812 50.5043C80.872 50.6824 80.5815 50.8418 80.3238 51.0246L82.5399 52.304C81.6966 52.8055 80.8579 53.2929 80.0333 53.7616C79.2743 53.3398 78.5294 52.918 77.7985 52.4821C77.4893 52.6462 77.1988 52.8055 76.9083 52.9836L82.2963 56.0909C82.5914 55.9081 82.8819 55.7441 83.1724 55.5848ZM72.3589 25.5662L74.9499 27.0566L74.0737 27.558L68.7139 24.4648L69.5712 23.9633L71.7873 25.2428L74.3267 23.7852L72.0919 22.5057L72.9633 22.0043L78.3373 25.1116L77.4611 25.599L74.8702 24.1086L72.3589 25.5662ZM121.357 16.9051C120.481 16.4036 119.623 15.9162 118.766 15.4006L121.291 13.9431L123.882 15.4334L124.74 14.946L119.366 11.8387L118.508 12.3402L120.724 13.6197L118.185 15.0772L115.969 13.7978L115.112 14.2993C116.906 15.335 118.691 16.3567 120.485 17.4066C120.771 17.2285 121.062 17.0832 121.357 16.9051ZM107.273 41.0934C106.753 41.3839 105.914 41.6745 105.071 41.7401L101.834 39.8607C101.932 39.3733 102.321 38.8906 102.869 38.5485C103.614 38.1126 104.696 38.3704 106.172 39.2468C107.662 40.0904 108.018 40.6575 107.273 41.0934ZM95.9771 30.9887C95.4617 31.2793 94.6184 31.5699 93.7938 31.6355L90.5376 29.7561C90.636 29.2687 91.0248 28.7672 91.573 28.4438C92.332 28.022 93.4002 28.2798 94.8761 29.1234C96.3472 30.0045 96.722 30.5529 95.9771 30.9887ZM82.6711 18.9626C82.7367 18.9298 83.0272 18.7657 83.3177 18.5923L83.0412 16.1786L83.9314 15.6443L84.0298 18.1846C84.7279 17.8143 85.3089 17.8143 85.8898 17.9737C86.3771 18.1189 88.7853 18.686 89.2585 18.7985L88.2231 19.4312L85.3745 18.6532C84.8544 18.522 84.5311 18.5548 84.175 18.7329L83.2193 19.2672L85.8242 20.7716L84.9669 21.2731L79.5929 18.1799L80.4503 17.6784L82.6711 18.9626ZM40.2793 38.8109L45.0723 36.041L45.7844 36.4441L43.8729 37.5455L50.3291 41.2855L49.4061 41.8011L42.9499 38.0798L40.9914 39.214L40.2793 38.8109ZM109.845 34.4054C109.991 34.5694 110.136 34.7475 110.248 34.9069C109.813 34.9397 109.002 35.0521 108.257 35.488C107.301 36.041 107.625 36.655 109.114 37.4939C110.604 38.3516 111.705 38.4828 112.577 37.9814C113.336 37.5455 113.5 37.0768 113.579 36.8144C113.87 36.9128 114.16 36.9784 114.456 37.0721C114.39 37.2643 114.165 37.7986 113.209 38.3516C111.574 39.289 109.827 38.9843 108.177 38.0423C106.556 37.1049 105.961 36.0504 107.596 35.0943C108.421 34.635 109.363 34.4382 109.845 34.4054ZM70.9674 40.2029C71.1127 40.381 71.2579 40.5591 71.4032 40.7044C70.9346 40.7512 70.1428 40.8684 69.3791 41.3043C68.4421 41.8385 68.7794 42.4713 70.2693 43.3289C71.7405 44.1866 72.8415 44.2991 73.7177 43.7976C74.4767 43.3617 74.6406 42.9071 74.739 42.6494L75.5964 42.8743C75.5496 43.0852 75.32 43.6195 74.3642 44.1679C72.7291 45.124 70.9627 44.8146 69.3323 43.8585C67.6831 42.9212 67.0975 41.8667 68.7513 40.9293C69.5619 40.4606 70.4989 40.2497 70.9674 40.2029ZM78.6746 19.136C78.2061 19.1828 77.2503 19.3797 76.4398 19.8484C74.7906 20.8044 75.3856 21.8543 77.0207 22.7776C78.6559 23.7337 80.4035 24.0383 82.0714 23.0869C82.9944 22.5526 83.2521 22.0043 83.3036 21.8074L82.4322 21.5637C82.3338 21.8215 82.1745 22.2901 81.4295 22.712C80.5393 23.2322 79.4524 23.101 77.9484 22.2433C76.4585 21.3856 76.1352 20.7716 77.091 20.2186C77.836 19.7827 78.6465 19.6843 79.0963 19.6375L78.6746 19.136ZM98.5493 24.3008L98.971 24.8022C98.5024 24.8491 97.7059 24.9335 96.9469 25.3693C95.9912 25.9224 96.3332 26.5504 97.8043 27.4081C99.3083 28.2657 100.409 28.3782 101.285 27.8767C102.044 27.4549 102.208 26.9675 102.288 26.7097C102.579 26.8082 102.855 26.8878 103.164 26.9535C103.117 27.1644 102.874 27.6986 101.937 28.247C100.287 29.2031 98.5352 28.8938 96.9048 27.9564C95.2556 27.0003 94.6699 25.9505 96.3238 25.0085C97.125 24.5445 98.048 24.3383 98.5493 24.3008ZM79.1759 35.7505C80.4878 36.5097 82.5118 37.9532 82.7367 38.4875L85.0184 37.1752L80.8767 34.7803L79.1759 35.7505ZM124.042 31.9776L123.151 32.4791L118.443 29.7608C117.895 30.0842 117.342 30.4076 116.775 30.7169C116.564 30.5857 116.353 30.4591 116.109 30.3279L120.336 27.9002L121.001 28.2892C120.434 28.5985 119.886 28.9359 119.319 29.2453L124.042 31.9776ZM106.659 25.3881C106.35 25.5521 106.06 25.7302 105.769 25.8896C104.2 24.9663 102.63 24.0758 101.061 23.1713C100.508 23.4946 99.9595 23.818 99.3926 24.1273C99.1818 24.0149 98.9382 23.8836 98.7273 23.7524C100.152 22.9275 101.543 22.1167 102.967 21.3247L103.614 21.6949C103.047 22.0043 102.499 22.3417 101.932 22.6651L106.659 25.3881ZM134.241 26.0817L133.384 26.5691C131.814 25.6787 130.245 24.7694 128.675 23.8508L126.993 24.821C126.768 24.7085 126.557 24.5632 126.328 24.4507C127.719 23.6259 129.144 22.8151 130.554 22.0043L131.219 22.3745C130.652 22.712 130.104 23.04 129.519 23.3634L134.241 26.0817ZM63.3446 50.3872L62.4872 50.9074C60.674 49.8529 58.8936 48.8171 57.0992 47.8001L60.1259 46.0519C60.3507 46.1644 60.5803 46.3097 60.7912 46.4222L58.636 47.6689L63.3446 50.3872ZM130.273 8.38927L131.486 7.69094C131.763 7.51285 132.067 7.46598 132.362 7.46598C132.798 7.46598 133.173 7.64408 133.463 7.80811C133.787 7.98621 134.176 8.24398 134.222 8.53924C134.222 8.70328 134.143 8.86263 133.834 9.04073L132.601 9.75311C131.842 9.29381 131.051 8.85794 130.273 8.38927ZM137.137 7.78937C135.356 6.73485 133.557 5.71783 131.763 4.68206C132.053 4.51802 132.344 4.34461 132.62 4.19463C134.415 5.21634 136.2 6.25211 137.994 7.28788L137.137 7.78937ZM92.4819 47.2611L93.8406 46.4831C94.7168 45.9676 95.4289 46.1738 95.8787 46.4362C96.38 46.7268 96.7548 47.0502 95.9443 47.5048L94.4216 48.3766C93.775 48.0251 93.1285 47.636 92.4819 47.2611ZM107.728 21.8262L109.086 21.0482C109.977 20.5467 110.67 20.7388 111.124 21.0154C111.612 21.3059 111.982 21.6153 111.171 22.0699C110.67 22.3792 110.169 22.6698 109.667 22.9604L107.728 21.8262ZM115.093 16.8863C113.978 16.2396 113.069 15.9771 112.052 16.577C111.017 17.1769 111.471 17.9221 112.394 18.4376C113.261 17.9221 114.17 17.4066 115.093 16.8863ZM99.8283 42.326C98.7273 41.6933 97.8231 41.4214 96.8017 42.0166C95.7663 42.6166 96.202 43.343 97.125 43.8773L99.8283 42.326ZM126.989 26.6348L124.304 28.1908C123.381 27.6565 122.945 26.9253 123.962 26.3301C124.997 25.7443 125.906 25.988 126.989 26.6348ZM68.6717 27.0566C67.7815 27.5768 66.8913 28.0923 66.0011 28.6266C65.0641 28.0736 64.6237 27.3471 65.6638 26.7472C66.6805 26.1473 67.5707 26.4239 68.6717 27.0566ZM89.4834 34.7616C88.8696 35.1178 88.4152 35.1318 87.7499 34.7616C87.1033 34.3726 87.1033 34.0961 87.6187 33.693C88.1059 33.304 88.4948 33.0134 88.9305 32.7369L90.2752 33.5149C90.2799 33.8383 90.1487 34.3726 89.4834 34.7616ZM105.479 20.5326L106.772 19.7874C107.451 19.3984 108.018 19.5953 108.44 19.8202C108.796 20.0452 109.138 20.3358 108.374 20.7763C107.952 21.02 107.531 21.245 107.128 21.4887C106.58 21.1794 106.027 20.856 105.479 20.5326ZM90.2283 45.9676L91.5215 45.2224C92.1868 44.8334 92.7818 45.0255 93.1894 45.2692C93.5595 45.4801 93.9015 45.7567 93.1238 46.1925C92.7021 46.4503 92.2992 46.68 91.8775 46.9237C91.3481 46.6003 90.7812 46.291 90.2283 45.9676ZM92.2196 9.95933C92.8193 9.6172 92.9973 9.261 92.9973 9.00323C92.9973 8.72671 92.8193 8.53456 92.7724 8.50175L92.0134 8.64704C92.0603 8.75952 92.079 8.85794 92.079 8.93762C92.079 9.57033 91.0108 9.76248 90.4907 9.76248C90.3455 9.76248 90.1815 9.74842 90.0362 9.72968L89.6989 10.264C89.7458 10.2968 90.0878 10.3952 90.5751 10.3952C91.0248 10.3952 91.6199 10.2968 92.2196 9.95933ZM135.726 1.45758C135.127 1.79502 134.527 1.89344 134.077 1.89344C133.59 1.89344 133.253 1.79502 133.201 1.76222L133.543 1.22793C133.688 1.24199 133.852 1.26073 133.998 1.26073C134.513 1.26073 135.586 1.06858 135.586 0.435867C135.586 0.356192 135.567 0.257771 135.52 0.145289L136.279 0C136.326 0.0328072 136.504 0.224964 136.504 0.501481C136.504 0.759252 136.326 1.11544 135.726 1.45758Z" fill="black"/>
<path fill-rule="evenodd" clip-rule="evenodd" d="M53.3224 69.2654C55.8618 69.2654 57.3704 67.3719 57.3704 64.4568C57.3704 59.2732 54.1001 55.73 50.605 55.73C48.7121 55.73 47.3815 56.7986 46.8334 58.5468L46.8521 58.3827L45.395 57.5391L45.381 52.7633L42.9025 51.3245V63.0929L45.395 64.5177V60.0325L46.5616 60.7308C46.6366 65.8159 49.8741 69.2654 53.3224 69.2654ZM68.8257 71.126L69.1162 78.2498L71.4167 79.5762L70.8029 67.5641L68.732 66.3502L65.2181 72.907L62.3695 62.6571L59.3569 60.9089L58.4012 72.0633L60.7016 73.3897L61.3341 66.8986L63.6486 75.1097L65.8975 76.3892L68.8257 71.126ZM88.3818 75.7049L85.5004 81.2119L84.1886 73.296L80.7402 71.3228L83.9309 83.9208C83.4436 84.1786 82.5534 84.0989 81.3259 83.2881L81.2463 85.5705C83.87 87.0937 84.7274 86.3017 85.9736 84.4035L90.7947 77.1016L88.3818 75.7049ZM41.942 51.6948L38.3953 49.656L38.4094 60.4871L35.9028 59.0483L35.884 48.1984L32.3701 46.1597V43.3758L41.9373 48.9155V51.6948H41.942ZM75.8676 82.1352L73.3564 80.6776L73.3423 67.0438L80.0609 70.9479L80.0796 73.7318L75.8536 71.2853L75.8676 82.1352ZM52.7883 66.8845C50.6987 66.8845 49.2931 64.035 49.2931 60.7308C49.2931 59.1748 49.8928 58.1062 51.1203 58.1062C53.224 58.1062 54.6342 60.9558 54.6342 64.2599C54.6342 65.8159 54.0345 66.8845 52.807 66.8845H52.7883Z" fill="black"/>
<path fill-rule="evenodd" clip-rule="evenodd" d="M43.1695 24.6757L32.3748 18.4423L0 37.1424V49.6045L10.79 55.8378V43.3711L43.1695 24.6757Z" fill="#00AEEF"/>
<path fill-rule="evenodd" clip-rule="evenodd" d="M21.5848 87V49.6045L10.79 55.8379V80.7713L21.5848 87Z" fill="#00AEEF"/>
</g>
<defs>
<clipPath id="clip0">
<rect width="144" height="87" fill="white"/>
</clipPath>
</defs>
</svg>
