<svg width="250" height="356" viewBox="0 0 250 356" fill="none" xmlns="http://www.w3.org/2000/svg">
<path d="M105.338 123.18C104.478 123.18 103.752 122.99 103.16 122.61C102.568 122.226 102.12 121.696 101.816 121.02C101.512 120.344 101.36 119.564 101.36 118.68C101.36 117.796 101.512 117.016 101.816 116.34C102.12 115.664 102.568 115.136 103.16 114.756C103.752 114.372 104.478 114.18 105.338 114.18C106.342 114.18 107.162 114.438 107.798 114.954C108.434 115.466 108.87 116.154 109.106 117.018L108.206 117.252C108.022 116.568 107.692 116.026 107.216 115.626C106.74 115.226 106.114 115.026 105.338 115.026C104.662 115.026 104.1 115.18 103.652 115.488C103.204 115.796 102.866 116.226 102.638 116.778C102.414 117.326 102.298 117.96 102.29 118.68C102.286 119.4 102.396 120.034 102.62 120.582C102.848 121.13 103.188 121.56 103.64 121.872C104.096 122.18 104.662 122.334 105.338 122.334C106.114 122.334 106.74 122.134 107.216 121.734C107.692 121.33 108.022 120.788 108.206 120.108L109.106 120.342C108.87 121.206 108.434 121.896 107.798 122.412C107.162 122.924 106.342 123.18 105.338 123.18ZM112.284 123.18C111.796 123.18 111.386 123.092 111.054 122.916C110.726 122.74 110.48 122.506 110.316 122.214C110.152 121.922 110.07 121.604 110.07 121.26C110.07 120.908 110.14 120.608 110.28 120.36C110.424 120.108 110.618 119.902 110.862 119.742C111.11 119.582 111.396 119.46 111.72 119.376C112.048 119.296 112.41 119.226 112.806 119.166C113.206 119.102 113.596 119.048 113.976 119.004C114.36 118.956 114.696 118.91 114.984 118.866L114.672 119.058C114.684 118.418 114.56 117.944 114.3 117.636C114.04 117.328 113.588 117.174 112.944 117.174C112.5 117.174 112.124 117.274 111.816 117.474C111.512 117.674 111.298 117.99 111.174 118.422L110.316 118.17C110.464 117.59 110.762 117.14 111.21 116.82C111.658 116.5 112.24 116.34 112.956 116.34C113.548 116.34 114.05 116.452 114.462 116.676C114.878 116.896 115.172 117.216 115.344 117.636C115.424 117.824 115.476 118.034 115.5 118.266C115.524 118.498 115.536 118.734 115.536 118.974V123H114.75V121.374L114.978 121.47C114.758 122.026 114.416 122.45 113.952 122.742C113.488 123.034 112.932 123.18 112.284 123.18ZM112.386 122.418C112.798 122.418 113.158 122.344 113.466 122.196C113.774 122.048 114.022 121.846 114.21 121.59C114.398 121.33 114.52 121.038 114.576 120.714C114.624 120.506 114.65 120.278 114.654 120.03C114.658 119.778 114.66 119.59 114.66 119.466L114.996 119.64C114.696 119.68 114.37 119.72 114.018 119.76C113.67 119.8 113.326 119.846 112.986 119.898C112.65 119.95 112.346 120.012 112.074 120.084C111.89 120.136 111.712 120.21 111.54 120.306C111.368 120.398 111.226 120.522 111.114 120.678C111.006 120.834 110.952 121.028 110.952 121.26C110.952 121.448 110.998 121.63 111.09 121.806C111.186 121.982 111.338 122.128 111.546 122.244C111.758 122.36 112.038 122.418 112.386 122.418ZM116.498 123V122.226C116.738 122.27 116.92 122.26 117.044 122.196C117.172 122.128 117.266 122.016 117.326 121.86C117.386 121.7 117.436 121.502 117.476 121.266C117.54 120.874 117.598 120.442 117.65 119.97C117.702 119.498 117.748 118.978 117.788 118.41C117.832 117.838 117.876 117.208 117.92 116.52H122.324V123H121.448V117.366H118.736C118.708 117.79 118.676 118.212 118.64 118.632C118.604 119.052 118.566 119.456 118.526 119.844C118.49 120.228 118.45 120.582 118.406 120.906C118.362 121.23 118.316 121.51 118.268 121.746C118.196 122.102 118.1 122.386 117.98 122.598C117.864 122.81 117.69 122.95 117.458 123.018C117.226 123.086 116.906 123.08 116.498 123ZM126.742 123.18C126.11 123.18 125.562 123.04 125.098 122.76C124.638 122.48 124.28 122.086 124.024 121.578C123.768 121.07 123.64 120.474 123.64 119.79C123.64 119.082 123.766 118.47 124.018 117.954C124.27 117.438 124.624 117.04 125.08 116.76C125.54 116.48 126.082 116.34 126.706 116.34C127.346 116.34 127.892 116.488 128.344 116.784C128.796 117.076 129.138 117.496 129.37 118.044C129.602 118.592 129.708 119.246 129.688 120.006H128.788V119.694C128.772 118.854 128.59 118.22 128.242 117.792C127.898 117.364 127.394 117.15 126.73 117.15C126.034 117.15 125.5 117.376 125.128 117.828C124.76 118.28 124.576 118.924 124.576 119.76C124.576 120.576 124.76 121.21 125.128 121.662C125.5 122.11 126.026 122.334 126.706 122.334C127.17 122.334 127.574 122.228 127.918 122.016C128.266 121.8 128.54 121.49 128.74 121.086L129.562 121.404C129.306 121.968 128.928 122.406 128.428 122.718C127.932 123.026 127.37 123.18 126.742 123.18ZM124.264 120.006V119.268H129.214V120.006H124.264ZM130.065 123L132.597 119.724L130.119 116.52H131.175L133.113 119.046L135.033 116.52H136.089L133.611 119.724L136.149 123H135.087L133.113 120.402L131.127 123H130.065ZM138.733 123.18C138.245 123.18 137.835 123.092 137.503 122.916C137.175 122.74 136.929 122.506 136.765 122.214C136.601 121.922 136.519 121.604 136.519 121.26C136.519 120.908 136.589 120.608 136.729 120.36C136.873 120.108 137.067 119.902 137.311 119.742C137.559 119.582 137.845 119.46 138.169 119.376C138.497 119.296 138.859 119.226 139.255 119.166C139.655 119.102 140.045 119.048 140.425 119.004C140.809 118.956 141.145 118.91 141.433 118.866L141.121 119.058C141.133 118.418 141.009 117.944 140.749 117.636C140.489 117.328 140.037 117.174 139.393 117.174C138.949 117.174 138.573 117.274 138.265 117.474C137.961 117.674 137.747 117.99 137.623 118.422L136.765 118.17C136.913 117.59 137.211 117.14 137.659 116.82C138.107 116.5 138.689 116.34 139.405 116.34C139.997 116.34 140.499 116.452 140.911 116.676C141.327 116.896 141.621 117.216 141.793 117.636C141.873 117.824 141.925 118.034 141.949 118.266C141.973 118.498 141.985 118.734 141.985 118.974V123H141.199V121.374L141.427 121.47C141.207 122.026 140.865 122.45 140.401 122.742C139.937 123.034 139.381 123.18 138.733 123.18ZM138.835 122.418C139.247 122.418 139.607 122.344 139.915 122.196C140.223 122.048 140.471 121.846 140.659 121.59C140.847 121.33 140.969 121.038 141.025 120.714C141.073 120.506 141.099 120.278 141.103 120.03C141.107 119.778 141.109 119.59 141.109 119.466L141.445 119.64C141.145 119.68 140.819 119.72 140.467 119.76C140.119 119.8 139.775 119.846 139.435 119.898C139.099 119.95 138.795 120.012 138.523 120.084C138.339 120.136 138.161 120.21 137.989 120.306C137.817 120.398 137.675 120.522 137.563 120.678C137.455 120.834 137.401 121.028 137.401 121.26C137.401 121.448 137.447 121.63 137.539 121.806C137.635 121.982 137.787 122.128 137.995 122.244C138.207 122.36 138.487 122.418 138.835 122.418ZM146.457 123.18C145.861 123.18 145.357 123.03 144.945 122.73C144.533 122.426 144.221 122.016 144.009 121.5C143.797 120.98 143.691 120.398 143.691 119.754C143.691 119.098 143.797 118.514 144.009 118.002C144.225 117.486 144.541 117.08 144.957 116.784C145.373 116.488 145.885 116.34 146.493 116.34C147.085 116.34 147.593 116.49 148.017 116.79C148.441 117.09 148.765 117.498 148.989 118.014C149.217 118.53 149.331 119.11 149.331 119.754C149.331 120.402 149.217 120.984 148.989 121.5C148.761 122.016 148.433 122.426 148.005 122.73C147.577 123.03 147.061 123.18 146.457 123.18ZM143.541 125.88V116.52H144.333V121.398H144.429V125.88H143.541ZM146.367 122.358C146.819 122.358 147.195 122.244 147.495 122.016C147.795 121.788 148.019 121.478 148.167 121.086C148.319 120.69 148.395 120.246 148.395 119.754C148.395 119.266 148.321 118.826 148.173 118.434C148.025 118.042 147.799 117.732 147.495 117.504C147.195 117.276 146.813 117.162 146.349 117.162C145.897 117.162 145.521 117.272 145.221 117.492C144.925 117.712 144.703 118.018 144.555 118.41C144.407 118.798 144.333 119.246 144.333 119.754C144.333 120.254 144.407 120.702 144.555 121.098C144.703 121.49 144.927 121.798 145.227 122.022C145.527 122.246 145.907 122.358 146.367 122.358ZM150.169 124.44V122.244C150.537 122.244 150.801 122.126 150.961 121.89C151.121 121.65 151.251 121.268 151.351 120.744C151.419 120.404 151.475 120.038 151.519 119.646C151.563 119.254 151.601 118.806 151.633 118.302C151.665 117.794 151.695 117.2 151.723 116.52H156.007V122.244H156.631V124.44H155.779V123H151.015V124.44H150.169ZM151.663 122.244H155.131V117.276H152.539C152.527 117.58 152.509 117.902 152.485 118.242C152.465 118.582 152.439 118.922 152.407 119.262C152.379 119.602 152.345 119.922 152.305 120.222C152.269 120.518 152.225 120.778 152.173 121.002C152.113 121.29 152.047 121.536 151.975 121.74C151.907 121.944 151.803 122.112 151.663 122.244Z" fill="#02090F"/>
<path d="M14.1164 305.518V297.724H11.0984V296.878H18.0164V297.724H14.9984V305.518H14.1164ZM24.0786 305.698C23.5066 305.698 23.0086 305.576 22.5846 305.332C22.1606 305.084 21.8226 304.738 21.5705 304.294C21.3226 303.846 21.1726 303.32 21.1205 302.716H19.8545V305.518H18.9725V299.038H19.8545V301.84H21.1145C21.1665 301.228 21.3185 300.7 21.5705 300.256C21.8266 299.808 22.1666 299.464 22.5906 299.224C23.0186 298.98 23.5166 298.858 24.0846 298.858C24.7286 298.858 25.2786 299.004 25.7345 299.296C26.1946 299.588 26.5446 299.99 26.7846 300.502C27.0286 301.014 27.1506 301.602 27.1506 302.266C27.1506 302.946 27.0266 303.544 26.7786 304.06C26.5346 304.576 26.1826 304.978 25.7226 305.266C25.2666 305.554 24.7186 305.698 24.0786 305.698ZM24.0606 304.852C24.7886 304.852 25.3286 304.616 25.6806 304.144C26.0366 303.668 26.2146 303.044 26.2146 302.272C26.2146 301.484 26.0346 300.86 25.6746 300.4C25.3186 299.936 24.7826 299.704 24.0666 299.704C23.3826 299.704 22.8585 299.932 22.4945 300.388C22.1306 300.84 21.9486 301.466 21.9486 302.266C21.9486 303.05 22.1266 303.678 22.4826 304.15C22.8425 304.618 23.3685 304.852 24.0606 304.852ZM28.4647 305.518V299.038H29.2507L31.7767 304.342L34.3087 299.038H35.0887V305.518H34.2367V300.922L32.0587 305.518H31.5007L29.3227 300.922V305.518H28.4647ZM39.5096 305.698C38.8776 305.698 38.3296 305.558 37.8656 305.278C37.4056 304.998 37.0476 304.604 36.7916 304.096C36.5356 303.588 36.4076 302.992 36.4076 302.308C36.4076 301.6 36.5336 300.988 36.7856 300.472C37.0376 299.956 37.3916 299.558 37.8476 299.278C38.3076 298.998 38.8496 298.858 39.4736 298.858C40.1136 298.858 40.6596 299.006 41.1116 299.302C41.5636 299.594 41.9056 300.014 42.1376 300.562C42.3696 301.11 42.4756 301.764 42.4556 302.524H41.5556V302.212C41.5396 301.372 41.3576 300.738 41.0096 300.31C40.6656 299.882 40.1616 299.668 39.4976 299.668C38.8016 299.668 38.2676 299.894 37.8956 300.346C37.5276 300.798 37.3436 301.442 37.3436 302.278C37.3436 303.094 37.5276 303.728 37.8956 304.18C38.2676 304.628 38.7936 304.852 39.4736 304.852C39.9376 304.852 40.3416 304.746 40.6856 304.534C41.0336 304.318 41.3076 304.008 41.5076 303.604L42.3296 303.922C42.0736 304.486 41.6956 304.924 41.1956 305.236C40.6996 305.544 40.1376 305.698 39.5096 305.698ZM37.0316 302.524V301.786H41.9816V302.524H37.0316ZM43.7811 305.518V299.038H44.6631V301.852H48.3171V299.038H49.1991V305.518H48.3171V302.698H44.6631V305.518H43.7811ZM50.883 305.518L50.871 299.038H51.759V301.48H53.277C53.465 301.48 53.649 301.484 53.829 301.492C54.013 301.5 54.175 301.516 54.315 301.54C54.635 301.6 54.919 301.706 55.167 301.858C55.419 302.01 55.615 302.22 55.755 302.488C55.899 302.756 55.971 303.092 55.971 303.496C55.971 304.052 55.827 304.49 55.539 304.81C55.255 305.13 54.895 305.338 54.459 305.434C54.295 305.47 54.117 305.494 53.925 305.506C53.733 305.514 53.543 305.518 53.355 305.518H50.883ZM51.759 304.762H53.319C53.455 304.762 53.607 304.758 53.775 304.75C53.943 304.742 54.091 304.72 54.219 304.684C54.431 304.624 54.623 304.504 54.795 304.324C54.971 304.14 55.059 303.864 55.059 303.496C55.059 303.132 54.975 302.858 54.807 302.674C54.639 302.486 54.415 302.362 54.135 302.302C54.011 302.274 53.877 302.256 53.733 302.248C53.589 302.24 53.451 302.236 53.319 302.236H51.759V304.762Z" fill="#02090F"/>
<path d="M136.895 263.905C136.035 263.905 135.309 263.715 134.717 263.335C134.125 262.951 133.677 262.421 133.373 261.745C133.069 261.069 132.917 260.289 132.917 259.405C132.917 258.521 133.069 257.741 133.373 257.065C133.677 256.389 134.125 255.861 134.717 255.481C135.309 255.097 136.035 254.905 136.895 254.905C137.899 254.905 138.719 255.163 139.355 255.679C139.991 256.191 140.427 256.879 140.663 257.743L139.763 257.977C139.579 257.293 139.249 256.751 138.773 256.351C138.297 255.951 137.671 255.751 136.895 255.751C136.219 255.751 135.657 255.905 135.209 256.213C134.761 256.521 134.423 256.951 134.195 257.503C133.971 258.051 133.855 258.685 133.847 259.405C133.843 260.125 133.953 260.759 134.177 261.307C134.405 261.855 134.745 262.285 135.197 262.597C135.653 262.905 136.219 263.059 136.895 263.059C137.671 263.059 138.297 262.859 138.773 262.459C139.249 262.055 139.579 261.513 139.763 260.833L140.663 261.067C140.427 261.931 139.991 262.621 139.355 263.137C138.719 263.649 137.899 263.905 136.895 263.905ZM142.911 266.605L144.165 263.203L144.183 264.211L141.345 257.245H142.281L144.609 263.071H144.225L146.373 257.245H147.273L143.793 266.605H142.911ZM151.225 263.905C150.629 263.905 150.125 263.755 149.713 263.455C149.301 263.151 148.989 262.741 148.777 262.225C148.565 261.705 148.459 261.123 148.459 260.479C148.459 259.823 148.565 259.239 148.777 258.727C148.993 258.211 149.309 257.805 149.725 257.509C150.141 257.213 150.653 257.065 151.261 257.065C151.853 257.065 152.361 257.215 152.785 257.515C153.209 257.815 153.533 258.223 153.757 258.739C153.985 259.255 154.099 259.835 154.099 260.479C154.099 261.127 153.985 261.709 153.757 262.225C153.529 262.741 153.201 263.151 152.773 263.455C152.345 263.755 151.829 263.905 151.225 263.905ZM148.309 266.605V257.245H149.101V262.123H149.197V266.605H148.309ZM151.135 263.083C151.587 263.083 151.963 262.969 152.263 262.741C152.563 262.513 152.787 262.203 152.935 261.811C153.087 261.415 153.163 260.971 153.163 260.479C153.163 259.991 153.089 259.551 152.941 259.159C152.793 258.767 152.567 258.457 152.263 258.229C151.963 258.001 151.581 257.887 151.117 257.887C150.665 257.887 150.289 257.997 149.989 258.217C149.693 258.437 149.471 258.743 149.323 259.135C149.175 259.523 149.101 259.971 149.101 260.479C149.101 260.979 149.175 261.427 149.323 261.823C149.471 262.215 149.695 262.523 149.995 262.747C150.295 262.971 150.675 263.083 151.135 263.083ZM155.416 263.725V257.245H159.856V258.091H156.298V263.725H155.416ZM161.837 266.605L163.091 263.203L163.109 264.211L160.271 257.245H161.207L163.535 263.071H163.151L165.299 257.245H166.199L162.719 266.605H161.837ZM168.999 263.725V258.061H166.701V257.245H172.179V258.061H169.881V263.725H168.999Z" fill="#02090F"/>
<mask id="path-4-inside-1" fill="white">
<path fill-rule="evenodd" clip-rule="evenodd" d="M235.437 43.2678L230.336 43.5684L227.803 52.6824L219.449 45.0871L217.168 52.9346L226.034 62.5548L226.54 70.9085L210.335 56.4781L209.831 47.3641L216.664 39.0104L217.676 25.5925L214.891 26.8591L211.6 35.9731L206.537 40.5291L201.221 42.0497L196.157 49.6451L196.409 69.6439L184.003 89.1384L184.764 101.038H197.425L207.804 113.443V125.342L200.459 134.204L202.486 138.254L208.31 141.545L197.425 144.077L194.386 132.684L202.486 118.507L198.944 107.873L186.537 106.1L179.7 112.685L178.941 127.621L167.546 139.266L157.168 143.066L150.079 150.661L126.282 135.975V128.886L142.231 136.227L150.587 132.94L164.005 124.33L173.119 106.1L171.6 96.2275L187.045 59.5155L188.814 53.1886L187.045 44.833L197.171 35.2128L199.198 21.7949L191.349 11.4143L199.409 10.3611L198.228 0.593506L190.233 0L189.642 7.10461L191.349 11.4143L186.282 9.38943L178.687 15.2139L169.573 26.8591L162.484 33.6921L151.851 36.2271L146.279 41.5416L151.851 48.8828L145.777 59.7696L137.421 62.3026L137.167 66.1003L144.51 73.6956L141.977 80.7828L143.245 85.3408L146.029 89.3925L136.661 97.9984L133.623 93.1902L131.09 82.3034L121.204 66.4378L115.543 71.1529L118.869 77.0666L118.997 77.2974L118.869 77.5302L111.931 89.858L114.606 98.652L114.674 98.8615L114.554 99.0418L110.164 105.823L110.007 105.877L103.1 108.179L98.4959 113.552L98.3621 113.705L98.1584 113.715L80.7373 114.49L71.8677 121.814L71.7435 121.917L71.5767 121.919L65.8705 122.01L65.3604 136.825L65.3566 136.966L65.2732 137.084L58.4536 146.683L62.872 156.009L79.6608 157.279L79.8005 157.291L79.9149 157.378L87.9292 163.583L88.1037 163.718L88.1115 163.942L88.3617 172.014L91.1915 174.609L110.416 175.635L110.63 175.647L110.758 175.814L116.705 183.31L116.803 183.43L116.807 183.585L117.317 195.845L120.588 200.12L120.69 200.256L120.686 200.421L120.44 208.464H133.325L133.457 208.592L145.038 219.136L160.991 226.087L161.13 226.149L161.206 226.273L167.096 236.002L177.502 242.348L188.073 243.357L196.717 236.999L197.03 236.764L197.319 237.032L205.189 244.397L213.273 244.146L213.527 244.135L213.673 244.352L219.748 253.21L222.886 253.45L223.06 253.468L229.013 259.42L241.069 244.102L241.826 234.227L241.837 234.09L241.913 233.987L249.89 222.966L248.416 214.099L239.083 207.099L239.134 206.816L241.413 193.91L235.363 185.591L235.256 185.447L235.276 185.267L237.184 167.34L229.595 157.471L229.44 157.271L229.517 157.037L232.545 147.956L229.533 140.797L229.323 140.296L229.843 140.157L239.634 137.521L243.777 126.999L241.607 114.593L231.37 112.035L231.209 111.994L231.108 111.862L221.699 99.4433L221.563 99.2668L221.617 99.0457L223.499 91.5183L223.555 91.2991L223.768 91.2041L237.852 84.9005L239.265 79.266L233.315 66.624L233.249 66.4902L233.278 66.3408L234.779 58.0608L234.845 57.735L235.169 57.6807L241.329 56.6546L235.573 44.4238L235.538 44.352L235.53 44.2647L235.437 43.2678Z"/>
</mask>
<path fill-rule="evenodd" clip-rule="evenodd" d="M235.437 43.2678L230.336 43.5684L227.803 52.6824L219.449 45.0871L217.168 52.9346L226.034 62.5548L226.54 70.9085L210.335 56.4781L209.831 47.3641L216.664 39.0104L217.676 25.5925L214.891 26.8591L211.6 35.9731L206.537 40.5291L201.221 42.0497L196.157 49.6451L196.409 69.6439L184.003 89.1384L184.764 101.038H197.425L207.804 113.443V125.342L200.459 134.204L202.486 138.254L208.31 141.545L197.425 144.077L194.386 132.684L202.486 118.507L198.944 107.873L186.537 106.1L179.7 112.685L178.941 127.621L167.546 139.266L157.168 143.066L150.079 150.661L126.282 135.975V128.886L142.231 136.227L150.587 132.94L164.005 124.33L173.119 106.1L171.6 96.2275L187.045 59.5155L188.814 53.1886L187.045 44.833L197.171 35.2128L199.198 21.7949L191.349 11.4143L199.409 10.3611L198.228 0.593506L190.233 0L189.642 7.10461L191.349 11.4143L186.282 9.38943L178.687 15.2139L169.573 26.8591L162.484 33.6921L151.851 36.2271L146.279 41.5416L151.851 48.8828L145.777 59.7696L137.421 62.3026L137.167 66.1003L144.51 73.6956L141.977 80.7828L143.245 85.3408L146.029 89.3925L136.661 97.9984L133.623 93.1902L131.09 82.3034L121.204 66.4378L115.543 71.1529L118.869 77.0666L118.997 77.2974L118.869 77.5302L111.931 89.858L114.606 98.652L114.674 98.8615L114.554 99.0418L110.164 105.823L110.007 105.877L103.1 108.179L98.4959 113.552L98.3621 113.705L98.1584 113.715L80.7373 114.49L71.8677 121.814L71.7435 121.917L71.5767 121.919L65.8705 122.01L65.3604 136.825L65.3566 136.966L65.2732 137.084L58.4536 146.683L62.872 156.009L79.6608 157.279L79.8005 157.291L79.9149 157.378L87.9292 163.583L88.1037 163.718L88.1115 163.942L88.3617 172.014L91.1915 174.609L110.416 175.635L110.63 175.647L110.758 175.814L116.705 183.31L116.803 183.43L116.807 183.585L117.317 195.845L120.588 200.12L120.69 200.256L120.686 200.421L120.44 208.464H133.325L133.457 208.592L145.038 219.136L160.991 226.087L161.13 226.149L161.206 226.273L167.096 236.002L177.502 242.348L188.073 243.357L196.717 236.999L197.03 236.764L197.319 237.032L205.189 244.397L213.273 244.146L213.527 244.135L213.673 244.352L219.748 253.21L222.886 253.45L223.06 253.468L229.013 259.42L241.069 244.102L241.826 234.227L241.837 234.09L241.913 233.987L249.89 222.966L248.416 214.099L239.083 207.099L239.134 206.816L241.413 193.91L235.363 185.591L235.256 185.447L235.276 185.267L237.184 167.34L229.595 157.471L229.44 157.271L229.517 157.037L232.545 147.956L229.533 140.797L229.323 140.296L229.843 140.157L239.634 137.521L243.777 126.999L241.607 114.593L231.37 112.035L231.209 111.994L231.108 111.862L221.699 99.4433L221.563 99.2668L221.617 99.0457L223.499 91.5183L223.555 91.2991L223.768 91.2041L237.852 84.9005L239.265 79.266L233.315 66.624L233.249 66.4902L233.278 66.3408L234.779 58.0608L234.845 57.735L235.169 57.6807L241.329 56.6546L235.573 44.4238L235.538 44.352L235.53 44.2647L235.437 43.2678Z" stroke="#02090F" stroke-width="2" mask="url(#path-4-inside-1)"/>
<path d="M118.716 308.722L110.17 314.586L103.855 314.33L97.3691 310.701L97.2295 310.619L97.0724 310.641L90.1501 311.67L81.0845 305.194L81.0011 305.134L80.8984 305.119L77.4052 304.463L80.1439 300.586L80.3727 300.258L80.0915 299.981L75.0893 294.975L74.7616 294.647L74.428 294.975L65.4749 303.664L65.3508 303.782L65.3333 303.951L64.5556 311.707L62.0148 314.76L61.8596 314.95L61.9236 315.183L62.715 318.081L62.779 318.311L63 318.399L68.33 320.429L70.0523 325.104L69.0496 329.625L67.4223 332.179L61.1517 330.926L60.8937 330.872L60.7153 331.074L55.7073 336.602L55.6239 336.695L55.5968 336.817L54.3089 342.731L45.9921 350.531L45.9145 350.603L45.8718 350.712L44.326 354.841L44.1805 355L39.4809 354.257L33.6603 344.381L26.5537 344.511V344.501L26.5498 344.468L26.0281 339.773L26.0068 339.587L25.871 339.468L17.6706 332.3L17.5057 327.109L17.4999 326.911L17.3505 326.776L11.782 321.731L11.7064 321.661L11.6036 321.628L5.59483 319.791L4.27011 314.83L4.25653 314.785L4.24877 314.76L1 307.242L2.30533 300.885L6.10106 299.827L6.45795 299.725L6.44629 299.36L6.20968 291.334L10.1004 283.104L24.3814 283.572L24.6666 283.584L24.8042 283.339L29.689 273.734" stroke="#02090F"/>
<path d="M66.4094 123.05L60.9205 123.137L53.0226 130.133L52.9004 130.241L52.7356 130.251L45.5979 130.626L45.3225 130.641L45.1771 130.41L42.8438 126.743L31.3344 136.991L29.4938 143.619L29.4549 143.756L29.3541 143.848L17.1969 154.692L3.86243 177.53L6.68837 180.402L6.77952 180.499L6.81057 180.631L8.1993 186.892L17.356 192.292L17.4917 192.371L17.5538 192.515L23.0583 205.677L23.0874 205.754L23.0913 205.844L23.3298 213.74L23.3337 213.897L23.2425 214.027L18.574 220.563L20.4515 230.649L21.6482 236.628L21.6909 236.851L21.5474 237.02L15.9808 243.747L17.4995 247.653L27.4223 254.032L27.6744 254.195L27.6337 254.494L26.1984 264.306L25.7349 269.372L29.2998 274.716L36.9941 273.212L39.5213 268.408L39.725 268.02L46.0887 270.788H50.3091L52.5532 269.044L52.7258 268.909L52.9411 268.953L56.4595 269.71L60.7091 267.46L62.4974 265.417L62.6428 265.249L62.8659 265.258L69.9026 265.51L71.3612 261.614L71.6114 260.951L72.1253 261.441L77.0654 266.121L85.8962 269.754L90.3436 270.8L90.5706 270.854L90.6656 271.065L96.1875 283.422L103.515 297.812L118.974 309.411L127.479 304.54L128.472 299.327L128.51 299.131L128.679 299.016L133.852 295.655L133.995 295.562L134.162 295.585L140.239 296.315L145.549 279.369L145.59 279.225L145.714 279.134L153.209 273.447L153.401 273.3L153.626 273.366L161.64 275.697L161.718 275.713L161.77 275.749L172.515 282.914L188.916 283.176H189.071L189.193 283.263L200.577 291.613L214.27 283.752L214.532 283.601L214.782 283.775L221.867 288.84L229.897 287.839L238.701 284.064L240.293 279.972L230.301 274.225L230.064 274.089L230.318 257" stroke="#02090F"/>
</svg>
