<svg width="297" height="90" viewBox="0 0 297 90" fill="none" xmlns="http://www.w3.org/2000/svg">
<path d="M96.6968 19.9422V3.69775H95.603V11.1688H85.7678V3.69775H84.675V19.9422H85.7678V12.226H95.603V19.9422H96.6968ZM106.568 8.17293C103.289 8.17293 100.645 10.8522 100.645 14.1636C100.645 17.4409 103.289 20.084 106.568 20.084C109.881 20.084 112.561 17.4409 112.561 14.1636C112.561 10.8522 109.882 8.17293 106.568 8.17293ZM106.603 9.19603C109.283 9.19603 111.502 11.3457 111.502 14.1646C111.502 16.9484 109.282 19.0991 106.603 19.0991C103.923 19.0991 101.703 16.9495 101.703 14.1646C101.703 11.3457 103.924 9.19603 106.603 9.19603ZM116.333 8.34879V19.9422H122.466C125.324 19.9422 126.556 18.7795 126.556 16.7353C126.556 15.3264 125.815 14.234 124.229 13.8812C125.5 13.4219 125.992 12.3998 125.992 11.2733C125.992 9.68741 125.005 8.34775 122.396 8.34775L116.333 8.34879ZM117.391 9.26637H122.397C124.336 9.26637 124.97 10.2171 124.97 11.3798C124.97 12.5436 124.336 13.4933 122.397 13.4933H117.391V9.26637ZM117.391 19.0278V14.3053L122.501 14.3405C124.721 14.3405 125.498 15.2581 125.498 16.666C125.498 18.1102 124.721 19.0278 122.464 19.0278H117.391ZM135.651 8.17293C132.373 8.17293 129.728 10.8522 129.728 14.1636C129.728 17.4409 132.373 20.084 135.651 20.084C138.965 20.084 141.645 17.4409 141.645 14.1636C141.645 10.8522 138.966 8.17293 135.651 8.17293ZM135.688 9.19603C138.367 9.19603 140.586 11.3457 140.586 14.1646C140.586 16.9484 138.365 19.0991 135.688 19.0991C133.01 19.0991 130.788 16.9495 130.788 14.1646C130.787 11.3457 133.008 9.19603 135.688 9.19603ZM150.669 8.17293C147.356 8.17293 144.709 10.8522 144.709 14.1636C144.709 17.4409 147.356 20.084 150.669 20.084C152.502 20.084 154.16 19.274 155.253 17.9695L154.583 17.264C153.597 18.4267 152.221 19.0971 150.671 19.0971C147.956 19.0971 145.772 16.9474 145.772 14.1626C145.772 11.3436 147.956 9.19396 150.671 9.19396C152.221 9.19396 153.597 9.86224 154.583 11.025L155.253 10.3567C154.16 9.0181 152.504 8.17293 150.669 8.17293ZM169.175 19.9422V8.34879H168.578L159.94 18.075V8.34879H158.918V19.9422H159.482L168.084 10.2171V19.9422H169.175ZM182.856 3.69775C182.856 4.64948 182.219 4.92982 179.859 4.92982C175.557 4.92982 172.947 6.86948 172.947 10.8853V14.0933C172.947 17.5122 175.486 20.1202 178.906 20.1202C182.361 20.1202 184.865 17.4409 184.865 14.1636C184.865 10.9215 182.327 8.31465 179.014 8.31465C176.792 8.31465 174.853 9.65224 174.008 11.5557V10.6402C174.008 7.29258 176.193 5.84741 179.788 5.84741H180.107C182.786 5.84741 183.915 5.28362 183.915 3.69775H182.856ZM178.906 9.30051C181.621 9.30051 183.805 11.4502 183.805 14.1978C183.805 16.9474 181.692 19.1322 178.906 19.1322C176.085 19.1322 174.008 16.9484 174.008 14.1978C174.007 11.4502 176.227 9.30051 178.906 9.30051ZM198.894 19.9422V8.34879H198.331L189.693 18.075V8.34879H188.636V19.9422H189.237L197.839 10.2171V19.9422H198.894ZM209.47 8.17293C207.213 8.17293 205.241 9.54672 204.36 11.4502L204.324 8.34879H203.513V24.2053H204.535V16.9826C205.417 18.8157 207.284 20.084 209.471 20.084C212.784 20.084 215.358 17.4409 215.358 14.1636C215.357 10.8522 212.783 8.17293 209.47 8.17293ZM209.399 9.19603C212.115 9.19603 214.299 11.3457 214.299 14.1646C214.299 16.9484 212.115 19.0991 209.399 19.0991C206.719 19.0991 204.534 16.9495 204.534 14.1646C204.534 11.3457 206.72 9.19603 209.399 9.19603ZM224.382 8.17293C221.105 8.17293 218.46 10.8522 218.46 14.1636C218.46 17.4409 221.105 20.084 224.382 20.084C226.215 20.084 227.871 19.274 228.965 17.9695L228.297 17.264C227.311 18.4267 225.935 19.0971 224.384 19.0971C221.704 19.0971 219.486 16.9474 219.486 14.1626C219.486 11.3436 221.706 9.19396 224.384 9.19396C225.935 9.19396 227.311 9.86224 228.297 11.025L228.965 10.3567C227.871 9.0181 226.215 8.17293 224.382 8.17293ZM241.515 19.9422H242.712L240.53 16.5957C239.541 15.0791 238.977 14.1988 237.921 13.8822C238.765 13.5295 239.329 12.6843 240.211 11.3095L242.185 8.34982H240.952L239.368 10.8171C238.096 12.7547 237.673 13.4602 235.735 13.4602H233.794V8.34879H232.736V19.9422H233.793V14.445H236.051C237.991 14.445 238.447 15.1153 239.682 17.0902L241.515 19.9422ZM256.075 19.9422V8.34879H255.511L246.873 18.075V8.34879H245.817V19.9422H246.38L255.018 10.2171V19.9422H256.075ZM265.664 6.83327C267.423 6.83327 268.835 5.63534 268.835 4.05051H268.024C268.024 5.17706 267.003 6.02327 265.665 6.02327C264.323 6.02327 263.338 5.17706 263.338 4.05051H262.49C262.489 5.63534 263.901 6.83327 265.664 6.83327ZM270.811 19.9422V8.34879H270.245L261.608 18.075V8.34879H260.551V19.9422H261.151L269.753 10.2171V19.9422H270.811ZM85.4874 30.5509H93.4888V29.5288H84.4287V41.1574H85.4863V30.5509H85.4874ZM101.315 29.3881C98.0007 29.3881 95.3587 32.0302 95.3587 35.3426C95.3587 38.6198 98.0017 41.2981 101.315 41.2981C104.593 41.2981 107.273 38.6198 107.273 35.3426C107.273 32.0302 104.594 29.3881 101.315 29.3881ZM101.315 30.374C103.994 30.374 106.216 32.5236 106.216 35.3426C106.216 38.1636 103.996 40.2771 101.315 40.2771C98.6361 40.2771 96.4505 38.1636 96.4505 35.3426C96.4505 32.5236 98.6361 30.374 101.315 30.374ZM116.298 29.3881C113.02 29.3881 110.374 32.0302 110.374 35.3426C110.374 38.6198 113.019 41.2981 116.298 41.2981C118.13 41.2981 119.788 40.4529 120.881 39.1495L120.247 38.445C119.225 39.6077 117.85 40.2771 116.299 40.2771C113.62 40.2771 111.4 38.1636 111.4 35.3426C111.4 32.5236 113.621 30.4102 116.299 30.4102C117.85 30.4102 119.225 31.0433 120.247 32.206L120.881 31.5367C119.787 30.1981 118.13 29.3881 116.298 29.3881ZM135.405 29.5288H134.31V34.8864C134.31 38.1978 132.478 40.2067 129.693 40.2067C127.225 40.2067 125.603 38.7626 125.603 35.6974V29.5298H124.546V35.7678C124.546 39.255 126.519 41.2288 129.586 41.2288C131.28 41.2288 133.394 40.3836 134.309 38.1636V39.854C134.309 42.886 132.827 44.5764 129.833 44.6115C128.104 44.6115 126.765 44.0478 125.567 43.1322L124.932 43.8005C126.203 44.895 127.859 45.5984 129.833 45.5622C133.465 45.5622 135.404 43.2719 135.404 39.7133V29.5288H135.405ZM151.691 43.9422V40.1364H150.21L145.345 29.5288H144.781L139.881 40.1364H138.401V43.9422H139.458V41.1584H150.668V43.9422H151.691ZM145.029 31.2905L149.117 40.1364H140.975L145.029 31.2905ZM165.192 41.1574V29.5288H164.384L164.348 32.6291C163.465 30.6915 161.493 29.3881 159.199 29.3881C155.92 29.3881 153.349 32.0302 153.349 35.3426C153.349 38.6198 155.92 41.2981 159.199 41.2981C161.493 41.2981 163.465 39.9595 164.348 38.056L164.384 41.1574H165.192ZM159.307 40.2771C156.591 40.2771 154.406 38.1636 154.406 35.3426C154.406 32.5236 156.591 30.374 159.307 30.374C161.95 30.374 164.205 32.5236 164.205 35.3426C164.206 38.1636 161.95 40.2771 159.307 40.2771ZM175.768 29.3881C173.512 29.3881 171.539 30.7257 170.658 32.6291L170.589 29.5288H169.777V45.4215H170.835V38.1626C171.679 39.9936 173.585 41.2971 175.77 41.2971C179.085 41.2971 181.656 38.6188 181.656 35.3415C181.656 32.0302 179.083 29.3881 175.768 29.3881ZM175.698 30.4102C178.413 30.4102 180.599 32.5236 180.599 35.3426C180.599 38.1636 178.413 40.2771 175.698 40.2771C173.019 40.2771 170.799 38.1636 170.799 35.3426C170.798 32.5236 173.019 30.4102 175.698 30.4102ZM190.681 29.3881C187.401 29.3881 184.722 32.0302 184.722 35.3426C184.722 38.6198 187.401 41.2981 190.681 41.2981C192.513 41.2981 194.169 40.4529 195.262 39.1495L194.594 38.445C193.606 39.6077 192.231 40.2771 190.682 40.2771C188.002 40.2771 185.781 38.1636 185.781 35.3426C185.781 32.5236 188.002 30.4102 190.682 30.4102C192.231 30.4102 193.606 31.0433 194.594 32.206L195.262 31.5367C194.17 30.1981 192.513 29.3881 190.681 29.3881ZM203.196 30.5509H207.78V29.5288H197.59V30.5509H202.137V41.1574H203.196V30.5509ZM210.914 29.5288V41.1574H217.051C219.941 41.1574 221.139 39.9595 221.139 37.9153C221.139 36.5064 220.434 35.4481 218.848 35.0612C220.08 34.6371 220.609 33.6171 220.609 32.4533C220.609 30.8674 219.589 29.5288 217.013 29.5288H210.914ZM212.008 30.4815H216.981C218.919 30.4815 219.552 31.4312 219.552 32.5598C219.552 33.7226 218.919 34.6743 216.981 34.6743H212.008V30.4815ZM212.008 40.2057V35.5184H217.084C219.305 35.5184 220.081 36.4712 220.081 37.8802C220.081 39.3243 219.304 40.2057 217.084 40.2057H212.008ZM230.235 29.3881C226.744 29.3881 224.31 32.0302 224.31 35.3426C224.31 38.9022 226.815 41.265 230.48 41.2981C232.454 41.2981 234.077 40.5584 235.344 39.5012L234.744 38.8681C233.581 39.7836 232.173 40.3484 230.48 40.3484C227.483 40.3133 225.403 38.5164 225.403 35.5195H235.733C235.908 34.8874 235.802 33.6874 235.486 32.9126C234.676 30.8333 232.807 29.3881 230.235 29.3881ZM230.269 30.3398C232.384 30.3398 233.9 31.5015 234.569 33.1929C234.744 33.6874 234.85 34.2864 234.814 34.7446H225.437C225.614 32.3126 227.52 30.3398 230.269 30.3398ZM249.871 41.1574V29.5288H248.814V34.815H240.6V29.5288H239.579V41.1574H240.6V35.8009H248.814V41.1574H249.871ZM264.605 41.1574V29.5288H263.583V34.815H255.37V29.5288H254.348V41.1574H255.37V35.8009H263.583V41.1574H264.605ZM270.14 33.5115V29.5288H269.082V41.1574H274.795C278.214 41.1574 279.306 39.254 279.306 37.3153C279.306 35.4129 278.212 33.5105 274.795 33.5105L270.14 33.5115ZM281.95 41.1574V29.5288H280.893V41.1574H281.95ZM270.175 40.1715V34.4974H274.899C277.436 34.4974 278.247 35.8019 278.247 37.3164C278.247 38.8329 277.436 40.1726 274.899 40.1726L270.175 40.1715ZM291.537 28.0143C293.299 28.0143 294.674 26.8143 294.674 25.2284H293.863C293.863 26.3581 292.842 27.2022 291.537 27.2022C290.199 27.2022 289.177 26.3581 289.177 25.2284H288.365C288.365 26.8143 289.776 28.0143 291.537 28.0143ZM296.684 41.1574V29.5288H296.087L287.449 39.254V29.5288H286.427V41.1574H286.99L295.593 31.4312V41.1574H296.684ZM95.2873 50.7429H94.1956V56.0995C94.1956 59.4119 92.3618 61.3846 89.5771 61.3846C87.1079 61.3846 85.4874 59.9777 85.4874 56.9105V50.7429H84.4297V56.9457C84.4297 60.4329 86.4032 62.4067 89.4715 62.4067C91.1645 62.4067 93.2787 61.5967 94.1956 59.3395V61.0691C94.1956 64.064 92.7126 65.7543 89.7178 65.7895C88.0258 65.7895 86.6516 65.2257 85.4522 64.3102L84.8168 64.9784C86.1217 66.0698 87.7433 66.7743 89.7168 66.7743C93.3832 66.7391 95.2863 64.4488 95.2863 60.8902L95.2873 50.7429ZM109.918 62.3364V50.7429H108.897V55.994H100.682V50.7429H99.6243V62.3364H100.681V56.9798H108.896V62.3364H109.918ZM124.652 62.3364V50.7429H124.089L115.451 60.4329V50.7429H114.395V62.3364H114.994L123.596 52.6112V62.3364H124.652ZM129.13 50.7429V62.3364H135.264C138.156 62.3364 139.353 61.1405 139.353 59.0953C139.353 57.6853 138.647 56.6281 137.062 56.2402C138.295 55.816 138.825 54.796 138.825 53.6322C138.825 52.0474 137.837 50.7429 135.226 50.7429H129.13ZM130.223 51.6605H135.195C137.167 51.6605 137.766 52.6112 137.766 53.7398C137.766 54.9036 137.167 55.8884 135.195 55.8884H130.223V51.6605ZM130.223 61.3846V56.6995H135.334C137.519 56.7336 138.294 57.6512 138.294 59.0591C138.294 60.5033 137.519 61.3846 135.297 61.3846H130.223ZM148.449 50.5671C144.959 50.5671 142.525 53.2464 142.525 56.5215C142.525 60.1184 145.029 62.445 148.695 62.4781C150.669 62.4781 152.293 61.7374 153.559 60.7153L152.96 60.0471C151.796 60.9626 150.388 61.5264 148.695 61.5264C145.698 61.4922 143.619 59.6953 143.619 56.6995H153.948C154.123 56.0995 154.018 54.9036 153.737 54.0915C152.89 52.0122 151.022 50.5671 148.449 50.5671ZM148.483 51.5529C150.599 51.5529 152.115 52.7167 152.785 54.4081C152.96 54.8643 153.066 55.5005 153.028 55.9577H143.688C143.83 53.4915 145.734 51.5529 148.483 51.5529ZM164.665 50.5671C162.372 50.5671 160.401 51.9067 159.518 53.8102L159.482 50.7429H158.67V66.5995H159.729V59.3395C160.574 61.2109 162.442 62.476 164.665 62.476C167.942 62.476 170.516 59.834 170.516 56.5184C170.516 53.2464 167.942 50.5671 164.665 50.5671ZM164.594 51.5881C167.273 51.5881 169.492 53.7036 169.492 56.5226C169.492 59.3426 167.271 61.4571 164.594 61.4571C161.915 61.4571 159.693 59.3426 159.693 56.5226C159.693 53.7036 161.915 51.5881 164.594 51.5881ZM179.576 50.5671C176.264 50.5671 173.618 53.2464 173.618 56.5215C173.618 59.835 176.264 62.4781 179.576 62.4781C181.41 62.4781 183.031 61.634 184.124 60.3295L183.491 59.625C182.503 60.7846 181.129 61.456 179.578 61.456C176.863 61.456 174.679 59.3426 174.679 56.5215C174.679 53.7026 176.863 51.5871 179.578 51.5871C181.129 51.5871 182.503 52.2222 183.491 53.385L184.124 52.7167C183.031 51.4122 181.41 50.5671 179.576 50.5671ZM198.048 62.3364V50.7429H197.484L188.846 60.4329V50.7429H187.789V62.3364H188.388L196.991 52.6112V62.3364H198.048ZM206.827 51.7309H211.408V50.7429H201.187V51.7309H205.768V62.3364H206.827V51.7309ZM219.763 50.5671C216.274 50.5671 213.842 53.2464 213.842 56.5215C213.842 60.1184 216.343 62.445 220.012 62.4781C221.982 62.4781 223.607 61.7374 224.877 60.7153L224.276 60.0471C223.113 60.9626 221.702 61.5264 220.012 61.5264C217.015 61.4922 214.935 59.6953 214.935 56.6995H225.263C225.44 56.0995 225.332 54.9036 225.017 54.0915C224.206 52.0122 222.338 50.5671 219.763 50.5671ZM219.8 51.5529C221.914 51.5529 223.432 52.7167 224.099 54.4081C224.276 54.8643 224.38 55.5005 224.346 55.9577H215.005C215.146 53.4915 217.051 51.5529 219.8 51.5529ZM232.985 51.7309H237.566V50.7429H227.345V51.7309H231.926V62.3364H232.985V51.7309Z" fill="#434343"/>
<path d="M27.5671 87.1465V72.4869H25.3101V78.6876H18.5412V72.4869H16.2842V87.1465H18.5412V80.8393H25.3101V87.1465H27.5671ZM34.2656 83.8693H39.9759L41.315 87.1465H43.8183L37.8255 72.4869H36.4843L30.4232 87.1465H32.9265L34.2656 83.8693ZM37.1207 76.6103L39.2018 81.7186H35.078L37.1207 76.6103ZM52.1374 72.3462C47.9783 72.3462 44.6648 75.6938 44.6648 79.8183C44.6648 83.9427 47.9794 87.3245 52.1374 87.3245C54.2878 87.3245 56.2612 86.3727 57.6738 84.8924L56.1919 83.5176C55.1353 84.5738 53.7238 85.1748 52.1384 85.1748C49.2139 85.1748 46.9207 82.9538 46.9207 79.8183C46.9207 76.7169 49.2139 74.4948 52.1384 74.4948C53.7248 74.4948 55.1353 75.0948 56.1919 76.151L57.6748 74.7783C56.2622 73.2979 54.2878 72.3462 52.1374 72.3462ZM66.2743 74.6355H70.5762V72.4869H59.7176V74.6355H64.0184V87.1465H66.2754L66.2743 74.6355ZM79.9881 72.3462C75.8653 72.3462 72.5496 75.6938 72.5496 79.8183C72.5496 83.9769 75.8642 87.3245 79.9881 87.3245C84.1492 87.3245 87.4959 83.9769 87.4959 79.8183C87.4959 75.6938 84.1471 72.3462 79.9881 72.3462ZM79.9881 74.4938C82.9136 74.4938 85.2399 76.7158 85.2399 79.8172C85.2399 82.9517 82.9136 85.1738 79.9881 85.1738C77.0978 85.1738 74.8046 82.9538 74.8046 79.8172C74.8046 76.7169 77.0978 74.4938 79.9881 74.4938ZM101.173 87.1465V72.4869H96.3448C92.3969 72.4869 89.9992 74.7069 89.9992 77.9127C89.9992 80.2393 91.3382 81.8241 93.4545 82.5658C92.7125 82.9176 92.0451 83.6593 91.1271 85.0662L89.7881 87.1465H92.3255L93.3831 85.4883C94.5804 83.6562 95.1103 83.3396 96.5911 83.3065H98.9185V87.1465H101.173ZM98.9185 74.6355V81.191H96.1348C93.914 81.191 92.1154 80.2031 92.1154 77.9127C92.1154 75.6938 93.9119 74.6355 96.1348 74.6355H98.9185ZM125.181 89.86V85.0331H123.277V72.4869H121.021V85.0331H115.52V72.4869H113.266V85.0331H107.802V72.4869H105.546V87.1465H122.925V89.86H125.181ZM131.245 83.8693H136.957L138.297 87.1465H140.765L134.772 72.4869H133.468L127.404 87.1465H129.908L131.245 83.8693ZM134.1 76.6103L136.18 81.7186H132.019L134.1 76.6103ZM154.053 87.1465V72.4869H149.224C145.312 72.4869 142.88 74.7069 142.88 77.9127C142.88 80.2393 144.218 81.8241 146.334 82.5658C145.629 82.9176 144.922 83.6593 144.007 85.0662L142.665 87.1465H145.204L146.298 85.4883C147.497 83.6562 147.991 83.3396 149.508 83.3065H151.798V87.1465H154.053ZM151.796 74.6355V81.191H149.013C146.828 81.191 144.993 80.2031 144.993 77.9127C144.993 75.6938 146.826 74.6355 149.013 74.6355H151.796ZM176.578 87.1465V72.4869H174.322V78.6876H167.554V72.4869H165.297V87.1465H167.554V80.8393H174.322V87.1465H176.578ZM183.278 83.8693H188.989L190.327 87.1465H192.832L186.84 72.4869H185.499L179.438 87.1465H181.939L183.278 83.8693ZM186.168 76.6103L188.214 81.7186H184.091L186.168 76.6103ZM198.683 87.1465L207.213 72.4869H204.641L200.48 79.57L196.284 72.4869H193.713L199.175 81.8955L196.074 87.1465H198.683ZM219.763 87.1465H222.338L218.848 81.7548C217.965 80.38 217.507 79.8865 216.873 79.6755C217.403 79.3952 217.859 78.8986 218.706 77.6665L222.052 72.4869H219.446L216.622 76.961C215.778 78.1931 215.424 78.6183 214.19 78.6183H212.463V72.4869H210.204V87.1465H212.463V80.8031H214.331C215.603 80.8031 215.953 81.2252 216.762 82.4955L219.763 87.1465ZM228.049 83.8693H233.761L235.066 87.1465H237.568L231.575 72.4869H230.271L224.208 87.1465H226.71L228.049 83.8693ZM230.902 76.6103L232.986 81.7186H228.824L230.902 76.6103Z" fill="#434343"/>
<path d="M53.3721 11.591L61.8681 14.3747L56.7912 21.3523L61.4087 24.7351L66.3821 17.9003L71.1755 24.5251L75.8282 21.1423L70.7874 14.2341L78.9306 11.5899L77.1683 6.16509L69.0241 8.80819V0.242676C67.121 0.242676 65.2179 0.242676 63.2786 0.242676V8.80716L55.1706 6.16406L53.3721 11.591Z" fill="#72C81F"/>
<path d="M13.2905 75.3429L8.88309 76.7498L11.5292 80.4139L9.13249 82.1767L6.52365 78.6181L4.01933 82.0732L1.62367 80.3115L4.23251 76.7167L0 75.3429L0.915836 72.4867L5.14731 73.8605V69.4194C6.13248 69.4194 7.15491 69.4194 8.14422 69.4194V73.8605L12.3736 72.4867L13.2905 75.3429Z" fill="#434343"/>
<path d="M47.6607 62.3364V3.69775H33.4182V35.9415L9.1304 3.69775H0.563965V62.3364H14.8055V30.0926L39.0943 62.3364H47.6607Z" fill="#434343"/>
</svg>
