<svg width="16" height="16" viewBox="0 0 16 16" fill="none" xmlns="http://www.w3.org/2000/svg">
<path d="M8.5 0C5.46732 0 3 2.49492 3 5.56152C3 9.41592 8.50541 16 8.50541 16C8.50541 16 14 9.22637 14 5.56152C14 2.49492 11.5328 0 8.5 0ZM10.1595 7.18994C9.70189 7.65254 9.10099 7.88389 8.5 7.88389C7.8991 7.88389 7.29802 7.65254 6.84063 7.18994C5.92558 6.26475 5.92558 4.75928 6.84063 3.83398C7.28372 3.38574 7.87313 3.13887 8.5 3.13887C9.12687 3.13887 9.71618 3.38584 10.1595 3.83398C11.0745 4.75928 11.0745 6.26475 10.1595 7.18994Z" fill="#02090F"/>
</svg>
