<svg width="218" height="65" viewBox="0 0 218 65" fill="none" xmlns="http://www.w3.org/2000/svg">
<g clip-path="url(#clip0)">
<path d="M36.0811 8.46419H37.3142V8.70035C37.3142 9.06534 37.3902 9.36055 37.5423 9.58062C37.6944 9.80068 37.8791 9.96708 38.1018 10.0852C38.3246 10.2032 38.5636 10.2784 38.8243 10.3106C39.0851 10.3428 39.3241 10.3589 39.5414 10.3589C40.3834 10.3589 41.0081 10.1442 41.4101 9.72017C41.8175 9.29614 42.0185 8.73793 42.0185 8.05626C42.0185 7.76642 41.9641 7.50878 41.8501 7.28334C41.736 7.05791 41.5785 6.87005 41.3829 6.71976C41.1819 6.56947 40.9483 6.45675 40.6767 6.38161C40.4051 6.30647 40.1063 6.26889 39.7858 6.26889H38.4386V5.52818H39.7587C39.9922 5.52818 40.2367 5.49061 40.4811 5.4101C40.7256 5.32959 40.9483 5.2115 41.1493 5.04511C41.3449 4.88409 41.5078 4.67476 41.6328 4.42249C41.7577 4.17021 41.8175 3.86964 41.8175 3.51002C41.8175 3.25775 41.7686 3.02694 41.6762 2.81225C41.5839 2.59755 41.4426 2.40969 41.2634 2.25403C41.0841 2.09301 40.8668 1.96955 40.6115 1.87831C40.3562 1.78706 40.0737 1.73875 39.7641 1.73875C39.5359 1.73875 39.2915 1.75486 39.0199 1.79243C38.7483 1.83 38.5038 1.91051 38.2757 2.03933C38.0475 2.16278 37.8574 2.35064 37.6999 2.59755C37.5423 2.84445 37.4663 3.17723 37.4663 3.60126V3.79449H36.2332V2.21109C36.7329 1.81927 37.2924 1.51869 37.9117 1.30936C38.531 1.10003 39.1937 0.992676 39.8999 0.992676C40.9972 0.992676 41.8338 1.22348 42.4204 1.67971C43.0071 2.13595 43.3005 2.74784 43.3005 3.51002C43.3005 3.83743 43.2353 4.13264 43.1049 4.39028C42.9745 4.65329 42.8061 4.87872 42.5997 5.06658C42.3987 5.25981 42.1706 5.41547 41.9261 5.53355C41.6817 5.657 41.4426 5.73751 41.2199 5.78582V5.8395C41.6002 5.8878 41.9315 5.97905 42.2195 6.11324C42.5074 6.24742 42.7464 6.41918 42.9419 6.62315C43.1375 6.82711 43.2787 7.05791 43.3765 7.31555C43.4689 7.57319 43.5178 7.83619 43.5178 8.10993C43.5178 8.55007 43.4254 8.95263 43.2407 9.31761C43.056 9.6826 42.7898 9.99391 42.4476 10.2569C42.1054 10.5199 41.6871 10.7239 41.1928 10.8742C40.7039 11.0245 40.1552 11.0996 39.5468 11.0996C38.8026 11.0996 38.1507 10.9976 37.5912 10.799C37.0317 10.6004 36.5319 10.316 36.0919 9.95097V8.46419H36.0811Z" fill="#121212"/>
<path d="M44.7891 9.14028C44.7891 8.69478 44.8923 8.32442 45.0933 8.03995C45.2943 7.75547 45.5604 7.53541 45.8864 7.37975C46.2123 7.22409 46.5763 7.12211 46.9782 7.06307C47.3802 7.0094 47.7768 6.97719 48.1733 6.97719H49.5205V6.3492C49.5205 5.75878 49.3738 5.32401 49.0751 5.03417C48.7763 4.74433 48.4123 4.5994 47.9778 4.5994C47.8148 4.5994 47.6518 4.61551 47.4889 4.64771C47.3259 4.67992 47.1792 4.73896 47.0489 4.8141C46.9185 4.89461 46.8153 4.9966 46.7392 5.13078C46.6577 5.2596 46.6197 5.42599 46.6197 5.61922V6.06472H45.4464V4.96976C45.8212 4.66918 46.2666 4.42228 46.7773 4.22905C47.2879 4.03045 47.8691 3.93384 48.521 3.93384C48.9284 3.93384 49.2761 3.99288 49.5694 4.11096C49.8628 4.22905 50.1018 4.39544 50.2919 4.61014C50.482 4.82484 50.6178 5.08248 50.7102 5.37769C50.8025 5.67826 50.846 6.00568 50.846 6.37067V10.3211H51.9813V10.9491H49.5422V9.70386H49.5151C49.3847 9.85415 49.2272 10.0098 49.0479 10.1708C48.8687 10.3319 48.6677 10.4875 48.4395 10.6271C48.2114 10.7666 47.9669 10.8793 47.6953 10.9706C47.4237 11.0618 47.1412 11.1048 46.837 11.1048C46.5437 11.1048 46.2721 11.0565 46.0222 10.9652C45.7723 10.874 45.555 10.7398 45.3757 10.5734C45.1965 10.407 45.0552 10.203 44.952 9.95613C44.8434 9.70923 44.7891 9.44086 44.7891 9.14028ZM49.526 7.64276H48.32C48.0918 7.64276 47.8528 7.65886 47.6029 7.69106C47.3531 7.72327 47.1195 7.79305 46.9076 7.89503C46.6958 7.99701 46.5219 8.14193 46.3861 8.32442C46.2503 8.50692 46.1797 8.74309 46.1797 9.03293C46.1797 9.37108 46.2775 9.62872 46.4676 9.81658C46.6632 10.0044 46.9782 10.0957 47.4237 10.0957C47.5921 10.0957 47.7985 10.0689 48.0375 10.0098C48.2765 9.95613 48.5101 9.86489 48.7329 9.73607C48.9556 9.60725 49.1403 9.44622 49.2924 9.24763C49.4445 9.04903 49.5205 8.79676 49.5205 8.49618V7.64276H49.526Z" fill="#121212"/>
<path d="M53.6494 10.3151C53.8287 10.3151 53.9536 10.2615 54.0188 10.1541C54.084 10.0468 54.1166 9.86963 54.1166 9.61736V4.71686H53.1279V4.08887H61.2056V4.71686H60.6841C60.5049 4.71686 60.3799 4.77054 60.3147 4.87788C60.2496 4.98523 60.217 5.16236 60.217 5.41463V10.3151H61.2111V10.9431H57.968V10.3151H58.4515C58.6145 10.3151 58.7285 10.2615 58.7992 10.1541C58.8698 10.0468 58.9078 9.86963 58.9078 9.61736V4.71686H55.4529V10.3151H56.3873V10.9431H53.1279V10.3151H53.6494Z" fill="#121212"/>
<path d="M62.248 9.14028C62.248 8.69478 62.3513 8.32442 62.5523 8.03995C62.7532 7.75547 63.0194 7.53541 63.3454 7.37975C63.6713 7.22409 64.0352 7.12211 64.4372 7.06307C64.8392 7.0094 65.2358 6.97719 65.6323 6.97719H66.9795V6.3492C66.9795 5.75878 66.8328 5.32401 66.5341 5.03417C66.2353 4.74433 65.8713 4.5994 65.4368 4.5994C65.2738 4.5994 65.1108 4.61551 64.9479 4.64771C64.7849 4.67992 64.6382 4.73896 64.5078 4.8141C64.3775 4.89461 64.2743 4.9966 64.1982 5.13078C64.1167 5.2596 64.0787 5.42599 64.0787 5.61922V6.06472H62.9053V4.96976C63.2802 4.66918 63.7256 4.42228 64.2362 4.22905C64.7469 4.03045 65.3281 3.93384 65.98 3.93384C66.3874 3.93384 66.735 3.99288 67.0284 4.11096C67.3217 4.22905 67.5607 4.39544 67.7509 4.61014C67.941 4.82484 68.0768 5.08248 68.1692 5.37769C68.2615 5.67826 68.305 6.00568 68.305 6.37067V10.3211H69.4403V10.9491H67.0012V9.70386H66.9741C66.8437 9.85415 66.6862 10.0098 66.5069 10.1708C66.3276 10.3319 66.1266 10.4875 65.8985 10.6271C65.6703 10.7666 65.4259 10.8793 65.1543 10.9706C64.8827 11.0618 64.6002 11.1048 64.296 11.1048C64.0027 11.1048 63.731 11.0565 63.4812 10.9652C63.2313 10.874 63.014 10.7398 62.8347 10.5734C62.6555 10.407 62.5142 10.203 62.411 9.95613C62.3024 9.70923 62.248 9.44086 62.248 9.14028ZM66.9849 7.64276H65.779C65.5508 7.64276 65.3118 7.65886 65.0619 7.69106C64.812 7.72327 64.5785 7.79305 64.3666 7.89503C64.1548 7.99701 63.9809 8.14193 63.8451 8.32442C63.7093 8.50692 63.6387 8.74309 63.6387 9.03293C63.6387 9.37108 63.7365 9.62872 63.9266 9.81658C64.1222 10.0044 64.4372 10.0957 64.8827 10.0957C65.0511 10.0957 65.2575 10.0689 65.4965 10.0098C65.7355 9.95613 65.9691 9.86489 66.1918 9.73607C66.4145 9.60725 66.5992 9.44622 66.7513 9.24763C66.9034 9.04903 66.9795 8.79676 66.9795 8.49618V7.64276H66.9849Z" fill="#121212"/>
<path d="M71.1621 10.3151C71.3251 10.1112 71.4663 9.8911 71.6021 9.65493C71.7325 9.42413 71.8574 9.16112 71.9661 8.87128C72.0747 8.58144 72.1725 8.25939 72.254 7.90513C72.3409 7.55088 72.417 7.14295 72.4821 6.68672L72.6668 5.44147C72.6777 5.39316 72.6831 5.35559 72.6831 5.32338C72.6831 5.29118 72.6831 5.25361 72.6831 5.2053C72.6831 5.06575 72.6451 4.94766 72.5691 4.85641C72.493 4.76517 72.3463 4.71686 72.1291 4.71686H71.7488V4.08887H78.1099V4.71686H77.583C77.4037 4.71686 77.2788 4.77054 77.2136 4.87788C77.1484 4.98523 77.1158 5.16236 77.1158 5.41463V10.3151H78.4739V12.7251H77.7677V12.0542C77.7677 11.6516 77.6753 11.3671 77.4852 11.2008C77.2951 11.0344 77.0235 10.9485 76.665 10.9485H72.1888C71.8303 10.9485 71.5532 11.0344 71.3685 11.2008C71.1784 11.3671 71.0861 11.6516 71.0861 12.0542V12.7251H70.3799V10.3151H71.1621ZM75.7958 4.71686H74.2259C73.9597 4.71686 73.7859 4.78664 73.6935 4.92619C73.6012 5.06575 73.5469 5.22677 73.5143 5.4039L73.3024 6.69209C73.1612 7.55088 72.9928 8.27012 72.7972 8.84981C72.6017 9.42949 72.3626 9.91793 72.0802 10.3205H75.7904V4.71686H75.7958Z" fill="#121212"/>
<path d="M80.1363 10.3151C80.3156 10.3151 80.4405 10.2615 80.5057 10.1541C80.5709 10.0468 80.6035 9.86963 80.6035 9.61736V4.71686H79.6094V4.08887H82.8524V4.71686H82.3852C82.206 4.71686 82.081 4.77054 82.0158 4.87788C81.9506 4.98523 81.9181 5.16236 81.9181 5.41463V7.09465H85.4599V4.71686H84.5255V4.08887H87.7685V4.71686H87.2416C87.0624 4.71686 86.9374 4.77054 86.8722 4.87788C86.807 4.98523 86.7744 5.16236 86.7744 5.41463V10.3151H87.7685V10.9431H84.5255V10.3151H85.009C85.1719 10.3151 85.286 10.2615 85.3566 10.1541C85.4273 10.0468 85.4653 9.86963 85.4653 9.61736V7.77095H81.9235V10.3205H82.8578V10.9485H79.6148V10.3205H80.1363V10.3151Z" fill="#121212"/>
<path d="M88.6162 7.53004C88.6162 6.96109 88.7031 6.45118 88.8878 6.00568C89.0671 5.56018 89.317 5.17909 89.6375 4.87315C89.958 4.5672 90.3382 4.33103 90.7728 4.17538C91.2074 4.01435 91.6745 3.93921 92.1743 3.93921C92.6849 3.93921 93.1521 4.01972 93.5867 4.17538C94.0158 4.3364 94.3906 4.5672 94.7111 4.87315C95.0316 5.17909 95.2815 5.56018 95.4608 6.00568C95.64 6.45118 95.7324 6.96109 95.7324 7.53004C95.7324 8.09899 95.64 8.60353 95.4608 9.04903C95.2815 9.49453 95.0316 9.86489 94.7111 10.1708C94.3906 10.4768 94.0158 10.7076 93.5867 10.8632C93.1575 11.0243 92.6849 11.0994 92.1743 11.0994C91.6745 11.0994 91.2074 11.0189 90.7728 10.8632C90.3382 10.7022 89.958 10.4714 89.6375 10.1708C89.317 9.86489 89.0671 9.49453 88.8878 9.04903C88.7031 8.6089 88.6162 8.09899 88.6162 7.53004ZM94.3417 7.53004C94.3417 7.39049 94.3309 7.21873 94.3146 7.02013C94.2983 6.82154 94.2603 6.60684 94.2005 6.39214C94.1462 6.17207 94.0647 5.95201 93.9669 5.73194C93.8691 5.51188 93.7388 5.31865 93.5758 5.14152C93.4128 4.96976 93.2173 4.83021 92.9891 4.72286C92.7555 4.61551 92.4839 4.56183 92.1743 4.56183C91.8647 4.56183 91.5931 4.61551 91.3595 4.72286C91.1259 4.83021 90.9303 4.96976 90.7728 5.14152C90.6098 5.31328 90.4849 5.51188 90.3817 5.73194C90.2839 5.95201 90.2024 6.17207 90.1481 6.39214C90.0938 6.61221 90.0557 6.82154 90.034 7.02013C90.0177 7.21873 90.0069 7.39049 90.0069 7.53004C90.0069 7.73401 90.0286 8.00238 90.0775 8.33516C90.1264 8.66794 90.2241 8.98999 90.3762 9.30667C90.5283 9.62335 90.7456 9.89709 91.0335 10.1279C91.3214 10.3587 91.7017 10.4714 92.1743 10.4714C92.6469 10.4714 93.0272 10.3587 93.3151 10.1279C93.603 9.89709 93.8203 9.62872 93.9724 9.30667C94.1245 8.98999 94.2222 8.66258 94.2711 8.33516C94.3146 8.00238 94.3417 7.73937 94.3417 7.53004Z" fill="#121212"/>
<path d="M101.849 6.7196V7.72869H97.498V6.7196H101.849Z" fill="#121212"/>
<path d="M103.761 6.11861C103.761 5.33496 103.869 4.62645 104.081 3.99846C104.293 3.37046 104.603 2.83372 105.016 2.38822C105.428 1.94272 105.923 1.60457 106.509 1.35766C107.096 1.11613 107.764 0.992676 108.519 0.992676C109.133 0.992676 109.72 1.08929 110.285 1.28789C110.844 1.48648 111.366 1.80316 111.849 2.23793V3.82133H110.616V3.6281C110.616 3.20944 110.54 2.87666 110.388 2.62975C110.236 2.38285 110.051 2.18962 109.834 2.05543C109.617 1.92125 109.383 1.83537 109.133 1.7978C108.883 1.76022 108.655 1.74412 108.449 1.74412C107.884 1.74412 107.395 1.87831 106.987 2.14131C106.58 2.40969 106.249 2.7532 105.988 3.17723C105.727 3.60126 105.537 4.0736 105.407 4.58888C105.276 5.10952 105.217 5.61943 105.217 6.12397C105.217 6.70366 105.276 7.25114 105.401 7.76105C105.526 8.27633 105.711 8.72719 105.966 9.11365C106.222 9.50011 106.547 9.80605 106.944 10.0315C107.341 10.2569 107.813 10.3696 108.362 10.3696C108.568 10.3696 108.802 10.3535 109.063 10.3267C109.323 10.2999 109.568 10.2301 109.801 10.1174C110.035 10.0047 110.225 9.84363 110.383 9.62893C110.54 9.41423 110.616 9.12439 110.616 8.7594V8.52323H111.849V10.0047C111.388 10.3589 110.85 10.6326 110.241 10.8259C109.633 11.0191 109.008 11.1103 108.362 11.1103C107.721 11.1103 107.118 11.0191 106.553 10.8312C105.988 10.6434 105.504 10.3535 105.086 9.95634C104.668 9.55915 104.347 9.04924 104.108 8.41588C103.88 7.77715 103.761 7.01497 103.761 6.11861Z" fill="#121212"/>
<path d="M113.506 10.3151C113.686 10.3151 113.811 10.2615 113.876 10.1541C113.941 10.0468 113.974 9.86963 113.974 9.61736V4.71686H112.979V4.08887H116.223V4.71686H115.755C115.576 4.71686 115.451 4.77054 115.386 4.87788C115.321 4.98523 115.288 5.16236 115.288 5.41463V8.45262C115.288 8.61364 115.283 8.8015 115.266 9.02693C115.25 9.25237 115.234 9.44023 115.218 9.60125H115.261C115.348 9.47243 115.424 9.34898 115.489 9.2309C115.554 9.11281 115.62 9.0162 115.69 8.93032L119.047 4.08887H121.188V4.71686H120.661C120.481 4.71686 120.356 4.77054 120.291 4.87788C120.226 4.98523 120.193 5.16236 120.193 5.41463V10.3151H121.188V10.9431H117.945V10.3151H118.428C118.591 10.3151 118.705 10.2615 118.776 10.1541C118.846 10.0468 118.884 9.86963 118.884 9.61736V6.57937C118.884 6.41835 118.89 6.23049 118.906 6.00505C118.922 5.77962 118.939 5.59176 118.955 5.43073H118.911C118.825 5.55955 118.749 5.683 118.683 5.80109C118.618 5.91917 118.553 6.01579 118.488 6.10167L115.131 10.9431H112.99V10.3151H113.506Z" fill="#121212"/>
<path d="M122.252 7.12759C122.252 6.12924 122.355 5.30802 122.556 4.66392C122.757 4.01983 123.029 3.49918 123.371 3.10199C123.713 2.7048 124.104 2.40422 124.555 2.20026C125.006 1.99629 125.473 1.82453 125.968 1.69572C126.467 1.5669 126.875 1.45418 127.195 1.35757C127.51 1.26632 127.771 1.17507 127.967 1.08382C128.162 0.997945 128.325 0.890596 128.45 0.767144C128.575 0.643692 128.695 0.493403 128.819 0.305542L129.173 0.402156C129.097 0.767144 128.999 1.07309 128.874 1.32536C128.749 1.57763 128.575 1.79233 128.352 1.97482C128.124 2.15732 127.836 2.31297 127.483 2.45253C127.13 2.58671 126.685 2.7209 126.158 2.84972C125.669 2.97317 125.234 3.10736 124.854 3.26301C124.474 3.41867 124.153 3.62263 123.892 3.88027C123.626 4.13791 123.42 4.46533 123.262 4.86252C123.105 5.25971 123.007 5.75889 122.958 6.35467H123.029C123.246 5.73205 123.61 5.22751 124.126 4.84105C124.642 4.45996 125.283 4.26673 126.044 4.26673C127.076 4.26673 127.885 4.57268 128.472 5.1792C129.064 5.78572 129.357 6.63915 129.357 7.73948C129.357 8.21718 129.27 8.65732 129.097 9.07061C128.923 9.48391 128.678 9.83816 128.369 10.1334C128.059 10.4339 127.684 10.6701 127.255 10.8419C126.826 11.0136 126.353 11.0995 125.848 11.0995C125.261 11.0995 124.745 11.0029 124.294 10.815C123.844 10.6218 123.469 10.3534 123.17 10.0045C122.866 9.65566 122.643 9.237 122.491 8.7432C122.328 8.25476 122.252 7.71264 122.252 7.12759ZM127.961 7.75558C127.961 7.36376 127.923 6.99877 127.842 6.65525C127.76 6.3171 127.635 6.02189 127.467 5.77499C127.298 5.52809 127.081 5.33486 126.815 5.1953C126.549 5.05575 126.234 4.98597 125.864 4.98597C125.517 4.98597 125.207 5.06648 124.941 5.23287C124.675 5.3939 124.452 5.6086 124.267 5.87697C124.083 6.14534 123.941 6.44592 123.849 6.78944C123.757 7.12759 123.708 7.47111 123.708 7.81999C123.708 8.12594 123.74 8.43725 123.806 8.74856C123.871 9.05988 123.985 9.34435 124.153 9.60199C124.316 9.85963 124.533 10.069 124.805 10.23C125.077 10.391 125.419 10.4769 125.832 10.4769C126.239 10.4769 126.576 10.391 126.853 10.2085C127.125 10.0314 127.347 9.81132 127.51 9.54295C127.673 9.27458 127.793 8.98473 127.858 8.66268C127.929 8.33527 127.961 8.03469 127.961 7.75558Z" fill="#121212"/>
<path d="M130.862 10.3151C131.041 10.3151 131.166 10.2615 131.231 10.1541C131.296 10.0468 131.329 9.86963 131.329 9.61736V4.71686H130.335V4.08887H133.578V4.71686H133.111C132.932 4.71686 132.807 4.77054 132.741 4.87788C132.676 4.98523 132.644 5.16236 132.644 5.41463V8.45262C132.644 8.61364 132.638 8.8015 132.622 9.02693C132.606 9.25237 132.589 9.44023 132.573 9.60125H132.616C132.703 9.47243 132.779 9.34898 132.845 9.2309C132.91 9.11281 132.975 9.0162 133.046 8.93032L136.403 4.08887H138.543V4.71686H138.016C137.837 4.71686 137.712 4.77054 137.647 4.87788C137.582 4.98523 137.549 5.16236 137.549 5.41463V10.3151H138.543V10.9431H135.3V10.3151H135.783C135.946 10.3151 136.061 10.2615 136.131 10.1541C136.202 10.0468 136.24 9.86963 136.24 9.61736V6.57937C136.24 6.41835 136.245 6.23049 136.262 6.00505C136.278 5.77962 136.294 5.59176 136.31 5.43073H136.267C136.18 5.55955 136.104 5.683 136.039 5.80109C135.974 5.91917 135.908 6.01579 135.843 6.10167L132.486 10.9431H130.346V10.3151H130.862Z" fill="#121212"/>
<path d="M140.249 13.8153C140.428 13.8153 140.553 13.7617 140.619 13.6543C140.684 13.547 140.716 13.3698 140.716 13.1176V4.71749H139.581V4.08949H142.02V5.40452H142.047C142.172 5.2274 142.319 5.05027 142.487 4.87314C142.656 4.69602 142.851 4.53499 143.069 4.39544C143.286 4.25589 143.53 4.14317 143.796 4.05729C144.068 3.97141 144.356 3.93384 144.666 3.93384C145.127 3.93384 145.529 4.01972 145.872 4.18611C146.214 4.3525 146.491 4.58867 146.714 4.89461C146.936 5.20056 147.099 5.55481 147.208 5.96811C147.316 6.3814 147.371 6.8269 147.371 7.30997C147.371 7.87892 147.295 8.39957 147.137 8.86117C146.98 9.32814 146.762 9.72533 146.48 10.0581C146.197 10.3909 145.855 10.6485 145.459 10.8257C145.062 11.0082 144.622 11.0994 144.139 11.0994C143.688 11.0994 143.291 11.0189 142.954 10.8632C142.618 10.7022 142.308 10.5036 142.026 10.2621H141.998C142.009 10.3909 142.015 10.5305 142.02 10.6754C142.026 10.8203 142.026 10.9276 142.026 11.0028V13.8153H143.188V14.4433H139.717V13.8153H140.249ZM145.986 7.44953C145.986 7.17042 145.964 6.88058 145.915 6.58C145.866 6.27942 145.774 6.01105 145.638 5.76951C145.502 5.52797 145.312 5.32938 145.078 5.17372C144.845 5.01807 144.541 4.94292 144.171 4.94292C143.965 4.94292 143.737 4.97513 143.481 5.05027C143.231 5.12005 142.998 5.2274 142.781 5.36695C142.563 5.5065 142.379 5.68363 142.237 5.89833C142.091 6.11303 142.02 6.3653 142.02 6.65514V9.49453C142.112 9.58041 142.216 9.66629 142.324 9.75217C142.433 9.84342 142.563 9.91856 142.715 9.98834C142.868 10.0581 143.036 10.1172 143.226 10.1547C143.416 10.1977 143.633 10.2191 143.878 10.2191C144.508 10.2191 145.019 9.98834 145.41 9.5321C145.79 9.07587 145.986 8.38347 145.986 7.44953Z" fill="#121212"/>
<path d="M148.506 7.61592C148.506 6.98256 148.598 6.43508 148.783 5.97348C148.968 5.51188 149.217 5.13079 149.533 4.82484C149.848 4.52426 150.217 4.29883 150.63 4.15391C151.048 4.00899 151.483 3.93921 151.95 3.93921C152.254 3.93921 152.531 3.97141 152.786 4.03046C153.042 4.0895 153.275 4.17001 153.482 4.26662C153.688 4.36324 153.867 4.47596 154.02 4.59404C154.172 4.71749 154.291 4.83021 154.389 4.94292V6.16134H153.27V5.97885C153.27 5.689 153.226 5.45283 153.14 5.27034C153.053 5.08785 152.944 4.94292 152.814 4.83558C152.683 4.72823 152.531 4.65845 152.368 4.62088C152.205 4.5833 152.042 4.5672 151.879 4.5672C151.51 4.5672 151.2 4.65308 150.945 4.81947C150.69 4.98586 150.483 5.2113 150.331 5.49041C150.174 5.76951 150.065 6.09693 150 6.46192C149.935 6.83227 149.902 7.21336 149.902 7.60519C149.902 7.97017 149.94 8.31906 150.016 8.64647C150.092 8.97926 150.217 9.2691 150.391 9.52137C150.565 9.77364 150.787 9.97761 151.064 10.1279C151.336 10.2836 151.673 10.3587 152.069 10.3587C152.52 10.3587 152.901 10.2674 153.21 10.0796C153.52 9.89173 153.808 9.64482 154.079 9.33888L154.563 9.78438C154.432 9.9454 154.275 10.1011 154.101 10.2621C153.927 10.4231 153.726 10.5627 153.498 10.6915C153.27 10.8203 153.02 10.9169 152.738 10.9921C152.461 11.0672 152.156 11.1048 151.836 11.1048C151.412 11.1048 150.999 11.035 150.597 10.9008C150.195 10.7666 149.842 10.5573 149.533 10.2782C149.223 9.99908 148.978 9.63946 148.788 9.19932C148.598 8.75919 148.506 8.23318 148.506 7.61592Z" fill="#121212"/>
<path d="M155.997 10.3151C156.176 10.3151 156.301 10.2615 156.366 10.1541C156.431 10.0468 156.464 9.86963 156.464 9.61736V4.71686H155.47V4.08887H158.713V4.71686H158.246C158.066 4.71686 157.941 4.77054 157.876 4.87788C157.811 4.98523 157.778 5.16236 157.778 5.41463V7.02487H158.827L160.5 5.2053C160.625 5.08185 160.685 4.97987 160.685 4.89935C160.685 4.7759 160.598 4.71686 160.429 4.71686H159.946V4.08887H163.037V4.71686H162.95C162.733 4.71686 162.461 4.78664 162.135 4.92082C161.809 5.05501 161.51 5.27508 161.233 5.57029L159.701 7.22347L162.168 10.3151H163.118V10.9431H161.065L158.588 7.6958H157.778V10.3151H158.713V10.9431H155.47V10.3151H155.997Z" fill="#121212"/>
<path d="M164.428 10.3151C164.608 10.3151 164.732 10.2615 164.798 10.1541C164.863 10.0468 164.895 9.86963 164.895 9.61736V4.71686H163.901V4.08887H167.144V4.71686H166.677C166.498 4.71686 166.373 4.77054 166.308 4.87788C166.243 4.98523 166.21 5.16236 166.21 5.41463V8.45262C166.21 8.61364 166.205 8.8015 166.188 9.02693C166.172 9.25237 166.156 9.44023 166.139 9.60125H166.183C166.27 9.47243 166.346 9.34898 166.411 9.2309C166.476 9.11281 166.541 9.0162 166.612 8.93032L169.969 4.08887H172.109V4.71686H171.582C171.403 4.71686 171.278 4.77054 171.213 4.87788C171.148 4.98523 171.115 5.16236 171.115 5.41463V10.3151H172.109V10.9431H168.866V10.3151H169.35C169.513 10.3151 169.627 10.2615 169.698 10.1541C169.768 10.0468 169.806 9.86963 169.806 9.61736V6.57937C169.806 6.41835 169.812 6.23049 169.828 6.00505C169.844 5.77962 169.86 5.59176 169.877 5.43073H169.833C169.746 5.55955 169.67 5.683 169.605 5.80109C169.54 5.91917 169.475 6.01579 169.41 6.10167L166.053 10.9431H163.912V10.3151H164.428Z" fill="#121212"/>
<path d="M173.625 10.3157C173.804 10.3157 173.929 10.262 173.994 10.1547C174.059 10.0473 174.092 9.87019 174.092 9.61792V4.71743H173.098V4.08943H176.341V4.71743H175.874C175.694 4.71743 175.569 4.7711 175.504 4.87845C175.439 4.9858 175.406 5.16293 175.406 5.4152V8.45318C175.406 8.6142 175.401 8.80207 175.385 9.0275C175.368 9.25293 175.352 9.44079 175.336 9.60182H175.379C175.466 9.473 175.542 9.34955 175.607 9.23146C175.673 9.11338 175.738 9.01676 175.808 8.93088L179.165 4.08943H181.306V4.71743H180.779C180.6 4.71743 180.475 4.7711 180.409 4.87845C180.344 4.9858 180.312 5.16293 180.312 5.4152V10.3157H181.306V10.9437H178.063V10.3157H178.546C178.709 10.3157 178.823 10.262 178.894 10.1547C178.964 10.0473 179.002 9.87019 179.002 9.61792V6.57994C179.002 6.41891 179.008 6.23105 179.024 6.00562C179.041 5.78018 179.057 5.59232 179.073 5.4313H179.03C178.943 5.56012 178.867 5.68357 178.801 5.80165C178.736 5.91974 178.671 6.01635 178.606 6.10223L175.249 10.9437H173.109V10.3157H173.625ZM174.771 1.31445H176.102V1.6204C176.102 1.95855 176.189 2.20008 176.373 2.35037C176.553 2.50066 176.824 2.57581 177.194 2.57581C177.568 2.57581 177.851 2.50066 178.03 2.35037C178.209 2.20008 178.302 1.95855 178.302 1.6204V1.31445H179.633V1.45401C179.633 2.01222 179.421 2.44162 179.002 2.73683C178.584 3.03204 177.981 3.17696 177.194 3.17696C176.417 3.17696 175.819 3.03204 175.401 2.73683C174.983 2.44162 174.771 2.01759 174.771 1.45401V1.31445Z" fill="#121212"/>
<path d="M36.5106 27.1158C36.7008 27.1158 36.8366 27.0567 36.9289 26.9387C37.0158 26.8206 37.0756 26.6488 37.0919 26.4126L37.5156 21.5121H36.5812V20.8842H39.0583L40.5902 24.3676C40.6391 24.4696 40.6771 24.5931 40.7152 24.7326C40.7532 24.8722 40.7966 25.0064 40.8455 25.1406H40.889C40.9379 24.9903 40.9868 24.8507 41.0465 24.7112C41.1008 24.577 41.1552 24.4535 41.2041 24.3408L42.774 20.8842H45.3543V21.5121H45.0012C44.7567 21.5121 44.5829 21.5605 44.4905 21.6571C44.3982 21.7537 44.3493 21.9147 44.3493 22.1401C44.3493 22.1777 44.3493 22.2153 44.3493 22.2475C44.3493 22.2797 44.3547 22.3173 44.3656 22.3656L44.7784 27.1104H45.7725V27.7384H42.5295V27.1104H42.9152C43.0782 27.1104 43.1977 27.0728 43.2737 27.0031C43.3552 26.9333 43.3932 26.7884 43.3932 26.5737C43.3932 26.5468 43.3932 26.5093 43.3878 26.4609C43.3824 26.4126 43.3824 26.3804 43.3824 26.3643L43.1271 23.5088C43.1162 23.4337 43.1108 23.3371 43.1053 23.2136C43.0999 23.0902 43.0945 22.9667 43.089 22.8379C43.0836 22.7091 43.0836 22.5856 43.0836 22.4676C43.0836 22.3495 43.0836 22.2529 43.0836 22.1831H43.013L41.1715 26.2731H40.1774L38.363 22.1723H38.2924C38.2815 22.3012 38.2761 22.489 38.2707 22.7252C38.2652 22.9614 38.2544 23.1653 38.2381 23.3317L37.9556 26.4126C37.9556 26.4287 37.9556 26.461 37.9502 26.5039C37.9447 26.5468 37.9447 26.579 37.9447 26.6112C37.9447 26.7508 37.9773 26.8689 38.0371 26.9709C38.0968 27.0675 38.2381 27.1158 38.4554 27.1158H38.8356V27.7438H36.0869V27.1158H36.5106Z" fill="#121212"/>
<path d="M46.2451 24.3569C46.2451 23.7987 46.332 23.2942 46.5059 22.854C46.6797 22.4085 46.9241 22.0328 47.2284 21.7108C47.538 21.3941 47.8911 21.1525 48.2985 20.9808C48.7059 20.8144 49.1459 20.7285 49.6185 20.7285C50.1835 20.7285 50.6615 20.8144 51.0472 20.9862C51.4329 21.1579 51.7425 21.3887 51.9761 21.6732C52.2097 21.9577 52.3727 22.2797 52.4704 22.6447C52.5682 23.0097 52.6171 23.38 52.6171 23.7504V24.3516H47.6303C47.6303 24.6307 47.6629 24.9366 47.7281 25.264C47.7933 25.5914 47.9074 25.892 48.0758 26.1765C48.2387 26.4556 48.4669 26.6918 48.7548 26.8743C49.0427 27.0621 49.4067 27.1534 49.8521 27.1534C50.2595 27.1534 50.6452 27.0729 51.02 26.9172C51.3949 26.7562 51.7425 26.4878 52.0739 26.1067L52.5411 26.5683C52.1825 26.987 51.7588 27.3144 51.2753 27.5506C50.7919 27.7814 50.2432 27.8994 49.6402 27.8994C49.2165 27.8994 48.7983 27.835 48.3908 27.7009C47.9834 27.572 47.6195 27.3627 47.299 27.0782C46.9785 26.7938 46.7177 26.4288 46.5276 25.9779C46.3429 25.5324 46.2451 24.9957 46.2451 24.3569ZM51.2753 23.686C51.2645 22.956 51.1232 22.3871 50.8516 21.9791C50.58 21.5658 50.1672 21.3619 49.6185 21.3619C49.3904 21.3619 49.1676 21.4156 48.9449 21.5175C48.7222 21.6195 48.5266 21.7698 48.3474 21.963C48.1736 22.1563 48.0215 22.4032 47.9019 22.693C47.777 22.9829 47.701 23.3156 47.6738 23.686H51.2753Z" fill="#121212"/>
<path d="M54.2686 27.116L56.2948 24.0834L55.1214 22.3175C55.0182 22.1565 54.8987 22.0277 54.7683 21.9257C54.638 21.8237 54.4967 21.7432 54.3555 21.6788C54.2142 21.6197 54.0784 21.5768 53.9426 21.55C53.8123 21.5285 53.6873 21.5124 53.5732 21.5124H53.4863V20.8844H56.436V21.5124H55.996C55.8276 21.5124 55.7407 21.5714 55.7407 21.6949C55.7407 21.7969 55.795 21.9257 55.9091 22.0706L57.2128 23.9439H58.3753V21.507H57.5116V20.879H60.5428V21.507H60.1462C59.967 21.507 59.842 21.5607 59.7768 21.668C59.7116 21.7754 59.679 21.9525 59.679 22.2048V23.9385H60.8415L62.1453 22.0652C62.2593 21.9149 62.3137 21.7915 62.3137 21.6895C62.3137 21.5661 62.2267 21.507 62.0583 21.507H61.6183V20.879H64.5626V21.507H64.4757C64.3616 21.507 64.2367 21.5178 64.1063 21.5446C63.9759 21.5661 63.8347 21.609 63.6934 21.6734C63.5522 21.7325 63.4164 21.8183 63.2806 21.9203C63.1502 22.0223 63.0307 22.1565 62.9275 22.3121L61.7541 24.078L63.7804 27.1107H64.731V27.7387H62.6885L60.6351 24.5772H59.6736V27.1107H60.5373V27.7387H57.5062V27.1107H57.9027C58.082 27.1107 58.2069 27.057 58.2721 26.9496C58.3373 26.8423 58.3699 26.6652 58.3699 26.4129V24.5826H57.4084L55.355 27.744H53.3125V27.116H54.2686Z" fill="#121212"/>
<path d="M66.3713 30.6154C66.5506 30.6154 66.6755 30.5617 66.7407 30.4544C66.8059 30.347 66.8385 30.1699 66.8385 29.9176V21.5175H65.7031V20.8895H68.1422V22.2046H68.1693C68.2943 22.0274 68.441 21.8503 68.6094 21.6732C68.7778 21.4961 68.9733 21.335 69.1906 21.1955C69.4079 21.0559 69.6523 20.9432 69.9185 20.8573C70.1901 20.7715 70.478 20.7339 70.7877 20.7339C71.2494 20.7339 71.6514 20.8198 71.9936 20.9862C72.3359 21.1525 72.6129 21.3887 72.8356 21.6947C73.0583 22.0006 73.2213 22.3549 73.33 22.7682C73.4386 23.1814 73.4929 23.6269 73.4929 24.11C73.4929 24.679 73.4169 25.1996 73.2593 25.6612C73.1018 26.1282 72.8845 26.5254 72.602 26.8582C72.3196 27.1909 71.9773 27.4486 71.5808 27.6257C71.1842 27.8082 70.7442 27.8995 70.2607 27.8995C69.8099 27.8995 69.4133 27.8189 69.0765 27.6633C68.7397 27.5023 68.4301 27.3037 68.1476 27.0621H68.1205C68.1313 27.1909 68.1368 27.3305 68.1422 27.4754C68.1476 27.6203 68.1476 27.7277 68.1476 27.8028V30.6154H69.3101V31.2434H65.8389V30.6154H66.3713ZM72.1077 24.2442C72.1077 23.9651 72.086 23.6753 72.0371 23.3747C71.9882 23.0741 71.8958 22.8057 71.76 22.5642C71.6242 22.3227 71.4341 22.1241 71.2005 21.9684C70.9669 21.8127 70.6627 21.7376 70.2933 21.7376C70.0869 21.7376 69.8588 21.7698 69.6035 21.845C69.3536 21.9147 69.12 22.0221 68.9027 22.1616C68.6854 22.3012 68.5007 22.4783 68.3595 22.693C68.2128 22.9077 68.1422 23.16 68.1422 23.4498V26.2892C68.2345 26.3751 68.3377 26.461 68.4464 26.5469C68.555 26.6381 68.6854 26.7132 68.8375 26.783C68.9896 26.8528 69.158 26.9118 69.3481 26.9494C69.5383 26.9924 69.7556 27.0138 70 27.0138C70.6301 27.0138 71.1408 26.783 71.5319 26.3268C71.9176 25.8759 72.1077 25.1781 72.1077 24.2442Z" fill="#121212"/>
<path d="M74.8184 24.3569C74.8184 23.7987 74.9053 23.2942 75.0791 22.854C75.2529 22.4085 75.4974 22.0328 75.8016 21.7108C76.1112 21.3941 76.4643 21.1525 76.8717 20.9808C77.2791 20.8144 77.7192 20.7285 78.1918 20.7285C78.7567 20.7285 79.2348 20.8144 79.6204 20.9862C80.0061 21.1579 80.3158 21.3887 80.5493 21.6732C80.7829 21.9577 80.9459 22.2797 81.0437 22.6447C81.1415 23.0097 81.1903 23.38 81.1903 23.7504V24.3516H76.2036C76.2036 24.6307 76.2362 24.9366 76.3014 25.264C76.3665 25.5914 76.4806 25.892 76.649 26.1765C76.812 26.4556 77.0401 26.6918 77.328 26.8743C77.616 27.0621 77.9799 27.1534 78.4253 27.1534C78.8328 27.1534 79.2185 27.0729 79.5933 26.9172C79.9681 26.7562 80.3158 26.4878 80.6471 26.1067L81.1143 26.5683C80.7558 26.987 80.3321 27.3144 79.8486 27.5506C79.3651 27.7814 78.8165 27.8994 78.2135 27.8994C77.7898 27.8994 77.3715 27.835 76.9641 27.7009C76.5567 27.572 76.1927 27.3627 75.8722 27.0782C75.5517 26.7938 75.291 26.4288 75.1008 25.9779C74.9107 25.5324 74.8184 24.9957 74.8184 24.3569ZM79.8486 23.686C79.8377 22.956 79.6965 22.3871 79.4249 21.9791C79.1533 21.5658 78.7404 21.3619 78.1918 21.3619C77.9636 21.3619 77.7409 21.4156 77.5182 21.5175C77.2954 21.6195 77.0999 21.7698 76.9206 21.963C76.7468 22.1563 76.5947 22.4032 76.4752 22.693C76.3502 22.9829 76.2742 23.3156 76.247 23.686H79.8486Z" fill="#121212"/>
<path d="M82.7056 27.116C82.8849 27.116 83.0098 27.0624 83.075 26.955C83.1402 26.8477 83.1728 26.6705 83.1728 26.4183V21.5178H82.1787V20.8898H87.8336V22.9885H87.1275V22.4678C87.1275 22.1404 87.0297 21.8989 86.8287 21.7486C86.6331 21.5929 86.3778 21.5178 86.079 21.5178H84.4928V27.116H85.5847V27.744H82.1841V27.116H82.7056Z" fill="#121212"/>
<path d="M89.355 27.116C89.5343 27.116 89.6592 27.0624 89.7244 26.955C89.7896 26.8477 89.8222 26.6705 89.8222 26.4183V21.5178H88.8281V20.8898H92.0712V21.5178H91.604C91.4247 21.5178 91.2998 21.5714 91.2346 21.6788C91.1694 21.7861 91.1368 21.9633 91.1368 22.2155V25.2535C91.1368 25.4145 91.1314 25.6024 91.1151 25.8278C91.0988 26.0533 91.0825 26.2411 91.0662 26.4022H91.1097C91.1966 26.2733 91.2726 26.1499 91.3378 26.0318C91.403 25.9137 91.4682 25.8171 91.5388 25.7312L94.8959 20.8898H97.0362V21.5178H96.5093C96.33 21.5178 96.2051 21.5714 96.1399 21.6788C96.0747 21.7861 96.0421 21.9633 96.0421 22.2155V27.116H97.0362V27.744H93.7932V27.116H94.2766C94.4396 27.116 94.5537 27.0624 94.6243 26.955C94.6949 26.8477 94.7329 26.6705 94.7329 26.4183V23.3803C94.7329 23.2193 94.7384 23.0314 94.7547 22.806C94.771 22.5805 94.7873 22.3927 94.8036 22.2316H94.7601C94.6732 22.3605 94.5971 22.4839 94.5319 22.602C94.4668 22.7201 94.4016 22.8167 94.3364 22.9026L90.9793 27.744H88.839V27.116H89.355Z" fill="#121212"/>
<path d="M98.0244 24.3298C98.0244 23.7609 98.1113 23.251 98.296 22.8055C98.4753 22.36 98.7252 21.9789 99.0457 21.673C99.3662 21.367 99.7464 21.1308 100.181 20.9752C100.616 20.8142 101.083 20.739 101.583 20.739C102.093 20.739 102.56 20.8195 102.995 20.9752C103.424 21.1362 103.799 21.367 104.119 21.673C104.44 21.9789 104.69 22.36 104.869 22.8055C105.048 23.251 105.141 23.7609 105.141 24.3298C105.141 24.8988 105.048 25.4033 104.869 25.8488C104.69 26.2943 104.44 26.6647 104.119 26.9706C103.799 27.2712 103.424 27.5074 102.995 27.663C102.566 27.8241 102.093 27.8992 101.583 27.8992C101.083 27.8992 100.616 27.8187 100.181 27.663C99.7464 27.502 99.3662 27.2712 99.0457 26.9706C98.7252 26.6647 98.4753 26.2943 98.296 25.8488C98.1113 25.4087 98.0244 24.8988 98.0244 24.3298ZM103.745 24.3298C103.745 24.1903 103.734 24.0185 103.717 23.8199C103.701 23.6213 103.663 23.4066 103.603 23.1919C103.549 22.9719 103.467 22.7518 103.37 22.5317C103.272 22.3117 103.142 22.1185 102.979 21.9413C102.816 21.7696 102.62 21.63 102.392 21.5227C102.158 21.4153 101.887 21.3616 101.577 21.3616C101.267 21.3616 100.996 21.4153 100.762 21.5227C100.529 21.63 100.333 21.7696 100.176 21.9413C100.013 22.1131 99.8877 22.3117 99.7845 22.5317C99.6867 22.7518 99.6052 22.9719 99.5509 23.1919C99.4965 23.412 99.4585 23.6213 99.4368 23.8199C99.4205 24.0185 99.4096 24.1903 99.4096 24.3298C99.4096 24.5338 99.4314 24.8022 99.4803 25.135C99.5291 25.4678 99.6269 25.7898 99.779 26.1065C99.9311 26.4232 100.148 26.6969 100.436 26.9277C100.724 27.1585 101.104 27.2712 101.577 27.2712C102.05 27.2712 102.43 27.1585 102.718 26.9277C103.006 26.6969 103.223 26.4285 103.375 26.1065C103.527 25.7898 103.625 25.4624 103.674 25.135C103.723 24.8022 103.745 24.5338 103.745 24.3298Z" fill="#121212"/>
<path d="M106.26 27.116C106.44 27.116 106.565 27.0624 106.63 26.955C106.695 26.8477 106.727 26.6705 106.727 26.4183V21.5178H105.733V20.8898H108.976V21.5178H108.509C108.33 21.5178 108.205 21.5714 108.14 21.6788C108.075 21.7861 108.042 21.9633 108.042 22.2155V23.8956H111.584V21.5178H110.65V20.8898H113.893V21.5178H113.366C113.186 21.5178 113.061 21.5714 112.996 21.6788C112.931 21.7861 112.898 21.9633 112.898 22.2155V27.116H113.893V27.744H110.65V27.116H111.133C111.296 27.116 111.41 27.0624 111.481 26.955C111.551 26.8477 111.589 26.6705 111.589 26.4183V24.5719H108.048V27.1214H108.982V27.7494H105.739V27.1214H106.26V27.116Z" fill="#121212"/>
<path d="M115.109 25.9406C115.109 25.4951 115.213 25.1247 115.414 24.8402C115.615 24.5558 115.881 24.3357 116.207 24.18C116.533 24.0244 116.897 23.9224 117.299 23.8634C117.701 23.8097 118.097 23.7775 118.494 23.7775H119.841V23.1495C119.841 22.5591 119.694 22.1243 119.395 21.8345C119.097 21.5446 118.733 21.3997 118.298 21.3997C118.135 21.3997 117.972 21.4158 117.809 21.448C117.646 21.4802 117.5 21.5392 117.369 21.6144C117.239 21.6949 117.136 21.7969 117.06 21.9311C116.978 22.0599 116.94 22.2263 116.94 22.4195V22.865H115.767V21.7593C116.141 21.4587 116.587 21.2118 117.098 21.0186C117.608 20.82 118.189 20.7234 118.841 20.7234C119.249 20.7234 119.596 20.7824 119.89 20.9005C120.183 21.0186 120.422 21.185 120.612 21.3997C120.802 21.6144 120.938 21.872 121.03 22.1672C121.123 22.4678 121.166 22.7952 121.166 23.1602V27.1107H122.302V27.7387H119.863V26.4934H119.835C119.705 26.6437 119.547 26.7994 119.368 26.9604C119.189 27.1214 118.988 27.2771 118.76 27.4166C118.532 27.5562 118.287 27.6689 118.016 27.7601C117.744 27.8514 117.462 27.8943 117.157 27.8943C116.864 27.8943 116.592 27.846 116.342 27.7548C116.093 27.6635 115.875 27.5293 115.696 27.3629C115.517 27.1966 115.376 26.9926 115.272 26.7457C115.164 26.5095 115.109 26.2411 115.109 25.9406ZM119.841 24.443H118.635C118.407 24.443 118.168 24.4591 117.918 24.4914C117.668 24.5236 117.434 24.5933 117.222 24.6953C117.011 24.7973 116.837 24.9422 116.701 25.1247C116.565 25.3072 116.495 25.5434 116.495 25.8332C116.495 26.1714 116.592 26.429 116.782 26.6169C116.978 26.8047 117.293 26.896 117.739 26.896C117.907 26.896 118.113 26.8691 118.352 26.8101C118.591 26.7564 118.825 26.6652 119.048 26.5364C119.27 26.4075 119.455 26.2465 119.607 26.0479C119.759 25.8493 119.835 25.5971 119.835 25.2965V24.443H119.841Z" fill="#121212"/>
<path d="M123.268 26.7671H124.088C124.305 26.7671 124.49 26.692 124.647 26.5417C124.805 26.3914 124.941 26.1767 125.066 25.8976C125.191 25.6185 125.294 25.275 125.375 24.8671C125.462 24.4591 125.538 24.0029 125.614 23.4876L125.799 22.2424C125.81 22.1941 125.815 22.1565 125.815 22.1243C125.815 22.0921 125.815 22.0545 125.815 22.0062C125.815 21.8667 125.777 21.7486 125.701 21.6573C125.625 21.5661 125.478 21.5178 125.261 21.5178H124.881V20.8898H131.302V21.5178H130.775C130.596 21.5178 130.471 21.5714 130.405 21.6788C130.34 21.7861 130.308 21.9633 130.308 22.2155V27.116H131.302V27.744H127.988V27.116H128.542C128.705 27.116 128.819 27.0624 128.89 26.955C128.961 26.8477 128.999 26.6705 128.999 26.4183V21.5178H127.369C127.103 21.5178 126.929 21.5875 126.837 21.7271C126.744 21.8666 126.69 22.0277 126.657 22.2048L126.445 23.5359C126.342 24.1532 126.234 24.7275 126.125 25.2589C126.016 25.7903 125.87 26.2519 125.679 26.6437C125.489 27.0355 125.25 27.3415 124.962 27.5669C124.675 27.7923 124.305 27.905 123.849 27.905C123.659 27.905 123.469 27.8621 123.268 27.7762V26.7671Z" fill="#121212"/>
<path d="M133.171 27.116C133.351 27.116 133.476 27.0624 133.541 26.955C133.606 26.8477 133.639 26.6705 133.639 26.4183V21.5178H132.645V20.8898H135.947V21.5178H135.426C135.247 21.5178 135.122 21.5714 135.056 21.6788C134.991 21.7861 134.959 21.9633 134.959 22.2155V23.4339H136.588C136.92 23.4339 137.246 23.4662 137.566 23.5252C137.887 23.5842 138.175 23.697 138.424 23.8526C138.674 24.0136 138.875 24.2283 139.027 24.4967C139.179 24.7651 139.256 25.1193 139.256 25.5487C139.256 25.9245 139.185 26.2465 139.038 26.5202C138.892 26.794 138.691 27.0248 138.435 27.2073C138.18 27.3898 137.887 27.524 137.555 27.6152C137.224 27.7065 136.876 27.7494 136.507 27.7494H132.655V27.1214H133.171V27.116ZM136.192 27.116C136.409 27.116 136.615 27.0838 136.816 27.0248C137.012 26.9657 137.191 26.8691 137.349 26.7457C137.506 26.6222 137.631 26.4612 137.724 26.2626C137.816 26.0694 137.865 25.8332 137.865 25.5648C137.865 25.2965 137.816 25.0657 137.724 24.8724C137.631 24.6792 137.506 24.5289 137.349 24.4108C137.191 24.2927 137.017 24.2069 136.816 24.1532C136.615 24.0995 136.414 24.0673 136.208 24.0673H134.948V27.1214H136.192V27.116Z" fill="#121212"/>
<path d="M140.668 27.116C140.847 27.116 140.972 27.0624 141.037 26.955C141.102 26.8477 141.135 26.6705 141.135 26.4183V21.5178H140.141V20.8898H143.384V21.5178H142.916C142.737 21.5178 142.612 21.5714 142.547 21.6788C142.482 21.7861 142.449 21.9633 142.449 22.2155V23.8956H145.991V21.5178H145.057V20.8898H148.3V21.5178H147.773C147.594 21.5178 147.469 21.5714 147.403 21.6788C147.338 21.7861 147.306 21.9633 147.306 22.2155V27.116H148.3V27.744H145.057V27.116H145.54C145.703 27.116 145.817 27.0624 145.888 26.955C145.959 26.8477 145.997 26.6705 145.997 26.4183V24.5719H142.455V27.1214H143.389V27.7494H140.146V27.1214H140.668V27.116Z" fill="#121212"/>
<path d="M149.821 27.116C150 27.116 150.125 27.0624 150.19 26.955C150.255 26.8477 150.288 26.6705 150.288 26.4183V21.5178H149.294V20.8898H152.597V21.5178H152.075C151.896 21.5178 151.771 21.5714 151.706 21.6788C151.641 21.7861 151.608 21.9633 151.608 22.2155V23.4339H153.069C153.401 23.4339 153.721 23.4662 154.042 23.5252C154.357 23.5842 154.639 23.697 154.895 23.8526C155.144 24.0136 155.345 24.2283 155.498 24.4967C155.65 24.7651 155.726 25.1193 155.726 25.5487C155.726 25.9245 155.655 26.2465 155.508 26.5202C155.362 26.794 155.166 27.0248 154.911 27.2073C154.661 27.3898 154.368 27.524 154.042 27.6152C153.71 27.7065 153.363 27.7494 152.993 27.7494H149.31V27.1214H149.821V27.116ZM152.667 27.116C152.885 27.116 153.091 27.0838 153.292 27.0248C153.488 26.9657 153.667 26.8691 153.824 26.7457C153.982 26.6222 154.107 26.4612 154.199 26.2626C154.292 26.0694 154.34 25.8332 154.34 25.5648C154.34 25.2965 154.292 25.0657 154.199 24.8724C154.107 24.6792 153.982 24.5289 153.824 24.4108C153.667 24.2927 153.493 24.2069 153.292 24.1532C153.096 24.0995 152.89 24.0673 152.684 24.0673H151.592V27.1214H152.667V27.116ZM156.638 27.116C156.801 27.116 156.915 27.0624 156.986 26.955C157.057 26.8477 157.095 26.6705 157.095 26.4183V21.5178H156.1V20.8898H159.403V21.5178H158.882C158.703 21.5178 158.578 21.5714 158.512 21.6788C158.447 21.7861 158.415 21.9633 158.415 22.2155V27.116H159.409V27.744H156.106V27.116H156.638Z" fill="#121212"/>
<path d="M160.914 27.1159C161.093 27.1159 161.218 27.0622 161.283 26.9548C161.348 26.8475 161.381 26.6704 161.381 26.4181V21.5176H160.387V20.8896H163.63V21.5176H163.163C162.983 21.5176 162.858 21.5713 162.793 21.6786C162.728 21.786 162.695 21.9631 162.695 22.2154V25.2534C162.695 25.4144 162.69 25.6022 162.674 25.8277C162.657 26.0531 162.641 26.241 162.625 26.402H162.668C162.755 26.2732 162.831 26.1497 162.896 26.0316C162.962 25.9136 163.027 25.8169 163.097 25.7311L166.455 20.8896H168.595V21.5176H168.068C167.889 21.5176 167.764 21.5713 167.698 21.6786C167.633 21.786 167.601 21.9631 167.601 22.2154V27.1159H168.595V27.7439H165.352V27.1159H165.835C165.998 27.1159 166.112 27.0622 166.183 26.9548C166.254 26.8475 166.292 26.6704 166.292 26.4181V23.3801C166.292 23.2191 166.297 23.0312 166.313 22.8058C166.33 22.5804 166.346 22.3925 166.362 22.2315H166.319C166.232 22.3603 166.156 22.4837 166.091 22.6018C166.025 22.7199 165.96 22.8165 165.895 22.9024L162.538 27.7439H160.398V27.1159H160.914ZM162.065 18.1146H163.396V18.4206C163.396 18.7587 163.483 19.0003 163.668 19.1505C163.847 19.3008 164.119 19.376 164.488 19.376C164.863 19.376 165.145 19.3008 165.325 19.1505C165.504 19.0003 165.596 18.7587 165.596 18.4206V18.1146H166.927V18.2542C166.927 18.8124 166.715 19.2418 166.297 19.537C165.879 19.8322 165.276 19.9771 164.488 19.9771C163.711 19.9771 163.114 19.8322 162.695 19.537C162.277 19.2418 162.065 18.8178 162.065 18.2542V18.1146Z" fill="#121212"/>
<path d="M36.6353 43.9161C36.8146 43.9161 36.9395 43.8624 37.0047 43.7551C37.0699 43.6477 37.1025 43.4706 37.1025 43.2183V38.3178H36.1084V37.6898H39.3514V38.3178H38.8843C38.705 38.3178 38.5801 38.3715 38.5149 38.4788C38.4497 38.5862 38.4171 38.7633 38.4171 39.0156V40.6956H41.9589V38.3178H41.0245V37.6898H44.2676V38.3178H43.7406C43.5614 38.3178 43.4364 38.3715 43.3713 38.4788C43.3061 38.5862 43.2735 38.7633 43.2735 39.0156V43.9161H44.2676V44.5441H41.0245V43.9161H41.508C41.671 43.9161 41.7851 43.8624 41.8557 43.7551C41.9263 43.6477 41.9643 43.4706 41.9643 43.2183V41.3719H38.4225V43.9214H39.3569V44.5494H36.1138V43.9214H36.6353V43.9161Z" fill="#121212"/>
<path d="M45.332 42.7409C45.332 42.2954 45.4352 41.925 45.6362 41.6405C45.8372 41.356 46.1034 41.136 46.4293 40.9803C46.7553 40.8247 47.1192 40.7227 47.5212 40.6636C47.9232 40.61 48.3197 40.5778 48.7163 40.5778H50.0635V39.9498C50.0635 39.3594 49.9168 38.9246 49.618 38.6347C49.3193 38.3449 48.9553 38.2 48.5207 38.2C48.3578 38.2 48.1948 38.2161 48.0318 38.2483C47.8689 38.2805 47.7222 38.3395 47.5918 38.4147C47.4615 38.4952 47.3582 38.5972 47.2822 38.7314C47.2007 38.8602 47.1627 39.0266 47.1627 39.2198V39.6653H45.9893V38.5596C46.3642 38.259 46.8096 38.0121 47.3202 37.8189C47.8308 37.6203 48.4121 37.5237 49.064 37.5237C49.4714 37.5237 49.819 37.5827 50.1124 37.7008C50.4057 37.8189 50.6447 37.9853 50.8349 38.2C51.025 38.4147 51.1608 38.6723 51.2531 38.9675C51.3455 39.2681 51.3889 39.5955 51.3889 39.9605V43.911H52.5243V44.539H50.0852V43.2937H50.0581C49.9277 43.444 49.7701 43.5996 49.5909 43.7607C49.4116 43.9217 49.2106 44.0773 48.9825 44.2169C48.7543 44.3565 48.5099 44.4692 48.2383 44.5604C47.9667 44.6517 47.6842 44.6946 47.38 44.6946C47.0866 44.6946 46.815 44.6463 46.5651 44.5551C46.3153 44.4638 46.098 44.3296 45.9187 44.1632C45.7394 43.9968 45.5982 43.7929 45.495 43.546C45.3809 43.3098 45.332 43.0414 45.332 42.7409ZM50.0635 41.2433H48.8575C48.6294 41.2433 48.3904 41.2594 48.1405 41.2916C47.8906 41.3238 47.657 41.3936 47.4452 41.4956C47.2333 41.5976 47.0595 41.7425 46.9237 41.925C46.7879 42.1075 46.7172 42.3437 46.7172 42.6335C46.7172 42.9717 46.815 43.2293 47.0052 43.4172C47.2007 43.605 47.5158 43.6963 47.9612 43.6963C48.1296 43.6963 48.336 43.6694 48.5751 43.6104C48.8141 43.5567 49.0477 43.4655 49.2704 43.3366C49.4931 43.2078 49.6778 43.0468 49.8299 42.8482C49.982 42.6496 50.0581 42.3973 50.0581 42.0968V41.2433H50.0635Z" fill="#121212"/>
<path d="M53.5678 47.0667H54.5728C54.6869 47.0667 54.8064 47.0505 54.9259 47.0237C55.0508 46.9969 55.1703 46.9378 55.2844 46.8466C55.4039 46.7553 55.518 46.6265 55.6375 46.4548C55.757 46.283 55.8711 46.0522 55.9852 45.7624L56.3817 44.7264L53.3342 38.3123H52.3564V37.6843H55.7733V38.3123H55.4311C55.1486 38.3123 55.0074 38.4197 55.0074 38.6344C55.0074 38.7363 55.0563 38.8974 55.1486 39.1121L56.5936 42.2467C56.6588 42.3862 56.7239 42.558 56.7891 42.7619C56.8543 42.9659 56.9086 43.1377 56.9467 43.2826H57.0173C57.0444 43.1699 57.0825 43.0303 57.1314 42.8693C57.1802 42.7083 57.24 42.515 57.3161 42.3003L58.5057 39.0799C58.5546 38.9779 58.5818 38.8866 58.5926 38.8115C58.6035 38.7363 58.6089 38.6719 58.6089 38.6129C58.6089 38.5002 58.5763 38.4197 58.5111 38.3767C58.446 38.3284 58.3645 38.307 58.2721 38.307H57.7887V37.679H60.7058V38.307H60.4504C60.1788 38.307 59.9561 38.3928 59.7931 38.5592C59.6302 38.7256 59.5052 38.9027 59.4346 39.0906L56.9847 45.5423C56.7837 46.0737 56.5827 46.5138 56.3817 46.8573C56.1807 47.2008 55.9634 47.4746 55.7461 47.6678C55.5234 47.861 55.2953 48.0006 55.0508 48.0757C54.8118 48.1509 54.5456 48.1884 54.2632 48.1884C54.1111 48.1884 53.9752 48.1723 53.8612 48.1455C53.7417 48.1187 53.6439 48.0865 53.5733 48.0489V47.0667H53.5678Z" fill="#121212"/>
<path d="M66.3986 43.9163C66.5615 43.9163 66.6756 43.8626 66.7462 43.7553C66.8169 43.6479 66.8549 43.4708 66.8549 43.2185V41.1896H66.8277C66.5833 41.4956 66.2628 41.7532 65.8717 41.9572C65.4805 42.1611 65.0568 42.2631 64.6059 42.2631C64.1985 42.2631 63.8617 42.2041 63.601 42.0806C63.3348 41.9572 63.1284 41.7962 62.9763 41.5976C62.8242 41.399 62.721 41.1628 62.6558 40.8891C62.596 40.6207 62.5634 40.3308 62.5634 40.0195V38.3127H61.5693V37.6847H64.8015V38.3127H64.3343C64.1551 38.3127 64.0301 38.3664 63.9649 38.4737C63.8998 38.5811 63.8672 38.7582 63.8672 39.0104V40.1C63.8672 40.5133 63.9595 40.8247 64.1496 41.0447C64.3398 41.2648 64.6222 41.3721 64.9971 41.3721C65.2252 41.3721 65.4479 41.3453 65.6707 41.2863C65.8934 41.2326 66.0889 41.1467 66.2682 41.034C66.442 40.9213 66.5833 40.7817 66.6919 40.6153C66.8006 40.4489 66.8549 40.2503 66.8549 40.0249V38.3019H65.9205V37.674H69.1636V38.3019H68.6421C68.4628 38.3019 68.3379 38.3556 68.2727 38.463C68.2075 38.5703 68.1749 38.7474 68.1749 38.9997V43.9002H69.169V44.5282H65.7847V43.9002H66.3986V43.9163Z" fill="#121212"/>
<path d="M70.6793 43.9161C70.8585 43.9161 70.9835 43.8624 71.0487 43.7551C71.1138 43.6477 71.1464 43.4706 71.1464 43.2183V38.3178H70.1523V37.6898H73.3954V38.3178H72.9282C72.7489 38.3178 72.624 38.3715 72.5588 38.4788C72.4936 38.5862 72.461 38.7633 72.461 39.0156V40.6956H76.0028V38.3178H75.0685V37.6898H78.3115V38.3178H77.7846C77.6053 38.3178 77.4804 38.3715 77.4152 38.4788C77.35 38.5862 77.3174 38.7633 77.3174 39.0156V43.9161H78.3115V44.5441H75.0685V43.9161H75.552C75.7149 43.9161 75.829 43.8624 75.8996 43.7551C75.9702 43.6477 76.0083 43.4706 76.0083 43.2183V41.3719H72.4665V43.9214H73.4008V44.5494H70.1578V43.9214H70.6793V43.9161Z" fill="#121212"/>
<path d="M78.9463 41.1306C78.9463 40.5617 79.0332 40.0518 79.2179 39.6063C79.3972 39.1608 79.647 38.7797 79.9675 38.4737C80.288 38.1678 80.6683 37.9316 81.1029 37.776C81.5375 37.6149 82.0046 37.5398 82.5044 37.5398C83.015 37.5398 83.4822 37.6203 83.9168 37.776C84.3459 37.937 84.7207 38.1678 85.0412 38.4737C85.3617 38.7797 85.6116 39.1608 85.7909 39.6063C85.9701 40.0518 86.0625 40.5617 86.0625 41.1306C86.0625 41.6996 85.9701 42.2041 85.7909 42.6496C85.6116 43.0951 85.3617 43.4655 85.0412 43.7714C84.7207 44.0774 84.3459 44.3082 83.9168 44.4638C83.4876 44.6248 83.015 44.7 82.5044 44.7C82.0046 44.7 81.5375 44.6195 81.1029 44.4638C80.6683 44.3028 80.288 44.072 79.9675 43.7714C79.647 43.4708 79.3972 43.0951 79.2179 42.6496C79.0332 42.2041 78.9463 41.6996 78.9463 41.1306ZM84.6664 41.1306C84.6664 40.9911 84.6555 40.8193 84.6392 40.6207C84.6229 40.4221 84.5849 40.2074 84.5252 39.9927C84.4708 39.7727 84.3894 39.5526 84.2916 39.3325C84.1938 39.1125 84.0634 38.9192 83.9005 38.7421C83.7375 38.5703 83.5419 38.4308 83.3138 38.3234C83.0802 38.2161 82.8086 38.1624 82.4989 38.1624C82.1893 38.1624 81.9177 38.2161 81.6841 38.3234C81.4505 38.4308 81.255 38.5703 81.0974 38.7421C80.9345 38.9139 80.8095 39.1125 80.7063 39.3325C80.6085 39.5526 80.5271 39.7727 80.4727 39.9927C80.4184 40.2128 80.3804 40.4221 80.3587 40.6207C80.3424 40.8193 80.3315 40.9911 80.3315 41.1306C80.3315 41.3346 80.3532 41.603 80.4021 41.9357C80.451 42.2685 80.5488 42.5906 80.7009 42.9073C80.853 43.2239 81.0703 43.4977 81.3582 43.7285C81.6461 43.9593 82.0263 44.072 82.4989 44.072C82.9715 44.072 83.3518 43.9593 83.6397 43.7285C83.9276 43.4977 84.1449 43.2293 84.297 42.9073C84.4491 42.5906 84.5469 42.2632 84.5958 41.9357C84.6447 41.603 84.6664 41.3346 84.6664 41.1306Z" fill="#121212"/>
<path d="M92.2506 40.3201V41.3291H87.8994V40.3201H92.2506Z" fill="#121212"/>
<path d="M94.0215 41.1306C94.0215 40.5617 94.1084 40.0518 94.2931 39.6063C94.4724 39.1608 94.7222 38.7797 95.0427 38.4737C95.3632 38.1678 95.7435 37.9316 96.1781 37.776C96.6127 37.6149 97.0798 37.5398 97.5796 37.5398C98.0902 37.5398 98.5574 37.6203 98.992 37.776C99.4211 37.937 99.7959 38.1678 100.116 38.4737C100.437 38.7797 100.687 39.1608 100.866 39.6063C101.045 40.0518 101.138 40.5617 101.138 41.1306C101.138 41.6996 101.045 42.2041 100.866 42.6496C100.687 43.0951 100.437 43.4655 100.116 43.7714C99.7959 44.0774 99.4211 44.3082 98.992 44.4638C98.5628 44.6248 98.0902 44.7 97.5796 44.7C97.0798 44.7 96.6127 44.6195 96.1781 44.4638C95.7435 44.3028 95.3632 44.072 95.0427 43.7714C94.7222 43.4708 94.4724 43.0951 94.2931 42.6496C94.1084 42.2041 94.0215 41.6996 94.0215 41.1306ZM99.747 41.1306C99.747 40.9911 99.7362 40.8193 99.7199 40.6207C99.7036 40.4221 99.6656 40.2074 99.6058 39.9927C99.5515 39.7727 99.47 39.5526 99.3722 39.3325C99.2744 39.1125 99.1441 38.9192 98.9811 38.7421C98.8181 38.5703 98.6226 38.4308 98.3944 38.3234C98.1608 38.2161 97.8892 38.1624 97.5796 38.1624C97.27 38.1624 96.9983 38.2161 96.7648 38.3234C96.5312 38.4308 96.3356 38.5703 96.1781 38.7421C96.0151 38.9139 95.8902 39.1125 95.787 39.3325C95.6892 39.5526 95.6077 39.7727 95.5534 39.9927C95.499 40.2128 95.461 40.4221 95.4393 40.6207C95.423 40.8193 95.4121 40.9911 95.4121 41.1306C95.4121 41.3346 95.4339 41.603 95.4828 41.9357C95.5316 42.2685 95.6294 42.5906 95.7815 42.9073C95.9336 43.2239 96.1509 43.4977 96.4388 43.7285C96.7267 43.9593 97.107 44.072 97.5796 44.072C98.0522 44.072 98.4324 43.9593 98.7203 43.7285C99.0083 43.4977 99.2255 43.2293 99.3776 42.9073C99.5297 42.5906 99.6275 42.2632 99.6764 41.9357C99.7199 41.603 99.747 41.3346 99.747 41.1306Z" fill="#121212"/>
<path d="M102.408 40.723C102.408 39.7247 102.511 38.9035 102.712 38.2594C102.913 37.6153 103.185 37.0946 103.527 36.6975C103.869 36.3003 104.261 35.9997 104.711 35.7957C105.162 35.5918 105.63 35.42 106.124 35.2912C106.624 35.1624 107.031 35.0496 107.352 34.953C107.667 34.8618 107.927 34.7705 108.123 34.6793C108.318 34.5934 108.481 34.4861 108.606 34.3626C108.731 34.2391 108.851 34.0889 108.976 33.901L109.329 33.9976C109.253 34.3626 109.155 34.6685 109.03 34.9208C108.905 35.1731 108.731 35.3878 108.509 35.5703C108.28 35.7528 107.993 35.9084 107.639 36.048C107.286 36.1822 106.841 36.3164 106.314 36.4452C105.825 36.5686 105.39 36.7028 105.01 36.8585C104.63 37.0141 104.309 37.2181 104.049 37.4757C103.783 37.7334 103.576 38.0608 103.419 38.458C103.261 38.8552 103.163 39.3543 103.114 39.9501H103.185C103.402 39.3275 103.766 38.823 104.282 38.4365C104.798 38.0554 105.439 37.8622 106.2 37.8622C107.232 37.8622 108.041 38.1681 108.628 38.7693C109.22 39.3758 109.514 40.2292 109.514 41.3296C109.514 41.8073 109.427 42.2474 109.253 42.6607C109.079 43.074 108.835 43.4283 108.525 43.7235C108.215 44.024 107.84 44.2602 107.411 44.432C106.982 44.6037 106.51 44.6896 106.004 44.6896C105.418 44.6896 104.902 44.593 104.451 44.4051C104 44.2119 103.625 43.9435 103.326 43.5946C103.022 43.2458 102.799 42.8271 102.647 42.3333C102.484 41.8502 102.408 41.3135 102.408 40.723ZM108.117 41.3564C108.117 40.9646 108.079 40.5996 107.998 40.2561C107.916 39.9179 107.792 39.6227 107.623 39.3758C107.455 39.1289 107.237 38.9357 106.971 38.7961C106.705 38.6566 106.39 38.5868 106.021 38.5868C105.673 38.5868 105.363 38.6673 105.097 38.8337C104.831 38.9947 104.608 39.2094 104.424 39.4778C104.239 39.7462 104.098 40.0467 104.005 40.3903C103.913 40.7284 103.864 41.0719 103.864 41.4208C103.864 41.7268 103.897 42.0381 103.962 42.3494C104.027 42.6607 104.141 42.9452 104.309 43.2028C104.472 43.4605 104.69 43.6698 104.961 43.8308C105.233 43.9918 105.575 44.0777 105.988 44.0777C106.395 44.0777 106.732 43.9918 107.009 43.8093C107.281 43.6322 107.504 43.4121 107.667 43.1438C107.83 42.8754 107.949 42.5856 108.014 42.2635C108.085 41.9361 108.117 41.6355 108.117 41.3564Z" fill="#121212"/>
<path d="M111.024 47.4159C111.203 47.4159 111.328 47.3623 111.393 47.2549C111.458 47.1476 111.491 46.9704 111.491 46.7182V38.3181H110.355V37.6901H112.795V39.0051H112.822C112.947 38.828 113.093 38.6509 113.262 38.4737C113.43 38.2966 113.626 38.1356 113.843 37.996C114.06 37.8565 114.305 37.7438 114.571 37.6579C114.842 37.572 115.13 37.5344 115.44 37.5344C115.902 37.5344 116.304 37.6203 116.646 37.7867C116.988 37.9531 117.265 38.1893 117.488 38.4952C117.711 38.8011 117.874 39.1554 117.982 39.5687C118.091 39.982 118.145 40.4275 118.145 40.9106C118.145 41.4795 118.069 42.0002 117.912 42.4618C117.754 42.9287 117.537 43.3259 117.254 43.6587C116.972 43.9915 116.63 44.2491 116.233 44.4262C115.837 44.6087 115.397 44.7 114.913 44.7C114.462 44.7 114.066 44.6195 113.729 44.4638C113.392 44.3028 113.082 44.1042 112.8 43.8627H112.773C112.784 43.9915 112.789 44.131 112.795 44.276C112.8 44.4209 112.8 44.5282 112.8 44.6034V47.4159H113.962V48.0439H110.491V47.4159H111.024ZM116.76 41.0447C116.76 40.7656 116.738 40.4758 116.689 40.1752C116.641 39.8746 116.548 39.6063 116.412 39.3647C116.277 39.1232 116.086 38.9246 115.853 38.7689C115.619 38.6133 115.315 38.5381 114.946 38.5381C114.739 38.5381 114.511 38.5703 114.256 38.6455C114.006 38.7153 113.772 38.8226 113.555 38.9622C113.338 39.1017 113.153 39.2789 113.012 39.4935C112.865 39.7082 112.795 39.9605 112.795 40.2504V43.0897C112.887 43.1756 112.99 43.2615 113.099 43.3474C113.207 43.4386 113.338 43.5138 113.49 43.5836C113.642 43.6533 113.81 43.7124 114 43.7499C114.191 43.7929 114.408 43.8144 114.652 43.8144C115.282 43.8144 115.793 43.5836 116.184 43.1273C116.564 42.6765 116.76 41.9787 116.76 41.0447Z" fill="#121212"/>
<path d="M119.102 42.7409C119.102 42.2954 119.205 41.925 119.406 41.6405C119.607 41.356 119.873 41.136 120.199 40.9803C120.525 40.8247 120.889 40.7227 121.291 40.6636C121.693 40.61 122.089 40.5778 122.486 40.5778H123.833V39.9498C123.833 39.3594 123.686 38.9246 123.388 38.6347C123.089 38.3449 122.725 38.2 122.29 38.2C122.127 38.2 121.964 38.2161 121.801 38.2483C121.638 38.2805 121.492 38.3395 121.361 38.4147C121.236 38.4952 121.128 38.5972 121.052 38.7314C120.97 38.8602 120.932 39.0266 120.932 39.2198V39.6653H119.759V38.5596C120.134 38.259 120.579 38.0121 121.09 37.8189C121.6 37.6203 122.182 37.5237 122.833 37.5237C123.241 37.5237 123.589 37.5827 123.882 37.7008C124.175 37.8189 124.414 37.9853 124.604 38.2C124.795 38.4147 124.93 38.6723 125.023 38.9675C125.115 39.2681 125.158 39.5955 125.158 39.9605V43.911H126.294V44.539H123.855V43.2937H123.828C123.697 43.444 123.54 43.5996 123.36 43.7607C123.181 43.9217 122.98 44.0773 122.752 44.2169C122.524 44.3565 122.279 44.4692 122.008 44.5604C121.736 44.6517 121.454 44.6946 121.15 44.6946C120.856 44.6946 120.585 44.6463 120.335 44.5551C120.085 44.4638 119.868 44.3296 119.688 44.1632C119.509 43.9968 119.368 43.7929 119.265 43.546C119.156 43.3098 119.102 43.0414 119.102 42.7409ZM123.833 41.2433H122.627C122.399 41.2433 122.16 41.2594 121.91 41.2916C121.66 41.3238 121.427 41.3936 121.215 41.4956C121.003 41.5976 120.829 41.7425 120.693 41.925C120.557 42.1075 120.487 42.3437 120.487 42.6335C120.487 42.9717 120.585 43.2293 120.775 43.4172C120.97 43.605 121.285 43.6963 121.731 43.6963C121.899 43.6963 122.106 43.6694 122.345 43.6104C122.584 43.5567 122.817 43.4655 123.04 43.3366C123.263 43.2078 123.447 43.0468 123.599 42.8482C123.752 42.6496 123.828 42.3973 123.828 42.0968V41.2433H123.833Z" fill="#121212"/>
<path d="M127.429 42.5745H128.548V42.8267C128.548 43.2293 128.684 43.5353 128.95 43.75C129.221 43.9647 129.661 44.072 130.275 44.072C130.775 44.072 131.199 43.9539 131.535 43.7177C131.878 43.4816 132.046 43.1166 132.046 42.6335C132.046 42.5047 132.03 42.3651 131.992 42.2149C131.954 42.0646 131.883 41.925 131.78 41.8016C131.677 41.6727 131.53 41.5708 131.345 41.4849C131.161 41.399 130.927 41.3561 130.645 41.3561H129.357V40.6851H130.536C131.019 40.6851 131.356 40.567 131.546 40.3362C131.742 40.1054 131.834 39.8049 131.834 39.4399C131.834 39.0588 131.698 38.7475 131.432 38.5167C131.161 38.2859 130.786 38.1678 130.308 38.1678C129.243 38.1678 128.705 38.5864 128.705 39.4291V39.6385H127.586V38.463C127.689 38.361 127.842 38.2537 128.037 38.1409C128.233 38.0282 128.461 37.9263 128.716 37.8404C128.971 37.7545 129.243 37.6793 129.531 37.6257C129.819 37.572 130.107 37.5398 130.389 37.5398C131.383 37.5398 132.1 37.7116 132.551 38.0551C133.002 38.3986 133.225 38.8226 133.225 39.3272C133.225 39.4882 133.203 39.6438 133.16 39.8049C133.116 39.9659 133.04 40.1162 132.926 40.2611C132.812 40.406 132.66 40.5348 132.475 40.6529C132.285 40.771 132.046 40.8676 131.753 40.9428V40.9696C132.073 41.0072 132.345 41.077 132.562 41.1789C132.779 41.2809 132.953 41.4044 133.078 41.5493C133.203 41.6942 133.295 41.8552 133.355 42.0324C133.41 42.2095 133.442 42.3973 133.442 42.5906C133.442 42.918 133.355 43.2132 133.187 43.4708C133.018 43.7338 132.785 43.9539 132.492 44.1364C132.198 44.3189 131.861 44.4585 131.476 44.5551C131.095 44.6517 130.683 44.7 130.248 44.7C129.689 44.7 129.167 44.6141 128.667 44.4477C128.173 44.2813 127.76 44.0613 127.429 43.7875V42.5745Z" fill="#121212"/>
<path d="M134.567 41.1306C134.567 40.5617 134.654 40.0518 134.839 39.6063C135.018 39.1608 135.268 38.7797 135.589 38.4737C135.909 38.1678 136.289 37.9316 136.724 37.776C137.159 37.6149 137.626 37.5398 138.125 37.5398C138.636 37.5398 139.103 37.6203 139.538 37.776C139.967 37.937 140.342 38.1678 140.662 38.4737C140.983 38.7797 141.233 39.1608 141.412 39.6063C141.591 40.0518 141.684 40.5617 141.684 41.1306C141.684 41.6996 141.591 42.2041 141.412 42.6496C141.233 43.0951 140.983 43.4655 140.662 43.7714C140.342 44.0774 139.967 44.3082 139.538 44.4638C139.109 44.6248 138.636 44.7 138.125 44.7C137.626 44.7 137.159 44.6195 136.724 44.4638C136.289 44.3028 135.909 44.072 135.589 43.7714C135.268 43.4708 135.018 43.0951 134.839 42.6496C134.66 42.2041 134.567 41.6996 134.567 41.1306ZM140.293 41.1306C140.293 40.9911 140.282 40.8193 140.266 40.6207C140.249 40.4221 140.211 40.2074 140.152 39.9927C140.097 39.7727 140.016 39.5526 139.918 39.3325C139.82 39.1125 139.69 38.9192 139.527 38.7421C139.364 38.5703 139.168 38.4308 138.94 38.3234C138.707 38.2161 138.435 38.1624 138.125 38.1624C137.816 38.1624 137.544 38.2161 137.311 38.3234C137.077 38.4308 136.882 38.5703 136.724 38.7421C136.561 38.9139 136.436 39.1125 136.333 39.3325C136.235 39.5526 136.154 39.7727 136.099 39.9927C136.045 40.2128 136.007 40.4221 135.985 40.6207C135.969 40.8193 135.958 40.9911 135.958 41.1306C135.958 41.3346 135.98 41.603 136.029 41.9357C136.078 42.2685 136.175 42.5906 136.327 42.9073C136.48 43.2239 136.697 43.4977 136.985 43.7285C137.273 43.9593 137.653 44.072 138.125 44.072C138.598 44.072 138.978 43.9593 139.266 43.7285C139.554 43.4977 139.771 43.2293 139.924 42.9073C140.076 42.5906 140.173 42.2632 140.222 41.9357C140.266 41.603 140.293 41.3346 140.293 41.1306Z" fill="#121212"/>
<path d="M143.123 43.9161C143.302 43.9161 143.427 43.8624 143.493 43.7551C143.558 43.6477 143.59 43.4706 143.59 43.2183V38.3178H142.596V37.6898H146.861C147.664 37.6898 148.251 37.8347 148.626 38.13C149.001 38.4252 149.186 38.8385 149.186 39.3698C149.186 39.5309 149.158 39.6919 149.109 39.8529C149.055 40.0139 148.979 40.1696 148.87 40.3145C148.762 40.4594 148.615 40.5829 148.436 40.6956C148.257 40.8029 148.039 40.8835 147.784 40.9425V40.9693C148.311 41.0445 148.713 41.2162 148.979 41.4953C149.251 41.7691 149.381 42.1394 149.381 42.6064C149.381 42.8372 149.338 43.0734 149.245 43.3042C149.153 43.535 149.012 43.7443 148.811 43.9268C148.61 44.1093 148.349 44.2596 148.023 44.3723C147.697 44.4904 147.301 44.5494 146.828 44.5494H142.591V43.9214H143.123V43.9161ZM146.41 40.6956C146.833 40.6956 147.17 40.5883 147.42 40.3789C147.67 40.1696 147.795 39.8475 147.795 39.4181C147.795 39.1176 147.686 38.8599 147.474 38.6399C147.263 38.4198 146.893 38.3124 146.377 38.3124H144.889V40.6902H146.41V40.6956ZM146.41 43.9161C146.937 43.9161 147.333 43.8034 147.599 43.5726C147.865 43.3471 147.996 43.0251 147.996 42.6064C147.996 42.3756 147.952 42.177 147.865 42.016C147.779 41.855 147.67 41.7208 147.523 41.6188C147.382 41.5168 147.214 41.4417 147.018 41.3987C146.823 41.3504 146.622 41.329 146.404 41.329H144.889V43.9214H146.41V43.9161Z" fill="#121212"/>
<path d="M150.663 42.7409C150.663 42.2954 150.766 41.925 150.967 41.6405C151.168 41.356 151.434 41.136 151.76 40.9803C152.086 40.8247 152.45 40.7227 152.852 40.6636C153.254 40.61 153.651 40.5778 154.047 40.5778H155.395V39.9498C155.395 39.3594 155.248 38.9246 154.949 38.6347C154.65 38.3449 154.286 38.2 153.852 38.2C153.689 38.2 153.526 38.2161 153.363 38.2483C153.2 38.2805 153.053 38.3395 152.923 38.4147C152.793 38.4952 152.689 38.5972 152.613 38.7314C152.532 38.8602 152.494 39.0266 152.494 39.2198V39.6653H151.32V38.5596C151.695 38.259 152.141 38.0121 152.651 37.8189C153.162 37.6203 153.743 37.5237 154.395 37.5237C154.802 37.5237 155.15 37.5827 155.443 37.7008C155.737 37.8189 155.976 37.9853 156.166 38.2C156.356 38.4147 156.492 38.6723 156.584 38.9675C156.677 39.2681 156.72 39.5955 156.72 39.9605V43.911H157.855V44.539H155.416V43.2937H155.389C155.259 43.444 155.101 43.5996 154.922 43.7607C154.743 43.9217 154.542 44.0773 154.314 44.2169C154.085 44.3565 153.841 44.4692 153.569 44.5604C153.298 44.6517 153.015 44.6946 152.711 44.6946C152.418 44.6946 152.146 44.6463 151.896 44.5551C151.646 44.4638 151.429 44.3296 151.25 44.1632C151.07 43.9968 150.929 43.7929 150.826 43.546C150.712 43.3098 150.663 43.0414 150.663 42.7409ZM155.395 41.2433H154.189C153.96 41.2433 153.721 41.2594 153.472 41.2916C153.222 41.3238 152.988 41.3936 152.776 41.4956C152.564 41.5976 152.391 41.7425 152.255 41.925C152.119 42.1075 152.048 42.3437 152.048 42.6335C152.048 42.9717 152.146 43.2293 152.336 43.4172C152.532 43.605 152.847 43.6963 153.292 43.6963C153.461 43.6963 153.667 43.6694 153.906 43.6104C154.145 43.5567 154.379 43.4655 154.601 43.3366C154.824 43.2078 155.009 43.0468 155.161 42.8482C155.313 42.6496 155.389 42.3973 155.389 42.0968V41.2433H155.395Z" fill="#121212"/>
<path d="M160.463 43.9161C160.642 43.9161 160.767 43.8624 160.832 43.7551C160.897 43.6477 160.93 43.4706 160.93 43.2183V38.3178H160.066C159.8 38.3178 159.577 38.393 159.392 38.5486C159.208 38.7043 159.115 38.9458 159.115 39.2679V39.8153H158.409V37.6898H164.77V39.8153H164.064V39.2679C164.064 38.9404 163.972 38.6989 163.787 38.5486C163.602 38.393 163.38 38.3178 163.113 38.3178H162.25V43.9161H163.282V44.5441H159.898V43.9161H160.463Z" fill="#121212"/>
<path d="M165.693 41.1572C165.693 40.599 165.78 40.0945 165.954 39.6543C166.128 39.2088 166.372 38.8331 166.677 38.5111C166.986 38.1944 167.339 37.9528 167.747 37.7811C168.154 37.6147 168.594 37.5288 169.067 37.5288C169.632 37.5288 170.11 37.6147 170.495 37.7864C170.881 37.9582 171.191 38.189 171.424 38.4735C171.658 38.758 171.821 39.08 171.919 39.445C172.016 39.81 172.065 40.1803 172.065 40.5507V41.1518H167.079C167.079 41.431 167.111 41.7369 167.176 42.0643C167.242 42.3917 167.356 42.6923 167.524 42.9768C167.687 43.2559 167.915 43.4921 168.203 43.6746C168.491 43.8624 168.855 43.9537 169.3 43.9537C169.708 43.9537 170.093 43.8731 170.468 43.7175C170.843 43.5565 171.191 43.2881 171.522 42.907L171.989 43.3686C171.631 43.7873 171.207 44.1147 170.724 44.3509C170.24 44.5817 169.691 44.6997 169.088 44.6997C168.665 44.6997 168.247 44.6353 167.839 44.5011C167.432 44.3723 167.068 44.163 166.747 43.8785C166.427 43.594 166.166 43.2291 165.976 42.7782C165.791 42.3327 165.693 41.7906 165.693 41.1572ZM170.724 40.4863C170.713 39.7563 170.571 39.1874 170.3 38.7794C170.028 38.3661 169.615 38.1622 169.067 38.1622C168.839 38.1622 168.616 38.2158 168.393 38.3178C168.17 38.4198 167.975 38.5701 167.796 38.7633C167.622 38.9566 167.47 39.2035 167.35 39.4933C167.225 39.7831 167.149 40.1159 167.122 40.4863H170.724Z" fill="#121212"/>
<path d="M172.93 43.5672H173.75C173.967 43.5672 174.152 43.492 174.309 43.3418C174.467 43.1915 174.603 42.9768 174.728 42.6977C174.853 42.4186 174.956 42.075 175.037 41.6671C175.124 41.2592 175.2 40.8029 175.276 40.2877L175.461 39.0424C175.472 38.9941 175.477 38.9565 175.477 38.9243C175.477 38.8921 175.477 38.8546 175.477 38.8063C175.477 38.6667 175.439 38.5486 175.363 38.4574C175.287 38.3661 175.141 38.3178 174.923 38.3178H174.543V37.6898H180.964V38.3178H180.437C180.258 38.3178 180.133 38.3715 180.068 38.4788C180.002 38.5862 179.97 38.7633 179.97 39.0156V43.9161H180.964V44.5441H177.65V43.9161H178.204C178.367 43.9161 178.481 43.8624 178.552 43.755C178.623 43.6477 178.661 43.4706 178.661 43.2183V38.3178H177.031C176.765 38.3178 176.591 38.3876 176.499 38.5271C176.406 38.6667 176.352 38.8277 176.319 39.0048L176.108 40.336C176.004 40.9532 175.896 41.5276 175.787 42.0589C175.678 42.5903 175.532 43.0519 175.342 43.4437C175.151 43.8356 174.912 44.1415 174.625 44.3669C174.337 44.5924 173.967 44.7051 173.511 44.7051C173.321 44.7051 173.131 44.6622 172.93 44.5763V43.5672Z" fill="#121212"/>
<path d="M182.604 43.9161C182.783 43.9161 182.908 43.8624 182.973 43.7551C183.039 43.6477 183.071 43.4706 183.071 43.2183V38.3178H182.077V37.6898H185.38V38.3178H184.858C184.679 38.3178 184.554 38.3715 184.489 38.4788C184.424 38.5862 184.391 38.7633 184.391 39.0156V40.234H186.021C186.352 40.234 186.678 40.2662 186.999 40.3252C187.319 40.3843 187.607 40.497 187.857 40.6527C188.107 40.8137 188.308 41.0284 188.46 41.2968C188.612 41.5651 188.688 41.9194 188.688 42.3488C188.688 42.7245 188.618 43.0465 188.471 43.3203C188.324 43.594 188.123 43.8248 187.868 44.0073C187.613 44.1898 187.319 44.324 186.988 44.4153C186.656 44.5065 186.309 44.5494 185.939 44.5494H182.088V43.9214H182.604V43.9161ZM185.624 43.9161C185.842 43.9161 186.048 43.8839 186.249 43.8248C186.445 43.7658 186.624 43.6692 186.781 43.5457C186.939 43.4223 187.064 43.2612 187.156 43.0627C187.249 42.8694 187.297 42.6333 187.297 42.3649C187.297 42.0965 187.249 41.8657 187.156 41.6725C187.064 41.4792 186.939 41.329 186.781 41.2109C186.624 41.0928 186.45 41.0069 186.249 40.9532C186.048 40.8996 185.847 40.8674 185.641 40.8674H184.38V43.9214H185.624V43.9161Z" fill="#121212"/>
<path d="M190.074 43.9161C190.253 43.9161 190.378 43.8624 190.443 43.7551C190.508 43.6477 190.541 43.4706 190.541 43.2183V38.3178H189.547V37.6898H192.79V38.3178H192.323C192.143 38.3178 192.019 38.3715 191.953 38.4788C191.888 38.5862 191.856 38.7633 191.856 39.0156V40.6956H195.397V38.3178H194.463V37.6898H197.706V38.3178H197.179C197 38.3178 196.875 38.3715 196.81 38.4788C196.745 38.5862 196.712 38.7633 196.712 39.0156V43.9161H197.706V44.5441H194.463V43.9161H194.947C195.109 43.9161 195.224 43.8624 195.294 43.7551C195.365 43.6477 195.403 43.4706 195.403 43.2183V41.3719H191.861V43.9214H192.795V44.5494H189.552V43.9214H190.074V43.9161Z" fill="#121212"/>
<path d="M199.227 43.9161C199.406 43.9161 199.531 43.8624 199.597 43.7551C199.662 43.6477 199.694 43.4706 199.694 43.2183V38.3178H198.7V37.6898H202.003V38.3178H201.481C201.302 38.3178 201.177 38.3715 201.112 38.4788C201.047 38.5862 201.014 38.7633 201.014 39.0156V40.234H202.476C202.807 40.234 203.127 40.2662 203.448 40.3252C203.763 40.3843 204.045 40.497 204.301 40.6527C204.551 40.8137 204.752 41.0284 204.904 41.2968C205.056 41.5651 205.132 41.9194 205.132 42.3488C205.132 42.7245 205.061 43.0465 204.915 43.3203C204.768 43.594 204.572 43.8248 204.317 44.0073C204.067 44.1898 203.774 44.324 203.448 44.4153C203.117 44.5065 202.769 44.5494 202.4 44.5494H198.716V43.9214H199.227V43.9161ZM202.074 43.9161C202.291 43.9161 202.497 43.8839 202.698 43.8248C202.894 43.7658 203.073 43.6692 203.231 43.5457C203.388 43.4223 203.513 43.2612 203.605 43.0627C203.698 42.8694 203.747 42.6333 203.747 42.3649C203.747 42.0965 203.698 41.8657 203.605 41.6725C203.513 41.4792 203.388 41.329 203.231 41.2109C203.073 41.0928 202.899 41.0069 202.698 40.9532C202.503 40.8996 202.296 40.8674 202.09 40.8674H200.998V43.9214H202.074V43.9161ZM206.039 43.9161C206.202 43.9161 206.316 43.8624 206.387 43.7551C206.457 43.6477 206.495 43.4706 206.495 43.2183V38.3178H205.501V37.6898H208.804V38.3178H208.283C208.103 38.3178 207.978 38.3715 207.913 38.4788C207.848 38.5862 207.815 38.7633 207.815 39.0156V43.9161H208.81V44.5441H205.507V43.9161H206.039Z" fill="#121212"/>
<path d="M210.319 43.916C210.498 43.916 210.623 43.8624 210.688 43.755C210.753 43.6477 210.786 43.4705 210.786 43.2183V38.3178H209.792V37.6898H213.035V38.3178H212.568C212.389 38.3178 212.264 38.3714 212.198 38.4788C212.133 38.5861 212.101 38.7633 212.101 39.0155V42.0535C212.101 42.2145 212.095 42.4024 212.079 42.6278C212.063 42.8533 212.046 43.0411 212.03 43.2022H212.074C212.16 43.0733 212.236 42.9499 212.302 42.8318C212.367 42.7137 212.432 42.6171 212.503 42.5312L215.86 37.6898H218V38.3178H217.473C217.294 38.3178 217.169 38.3714 217.104 38.4788C217.039 38.5861 217.006 38.7633 217.006 39.0155V43.916H218V44.544H214.757V43.916H215.24C215.403 43.916 215.518 43.8624 215.588 43.755C215.659 43.6477 215.697 43.4705 215.697 43.2183V40.1803C215.697 40.0193 215.702 39.8314 215.719 39.606C215.735 39.3805 215.751 39.1927 215.767 39.0316H215.724C215.637 39.1605 215.561 39.2839 215.496 39.402C215.431 39.5201 215.365 39.6167 215.3 39.7026L211.943 44.544H209.803V43.916H210.319ZM211.465 34.9148H212.796V35.2207C212.796 35.5589 212.883 35.8004 213.068 35.9507C213.247 36.101 213.518 36.1761 213.888 36.1761C214.263 36.1761 214.545 36.101 214.724 35.9507C214.904 35.8004 214.996 35.5589 214.996 35.2207V34.9148H216.327V35.0543C216.327 35.6126 216.115 36.042 215.697 36.3372C215.279 36.6324 214.676 36.7773 213.888 36.7773C213.111 36.7773 212.514 36.6324 212.095 36.3372C211.677 36.042 211.465 35.6179 211.465 35.0543V34.9148Z" fill="#121212"/>
<path d="M43.3654 61.5966C43.1753 61.4302 42.9037 61.3444 42.5451 61.3444H36.108V60.7164H36.6295C36.8087 60.7164 36.9337 60.6627 36.9989 60.5553C37.064 60.448 37.0966 60.2709 37.0966 60.0186V55.1181H36.1025V54.4901H39.3456V55.1181H38.8784C38.6991 55.1181 38.5742 55.1718 38.509 55.2791C38.4438 55.3865 38.4112 55.5636 38.4112 55.8159V60.7164H41.6706V55.1181H40.7416V54.4901H43.9847V55.1181H43.4578C43.2785 55.1181 43.1536 55.1718 43.0884 55.2791C43.0232 55.3865 42.9906 55.5636 42.9906 55.8159V60.7164H44.3486V63.1264H43.6424V62.4554C43.6479 62.0475 43.5501 61.763 43.3654 61.5966Z" fill="#121212"/>
<path d="M45.1152 57.9573C45.1152 57.399 45.2021 56.8945 45.376 56.4544C45.5498 56.0089 45.7943 55.6332 46.0985 55.3111C46.4081 54.9944 46.7612 54.7529 47.1686 54.5811C47.576 54.4147 48.016 54.3289 48.4886 54.3289C49.0536 54.3289 49.5316 54.4147 49.9173 54.5865C50.303 54.7583 50.6126 54.9891 50.8462 55.2735C51.0798 55.558 51.2428 55.8801 51.3405 56.245C51.4383 56.61 51.4872 56.9804 51.4872 57.3507V57.9519H46.5004C46.5004 58.231 46.533 58.5369 46.5982 58.859C46.6634 59.1864 46.7775 59.487 46.9459 59.7715C47.1089 60.0506 47.337 60.2867 47.6249 60.4692C47.9128 60.6571 48.2768 60.7483 48.7222 60.7483C49.1296 60.7483 49.5153 60.6678 49.8901 60.5122C50.265 60.3511 50.6126 60.0828 50.944 59.7017L51.4112 60.1633C51.0526 60.5819 50.6289 60.9094 50.1455 61.1455C49.6566 61.3763 49.1133 61.4944 48.5104 61.4944C48.0867 61.4944 47.6684 61.43 47.261 61.2958C46.8535 61.167 46.4896 60.9577 46.1691 60.6732C45.8486 60.3887 45.5878 60.0237 45.3977 59.5729C45.213 59.1327 45.1152 58.5906 45.1152 57.9573ZM50.1455 57.2863C50.1346 56.5564 49.9934 55.9874 49.7217 55.5795C49.4501 55.1662 49.0373 54.9622 48.4886 54.9622C48.2605 54.9622 48.0378 55.0159 47.815 55.1179C47.5923 55.2199 47.3968 55.3701 47.2175 55.5634C47.0437 55.7566 46.8916 56.0035 46.7721 56.2933C46.6471 56.5832 46.5711 56.916 46.5439 57.2863H50.1455Z" fill="#121212"/>
<path d="M53.1055 60.7164C53.2847 60.7164 53.4097 60.6627 53.4749 60.5553C53.5401 60.448 53.5726 60.2709 53.5726 60.0186V55.1181H52.584V54.4901H55.827V55.1181H55.3598C55.1806 55.1181 55.0556 55.1718 54.9905 55.2791C54.9253 55.3865 54.8927 55.5636 54.8927 55.8159V57.4959H58.4345V55.1181H57.5001V54.4901H60.7432V55.1181H60.2162C60.037 55.1181 59.912 55.1718 59.8468 55.2791C59.7817 55.3865 59.7491 55.5636 59.7491 55.8159V60.7164H60.7432V61.3444H57.5001V60.7164H57.9836C58.1466 60.7164 58.2606 60.6627 58.3313 60.5553C58.4019 60.448 58.4399 60.2709 58.4399 60.0186V58.1722H54.8981V60.7217H55.8324V61.3497H52.584V60.7217H53.1055V60.7164Z" fill="#121212"/>
<path d="M63.7907 60.7164C63.9699 60.7164 64.0949 60.6627 64.1601 60.5553C64.2253 60.448 64.2578 60.2709 64.2578 60.0186V55.1181H63.3941C63.1279 55.1181 62.9052 55.1933 62.7205 55.3489C62.5358 55.5046 62.4435 55.7461 62.4435 56.0681V56.6156H61.7373V54.4901H68.0984V56.6156H67.3922V56.0681C67.3922 55.7407 67.2999 55.4992 67.1152 55.3489C66.9305 55.1933 66.7078 55.1181 66.4416 55.1181H65.5779V60.7164H66.61V61.3444H63.2257V60.7164H63.7907Z" fill="#121212"/>
<path d="M69.7443 64.216C69.9236 64.216 70.0485 64.1623 70.1137 64.0549C70.1789 63.9476 70.2115 63.7705 70.2115 63.5182V55.1181H69.0762V54.4901H71.5152V55.8052H71.5424C71.6673 55.628 71.814 55.4509 71.9824 55.2738C72.1508 55.0967 72.3464 54.9356 72.5636 54.7961C72.7809 54.6565 73.0254 54.5438 73.2916 54.4579C73.5632 54.372 73.8511 54.3345 74.1607 54.3345C74.6225 54.3345 75.0244 54.4203 75.3667 54.5867C75.7089 54.7531 75.9859 54.9893 76.2087 55.2952C76.4314 55.6012 76.5943 55.9554 76.703 56.3687C76.8116 56.782 76.866 57.2275 76.866 57.7106C76.866 58.2796 76.7899 58.8002 76.6324 59.2618C76.4748 59.7288 76.2575 60.126 75.9751 60.4587C75.6926 60.7915 75.3504 61.0492 74.9538 61.2263C74.5573 61.4088 74.1173 61.5 73.6338 61.5C73.1829 61.5 72.7864 61.4195 72.4496 61.2639C72.1128 61.1028 71.8031 60.9042 71.5207 60.6627H71.4935C71.5044 60.7915 71.5098 60.9311 71.5152 61.076C71.5207 61.2209 71.5207 61.3283 71.5207 61.4034V64.216H72.6832V64.844H69.212V64.216H69.7443ZM75.4807 57.8448C75.4807 57.5657 75.459 57.2758 75.4101 56.9753C75.3612 56.6747 75.2689 56.4063 75.1331 56.1648C74.9973 55.9232 74.8071 55.7246 74.5736 55.569C74.34 55.4133 74.0358 55.3382 73.6664 55.3382C73.46 55.3382 73.2318 55.3704 72.9765 55.4455C72.7266 55.5153 72.493 55.6227 72.2757 55.7622C72.0585 55.9018 71.8738 56.0789 71.7325 56.2936C71.5859 56.5083 71.5152 56.7606 71.5152 57.0504V59.8898C71.6076 59.9757 71.7108 60.0616 71.8194 60.1474C71.9281 60.2387 72.0584 60.3138 72.2105 60.3836C72.3626 60.4534 72.531 60.5124 72.7212 60.55C72.9113 60.5929 73.1286 60.6144 73.373 60.6144C74.0032 60.6144 74.5138 60.3836 74.9049 59.9274C75.2906 59.4765 75.4807 58.7787 75.4807 57.8448Z" fill="#121212"/>
<path d="M82.5105 60.7161C82.7006 60.7161 82.8364 60.6571 82.9288 60.539C83.0157 60.4209 83.0755 60.2492 83.0918 60.013L83.5155 55.1125H82.5811V54.4845H85.0582L86.5901 57.968C86.639 58.07 86.677 58.1934 86.715 58.333C86.7531 58.4725 86.7965 58.6067 86.8454 58.7409H86.8889C86.9378 58.5906 86.9866 58.4511 87.0464 58.3115C87.1007 58.1773 87.155 58.0539 87.2039 57.9411L88.7738 54.4845H91.3541V55.1125H91.001C90.7566 55.1125 90.5828 55.1608 90.4904 55.2574C90.3981 55.354 90.3492 55.515 90.3492 55.7405C90.3492 55.7781 90.3492 55.8156 90.3492 55.8478C90.3492 55.88 90.3546 55.9176 90.3655 55.9659L90.7783 60.7108H91.7724V61.3388H88.5294V60.7108H88.9259C89.0889 60.7108 89.2084 60.6732 89.2845 60.6034C89.366 60.5336 89.404 60.3887 89.404 60.174C89.404 60.1472 89.404 60.1096 89.3985 60.0613C89.3931 60.013 89.3931 59.9808 89.3931 59.9647L89.1378 57.1092C89.1269 57.034 89.1215 56.9374 89.1161 56.814C89.1106 56.6905 89.1052 56.5671 89.0998 56.4383C89.0943 56.3094 89.0943 56.186 89.0943 56.0679C89.0943 55.9498 89.0943 55.8532 89.0943 55.7834H89.0237L87.1822 59.8734H86.1881L84.3738 55.7727H84.3031C84.2923 55.9015 84.2868 56.0894 84.2814 56.3255C84.276 56.5617 84.2651 56.7657 84.2488 56.9321L83.9663 60.013C83.9663 60.0291 83.9663 60.0613 83.9609 60.1042C83.9555 60.1472 83.9555 60.1794 83.9555 60.2116C83.9555 60.3511 83.9881 60.4692 84.0478 60.5712C84.1076 60.6678 84.2488 60.7161 84.4661 60.7161H84.8464V61.3441H82.0977V60.7161H82.5105Z" fill="#121212"/>
<path d="M93.2066 60.7164C93.3859 60.7164 93.5108 60.6627 93.576 60.5553C93.6412 60.448 93.6738 60.2709 93.6738 60.0186V55.1181H92.6797V54.4901H95.9227V55.1181H95.4555C95.2763 55.1181 95.1513 55.1718 95.0862 55.2791C95.021 55.3865 94.9884 55.5636 94.9884 55.8159V58.8539C94.9884 59.0149 94.9829 59.2027 94.9667 59.4282C94.9504 59.6536 94.9341 59.8415 94.9178 60.0025H94.9612C95.0481 59.8737 95.1242 59.7502 95.1894 59.6321C95.2546 59.5141 95.3197 59.4174 95.3904 59.3316L98.7475 54.4901H100.888V55.1181H100.361C100.182 55.1181 100.057 55.1718 99.9914 55.2791C99.9263 55.3865 99.8937 55.5636 99.8937 55.8159V60.7164H100.888V61.3444H97.6447V60.7164H98.1282C98.2912 60.7164 98.4052 60.6627 98.4759 60.5553C98.5465 60.448 98.5845 60.2709 98.5845 60.0186V56.9806C98.5845 56.8196 98.5899 56.6317 98.6062 56.4063C98.6225 56.1809 98.6388 55.993 98.6551 55.832H98.6117C98.5247 55.9608 98.4487 56.0842 98.3835 56.2023C98.3183 56.3204 98.2531 56.417 98.1879 56.5029L94.8308 61.3444H92.6906V60.7164H93.2066Z" fill="#121212"/>
<path d="M102.566 64.216C102.745 64.216 102.87 64.1623 102.935 64.0549C103 63.9476 103.033 63.7705 103.033 63.5182V55.1181H101.897V54.4901H104.337V55.8052H104.364C104.489 55.628 104.635 55.4509 104.804 55.2738C104.972 55.0967 105.168 54.9356 105.385 54.7961C105.602 54.6565 105.847 54.5438 106.113 54.4579C106.384 54.372 106.672 54.3345 106.982 54.3345C107.444 54.3345 107.846 54.4203 108.188 54.5867C108.53 54.7531 108.807 54.9893 109.03 55.2952C109.253 55.6012 109.416 55.9554 109.524 56.3687C109.633 56.782 109.687 57.2275 109.687 57.7106C109.687 58.2796 109.611 58.8002 109.454 59.2618C109.296 59.7288 109.079 60.126 108.796 60.4587C108.514 60.7915 108.172 61.0492 107.775 61.2263C107.379 61.4088 106.939 61.5 106.455 61.5C106.004 61.5 105.608 61.4195 105.271 61.2639C104.934 61.1028 104.624 60.9042 104.342 60.6627H104.315C104.326 60.7915 104.331 60.9311 104.337 61.076C104.342 61.2209 104.342 61.3283 104.342 61.4034V64.216H105.504V64.844H102.033V64.216H102.566ZM108.302 57.8448C108.302 57.5657 108.28 57.2758 108.231 56.9753C108.183 56.6747 108.09 56.4063 107.954 56.1648C107.819 55.9232 107.628 55.7246 107.395 55.569C107.161 55.4133 106.857 55.3382 106.488 55.3382C106.281 55.3382 106.053 55.3704 105.798 55.4455C105.548 55.5153 105.314 55.6227 105.097 55.7622C104.88 55.9018 104.695 56.0789 104.554 56.2936C104.407 56.5083 104.337 56.7606 104.337 57.0504V59.8898C104.429 59.9757 104.532 60.0616 104.641 60.1474C104.749 60.2387 104.88 60.3138 105.032 60.3836C105.184 60.4534 105.352 60.5124 105.542 60.55C105.733 60.5929 105.95 60.6144 106.194 60.6144C106.824 60.6144 107.335 60.3836 107.726 59.9274C108.112 59.4765 108.302 58.7787 108.302 57.8448Z" fill="#121212"/>
<path d="M110.845 57.9302C110.845 57.3612 110.932 56.8513 111.116 56.4058C111.296 55.9603 111.545 55.5792 111.866 55.2733C112.186 54.9674 112.567 54.7312 113.001 54.5755C113.436 54.4145 113.903 54.3394 114.403 54.3394C114.913 54.3394 115.381 54.4199 115.815 54.5755C116.244 54.7365 116.619 54.9674 116.94 55.2733C117.26 55.5792 117.51 55.9603 117.689 56.4058C117.869 56.8513 117.961 57.3612 117.961 57.9302C117.961 58.4991 117.869 59.0037 117.689 59.4492C117.51 59.8947 117.26 60.265 116.94 60.571C116.619 60.8769 116.244 61.1077 115.815 61.2634C115.386 61.4244 114.913 61.4995 114.403 61.4995C113.903 61.4995 113.436 61.419 113.001 61.2634C112.567 61.1024 112.186 60.8716 111.866 60.571C111.545 60.265 111.296 59.8947 111.116 59.4492C110.937 59.0037 110.845 58.4991 110.845 57.9302ZM116.57 57.9302C116.57 57.7906 116.559 57.6189 116.543 57.4203C116.527 57.2217 116.489 57.007 116.429 56.7923C116.375 56.5722 116.293 56.3522 116.195 56.1321C116.098 55.912 115.967 55.7188 115.804 55.5417C115.641 55.3699 115.446 55.2304 115.218 55.123C114.984 55.0157 114.712 54.962 114.403 54.962C114.093 54.962 113.822 55.0157 113.588 55.123C113.354 55.2304 113.159 55.3699 113.001 55.5417C112.838 55.7134 112.713 55.912 112.61 56.1321C112.512 56.3522 112.431 56.5722 112.377 56.7923C112.322 57.0124 112.284 57.2217 112.263 57.4203C112.246 57.6189 112.235 57.7906 112.235 57.9302C112.235 58.1342 112.257 58.4025 112.306 58.7353C112.355 59.0681 112.453 59.3901 112.605 59.7068C112.757 60.0235 112.974 60.2972 113.262 60.528C113.55 60.7588 113.93 60.8716 114.403 60.8716C114.875 60.8716 115.256 60.7588 115.544 60.528C115.831 60.2972 116.049 60.0289 116.201 59.7068C116.353 59.3901 116.451 59.0627 116.5 58.7353C116.543 58.4025 116.57 58.1342 116.57 57.9302Z" fill="#121212"/>
<path d="M119.276 60.7164C119.455 60.7164 119.58 60.6627 119.645 60.5553C119.71 60.448 119.743 60.2709 119.743 60.0186V55.1181H118.749V54.4901H123.013C123.817 54.4901 124.404 54.635 124.778 54.9302C125.153 55.2255 125.338 55.6388 125.338 56.1701C125.338 56.3312 125.311 56.4922 125.262 56.6532C125.207 56.8142 125.131 56.9699 125.023 57.1148C124.914 57.2597 124.767 57.3832 124.588 57.4959C124.409 57.6032 124.192 57.6838 123.936 57.7428V57.7696C124.463 57.8448 124.865 58.0165 125.131 58.2956C125.403 58.5694 125.533 58.9397 125.533 59.4067C125.533 59.6375 125.49 59.8737 125.398 60.1045C125.305 60.3353 125.164 60.5446 124.963 60.7271C124.762 60.9096 124.501 61.0599 124.175 61.1726C123.849 61.2907 123.453 61.3497 122.98 61.3497H118.743V60.7217H119.276V60.7164ZM122.562 57.4959C122.986 57.4959 123.323 57.3885 123.572 57.1792C123.822 56.9699 123.947 56.6478 123.947 56.2184C123.947 55.9179 123.839 55.6602 123.627 55.4402C123.415 55.2201 123.045 55.1127 122.529 55.1127H121.041V57.4905H122.562V57.4959ZM122.562 60.7164C123.089 60.7164 123.485 60.6037 123.752 60.3729C124.018 60.1474 124.148 59.8254 124.148 59.4067C124.148 59.1759 124.105 58.9773 124.018 58.8163C123.931 58.6553 123.822 58.5211 123.676 58.4191C123.534 58.3171 123.366 58.242 123.17 58.199C122.975 58.1507 122.774 58.1293 122.557 58.1293H121.041V60.7217H122.562V60.7164Z" fill="#121212"/>
<path d="M126.701 57.9302C126.701 57.3612 126.788 56.8513 126.973 56.4058C127.152 55.9603 127.402 55.5792 127.722 55.2733C128.043 54.9674 128.423 54.7312 128.858 54.5755C129.292 54.4145 129.759 54.3394 130.259 54.3394C130.77 54.3394 131.237 54.4199 131.672 54.5755C132.101 54.7365 132.476 54.9674 132.796 55.2733C133.117 55.5792 133.366 55.9603 133.546 56.4058C133.725 56.8513 133.817 57.3612 133.817 57.9302C133.817 58.4991 133.725 59.0037 133.546 59.4492C133.366 59.8947 133.117 60.265 132.796 60.571C132.476 60.8769 132.101 61.1077 131.672 61.2634C131.242 61.4244 130.77 61.4995 130.259 61.4995C129.759 61.4995 129.292 61.419 128.858 61.2634C128.423 61.1024 128.043 60.8716 127.722 60.571C127.402 60.265 127.152 59.8947 126.973 59.4492C126.794 59.0037 126.701 58.4991 126.701 57.9302ZM132.427 57.9302C132.427 57.7906 132.416 57.6189 132.4 57.4203C132.383 57.2217 132.345 57.007 132.285 56.7923C132.231 56.5722 132.15 56.3522 132.052 56.1321C131.954 55.912 131.824 55.7188 131.661 55.5417C131.498 55.3699 131.302 55.2304 131.074 55.123C130.841 55.0157 130.569 54.962 130.259 54.962C129.95 54.962 129.678 55.0157 129.444 55.123C129.211 55.2304 129.015 55.3699 128.858 55.5417C128.695 55.7134 128.57 55.912 128.467 56.1321C128.369 56.3522 128.287 56.5722 128.233 56.7923C128.179 57.0124 128.141 57.2217 128.119 57.4203C128.103 57.6189 128.092 57.7906 128.092 57.9302C128.092 58.1342 128.114 58.4025 128.162 58.7353C128.211 59.0681 128.309 59.3901 128.461 59.7068C128.613 60.0235 128.831 60.2972 129.119 60.528C129.406 60.7588 129.787 60.8716 130.259 60.8716C130.732 60.8716 131.112 60.7588 131.4 60.528C131.688 60.2972 131.905 60.0289 132.057 59.7068C132.209 59.3901 132.307 59.0627 132.356 58.7353C132.405 58.4025 132.427 58.1342 132.427 57.9302Z" fill="#121212"/>
<path d="M135.333 60.7164C135.512 60.7164 135.637 60.6627 135.702 60.5553C135.767 60.448 135.8 60.2709 135.8 60.0186V55.1181H134.806V54.4901H140.461V56.5888H139.754V56.0681C139.754 55.7407 139.657 55.4992 139.456 55.3489C139.26 55.1933 139.005 55.1181 138.706 55.1181H137.12V60.7164H138.212V61.3444H134.811V60.7164H135.333Z" fill="#121212"/>
<path d="M141.347 57.9302C141.347 57.3612 141.434 56.8513 141.618 56.4058C141.798 55.9603 142.047 55.5792 142.368 55.2733C142.688 54.9674 143.069 54.7312 143.503 54.5755C143.938 54.4145 144.405 54.3394 144.905 54.3394C145.415 54.3394 145.883 54.4199 146.317 54.5755C146.746 54.7365 147.121 54.9674 147.442 55.2733C147.762 55.5792 148.012 55.9603 148.191 56.4058C148.37 56.8513 148.463 57.3612 148.463 57.9302C148.463 58.4991 148.37 59.0037 148.191 59.4492C148.012 59.8947 147.762 60.265 147.442 60.571C147.121 60.8769 146.746 61.1077 146.317 61.2634C145.888 61.4244 145.415 61.4995 144.905 61.4995C144.405 61.4995 143.938 61.419 143.503 61.2634C143.069 61.1024 142.688 60.8716 142.368 60.571C142.047 60.265 141.798 59.8947 141.618 59.4492C141.434 59.0037 141.347 58.4991 141.347 57.9302ZM147.067 57.9302C147.067 57.7906 147.056 57.6189 147.04 57.4203C147.023 57.2217 146.985 57.007 146.926 56.7923C146.871 56.5722 146.79 56.3522 146.692 56.1321C146.594 55.912 146.464 55.7188 146.301 55.5417C146.138 55.3699 145.942 55.2304 145.714 55.123C145.481 55.0157 145.209 54.962 144.899 54.962C144.59 54.962 144.318 55.0157 144.084 55.123C143.851 55.2304 143.655 55.3699 143.498 55.5417C143.335 55.7134 143.21 55.912 143.107 56.1321C143.009 56.3522 142.927 56.5722 142.873 56.7923C142.819 57.0124 142.781 57.2217 142.759 57.4203C142.743 57.6189 142.732 57.7906 142.732 57.9302C142.732 58.1342 142.754 58.4025 142.803 58.7353C142.851 59.0681 142.949 59.3901 143.101 59.7068C143.253 60.0235 143.471 60.2972 143.759 60.528C144.046 60.7588 144.427 60.8716 144.899 60.8716C145.372 60.8716 145.752 60.7588 146.04 60.528C146.328 60.2972 146.545 60.0289 146.697 59.7068C146.849 59.3901 146.947 59.0627 146.996 58.7353C147.045 58.4025 147.067 58.1342 147.067 57.9302Z" fill="#121212"/>
<path d="M154.824 63.8671H155.829C155.943 63.8671 156.062 63.851 156.182 63.8241C156.307 63.7973 156.426 63.7382 156.54 63.647C156.66 63.5557 156.774 63.4269 156.893 63.2552C157.013 63.0834 157.127 62.8526 157.241 62.5628L157.638 61.5268L154.59 55.1127H153.612V54.4847H157.029V55.1127H156.687C156.404 55.1127 156.263 55.2201 156.263 55.4348C156.263 55.5368 156.312 55.6978 156.404 55.9125L157.849 59.0471C157.915 59.1866 157.98 59.3584 158.045 59.5624C158.11 59.7663 158.165 59.9381 158.203 60.083H158.273C158.3 59.9703 158.338 59.8307 158.387 59.6697C158.436 59.5087 158.496 59.3155 158.572 59.1008L159.762 55.8803C159.81 55.7783 159.838 55.687 159.848 55.6119C159.859 55.5368 159.865 55.4723 159.865 55.4133C159.865 55.3006 159.832 55.2201 159.767 55.1771C159.702 55.1288 159.62 55.1074 159.528 55.1074H159.045V54.4794H161.962V55.1074H161.706C161.435 55.1074 161.212 55.1932 161.049 55.3596C160.886 55.526 160.761 55.7031 160.69 55.891L158.241 62.3427C158.04 62.8741 157.839 63.3142 157.638 63.6577C157.437 64.0012 157.219 64.275 157.002 64.4682C156.779 64.6614 156.551 64.801 156.307 64.8761C156.068 64.9513 155.801 64.9889 155.519 64.9889C155.367 64.9889 155.231 64.9728 155.117 64.9459C154.998 64.9191 154.9 64.8869 154.829 64.8493V63.8671H154.824Z" fill="#121212"/>
<path d="M163.266 64.216C163.445 64.216 163.57 64.1623 163.635 64.0549C163.7 63.9476 163.733 63.7705 163.733 63.5182V55.1181H162.598V54.4901H165.037V55.8052H165.064C165.189 55.628 165.335 55.4509 165.504 55.2738C165.672 55.0967 165.868 54.9356 166.085 54.7961C166.302 54.6565 166.547 54.5438 166.813 54.4579C167.085 54.372 167.373 54.3345 167.682 54.3345C168.144 54.3345 168.546 54.4203 168.888 54.5867C169.23 54.7531 169.507 54.9893 169.73 55.2952C169.953 55.6012 170.116 55.9554 170.224 56.3687C170.333 56.782 170.387 57.2275 170.387 57.7106C170.387 58.2796 170.311 58.8002 170.154 59.2618C169.996 59.7288 169.779 60.126 169.497 60.4587C169.214 60.7915 168.872 61.0492 168.475 61.2263C168.079 61.4088 167.639 61.5 167.155 61.5C166.704 61.5 166.308 61.4195 165.971 61.2639C165.634 61.1028 165.325 60.9042 165.042 60.6627H165.015C165.026 60.7915 165.031 60.9311 165.037 61.076C165.042 61.2209 165.042 61.3283 165.042 61.4034V64.216H166.205V64.844H162.733V64.216H163.266ZM169.002 57.8448C169.002 57.5657 168.98 57.2758 168.932 56.9753C168.883 56.6747 168.79 56.4063 168.655 56.1648C168.519 55.9232 168.329 55.7246 168.095 55.569C167.861 55.4133 167.557 55.3382 167.188 55.3382C166.981 55.3382 166.753 55.3704 166.498 55.4455C166.248 55.5153 166.015 55.6227 165.797 55.7622C165.58 55.9018 165.395 56.0789 165.254 56.2936C165.107 56.5083 165.037 56.7606 165.037 57.0504V59.8898C165.129 59.9757 165.232 60.0616 165.341 60.1474C165.45 60.2387 165.58 60.3138 165.732 60.3836C165.884 60.4534 166.053 60.5124 166.243 60.55C166.433 60.5929 166.65 60.6144 166.895 60.6144C167.525 60.6144 168.035 60.3836 168.426 59.9274C168.812 59.4765 169.002 58.7787 169.002 57.8448Z" fill="#121212"/>
<path d="M171.414 57.9302C171.414 57.3612 171.501 56.8513 171.686 56.4058C171.865 55.9603 172.115 55.5792 172.435 55.2733C172.756 54.9674 173.136 54.7312 173.571 54.5755C174.005 54.4145 174.472 54.3394 174.972 54.3394C175.483 54.3394 175.95 54.4199 176.385 54.5755C176.814 54.7365 177.189 54.9674 177.509 55.2733C177.83 55.5792 178.079 55.9603 178.259 56.4058C178.438 56.8513 178.53 57.3612 178.53 57.9302C178.53 58.4991 178.438 59.0037 178.259 59.4492C178.079 59.8947 177.83 60.265 177.509 60.571C177.189 60.8769 176.814 61.1077 176.385 61.2634C175.955 61.4244 175.483 61.4995 174.972 61.4995C174.472 61.4995 174.005 61.419 173.571 61.2634C173.136 61.1024 172.756 60.8716 172.435 60.571C172.115 60.265 171.865 59.8947 171.686 59.4492C171.501 59.0037 171.414 58.4991 171.414 57.9302ZM177.14 57.9302C177.14 57.7906 177.129 57.6189 177.112 57.4203C177.096 57.2217 177.058 57.007 176.998 56.7923C176.944 56.5722 176.863 56.3522 176.765 56.1321C176.667 55.912 176.537 55.7188 176.374 55.5417C176.211 55.3699 176.015 55.2304 175.787 55.123C175.553 55.0157 175.282 54.962 174.972 54.962C174.663 54.962 174.391 55.0157 174.157 55.123C173.924 55.2304 173.728 55.3699 173.571 55.5417C173.408 55.7134 173.283 55.912 173.18 56.1321C173.082 56.3522 173 56.5722 172.946 56.7923C172.892 57.0124 172.854 57.2217 172.832 57.4203C172.816 57.6189 172.805 57.7906 172.805 57.9302C172.805 58.1342 172.826 58.4025 172.875 58.7353C172.924 59.0681 173.022 59.3901 173.174 59.7068C173.326 60.0235 173.543 60.2972 173.831 60.528C174.119 60.7588 174.5 60.8716 174.972 60.8716C175.445 60.8716 175.825 60.7588 176.113 60.528C176.401 60.2972 176.618 60.0289 176.77 59.7068C176.922 59.3901 177.02 59.0627 177.069 58.7353C177.112 58.4025 177.14 58.1342 177.14 57.9302Z" fill="#121212"/>
<path d="M180.04 60.7164C180.219 60.7164 180.344 60.6627 180.41 60.5553C180.475 60.448 180.507 60.2709 180.507 60.0186V55.1181H179.513V54.4901H183.778C184.581 54.4901 185.168 54.635 185.543 54.9302C185.918 55.2255 186.102 55.6388 186.102 56.1701C186.102 56.3312 186.075 56.4922 186.026 56.6532C185.972 56.8142 185.896 56.9699 185.787 57.1148C185.679 57.2597 185.532 57.3832 185.353 57.4959C185.174 57.6032 184.956 57.6838 184.701 57.7428V57.7696C185.228 57.8448 185.63 58.0165 185.896 58.2956C186.168 58.5694 186.298 58.9397 186.298 59.4067C186.298 59.6375 186.255 59.8737 186.162 60.1045C186.07 60.3353 185.929 60.5446 185.728 60.7271C185.527 60.9096 185.266 61.0599 184.94 61.1726C184.614 61.2907 184.218 61.3497 183.745 61.3497H179.508V60.7217H180.04V60.7164ZM183.327 57.4959C183.75 57.4959 184.087 57.3885 184.337 57.1792C184.587 56.9699 184.712 56.6478 184.712 56.2184C184.712 55.9179 184.603 55.6602 184.391 55.4402C184.18 55.2201 183.81 55.1127 183.294 55.1127H181.806V57.4905H183.327V57.4959ZM183.327 60.7164C183.854 60.7164 184.25 60.6037 184.516 60.3729C184.782 60.1474 184.913 59.8254 184.913 59.4067C184.913 59.1759 184.869 58.9773 184.782 58.8163C184.696 58.6553 184.587 58.5211 184.44 58.4191C184.299 58.3171 184.131 58.242 183.935 58.199C183.739 58.1507 183.539 58.1293 183.321 58.1293H181.806V60.7217H183.327V60.7164Z" fill="#121212"/>
<path d="M187.852 60.7164C188.031 60.7164 188.156 60.6627 188.222 60.5553C188.287 60.448 188.319 60.2709 188.319 60.0186V55.1181H187.325V54.4901H190.568V55.1181H190.101C189.922 55.1181 189.797 55.1718 189.732 55.2791C189.666 55.3865 189.634 55.5636 189.634 55.8159V57.4959H193.176V55.1181H192.241V54.4901H195.484V55.1181H194.957C194.778 55.1181 194.653 55.1718 194.588 55.2791C194.523 55.3865 194.49 55.5636 194.49 55.8159V60.7164H195.484V61.3444H192.241V60.7164H192.725C192.888 60.7164 193.002 60.6627 193.072 60.5553C193.143 60.448 193.181 60.2709 193.181 60.0186V58.1722H189.639V60.7217H190.574V61.3497H187.331V60.7217H187.852V60.7164Z" fill="#121212"/>
<path d="M197.424 60.7164L199.195 58.505C198.825 58.4406 198.526 58.3386 198.287 58.199C198.048 58.0595 197.864 57.9038 197.728 57.7321C197.592 57.5603 197.494 57.3778 197.445 57.1792C197.391 56.986 197.369 56.7928 197.369 56.6049C197.369 55.934 197.597 55.4133 198.048 55.043C198.499 54.6726 199.108 54.4901 199.863 54.4901H204.073V55.1181H203.551C203.372 55.1181 203.247 55.1718 203.182 55.2791C203.117 55.3865 203.084 55.5636 203.084 55.8159V60.7164H204.078V61.3444H200.835V60.7164H201.318C201.481 60.7164 201.596 60.6627 201.666 60.5553C201.737 60.448 201.775 60.2709 201.775 60.0186V58.5909H200.629L198.532 61.3497H196.489V60.7217H197.424V60.7164ZM201.786 55.1127H200.297C199.825 55.1127 199.45 55.2362 199.173 55.4777C198.896 55.7193 198.754 56.0896 198.754 56.5834C198.754 56.8518 198.798 57.0772 198.885 57.249C198.972 57.4208 199.086 57.5603 199.233 57.6677C199.379 57.775 199.548 57.8501 199.743 57.8931C199.939 57.936 200.145 57.9575 200.373 57.9575H201.791V55.1127H201.786Z" fill="#121212"/>
<path d="M16.4596 32.4356C16.4596 28.2275 13.2274 24.7655 9.07722 24.3468V0.821222C9.07722 0.370355 8.70783 0 8.24609 0H8.20807C7.75176 0 7.37694 0.364988 7.37694 0.821222V24.3468C3.23216 24.7655 0 28.2275 0 32.4356C0 36.6437 3.23216 40.1057 7.38237 40.5244V64.05C7.38237 64.5008 7.75176 64.8712 8.2135 64.8712H8.25152C8.70783 64.8712 9.08265 64.5062 9.08265 64.05V40.5244C13.2274 40.1057 16.4596 36.6437 16.4596 32.4356Z" fill="#121212"/>
</g>
<defs>
<clipPath id="clip0">
<rect width="218" height="65" fill="white"/>
</clipPath>
</defs>
</svg>
