<svg width="281" height="94" viewBox="0 0 281 94" fill="none" xmlns="http://www.w3.org/2000/svg">
<g clip-path="url(#clip0)">
<path d="M68.0807 23.4644H69.3138V23.7006C69.3138 24.0656 69.3899 24.3608 69.542 24.5809C69.6941 24.8009 69.8788 24.9673 70.1015 25.0854C70.3242 25.2035 70.5632 25.2786 70.824 25.3108C71.0847 25.343 71.3237 25.3591 71.541 25.3591C72.383 25.3591 73.0077 25.1444 73.4097 24.7204C73.8171 24.2964 74.0181 23.7382 74.0181 23.0565C74.0181 22.7667 73.9638 22.509 73.8497 22.2836C73.7356 22.0582 73.5781 21.8703 73.3825 21.72C73.1815 21.5697 72.9479 21.457 72.6763 21.3819C72.4047 21.3067 72.106 21.2691 71.7855 21.2691H70.4383V20.5284H71.7583C71.9919 20.5284 72.2363 20.4909 72.4808 20.4103C72.7252 20.3298 72.948 20.2117 73.1489 20.0454C73.3445 19.8843 73.5075 19.675 73.6324 19.4227C73.7574 19.1705 73.8171 18.8699 73.8171 18.5103C73.8171 18.258 73.7682 18.0272 73.6759 17.8125C73.5835 17.5978 73.4423 17.4099 73.263 17.2543C73.0838 17.0933 72.8665 16.9698 72.6112 16.8786C72.3558 16.7873 72.0734 16.739 71.7637 16.739C71.5356 16.739 71.2911 16.7551 71.0195 16.7927C70.7479 16.8302 70.5035 16.9108 70.2753 17.0396C70.0471 17.163 69.857 17.3509 69.6995 17.5978C69.542 17.8447 69.4659 18.1775 69.4659 18.6015V18.7947H68.2328V17.2113C68.7326 16.8195 69.2921 16.5189 69.9113 16.3096C70.5306 16.1003 71.1933 15.9929 71.8995 15.9929C72.9968 15.9929 73.8334 16.2237 74.4201 16.68C75.0068 17.1362 75.3001 17.7481 75.3001 18.5103C75.3001 18.8377 75.2349 19.1329 75.1045 19.3905C74.9742 19.6535 74.8058 19.879 74.5993 20.0668C74.3984 20.2601 74.1702 20.4157 73.9257 20.5338C73.6813 20.6572 73.4423 20.7378 73.2196 20.7861V20.8397C73.5998 20.888 73.9312 20.9793 74.2191 21.1135C74.507 21.2477 74.746 21.4194 74.9416 21.6234C75.1371 21.8274 75.2784 22.0582 75.3761 22.3158C75.4685 22.5734 75.5174 22.8364 75.5174 23.1102C75.5174 23.5503 75.425 23.9529 75.2403 24.3179C75.0556 24.6828 74.7895 24.9942 74.4472 25.2572C74.105 25.5202 73.6867 25.7241 73.1924 25.8744C72.7035 26.0247 72.1549 26.0999 71.5464 26.0999C70.8022 26.0999 70.1504 25.9979 69.5908 25.7993C69.0313 25.6007 68.5316 25.3162 68.0916 24.9512V23.4644H68.0807Z" fill="#121212"/>
<path d="M76.7886 24.1403C76.7886 23.6948 76.8919 23.3244 77.0928 23.0399C77.2938 22.7555 77.56 22.5354 77.8859 22.3798C78.2119 22.2241 78.5758 22.1221 78.9778 22.0631C79.3798 22.0094 79.7764 21.9772 80.1729 21.9772H81.5201V21.3492C81.5201 20.7588 81.3734 20.324 81.0747 20.0342C80.7759 19.7443 80.4119 19.5994 79.9773 19.5994C79.8144 19.5994 79.6514 19.6155 79.4884 19.6477C79.3255 19.6799 79.1788 19.739 79.0484 19.8141C78.9181 19.8946 78.8149 19.9966 78.7388 20.1308C78.6573 20.2596 78.6193 20.426 78.6193 20.6192V21.0647H77.4459V19.9698C77.8208 19.6692 78.2662 19.4223 78.7768 19.229C79.2875 19.0305 79.8687 18.9338 80.5206 18.9338C80.928 18.9338 81.2756 18.9929 81.569 19.111C81.8623 19.229 82.1013 19.3954 82.2915 19.6101C82.4816 19.8248 82.6174 20.0825 82.7097 20.3777C82.8021 20.6783 82.8456 21.0057 82.8456 21.3707V25.3211H83.9809V25.9491H81.5418V24.7039H81.5147C81.3843 24.8542 81.2268 25.0098 81.0475 25.1708C80.8682 25.3319 80.6672 25.4875 80.4391 25.6271C80.2109 25.7666 79.9665 25.8793 79.6949 25.9706C79.4233 26.0618 79.1408 26.1048 78.8366 26.1048C78.5432 26.1048 78.2716 26.0565 78.0217 25.9652C77.7719 25.874 77.5546 25.7398 77.3753 25.5734C77.1961 25.407 77.0548 25.203 76.9516 24.9561C76.843 24.7092 76.7886 24.4409 76.7886 24.1403ZM81.5255 22.6428H80.3196C80.0914 22.6428 79.8524 22.6589 79.6025 22.6911C79.3526 22.7233 79.1191 22.793 78.9072 22.895C78.6953 22.997 78.5215 23.1419 78.3857 23.3244C78.2499 23.5069 78.1793 23.7431 78.1793 24.0329C78.1793 24.3711 78.2771 24.6287 78.4672 24.8166C78.6628 25.0044 78.9778 25.0957 79.4233 25.0957C79.5917 25.0957 79.7981 25.0689 80.0371 25.0098C80.2761 24.9561 80.5097 24.8649 80.7324 24.7361C80.9551 24.6072 81.1398 24.4462 81.2919 24.2476C81.444 24.049 81.5201 23.7968 81.5201 23.4962V22.6428H81.5255Z" fill="#121212"/>
<path d="M85.6486 25.3151C85.8279 25.3151 85.9528 25.2615 86.018 25.1541C86.0832 25.0468 86.1158 24.8696 86.1158 24.6174V19.7169H85.1271V19.0889H93.2048V19.7169H92.6833C92.5041 19.7169 92.3791 19.7705 92.3139 19.8779C92.2488 19.9852 92.2162 20.1624 92.2162 20.4146V25.3151H93.2103V25.9431H89.9672V25.3151H90.4507C90.6137 25.3151 90.7277 25.2615 90.7984 25.1541C90.869 25.0468 90.907 24.8696 90.907 24.6174V19.7169H87.4521V25.3151H88.3865V25.9431H85.1271V25.3151H85.6486Z" fill="#121212"/>
<path d="M94.2477 24.1403C94.2477 23.6948 94.3509 23.3244 94.5519 23.0399C94.7529 22.7555 95.0191 22.5354 95.345 22.3798C95.6709 22.2241 96.0349 22.1221 96.4369 22.0631C96.8388 22.0094 97.2354 21.9772 97.6319 21.9772H98.9791V21.3492C98.9791 20.7588 98.8325 20.324 98.5337 20.0342C98.2349 19.7443 97.871 19.5994 97.4364 19.5994C97.2734 19.5994 97.1105 19.6155 96.9475 19.6477C96.7845 19.6799 96.6379 19.739 96.5075 19.8141C96.3771 19.8946 96.2739 19.9966 96.1978 20.1308C96.1164 20.2596 96.0783 20.426 96.0783 20.6192V21.0647H94.905V19.9698C95.2798 19.6692 95.7252 19.4223 96.2359 19.229C96.7465 19.0305 97.3277 18.9338 97.9796 18.9338C98.387 18.9338 98.7347 18.9929 99.028 19.111C99.3214 19.229 99.5604 19.3954 99.7505 19.6101C99.9406 19.8248 100.076 20.0825 100.169 20.3777C100.261 20.6783 100.305 21.0057 100.305 21.3707V25.3211H101.44V25.9491H99.0009V24.7039H98.9737C98.8433 24.8542 98.6858 25.0098 98.5065 25.1708C98.3273 25.3319 98.1263 25.4875 97.8981 25.6271C97.67 25.7666 97.4255 25.8793 97.1539 25.9706C96.8823 26.0618 96.5998 26.1048 96.2956 26.1048C96.0023 26.1048 95.7307 26.0565 95.4808 25.9652C95.2309 25.874 95.0136 25.7398 94.8344 25.5734C94.6551 25.407 94.5139 25.203 94.4106 24.9561C94.302 24.7092 94.2477 24.4409 94.2477 24.1403ZM98.9846 22.6428H97.7786C97.5505 22.6428 97.3114 22.6589 97.0616 22.6911C96.8117 22.7233 96.5781 22.793 96.3662 22.895C96.1544 22.997 95.9806 23.1419 95.8448 23.3244C95.7089 23.5069 95.6383 23.7431 95.6383 24.0329C95.6383 24.3711 95.7361 24.6287 95.9262 24.8166C96.1218 25.0044 96.4369 25.0957 96.8823 25.0957C97.0507 25.0957 97.2571 25.0689 97.4961 25.0098C97.7352 24.9561 97.9687 24.8649 98.1915 24.7361C98.4142 24.6072 98.5989 24.4462 98.751 24.2476C98.9031 24.049 98.9791 23.7968 98.9791 23.4962V22.6428H98.9846Z" fill="#121212"/>
<path d="M103.162 25.3151C103.325 25.1112 103.466 24.8911 103.602 24.6549C103.732 24.4241 103.857 24.1611 103.966 23.8713C104.074 23.5814 104.172 23.2594 104.254 22.9051C104.341 22.5509 104.417 22.143 104.482 21.6867L104.667 20.4415C104.677 20.3932 104.683 20.3556 104.683 20.3234C104.683 20.2912 104.683 20.2536 104.683 20.2053C104.683 20.0657 104.645 19.9477 104.569 19.8564C104.493 19.7652 104.346 19.7169 104.129 19.7169H103.749V19.0889H110.11V19.7169H109.583C109.403 19.7169 109.279 19.7705 109.213 19.8779C109.148 19.9852 109.116 20.1624 109.116 20.4146V25.3151H110.474V27.7251H109.767V27.0542C109.767 26.6516 109.675 26.3671 109.485 26.2008C109.295 26.0344 109.023 25.9485 108.665 25.9485H104.189C103.83 25.9485 103.553 26.0344 103.368 26.2008C103.178 26.3671 103.086 26.6516 103.086 27.0542V27.7251H102.38V25.3151H103.162ZM107.796 19.7169H106.226C105.959 19.7169 105.786 19.7866 105.693 19.9262C105.601 20.0657 105.547 20.2268 105.514 20.4039L105.302 21.6921C105.161 22.5509 104.993 23.2701 104.797 23.8498C104.601 24.4295 104.362 24.9179 104.08 25.3205H107.79V19.7169H107.796Z" fill="#121212"/>
<path d="M112.136 25.3151C112.315 25.3151 112.44 25.2615 112.505 25.1541C112.57 25.0468 112.603 24.8696 112.603 24.6174V19.7169H111.609V19.0889H114.852V19.7169H114.385C114.206 19.7169 114.081 19.7705 114.015 19.8779C113.95 19.9852 113.918 20.1624 113.918 20.4146V22.0946H117.459V19.7169H116.525V19.0889H119.768V19.7169H119.241C119.062 19.7169 118.937 19.7705 118.872 19.8779C118.807 19.9852 118.774 20.1624 118.774 20.4146V25.3151H119.768V25.9431H116.525V25.3151H117.009C117.172 25.3151 117.286 25.2615 117.356 25.1541C117.427 25.0468 117.465 24.8696 117.465 24.6174V22.7709H113.923V25.3205H114.857V25.9485H111.614V25.3205H112.136V25.3151Z" fill="#121212"/>
<path d="M120.616 22.53C120.616 21.9611 120.703 21.4512 120.887 21.0057C121.067 20.5602 121.316 20.1791 121.637 19.8731C121.957 19.5672 122.338 19.331 122.772 19.1754C123.207 19.0144 123.674 18.9392 124.174 18.9392C124.684 18.9392 125.152 19.0197 125.586 19.1754C126.015 19.3364 126.39 19.5672 126.711 19.8731C127.031 20.1791 127.281 20.5602 127.46 21.0057C127.639 21.4512 127.732 21.9611 127.732 22.53C127.732 23.099 127.639 23.6035 127.46 24.049C127.281 24.4945 127.031 24.8649 126.711 25.1708C126.39 25.4768 126.015 25.7076 125.586 25.8632C125.157 26.0243 124.684 26.0994 124.174 26.0994C123.674 26.0994 123.207 26.0189 122.772 25.8632C122.338 25.7022 121.957 25.4714 121.637 25.1708C121.316 24.8649 121.067 24.4945 120.887 24.049C120.703 23.6089 120.616 23.099 120.616 22.53ZM126.341 22.53C126.341 22.3905 126.33 22.2187 126.314 22.0201C126.298 21.8215 126.26 21.6068 126.2 21.3921C126.146 21.1721 126.064 20.952 125.966 20.7319C125.869 20.5119 125.738 20.3186 125.575 20.1415C125.412 19.9698 125.217 19.8302 124.989 19.7229C124.755 19.6155 124.483 19.5618 124.174 19.5618C123.864 19.5618 123.593 19.6155 123.359 19.7229C123.125 19.8302 122.93 19.9698 122.772 20.1415C122.609 20.3133 122.484 20.5119 122.381 20.7319C122.283 20.952 122.202 21.1721 122.148 21.3921C122.093 21.6122 122.055 21.8215 122.033 22.0201C122.017 22.2187 122.006 22.3905 122.006 22.53C122.006 22.734 122.028 23.0024 122.077 23.3352C122.126 23.6679 122.224 23.99 122.376 24.3067C122.528 24.6234 122.745 24.8971 123.033 25.1279C123.321 25.3587 123.701 25.4714 124.174 25.4714C124.646 25.4714 125.027 25.3587 125.315 25.1279C125.602 24.8971 125.82 24.6287 125.972 24.3067C126.124 23.99 126.222 23.6626 126.271 23.3352C126.314 23.0024 126.341 22.7394 126.341 22.53Z" fill="#121212"/>
<path d="M133.849 21.7197V22.7288H129.497V21.7197H133.849Z" fill="#121212"/>
<path d="M135.761 21.1188C135.761 20.3352 135.869 19.6267 136.081 18.9987C136.293 18.3707 136.603 17.834 137.016 17.3885C137.428 16.943 137.923 16.6048 138.509 16.3579C139.096 16.1164 139.764 15.9929 140.519 15.9929C141.133 15.9929 141.72 16.0895 142.285 16.2881C142.844 16.4867 143.366 16.8034 143.849 17.2382V18.8216H142.616V18.6283C142.616 18.2097 142.54 17.8769 142.388 17.63C142.236 17.3831 142.051 17.1899 141.834 17.0557C141.617 16.9215 141.383 16.8356 141.133 16.798C140.883 16.7605 140.655 16.7444 140.449 16.7444C139.884 16.7444 139.395 16.8786 138.987 17.1416C138.58 17.4099 138.249 17.7534 137.988 18.1775C137.727 18.6015 137.537 19.0738 137.407 19.5891C137.276 20.1098 137.217 20.6197 137.217 21.1242C137.217 21.7039 137.276 22.2514 137.401 22.7613C137.526 23.2766 137.711 23.7274 137.966 24.1139C138.222 24.5004 138.547 24.8063 138.944 25.0317C139.341 25.2572 139.813 25.3699 140.362 25.3699C140.568 25.3699 140.802 25.3538 141.063 25.3269C141.323 25.3001 141.568 25.2303 141.801 25.1176C142.035 25.0049 142.225 24.8439 142.383 24.6292C142.54 24.4145 142.616 24.1246 142.616 23.7596V23.5235H143.849V25.0049C143.388 25.3591 142.85 25.6329 142.241 25.8261C141.633 26.0193 141.008 26.1106 140.362 26.1106C139.721 26.1106 139.118 26.0193 138.553 25.8315C137.988 25.6436 137.504 25.3538 137.086 24.9566C136.668 24.5594 136.347 24.0495 136.108 23.4161C135.88 22.7774 135.761 22.0152 135.761 21.1188Z" fill="#121212"/>
<path d="M145.506 25.3151C145.685 25.3151 145.81 25.2615 145.876 25.1541C145.941 25.0468 145.973 24.8696 145.973 24.6174V19.7169H144.979V19.0889H148.222V19.7169H147.755C147.576 19.7169 147.451 19.7705 147.386 19.8779C147.32 19.9852 147.288 20.1624 147.288 20.4146V23.4526C147.288 23.6136 147.282 23.8015 147.266 24.0269C147.25 24.2524 147.234 24.4402 147.217 24.6013H147.261C147.348 24.4724 147.424 24.349 147.489 24.2309C147.554 24.1128 147.619 24.0162 147.69 23.9303L151.047 19.0889H153.187V19.7169H152.66C152.481 19.7169 152.356 19.7705 152.291 19.8779C152.226 19.9852 152.193 20.1624 152.193 20.4146V25.3151H153.187V25.9431H149.944V25.3151H150.428C150.591 25.3151 150.705 25.2615 150.775 25.1541C150.846 25.0468 150.884 24.8696 150.884 24.6174V21.5794C150.884 21.4183 150.889 21.2305 150.906 21.0051C150.922 20.7796 150.938 20.5918 150.955 20.4307H150.911C150.824 20.5596 150.748 20.683 150.683 20.8011C150.618 20.9192 150.553 21.0158 150.487 21.1017L147.13 25.9431H144.99V25.3151H145.506Z" fill="#121212"/>
<path d="M154.252 22.1277C154.252 21.1294 154.355 20.3081 154.556 19.664C154.757 19.0199 155.029 18.4993 155.371 18.1021C155.713 17.7049 156.104 17.4043 156.555 17.2004C157.006 16.9964 157.473 16.8247 157.968 16.6958C158.467 16.567 158.875 16.4543 159.195 16.3577C159.51 16.2664 159.771 16.1752 159.967 16.0839C160.162 15.9981 160.325 15.8907 160.45 15.7673C160.575 15.6438 160.695 15.4935 160.819 15.3057L161.173 15.4023C161.097 15.7673 160.999 16.0732 160.874 16.3255C160.749 16.5778 160.575 16.7925 160.352 16.9749C160.124 17.1574 159.836 17.3131 159.483 17.4526C159.13 17.5868 158.685 17.721 158.158 17.8498C157.669 17.9733 157.234 18.1075 156.854 18.2631C156.474 18.4188 156.153 18.6228 155.892 18.8804C155.626 19.138 155.42 19.4654 155.262 19.8626C155.105 20.2598 155.007 20.759 154.958 21.3548H155.029C155.246 20.7322 155.61 20.2276 156.126 19.8412C156.642 19.4601 157.283 19.2669 158.044 19.2669C159.076 19.2669 159.885 19.5728 160.472 20.1793C161.064 20.7858 161.357 21.6393 161.357 22.7396C161.357 23.2173 161.27 23.6574 161.097 24.0707C160.923 24.484 160.678 24.8383 160.369 25.1335C160.059 25.4341 159.684 25.6702 159.255 25.842C158.826 26.0138 158.353 26.0996 157.848 26.0996C157.261 26.0996 156.745 26.003 156.294 25.8152C155.844 25.6219 155.469 25.3536 155.17 25.0047C154.866 24.6558 154.643 24.2371 154.491 23.7433C154.328 23.2549 154.252 22.7128 154.252 22.1277ZM159.961 22.7557C159.961 22.3639 159.923 21.9989 159.842 21.6554C159.76 21.3172 159.635 21.022 159.467 20.7751C159.298 20.5282 159.081 20.335 158.815 20.1954C158.549 20.0559 158.234 19.9861 157.864 19.9861C157.517 19.9861 157.207 20.0666 156.941 20.233C156.675 20.394 156.452 20.6087 156.267 20.8771C156.083 21.1455 155.941 21.446 155.849 21.7896C155.757 22.1277 155.708 22.4712 155.708 22.8201C155.708 23.1261 155.74 23.4374 155.806 23.7487C155.871 24.06 155.985 24.3445 156.153 24.6021C156.316 24.8598 156.533 25.0691 156.805 25.2301C157.077 25.3911 157.419 25.477 157.832 25.477C158.239 25.477 158.576 25.3911 158.853 25.2086C159.125 25.0315 159.347 24.8114 159.51 24.5431C159.673 24.2747 159.793 23.9849 159.858 23.6628C159.929 23.3354 159.961 23.0348 159.961 22.7557Z" fill="#121212"/>
<path d="M162.862 25.3151C163.041 25.3151 163.166 25.2615 163.231 25.1541C163.297 25.0468 163.329 24.8696 163.329 24.6174V19.7169H162.335V19.0889H165.578V19.7169H165.111C164.932 19.7169 164.807 19.7705 164.742 19.8779C164.676 19.9852 164.644 20.1624 164.644 20.4146V23.4526C164.644 23.6136 164.638 23.8015 164.622 24.0269C164.606 24.2524 164.589 24.4402 164.573 24.6013H164.617C164.704 24.4724 164.78 24.349 164.845 24.2309C164.91 24.1128 164.975 24.0162 165.046 23.9303L168.403 19.0889H170.543V19.7169H170.016C169.837 19.7169 169.712 19.7705 169.647 19.8779C169.582 19.9852 169.549 20.1624 169.549 20.4146V25.3151H170.543V25.9431H167.3V25.3151H167.784C167.947 25.3151 168.061 25.2615 168.131 25.1541C168.202 25.0468 168.24 24.8696 168.24 24.6174V21.5794C168.24 21.4183 168.245 21.2305 168.262 21.0051C168.278 20.7796 168.294 20.5918 168.311 20.4307H168.267C168.18 20.5596 168.104 20.683 168.039 20.8011C167.974 20.9192 167.909 21.0158 167.843 21.1017L164.486 25.9431H162.346V25.3151H162.862Z" fill="#121212"/>
<path d="M172.249 28.8153C172.428 28.8153 172.553 28.7617 172.618 28.6543C172.683 28.547 172.716 28.3698 172.716 28.1176V19.7175H171.581V19.0895H174.02V20.4045H174.047C174.172 20.2274 174.319 20.0503 174.487 19.8731C174.655 19.696 174.851 19.535 175.068 19.3954C175.285 19.2559 175.53 19.1432 175.796 19.0573C176.068 18.9714 176.356 18.9338 176.665 18.9338C177.127 18.9338 177.529 19.0197 177.871 19.1861C178.213 19.3525 178.49 19.5887 178.713 19.8946C178.936 20.2006 179.099 20.5548 179.207 20.9681C179.316 21.3814 179.37 21.8269 179.37 22.31C179.37 22.8789 179.294 23.3996 179.137 23.8612C178.979 24.3281 178.762 24.7253 178.48 25.0581C178.197 25.3909 177.855 25.6485 177.458 25.8257C177.062 26.0082 176.622 26.0994 176.138 26.0994C175.687 26.0994 175.291 26.0189 174.954 25.8632C174.617 25.7022 174.308 25.5036 174.025 25.2621H173.998C174.009 25.3909 174.014 25.5305 174.02 25.6754C174.025 25.8203 174.025 25.9276 174.025 26.0028V28.8153H175.188V29.4433H171.716V28.8153H172.249ZM177.985 22.4495C177.985 22.1704 177.964 21.8806 177.915 21.58C177.866 21.2794 177.773 21.011 177.638 20.7695C177.502 20.528 177.312 20.3294 177.078 20.1737C176.844 20.0181 176.54 19.9429 176.171 19.9429C175.964 19.9429 175.736 19.9751 175.481 20.0503C175.231 20.12 174.998 20.2274 174.78 20.367C174.563 20.5065 174.378 20.6836 174.237 20.8983C174.09 21.113 174.02 21.3653 174.02 21.6551V24.4945C174.112 24.5804 174.215 24.6663 174.324 24.7522C174.433 24.8434 174.563 24.9186 174.715 24.9883C174.867 25.0581 175.036 25.1172 175.226 25.1547C175.416 25.1977 175.633 25.2191 175.878 25.2191C176.508 25.2191 177.018 24.9883 177.409 24.5321C177.79 24.0759 177.985 23.3835 177.985 22.4495Z" fill="#121212"/>
<path d="M180.506 22.6159C180.506 21.9826 180.598 21.4351 180.783 20.9735C180.968 20.5119 181.217 20.1308 181.533 19.8248C181.848 19.5243 182.217 19.2988 182.63 19.1539C183.048 19.009 183.483 18.9392 183.95 18.9392C184.254 18.9392 184.531 18.9714 184.786 19.0305C185.042 19.0895 185.275 19.17 185.482 19.2666C185.688 19.3632 185.867 19.476 186.02 19.594C186.172 19.7175 186.291 19.8302 186.389 19.9429V21.1613H185.27V20.9788C185.27 20.689 185.226 20.4528 185.14 20.2703C185.053 20.0878 184.944 19.9429 184.814 19.8356C184.683 19.7282 184.531 19.6584 184.368 19.6209C184.205 19.5833 184.042 19.5672 183.879 19.5672C183.51 19.5672 183.2 19.6531 182.945 19.8195C182.69 19.9859 182.483 20.2113 182.331 20.4904C182.174 20.7695 182.065 21.0969 182 21.4619C181.935 21.8323 181.902 22.2134 181.902 22.6052C181.902 22.9702 181.94 23.3191 182.016 23.6465C182.092 23.9793 182.217 24.2691 182.391 24.5214C182.565 24.7736 182.787 24.9776 183.064 25.1279C183.336 25.2836 183.673 25.3587 184.069 25.3587C184.52 25.3587 184.901 25.2674 185.21 25.0796C185.52 24.8917 185.808 24.6448 186.079 24.3389L186.563 24.7844C186.432 24.9454 186.275 25.1011 186.101 25.2621C185.927 25.4231 185.726 25.5627 185.498 25.6915C185.27 25.8203 185.02 25.9169 184.738 25.9921C184.461 26.0672 184.156 26.1048 183.836 26.1048C183.412 26.1048 182.999 26.035 182.597 25.9008C182.195 25.7666 181.842 25.5573 181.533 25.2782C181.223 24.9991 180.978 24.6395 180.788 24.1993C180.598 23.7592 180.506 23.2332 180.506 22.6159Z" fill="#121212"/>
<path d="M187.997 25.3151C188.176 25.3151 188.301 25.2615 188.366 25.1541C188.431 25.0468 188.464 24.8696 188.464 24.6174V19.7169H187.47V19.0889H190.713V19.7169H190.246C190.066 19.7169 189.941 19.7705 189.876 19.8779C189.811 19.9852 189.778 20.1624 189.778 20.4146V22.0249H190.827L192.5 20.2053C192.625 20.0818 192.685 19.9799 192.685 19.8994C192.685 19.7759 192.598 19.7169 192.429 19.7169H191.946V19.0889H195.037V19.7169H194.95C194.733 19.7169 194.461 19.7866 194.135 19.9208C193.809 20.055 193.51 20.2751 193.233 20.5703L191.701 22.2235L194.168 25.3151H195.118V25.9431H193.065L190.588 22.6958H189.778V25.3151H190.713V25.9431H187.47V25.3151H187.997Z" fill="#121212"/>
<path d="M196.428 25.3151C196.607 25.3151 196.732 25.2615 196.797 25.1541C196.862 25.0468 196.895 24.8696 196.895 24.6174V19.7169H195.901V19.0889H199.144V19.7169H198.676C198.497 19.7169 198.372 19.7705 198.307 19.8779C198.242 19.9852 198.209 20.1624 198.209 20.4146V23.4526C198.209 23.6136 198.204 23.8015 198.188 24.0269C198.171 24.2524 198.155 24.4402 198.139 24.6013H198.182C198.269 24.4724 198.345 24.349 198.41 24.2309C198.475 24.1128 198.541 24.0162 198.611 23.9303L201.968 19.0889H204.109V19.7169H203.582C203.403 19.7169 203.278 19.7705 203.212 19.8779C203.147 19.9852 203.115 20.1624 203.115 20.4146V25.3151H204.109V25.9431H200.866V25.3151H201.349C201.512 25.3151 201.626 25.2615 201.697 25.1541C201.767 25.0468 201.805 24.8696 201.805 24.6174V21.5794C201.805 21.4183 201.811 21.2305 201.827 21.0051C201.843 20.7796 201.86 20.5918 201.876 20.4307H201.833C201.746 20.5596 201.67 20.683 201.604 20.8011C201.539 20.9192 201.474 21.0158 201.409 21.1017L198.052 25.9431H195.911V25.3151H196.428Z" fill="#121212"/>
<path d="M205.624 25.3157C205.804 25.3157 205.929 25.262 205.994 25.1547C206.059 25.0473 206.092 24.8702 206.092 24.6179V19.7174H205.097V19.0894H208.34V19.7174H207.873C207.694 19.7174 207.569 19.7711 207.504 19.8784C207.439 19.9858 207.406 20.1629 207.406 20.4152V23.4532C207.406 23.6142 207.401 23.8021 207.384 24.0275C207.368 24.2529 207.352 24.4408 207.335 24.6018H207.379C207.466 24.473 207.542 24.3495 207.607 24.2315C207.672 24.1134 207.737 24.0168 207.808 23.9309L211.165 19.0894H213.305V19.7174H212.779C212.599 19.7174 212.474 19.7711 212.409 19.8784C212.344 19.9858 212.311 20.1629 212.311 20.4152V25.3157H213.305V25.9437H210.062V25.3157H210.546C210.709 25.3157 210.823 25.262 210.894 25.1547C210.964 25.0473 211.002 24.8702 211.002 24.6179V21.5799C211.002 21.4189 211.008 21.2311 211.024 21.0056C211.04 20.7802 211.057 20.5923 211.073 20.4313H211.029C210.942 20.5601 210.866 20.6836 210.801 20.8017C210.736 20.9197 210.671 21.0164 210.606 21.1022L207.249 25.9437H205.108V25.3157H205.624ZM206.771 16.3145H208.101V16.6204C208.101 16.9585 208.188 17.2001 208.373 17.3504C208.552 17.5007 208.824 17.5758 209.193 17.5758C209.568 17.5758 209.851 17.5007 210.03 17.3504C210.209 17.2001 210.301 16.9585 210.301 16.6204V16.3145H211.632V16.454C211.632 17.0122 211.421 17.4416 211.002 17.7368C210.584 18.032 209.981 18.177 209.193 18.177C208.416 18.177 207.819 18.032 207.401 17.7368C206.982 17.4416 206.771 17.0176 206.771 16.454V16.3145Z" fill="#121212"/>
<path d="M68.51 42.1159C68.7001 42.1159 68.8359 42.0569 68.9282 41.9388C69.0152 41.8207 69.0749 41.6489 69.0912 41.4128L69.5149 36.5123H68.5806V35.8843H71.0577L72.5895 39.3678C72.6384 39.4697 72.6765 39.5932 72.7145 39.7327C72.7525 39.8723 72.796 40.0065 72.8449 40.1407H72.8883C72.9372 39.9904 72.9861 39.8508 73.0458 39.7113C73.1002 39.5771 73.1545 39.4536 73.2034 39.3409L74.7733 35.8843H77.3536V36.5123H77.0005C76.756 36.5123 76.5822 36.5606 76.4899 36.6572C76.3975 36.7538 76.3486 36.9148 76.3486 37.1403C76.3486 37.1778 76.3486 37.2154 76.3486 37.2476C76.3486 37.2798 76.3541 37.3174 76.3649 37.3657L76.7778 42.1105H77.7719V42.7385H74.5288V42.1105H74.9145C75.0775 42.1105 75.197 42.073 75.2731 42.0032C75.3545 41.9334 75.3926 41.7885 75.3926 41.5738C75.3926 41.547 75.3926 41.5094 75.3871 41.4611C75.3817 41.4128 75.3817 41.3806 75.3817 41.3645L75.1264 38.509C75.1155 38.4338 75.1101 38.3372 75.1047 38.2138C75.0992 38.0903 75.0938 37.9669 75.0884 37.838C75.0829 37.7092 75.0829 37.5858 75.0829 37.4677C75.0829 37.3496 75.0829 37.253 75.0829 37.1832H75.0123L73.1708 41.2732H72.1767L70.3623 37.1725H70.2917C70.2809 37.3013 70.2754 37.4891 70.27 37.7253C70.2646 37.9615 70.2537 38.1654 70.2374 38.3318L69.9549 41.4128C69.9549 41.4289 69.9549 41.4611 69.9495 41.504C69.9441 41.547 69.9441 41.5792 69.9441 41.6114C69.9441 41.7509 69.9766 41.869 70.0364 41.971C70.0962 42.0676 70.2374 42.1159 70.4547 42.1159H70.8349V42.7439H68.0862V42.1159H68.51Z" fill="#121212"/>
<path d="M78.2444 39.3572C78.2444 38.799 78.3313 38.2944 78.5051 37.8543C78.679 37.4088 78.9234 37.0331 79.2276 36.711C79.5373 36.3943 79.8903 36.1528 80.2978 35.981C80.7052 35.8146 81.1452 35.7288 81.6178 35.7288C82.1827 35.7288 82.6608 35.8146 83.0465 35.9864C83.4321 36.1582 83.7418 36.389 83.9754 36.6734C84.209 36.9579 84.3719 37.28 84.4697 37.6449C84.5675 38.0099 84.6164 38.3803 84.6164 38.7506V39.3518H79.6296C79.6296 39.6309 79.6622 39.9369 79.7274 40.2643C79.7926 40.5917 79.9066 40.8923 80.075 41.1767C80.238 41.4558 80.4662 41.692 80.7541 41.8745C81.042 42.0624 81.4059 42.1536 81.8514 42.1536C82.2588 42.1536 82.6445 42.0731 83.0193 41.9174C83.3941 41.7564 83.7418 41.4881 84.0731 41.107L84.5403 41.5686C84.1818 41.9872 83.7581 42.3146 83.2746 42.5508C82.7911 42.7816 82.2425 42.8997 81.6395 42.8997C81.2158 42.8997 80.7975 42.8353 80.3901 42.7011C79.9827 42.5723 79.6187 42.3629 79.2982 42.0785C78.9777 41.794 78.717 41.429 78.5269 40.9781C78.3422 40.5326 78.2444 39.9959 78.2444 39.3572ZM83.2746 38.6862C83.2637 37.9563 83.1225 37.3873 82.8509 36.9794C82.5793 36.5661 82.1664 36.3621 81.6178 36.3621C81.3896 36.3621 81.1669 36.4158 80.9442 36.5178C80.7215 36.6198 80.5259 36.77 80.3467 36.9633C80.1728 37.1565 80.0207 37.4034 79.9012 37.6933C79.7763 37.9831 79.7002 38.3159 79.6731 38.6862H83.2746Z" fill="#121212"/>
<path d="M86.2678 42.1161L88.294 39.0835L87.1207 37.3176C87.0175 37.1566 86.898 37.0278 86.7676 36.9258C86.6372 36.8238 86.496 36.7433 86.3547 36.6789C86.2135 36.6199 86.0777 36.5769 85.9419 36.5501C85.8115 36.5286 85.6866 36.5125 85.5725 36.5125H85.4856V35.8845H88.4353V36.5125H87.9953C87.8269 36.5125 87.74 36.5716 87.74 36.695C87.74 36.797 87.7943 36.9258 87.9084 37.0707L89.2121 38.944H90.3746V36.5071H89.5109V35.8792H92.542V36.5071H92.1455C91.9662 36.5071 91.8413 36.5608 91.7761 36.6682C91.7109 36.7755 91.6783 36.9526 91.6783 37.2049V38.9386H92.8408L94.1445 37.0654C94.2586 36.9151 94.3129 36.7916 94.3129 36.6896C94.3129 36.5662 94.226 36.5071 94.0576 36.5071H93.6176V35.8792H96.5619V36.5071H96.4749C96.3609 36.5071 96.2359 36.5179 96.1056 36.5447C95.9752 36.5662 95.8339 36.6091 95.6927 36.6735C95.5515 36.7326 95.4157 36.8185 95.2799 36.9204C95.1495 37.0224 95.03 37.1566 94.9268 37.3123L93.7534 39.0782L95.7796 42.1108H96.7303V42.7388H94.6878L92.6344 39.5773H91.6729V42.1108H92.5366V42.7388H89.5054V42.1108H89.902C90.0812 42.1108 90.2062 42.0571 90.2714 41.9498C90.3366 41.8424 90.3691 41.6653 90.3691 41.413V39.5827H89.4076L87.3543 42.7441H85.3118V42.1161H86.2678Z" fill="#121212"/>
<path d="M98.3708 45.6156C98.5501 45.6156 98.675 45.562 98.7402 45.4546C98.8054 45.3473 98.838 45.1701 98.838 44.9179V36.5178H97.7026V35.8898H100.142V37.2048H100.169C100.294 37.0277 100.44 36.8506 100.609 36.6734C100.777 36.4963 100.973 36.3353 101.19 36.1957C101.407 36.0562 101.652 35.9435 101.918 35.8576C102.19 35.7717 102.478 35.7341 102.787 35.7341C103.249 35.7341 103.651 35.82 103.993 35.9864C104.335 36.1528 104.612 36.389 104.835 36.6949C105.058 37.0009 105.221 37.3551 105.329 37.7684C105.438 38.1817 105.492 38.6272 105.492 39.1103C105.492 39.6792 105.416 40.1999 105.259 40.6615C105.101 41.1284 104.884 41.5256 104.602 41.8584C104.319 42.1912 103.977 42.4488 103.58 42.626C103.184 42.8085 102.744 42.8997 102.26 42.8997C101.809 42.8997 101.413 42.8192 101.076 42.6635C100.739 42.5025 100.43 42.3039 100.147 42.0624H100.12C100.131 42.1912 100.136 42.3307 100.142 42.4757C100.147 42.6206 100.147 42.7279 100.147 42.8031V45.6156H101.31V46.2436H97.8384V45.6156H98.3708ZM104.107 39.2445C104.107 38.9653 104.085 38.6755 104.037 38.3749C103.988 38.0743 103.895 37.806 103.76 37.5644C103.624 37.3229 103.434 37.1243 103.2 36.9686C102.966 36.813 102.662 36.7378 102.293 36.7378C102.086 36.7378 101.858 36.7701 101.603 36.8452C101.353 36.915 101.119 37.0223 100.902 37.1619C100.685 37.3014 100.5 37.4786 100.359 37.6933C100.212 37.908 100.142 38.1602 100.142 38.4501V41.2895C100.234 41.3753 100.337 41.4612 100.446 41.5471C100.555 41.6383 100.685 41.7135 100.837 41.7833C100.989 41.853 101.158 41.9121 101.348 41.9497C101.538 41.9926 101.755 42.0141 102 42.0141C102.63 42.0141 103.14 41.7833 103.531 41.327C103.917 40.8762 104.107 40.1784 104.107 39.2445Z" fill="#121212"/>
<path d="M106.818 39.3572C106.818 38.799 106.905 38.2944 107.079 37.8543C107.253 37.4088 107.497 37.0331 107.801 36.711C108.111 36.3943 108.464 36.1528 108.871 35.981C109.279 35.8146 109.719 35.7288 110.191 35.7288C110.756 35.7288 111.234 35.8146 111.62 35.9864C112.006 36.1582 112.315 36.389 112.549 36.6734C112.782 36.9579 112.945 37.28 113.043 37.6449C113.141 38.0099 113.19 38.3803 113.19 38.7506V39.3518H108.203C108.203 39.6309 108.236 39.9369 108.301 40.2643C108.366 40.5917 108.48 40.8923 108.649 41.1767C108.812 41.4558 109.04 41.692 109.328 41.8745C109.616 42.0624 109.979 42.1536 110.425 42.1536C110.832 42.1536 111.218 42.0731 111.593 41.9174C111.968 41.7564 112.315 41.4881 112.647 41.107L113.114 41.5686C112.755 41.9872 112.332 42.3146 111.848 42.5508C111.365 42.7816 110.816 42.8997 110.213 42.8997C109.789 42.8997 109.371 42.8353 108.964 42.7011C108.556 42.5723 108.192 42.3629 107.872 42.0785C107.551 41.794 107.291 41.429 107.1 40.9781C106.91 40.5326 106.818 39.9959 106.818 39.3572ZM111.848 38.6862C111.837 37.9563 111.696 37.3873 111.424 36.9794C111.153 36.5661 110.74 36.3621 110.191 36.3621C109.963 36.3621 109.74 36.4158 109.518 36.5178C109.295 36.6198 109.099 36.77 108.92 36.9633C108.746 37.1565 108.594 37.4034 108.475 37.6933C108.35 37.9831 108.274 38.3159 108.247 38.6862H111.848Z" fill="#121212"/>
<path d="M114.705 42.1162C114.885 42.1162 115.01 42.0625 115.075 41.9551C115.14 41.8478 115.173 41.6707 115.173 41.4184V36.5179H114.178V35.8899H119.833V37.9886H119.127V37.4679C119.127 37.1405 119.029 36.899 118.828 36.7487C118.633 36.593 118.378 36.5179 118.079 36.5179H116.493V42.1162H117.584V42.7441H114.184V42.1162H114.705Z" fill="#121212"/>
<path d="M121.355 42.1162C121.534 42.1162 121.659 42.0625 121.724 41.9551C121.789 41.8478 121.822 41.6707 121.822 41.4184V36.5179H120.828V35.8899H124.071V36.5179H123.603C123.424 36.5179 123.299 36.5716 123.234 36.6789C123.169 36.7863 123.136 36.9634 123.136 37.2157V40.2536C123.136 40.4147 123.131 40.6025 123.115 40.828C123.098 41.0534 123.082 41.2413 123.066 41.4023H123.109C123.196 41.2735 123.272 41.15 123.337 41.0319C123.402 40.9138 123.468 40.8172 123.538 40.7313L126.895 35.8899H129.036V36.5179H128.509C128.329 36.5179 128.205 36.5716 128.139 36.6789C128.074 36.7863 128.042 36.9634 128.042 37.2157V42.1162H129.036V42.7441H125.793V42.1162H126.276C126.439 42.1162 126.553 42.0625 126.624 41.9551C126.694 41.8478 126.732 41.6707 126.732 41.4184V38.3804C126.732 38.2194 126.738 38.0315 126.754 37.8061C126.77 37.5806 126.787 37.3928 126.803 37.2318H126.76C126.673 37.3606 126.597 37.484 126.531 37.6021C126.466 37.7202 126.401 37.8168 126.336 37.9027L122.979 42.7441H120.838V42.1162H121.355Z" fill="#121212"/>
<path d="M130.024 39.3301C130.024 38.7611 130.111 38.2512 130.296 37.8057C130.475 37.3602 130.725 36.9791 131.045 36.6732C131.366 36.3673 131.746 36.1311 132.181 35.9754C132.615 35.8144 133.083 35.7393 133.582 35.7393C134.093 35.7393 134.56 35.8198 134.995 35.9754C135.424 36.1365 135.799 36.3673 136.119 36.6732C136.44 36.9791 136.69 37.3602 136.869 37.8057C137.048 38.2512 137.14 38.7611 137.14 39.3301C137.14 39.899 137.048 40.4036 136.869 40.8491C136.69 41.2946 136.44 41.6649 136.119 41.9709C135.799 42.2715 135.424 42.5076 134.995 42.6633C134.566 42.8243 134.093 42.8995 133.582 42.8995C133.083 42.8995 132.615 42.8189 132.181 42.6633C131.746 42.5023 131.366 42.2715 131.045 41.9709C130.725 41.6649 130.475 41.2946 130.296 40.8491C130.111 40.409 130.024 39.899 130.024 39.3301ZM135.744 39.3301C135.744 39.1905 135.733 39.0188 135.717 38.8202C135.701 38.6216 135.663 38.4069 135.603 38.1922C135.549 37.9721 135.467 37.7521 135.369 37.532C135.272 37.3119 135.141 37.1187 134.978 36.9416C134.815 36.7698 134.62 36.6303 134.392 36.5229C134.158 36.4156 133.886 36.3619 133.577 36.3619C133.267 36.3619 132.996 36.4156 132.762 36.5229C132.528 36.6303 132.333 36.7698 132.175 36.9416C132.012 37.1133 131.887 37.3119 131.784 37.532C131.686 37.7521 131.605 37.9721 131.551 38.1922C131.496 38.4123 131.458 38.6216 131.437 38.8202C131.42 39.0188 131.409 39.1905 131.409 39.3301C131.409 39.5341 131.431 39.8024 131.48 40.1352C131.529 40.468 131.627 40.79 131.779 41.1067C131.931 41.4234 132.148 41.6971 132.436 41.9279C132.724 42.1587 133.104 42.2715 133.577 42.2715C134.049 42.2715 134.43 42.1587 134.718 41.9279C135.006 41.6971 135.223 41.4288 135.375 41.1067C135.527 40.79 135.625 40.4626 135.674 40.1352C135.723 39.8024 135.744 39.5341 135.744 39.3301Z" fill="#121212"/>
<path d="M138.26 42.1162C138.439 42.1162 138.564 42.0625 138.629 41.9551C138.694 41.8478 138.727 41.6707 138.727 41.4184V36.5179H137.733V35.8899H140.976V36.5179H140.508C140.329 36.5179 140.204 36.5716 140.139 36.6789C140.074 36.7863 140.041 36.9634 140.041 37.2157V38.8957H143.583V36.5179H142.649V35.8899H145.892V36.5179H145.365C145.186 36.5179 145.061 36.5716 144.995 36.6789C144.93 36.7863 144.898 36.9634 144.898 37.2157V42.1162H145.892V42.7441H142.649V42.1162H143.132C143.295 42.1162 143.409 42.0625 143.48 41.9551C143.551 41.8478 143.589 41.6707 143.589 41.4184V39.572H140.047V42.1215H140.981V42.7495H137.738V42.1215H138.26V42.1162Z" fill="#121212"/>
<path d="M147.109 40.9406C147.109 40.4951 147.212 40.1247 147.413 39.8402C147.614 39.5558 147.88 39.3357 148.206 39.18C148.532 39.0244 148.896 38.9224 149.298 38.8634C149.7 38.8097 150.096 38.7775 150.493 38.7775H151.84V38.1495C151.84 37.5591 151.693 37.1243 151.395 36.8345C151.096 36.5446 150.732 36.3997 150.297 36.3997C150.134 36.3997 149.971 36.4158 149.808 36.448C149.645 36.4802 149.499 36.5392 149.368 36.6144C149.238 36.6949 149.135 36.7969 149.059 36.9311C148.977 37.0599 148.939 37.2263 148.939 37.4195V37.865H147.766V36.7593C148.141 36.4587 148.586 36.2118 149.097 36.0186C149.607 35.82 150.189 35.7234 150.841 35.7234C151.248 35.7234 151.596 35.7824 151.889 35.9005C152.182 36.0186 152.421 36.185 152.611 36.3997C152.802 36.6144 152.937 36.872 153.03 37.1672C153.122 37.4678 153.166 37.7952 153.166 38.1602V42.1107H154.301V42.7387H151.862V41.4934H151.835C151.704 41.6437 151.547 41.7994 151.367 41.9604C151.188 42.1214 150.987 42.2771 150.759 42.4166C150.531 42.5562 150.286 42.6689 150.015 42.7601C149.743 42.8514 149.461 42.8943 149.157 42.8943C148.863 42.8943 148.592 42.846 148.342 42.7548C148.092 42.6635 147.875 42.5293 147.695 42.3629C147.516 42.1966 147.375 41.9926 147.272 41.7457C147.163 41.5095 147.109 41.2411 147.109 40.9406ZM151.84 39.443H150.634C150.406 39.443 150.167 39.4591 149.917 39.4914C149.667 39.5236 149.434 39.5933 149.222 39.6953C149.01 39.7973 148.836 39.9422 148.7 40.1247C148.564 40.3072 148.494 40.5434 148.494 40.8332C148.494 41.1714 148.592 41.429 148.782 41.6169C148.977 41.8047 149.292 41.896 149.738 41.896C149.906 41.896 150.113 41.8691 150.352 41.8101C150.591 41.7564 150.824 41.6652 151.047 41.5364C151.27 41.4075 151.454 41.2465 151.607 41.0479C151.759 40.8493 151.835 40.5971 151.835 40.2965V39.443H151.84Z" fill="#121212"/>
<path d="M155.268 41.7673H156.088C156.305 41.7673 156.49 41.6921 156.647 41.5418C156.805 41.3915 156.941 41.1768 157.066 40.8977C157.191 40.6186 157.294 40.2751 157.375 39.8672C157.462 39.4593 157.538 39.003 157.614 38.4877L157.799 37.2425C157.81 37.1942 157.815 37.1566 157.815 37.1244C157.815 37.0922 157.815 37.0546 157.815 37.0063C157.815 36.8668 157.777 36.7487 157.701 36.6574C157.625 36.5662 157.478 36.5179 157.261 36.5179H156.881V35.8899H163.302V36.5179H162.775C162.596 36.5179 162.471 36.5716 162.405 36.6789C162.34 36.7863 162.308 36.9634 162.308 37.2157V42.1162H163.302V42.7441H159.988V42.1162H160.542C160.705 42.1162 160.819 42.0625 160.89 41.9551C160.961 41.8478 160.999 41.6707 160.999 41.4184V36.5179H159.369C159.103 36.5179 158.929 36.5877 158.837 36.7272C158.744 36.8668 158.69 37.0278 158.657 37.2049L158.445 38.5361C158.342 39.1533 158.234 39.7276 158.125 40.259C158.016 40.7904 157.87 41.252 157.679 41.6438C157.489 42.0356 157.25 42.3416 156.962 42.567C156.675 42.7925 156.305 42.9052 155.849 42.9052C155.659 42.9052 155.469 42.8622 155.268 42.7764V41.7673Z" fill="#121212"/>
<path d="M165.171 42.1162C165.35 42.1162 165.475 42.0625 165.54 41.9551C165.605 41.8478 165.638 41.6707 165.638 41.4184V36.5179H164.644V35.8899H167.947V36.5179H167.425C167.246 36.5179 167.121 36.5716 167.056 36.6789C166.991 36.7863 166.958 36.9634 166.958 37.2157V38.4341H168.588C168.919 38.4341 169.245 38.4663 169.565 38.5253C169.886 38.5844 170.174 38.6971 170.424 38.8527C170.674 39.0138 170.875 39.2285 171.027 39.4968C171.179 39.7652 171.255 40.1195 171.255 40.5489C171.255 40.9246 171.184 41.2466 171.038 41.5204C170.891 41.7941 170.69 42.0249 170.435 42.2074C170.179 42.3899 169.886 42.5241 169.555 42.6153C169.223 42.7066 168.875 42.7495 168.506 42.7495H164.655V42.1215H165.171V42.1162ZM168.191 42.1162C168.408 42.1162 168.615 42.0839 168.816 42.0249C169.011 41.9659 169.191 41.8692 169.348 41.7458C169.506 41.6223 169.631 41.4613 169.723 41.2627C169.815 41.0695 169.864 40.8333 169.864 40.565C169.864 40.2966 169.815 40.0658 169.723 39.8726C169.631 39.6793 169.506 39.529 169.348 39.4109C169.191 39.2929 169.017 39.207 168.816 39.1533C168.615 39.0996 168.414 39.0674 168.207 39.0674H166.947V42.1215H168.191V42.1162Z" fill="#121212"/>
<path d="M172.667 42.1162C172.846 42.1162 172.971 42.0625 173.036 41.9551C173.102 41.8478 173.134 41.6707 173.134 41.4184V36.5179H172.14V35.8899H175.383V36.5179H174.916C174.737 36.5179 174.612 36.5716 174.547 36.6789C174.481 36.7863 174.449 36.9634 174.449 37.2157V38.8957H177.991V36.5179H177.056V35.8899H180.299V36.5179H179.772C179.593 36.5179 179.468 36.5716 179.403 36.6789C179.338 36.7863 179.305 36.9634 179.305 37.2157V42.1162H180.299V42.7441H177.056V42.1162H177.54C177.703 42.1162 177.817 42.0625 177.887 41.9551C177.958 41.8478 177.996 41.6707 177.996 41.4184V39.572H174.454V42.1215H175.389V42.7495H172.146V42.1215H172.667V42.1162Z" fill="#121212"/>
<path d="M181.821 42.1162C182 42.1162 182.125 42.0625 182.19 41.9551C182.255 41.8478 182.288 41.6707 182.288 41.4184V36.5179H181.294V35.8899H184.596V36.5179H184.075C183.896 36.5179 183.771 36.5716 183.705 36.6789C183.64 36.7863 183.608 36.9634 183.608 37.2157V38.4341H185.069C185.4 38.4341 185.721 38.4663 186.041 38.5253C186.356 38.5844 186.639 38.6971 186.894 38.8527C187.144 39.0138 187.345 39.2285 187.497 39.4968C187.649 39.7652 187.725 40.1195 187.725 40.5489C187.725 40.9246 187.655 41.2466 187.508 41.5204C187.361 41.7941 187.166 42.0249 186.91 42.2074C186.661 42.3899 186.367 42.5241 186.041 42.6153C185.71 42.7066 185.362 42.7495 184.993 42.7495H181.31V42.1215H181.821V42.1162ZM184.667 42.1162C184.884 42.1162 185.091 42.0839 185.292 42.0249C185.487 41.9659 185.667 41.8692 185.824 41.7458C185.982 41.6223 186.107 41.4613 186.199 41.2627C186.291 41.0695 186.34 40.8333 186.34 40.565C186.34 40.2966 186.291 40.0658 186.199 39.8726C186.107 39.6793 185.982 39.529 185.824 39.4109C185.667 39.2929 185.493 39.207 185.292 39.1533C185.096 39.0996 184.89 39.0674 184.683 39.0674H183.591V42.1215H184.667V42.1162ZM188.638 42.1162C188.801 42.1162 188.915 42.0625 188.986 41.9551C189.056 41.8478 189.094 41.6707 189.094 41.4184V36.5179H188.1V35.8899H191.403V36.5179H190.881C190.702 36.5179 190.577 36.5716 190.512 36.6789C190.447 36.7863 190.414 36.9634 190.414 37.2157V42.1162H191.408V42.7441H188.106V42.1162H188.638Z" fill="#121212"/>
<path d="M192.913 42.116C193.092 42.116 193.217 42.0623 193.282 41.955C193.348 41.8476 193.38 41.6705 193.38 41.4182V36.5177H192.386V35.8897H195.629V36.5177H195.162C194.983 36.5177 194.858 36.5714 194.793 36.6787C194.727 36.7861 194.695 36.9632 194.695 37.2155V40.2535C194.695 40.4145 194.689 40.6024 194.673 40.8278C194.657 41.0532 194.64 41.2411 194.624 41.4021H194.668C194.755 41.2733 194.831 41.1498 194.896 41.0318C194.961 40.9137 195.026 40.8171 195.097 40.7312L198.454 35.8897H200.594V36.5177H200.067C199.888 36.5177 199.763 36.5714 199.698 36.6787C199.633 36.7861 199.6 36.9632 199.6 37.2155V42.116H200.594V42.744H197.351V42.116H197.835C197.998 42.116 198.112 42.0623 198.182 41.955C198.253 41.8476 198.291 41.6705 198.291 41.4182V38.3802C198.291 38.2192 198.296 38.0313 198.313 37.8059C198.329 37.5805 198.345 37.3926 198.362 37.2316H198.318C198.231 37.3604 198.155 37.4839 198.09 37.6019C198.025 37.72 197.96 37.8166 197.894 37.9025L194.537 42.744H192.397V42.116H192.913ZM194.065 33.1147H195.396V33.4207C195.396 33.7588 195.482 34.0004 195.667 34.1507C195.846 34.301 196.118 34.3761 196.487 34.3761C196.862 34.3761 197.145 34.301 197.324 34.1507C197.503 34.0004 197.596 33.7588 197.596 33.4207V33.1147H198.926V33.2543C198.926 33.8125 198.715 34.2419 198.296 34.5371C197.878 34.8323 197.275 34.9773 196.487 34.9773C195.711 34.9773 195.113 34.8323 194.695 34.5371C194.277 34.2419 194.065 33.8179 194.065 33.2543V33.1147Z" fill="#121212"/>
<path d="M68.635 58.9162C68.8142 58.9162 68.9392 58.8625 69.0043 58.7552C69.0695 58.6478 69.1021 58.4707 69.1021 58.2184V53.3179H68.108V52.6899H71.3511V53.3179H70.8839C70.7046 53.3179 70.5797 53.3716 70.5145 53.479C70.4493 53.5863 70.4167 53.7634 70.4167 54.0157V55.6957H73.9585V53.3179H73.0242V52.6899H76.2672V53.3179H75.7403C75.561 53.3179 75.4361 53.3716 75.3709 53.479C75.3057 53.5863 75.2731 53.7634 75.2731 54.0157V58.9162H76.2672V59.5442H73.0242V58.9162H73.5076C73.6706 58.9162 73.7847 58.8625 73.8553 58.7552C73.9259 58.6478 73.964 58.4707 73.964 58.2184V56.372H70.4222V58.9216H71.3565V59.5496H68.1135V58.9216H68.635V58.9162Z" fill="#121212"/>
<path d="M77.3317 57.7409C77.3317 57.2954 77.4349 56.925 77.6359 56.6405C77.8369 56.356 78.1031 56.136 78.429 55.9803C78.755 55.8247 79.1189 55.7227 79.5209 55.6636C79.9229 55.61 80.3194 55.5778 80.716 55.5778H82.0632V54.9498C82.0632 54.3594 81.9165 53.9246 81.6177 53.6347C81.319 53.3449 80.955 53.2 80.5204 53.2C80.3575 53.2 80.1945 53.2161 80.0315 53.2483C79.8686 53.2805 79.7219 53.3395 79.5915 53.4147C79.4612 53.4952 79.3579 53.5972 79.2819 53.7314C79.2004 53.8602 79.1624 54.0266 79.1624 54.2198V54.6653H77.989V53.5596C78.3638 53.259 78.8093 53.0121 79.3199 52.8189C79.8305 52.6203 80.4118 52.5237 81.0637 52.5237C81.4711 52.5237 81.8187 52.5827 82.1121 52.7008C82.4054 52.8189 82.6444 52.9853 82.8346 53.2C83.0247 53.4147 83.1605 53.6723 83.2528 53.9675C83.3452 54.2681 83.3886 54.5955 83.3886 54.9605V58.911H84.524V59.539H82.0849V58.2937H82.0577C81.9274 58.444 81.7698 58.5996 81.5906 58.7607C81.4113 58.9217 81.2103 59.0773 80.9822 59.2169C80.754 59.3565 80.5096 59.4692 80.238 59.5604C79.9664 59.6517 79.6839 59.6946 79.3797 59.6946C79.0863 59.6946 78.8147 59.6463 78.5648 59.5551C78.315 59.4638 78.0977 59.3296 77.9184 59.1632C77.7391 58.9968 77.5979 58.7929 77.4947 58.546C77.3806 58.3098 77.3317 58.0414 77.3317 57.7409ZM82.0632 56.2433H80.8572C80.6291 56.2433 80.3901 56.2594 80.1402 56.2916C79.8903 56.3238 79.6567 56.3936 79.4449 56.4956C79.233 56.5976 79.0592 56.7425 78.9234 56.925C78.7876 57.1075 78.7169 57.3437 78.7169 57.6335C78.7169 57.9717 78.8147 58.2293 79.0048 58.4172C79.2004 58.605 79.5155 58.6963 79.9609 58.6963C80.1293 58.6963 80.3357 58.6694 80.5748 58.6104C80.8138 58.5567 81.0474 58.4655 81.2701 58.3366C81.4928 58.2078 81.6775 58.0468 81.8296 57.8482C81.9817 57.6496 82.0577 57.3973 82.0577 57.0968V56.2433H82.0632Z" fill="#121212"/>
<path d="M85.567 62.0667H86.572C86.6861 62.0667 86.8056 62.0505 86.9251 62.0237C87.05 61.9969 87.1695 61.9378 87.2836 61.8466C87.4031 61.7553 87.5172 61.6265 87.6367 61.4548C87.7562 61.283 87.8703 61.0522 87.9844 60.7624L88.3809 59.7264L85.3335 53.3123H84.3557V52.6843H87.7725V53.3123H87.4303C87.1478 53.3123 87.0066 53.4197 87.0066 53.6344C87.0066 53.7363 87.0555 53.8974 87.1478 54.1121L88.5928 57.2467C88.658 57.3862 88.7232 57.558 88.7883 57.7619C88.8535 57.9659 88.9078 58.1377 88.9459 58.2826H89.0165C89.0437 58.1699 89.0817 58.0303 89.1306 57.8693C89.1795 57.7083 89.2392 57.515 89.3153 57.3003L90.5049 54.0799C90.5538 53.9779 90.581 53.8866 90.5918 53.8115C90.6027 53.7363 90.6081 53.6719 90.6081 53.6129C90.6081 53.5002 90.5755 53.4197 90.5103 53.3767C90.4452 53.3284 90.3637 53.307 90.2713 53.307H89.7879V52.679H92.705V53.307H92.4496C92.178 53.307 91.9553 53.3928 91.7923 53.5592C91.6294 53.7256 91.5044 53.9027 91.4338 54.0906L88.9839 60.5423C88.7829 61.0737 88.5819 61.5138 88.3809 61.8573C88.1799 62.2008 87.9626 62.4746 87.7454 62.6678C87.5226 62.861 87.2945 63.0006 87.05 63.0757C86.811 63.1509 86.5448 63.1884 86.2624 63.1884C86.1103 63.1884 85.9745 63.1723 85.8604 63.1455C85.7409 63.1187 85.6431 63.0865 85.5725 63.0489V62.0667H85.567Z" fill="#121212"/>
<path d="M98.3979 58.9164C98.5609 58.9164 98.6749 58.8628 98.7456 58.7554C98.8162 58.6481 98.8542 58.4709 98.8542 58.2187V56.1898H98.827C98.5826 56.4957 98.2621 56.7533 97.871 56.9573C97.4799 57.1613 97.0561 57.2633 96.6053 57.2633C96.1979 57.2633 95.8611 57.2042 95.6003 57.0808C95.3341 56.9573 95.1277 56.7963 94.9756 56.5977C94.8235 56.3991 94.7203 56.1629 94.6551 55.8892C94.5954 55.6208 94.5628 55.331 94.5628 55.0197V53.3128H93.5687V52.6848H96.8008V53.3128H96.3337C96.1544 53.3128 96.0295 53.3665 95.9643 53.4738C95.8991 53.5812 95.8665 53.7583 95.8665 54.0106V55.1002C95.8665 55.5135 95.9588 55.8248 96.149 56.0448C96.3391 56.2649 96.6216 56.3723 96.9964 56.3723C97.2245 56.3723 97.4473 56.3454 97.67 56.2864C97.8927 56.2327 98.0883 56.1468 98.2675 56.0341C98.4414 55.9214 98.5826 55.7818 98.6912 55.6154C98.7999 55.449 98.8542 55.2505 98.8542 55.025V53.3021H97.9199V52.6741H101.163V53.3021H100.641C100.462 53.3021 100.337 53.3557 100.272 53.4631C100.207 53.5704 100.174 53.7476 100.174 53.9998V58.9003H101.168V59.5283H97.7841V58.9003H98.3979V58.9164Z" fill="#121212"/>
<path d="M102.679 58.9162C102.858 58.9162 102.983 58.8625 103.048 58.7552C103.113 58.6478 103.146 58.4707 103.146 58.2184V53.3179H102.152V52.6899H105.395V53.3179H104.928C104.748 53.3179 104.623 53.3716 104.558 53.479C104.493 53.5863 104.46 53.7634 104.46 54.0157V55.6957H108.002V53.3179H107.068V52.6899H110.311V53.3179H109.784C109.605 53.3179 109.48 53.3716 109.415 53.479C109.349 53.5863 109.317 53.7634 109.317 54.0157V58.9162H110.311V59.5442H107.068V58.9162H107.551C107.714 58.9162 107.828 58.8625 107.899 58.7552C107.97 58.6478 108.008 58.4707 108.008 58.2184V56.372H104.466V58.9216H105.4V59.5496H102.157V58.9216H102.679V58.9162Z" fill="#121212"/>
<path d="M110.946 56.1306C110.946 55.5617 111.033 55.0518 111.218 54.6063C111.397 54.1608 111.647 53.7797 111.967 53.4737C112.288 53.1678 112.668 52.9316 113.103 52.776C113.537 52.6149 114.004 52.5398 114.504 52.5398C115.015 52.5398 115.482 52.6203 115.917 52.776C116.346 52.937 116.721 53.1678 117.041 53.4737C117.362 53.7797 117.611 54.1608 117.791 54.6063C117.97 55.0518 118.062 55.5617 118.062 56.1306C118.062 56.6996 117.97 57.2041 117.791 57.6496C117.611 58.0951 117.362 58.4655 117.041 58.7714C116.721 59.0774 116.346 59.3082 115.917 59.4638C115.487 59.6248 115.015 59.7 114.504 59.7C114.004 59.7 113.537 59.6195 113.103 59.4638C112.668 59.3028 112.288 59.072 111.967 58.7714C111.647 58.4708 111.397 58.0951 111.218 57.6496C111.033 57.2041 110.946 56.6996 110.946 56.1306ZM116.666 56.1306C116.666 55.9911 116.655 55.8193 116.639 55.6207C116.623 55.4221 116.585 55.2074 116.525 54.9927C116.471 54.7727 116.389 54.5526 116.291 54.3325C116.194 54.1125 116.063 53.9192 115.9 53.7421C115.737 53.5703 115.542 53.4308 115.314 53.3234C115.08 53.2161 114.808 53.1624 114.499 53.1624C114.189 53.1624 113.918 53.2161 113.684 53.3234C113.45 53.4308 113.255 53.5703 113.097 53.7421C112.934 53.9139 112.809 54.1125 112.706 54.3325C112.608 54.5526 112.527 54.7727 112.473 54.9927C112.418 55.2128 112.38 55.4221 112.359 55.6207C112.342 55.8193 112.331 55.9911 112.331 56.1306C112.331 56.3346 112.353 56.603 112.402 56.9357C112.451 57.2685 112.549 57.5906 112.701 57.9073C112.853 58.2239 113.07 58.4977 113.358 58.7285C113.646 58.9593 114.026 59.072 114.499 59.072C114.971 59.072 115.352 58.9593 115.64 58.7285C115.927 58.4977 116.145 58.2293 116.297 57.9073C116.449 57.5906 116.547 57.2632 116.596 56.9357C116.645 56.603 116.666 56.3346 116.666 56.1306Z" fill="#121212"/>
<path d="M124.25 55.3201V56.3291H119.899V55.3201H124.25Z" fill="#121212"/>
<path d="M126.021 56.1306C126.021 55.5617 126.108 55.0518 126.292 54.6063C126.472 54.1608 126.721 53.7797 127.042 53.4737C127.362 53.1678 127.743 52.9316 128.177 52.776C128.612 52.6149 129.079 52.5398 129.579 52.5398C130.089 52.5398 130.557 52.6203 130.991 52.776C131.42 52.937 131.795 53.1678 132.116 53.4737C132.436 53.7797 132.686 54.1608 132.865 54.6063C133.045 55.0518 133.137 55.5617 133.137 56.1306C133.137 56.6996 133.045 57.2041 132.865 57.6496C132.686 58.0951 132.436 58.4655 132.116 58.7714C131.795 59.0774 131.42 59.3082 130.991 59.4638C130.562 59.6248 130.089 59.7 129.579 59.7C129.079 59.7 128.612 59.6195 128.177 59.4638C127.743 59.3028 127.362 59.072 127.042 58.7714C126.721 58.4708 126.472 58.0951 126.292 57.6496C126.108 57.2041 126.021 56.6996 126.021 56.1306ZM131.746 56.1306C131.746 55.9911 131.735 55.8193 131.719 55.6207C131.703 55.4221 131.665 55.2074 131.605 54.9927C131.551 54.7727 131.469 54.5526 131.371 54.3325C131.274 54.1125 131.143 53.9192 130.98 53.7421C130.817 53.5703 130.622 53.4308 130.394 53.3234C130.16 53.2161 129.888 53.1624 129.579 53.1624C129.269 53.1624 128.998 53.2161 128.764 53.3234C128.53 53.4308 128.335 53.5703 128.177 53.7421C128.014 53.9139 127.889 54.1125 127.786 54.3325C127.688 54.5526 127.607 54.7727 127.553 54.9927C127.498 55.2128 127.46 55.4221 127.438 55.6207C127.422 55.8193 127.411 55.9911 127.411 56.1306C127.411 56.3346 127.433 56.603 127.482 56.9357C127.531 57.2685 127.629 57.5906 127.781 57.9073C127.933 58.2239 128.15 58.4977 128.438 58.7285C128.726 58.9593 129.106 59.072 129.579 59.072C130.051 59.072 130.432 58.9593 130.72 58.7285C131.007 58.4977 131.225 58.2293 131.377 57.9073C131.529 57.5906 131.627 57.2632 131.676 56.9357C131.719 56.603 131.746 56.3346 131.746 56.1306Z" fill="#121212"/>
<path d="M134.408 55.7232C134.408 54.7248 134.511 53.9036 134.712 53.2595C134.913 52.6154 135.185 52.0948 135.527 51.6976C135.869 51.3004 136.261 50.9998 136.711 50.7958C137.162 50.5919 137.63 50.4201 138.124 50.2913C138.624 50.1625 139.031 50.0498 139.352 49.9531C139.667 49.8619 139.927 49.7707 140.123 49.6794C140.318 49.5935 140.481 49.4862 140.606 49.3627C140.731 49.2393 140.851 49.089 140.976 48.9011L141.329 48.9977C141.253 49.3627 141.155 49.6687 141.03 49.9209C140.905 50.1732 140.731 50.3879 140.509 50.5704C140.28 50.7529 139.993 50.9086 139.639 51.0481C139.286 51.1823 138.841 51.3165 138.314 51.4453C137.825 51.5688 137.39 51.7029 137.01 51.8586C136.63 52.0143 136.309 52.2182 136.049 52.4759C135.783 52.7335 135.576 53.0609 135.419 53.4581C135.261 53.8553 135.163 54.3545 135.114 54.9503H135.185C135.402 54.3276 135.766 53.8231 136.282 53.4366C136.798 53.0555 137.439 52.8623 138.2 52.8623C139.232 52.8623 140.041 53.1683 140.628 53.7694C141.22 54.3759 141.514 55.2294 141.514 56.3297C141.514 56.8074 141.427 57.2475 141.253 57.6608C141.079 58.0741 140.835 58.4284 140.525 58.7236C140.215 59.0242 139.84 59.2603 139.411 59.4321C138.982 59.6038 138.51 59.6897 138.004 59.6897C137.418 59.6897 136.902 59.5931 136.451 59.4053C136 59.212 135.625 58.9436 135.326 58.5948C135.022 58.2459 134.799 57.8272 134.647 57.3334C134.484 56.8503 134.408 56.3136 134.408 55.7232ZM140.117 56.3565C140.117 55.9647 140.079 55.5997 139.998 55.2562C139.916 54.9181 139.792 54.6228 139.623 54.3759C139.455 54.129 139.237 53.9358 138.971 53.7962C138.705 53.6567 138.39 53.5869 138.021 53.5869C137.673 53.5869 137.363 53.6674 137.097 53.8338C136.831 53.9948 136.608 54.2095 136.424 54.4779C136.239 54.7463 136.098 55.0469 136.005 55.3904C135.913 55.7285 135.864 56.0721 135.864 56.4209C135.864 56.7269 135.897 57.0382 135.962 57.3495C136.027 57.6608 136.141 57.9453 136.309 58.2029C136.472 58.4606 136.69 58.6699 136.961 58.8309C137.233 58.992 137.575 59.0778 137.988 59.0778C138.395 59.0778 138.732 58.992 139.009 58.8095C139.281 58.6323 139.504 58.4123 139.667 58.1439C139.83 57.8755 139.949 57.5857 140.014 57.2636C140.085 56.9362 140.117 56.6356 140.117 56.3565Z" fill="#121212"/>
<path d="M143.024 62.4159C143.203 62.4159 143.328 62.3623 143.393 62.2549C143.458 62.1476 143.491 61.9704 143.491 61.7182V53.3181H142.355V52.6901H144.794V54.0051H144.822C144.947 53.828 145.093 53.6509 145.262 53.4737C145.43 53.2966 145.626 53.1356 145.843 52.996C146.06 52.8565 146.305 52.7438 146.571 52.6579C146.842 52.572 147.13 52.5344 147.44 52.5344C147.902 52.5344 148.304 52.6203 148.646 52.7867C148.988 52.9531 149.265 53.1893 149.488 53.4952C149.711 53.8011 149.874 54.1554 149.982 54.5687C150.091 54.982 150.145 55.4275 150.145 55.9106C150.145 56.4795 150.069 57.0002 149.912 57.4618C149.754 57.9287 149.537 58.3259 149.254 58.6587C148.972 58.9915 148.63 59.2491 148.233 59.4262C147.837 59.6087 147.396 59.7 146.913 59.7C146.462 59.7 146.066 59.6195 145.729 59.4638C145.392 59.3028 145.082 59.1042 144.8 58.8627H144.773C144.784 58.9915 144.789 59.131 144.794 59.276C144.8 59.4209 144.8 59.5282 144.8 59.6034V62.4159H145.962V63.0439H142.491V62.4159H143.024ZM148.76 56.0447C148.76 55.7656 148.738 55.4758 148.689 55.1752C148.64 54.8746 148.548 54.6063 148.412 54.3647C148.277 54.1232 148.086 53.9246 147.853 53.7689C147.619 53.6133 147.315 53.5381 146.946 53.5381C146.739 53.5381 146.511 53.5703 146.256 53.6455C146.006 53.7153 145.772 53.8226 145.555 53.9622C145.338 54.1017 145.153 54.2789 145.012 54.4935C144.865 54.7082 144.794 54.9605 144.794 55.2504V58.0897C144.887 58.1756 144.99 58.2615 145.099 58.3474C145.207 58.4386 145.338 58.5138 145.49 58.5836C145.642 58.6533 145.81 58.7124 146 58.7499C146.191 58.7929 146.408 58.8144 146.652 58.8144C147.282 58.8144 147.793 58.5836 148.184 58.1273C148.564 57.6765 148.76 56.9787 148.76 56.0447Z" fill="#121212"/>
<path d="M151.101 57.7409C151.101 57.2954 151.205 56.925 151.406 56.6405C151.607 56.356 151.873 56.136 152.199 55.9803C152.525 55.8247 152.889 55.7227 153.29 55.6636C153.692 55.61 154.089 55.5778 154.486 55.5778H155.833V54.9498C155.833 54.3594 155.686 53.9246 155.387 53.6347C155.089 53.3449 154.725 53.2 154.29 53.2C154.127 53.2 153.964 53.2161 153.801 53.2483C153.638 53.2805 153.491 53.3395 153.361 53.4147C153.236 53.4952 153.128 53.5972 153.051 53.7314C152.97 53.8602 152.932 54.0266 152.932 54.2198V54.6653H151.759V53.5596C152.133 53.259 152.579 53.0121 153.09 52.8189C153.6 52.6203 154.181 52.5237 154.833 52.5237C155.241 52.5237 155.588 52.5827 155.882 52.7008C156.175 52.8189 156.414 52.9853 156.604 53.2C156.794 53.4147 156.93 53.6723 157.022 53.9675C157.115 54.2681 157.158 54.5955 157.158 54.9605V58.911H158.294V59.539H155.854V58.2937H155.827C155.697 58.444 155.539 58.5996 155.36 58.7607C155.181 58.9217 154.98 59.0773 154.752 59.2169C154.524 59.3565 154.279 59.4692 154.008 59.5604C153.736 59.6517 153.453 59.6946 153.149 59.6946C152.856 59.6946 152.584 59.6463 152.334 59.5551C152.085 59.4638 151.867 59.3296 151.688 59.1632C151.509 58.9968 151.367 58.7929 151.264 58.546C151.156 58.3098 151.101 58.0414 151.101 57.7409ZM155.833 56.2433H154.627C154.399 56.2433 154.16 56.2594 153.91 56.2916C153.66 56.3238 153.426 56.3936 153.214 56.4956C153.003 56.5976 152.829 56.7425 152.693 56.925C152.557 57.1075 152.487 57.3437 152.487 57.6335C152.487 57.9717 152.584 58.2293 152.774 58.4172C152.97 58.605 153.285 58.6963 153.731 58.6963C153.899 58.6963 154.105 58.6694 154.344 58.6104C154.583 58.5567 154.817 58.4655 155.04 58.3366C155.262 58.2078 155.447 58.0468 155.599 57.8482C155.751 57.6496 155.827 57.3973 155.827 57.0968V56.2433H155.833Z" fill="#121212"/>
<path d="M159.429 57.5745H160.548V57.8267C160.548 58.2293 160.684 58.5353 160.95 58.75C161.221 58.9647 161.661 59.072 162.275 59.072C162.775 59.072 163.199 58.9539 163.535 58.7177C163.878 58.4816 164.046 58.1166 164.046 57.6335C164.046 57.5047 164.03 57.3651 163.992 57.2149C163.954 57.0646 163.883 56.925 163.78 56.8016C163.677 56.6727 163.53 56.5708 163.345 56.4849C163.161 56.399 162.927 56.3561 162.645 56.3561H161.357V55.6851H162.536C163.019 55.6851 163.356 55.567 163.546 55.3362C163.742 55.1054 163.834 54.8049 163.834 54.4399C163.834 54.0588 163.698 53.7475 163.432 53.5167C163.161 53.2859 162.786 53.1678 162.308 53.1678C161.243 53.1678 160.705 53.5864 160.705 54.4291V54.6385H159.586V53.463C159.689 53.361 159.842 53.2537 160.037 53.1409C160.233 53.0282 160.461 52.9263 160.716 52.8404C160.971 52.7545 161.243 52.6793 161.531 52.6257C161.819 52.572 162.107 52.5398 162.389 52.5398C163.383 52.5398 164.1 52.7116 164.551 53.0551C165.002 53.3986 165.225 53.8226 165.225 54.3272C165.225 54.4882 165.203 54.6438 165.16 54.8049C165.116 54.9659 165.04 55.1162 164.926 55.2611C164.812 55.406 164.66 55.5348 164.475 55.6529C164.285 55.771 164.046 55.8676 163.753 55.9428V55.9696C164.073 56.0072 164.345 56.077 164.562 56.1789C164.779 56.2809 164.953 56.4044 165.078 56.5493C165.203 56.6942 165.295 56.8552 165.355 57.0324C165.41 57.2095 165.442 57.3973 165.442 57.5906C165.442 57.918 165.355 58.2132 165.187 58.4708C165.018 58.7338 164.785 58.9539 164.492 59.1364C164.198 59.3189 163.861 59.4585 163.476 59.5551C163.095 59.6517 162.683 59.7 162.248 59.7C161.689 59.7 161.167 59.6141 160.667 59.4477C160.173 59.2813 159.76 59.0613 159.429 58.7875V57.5745Z" fill="#121212"/>
<path d="M166.567 56.1306C166.567 55.5617 166.654 55.0518 166.838 54.6063C167.018 54.1608 167.268 53.7797 167.588 53.4737C167.909 53.1678 168.289 52.9316 168.723 52.776C169.158 52.6149 169.625 52.5398 170.125 52.5398C170.635 52.5398 171.103 52.6203 171.537 52.776C171.966 52.937 172.341 53.1678 172.662 53.4737C172.982 53.7797 173.232 54.1608 173.411 54.6063C173.591 55.0518 173.683 55.5617 173.683 56.1306C173.683 56.6996 173.591 57.2041 173.411 57.6496C173.232 58.0951 172.982 58.4655 172.662 58.7714C172.341 59.0774 171.966 59.3082 171.537 59.4638C171.108 59.6248 170.635 59.7 170.125 59.7C169.625 59.7 169.158 59.6195 168.723 59.4638C168.289 59.3028 167.909 59.072 167.588 58.7714C167.268 58.4708 167.018 58.0951 166.838 57.6496C166.659 57.2041 166.567 56.6996 166.567 56.1306ZM172.292 56.1306C172.292 55.9911 172.281 55.8193 172.265 55.6207C172.249 55.4221 172.211 55.2074 172.151 54.9927C172.097 54.7727 172.015 54.5526 171.918 54.3325C171.82 54.1125 171.689 53.9192 171.526 53.7421C171.363 53.5703 171.168 53.4308 170.94 53.3234C170.706 53.2161 170.435 53.1624 170.125 53.1624C169.815 53.1624 169.544 53.2161 169.31 53.3234C169.076 53.4308 168.881 53.5703 168.723 53.7421C168.56 53.9139 168.435 54.1125 168.332 54.3325C168.234 54.5526 168.153 54.7727 168.099 54.9927C168.044 55.2128 168.006 55.4221 167.985 55.6207C167.968 55.8193 167.957 55.9911 167.957 56.1306C167.957 56.3346 167.979 56.603 168.028 56.9357C168.077 57.2685 168.175 57.5906 168.327 57.9073C168.479 58.2239 168.696 58.4977 168.984 58.7285C169.272 58.9593 169.652 59.072 170.125 59.072C170.597 59.072 170.978 58.9593 171.266 58.7285C171.554 58.4977 171.771 58.2293 171.923 57.9073C172.075 57.5906 172.173 57.2632 172.222 56.9357C172.265 56.603 172.292 56.3346 172.292 56.1306Z" fill="#121212"/>
<path d="M175.122 58.9162C175.302 58.9162 175.427 58.8625 175.492 58.7552C175.557 58.6478 175.59 58.4707 175.59 58.2184V53.3179H174.596V52.6899H178.86C179.664 52.6899 180.25 52.8349 180.625 53.1301C181 53.4253 181.185 53.8386 181.185 54.37C181.185 54.531 181.158 54.692 181.109 54.853C181.054 55.0141 180.978 55.1697 180.87 55.3146C180.761 55.4596 180.614 55.583 180.435 55.6957C180.256 55.8031 180.039 55.8836 179.783 55.9426V55.9695C180.31 56.0446 180.712 56.2164 180.978 56.4955C181.25 56.7692 181.38 57.1396 181.38 57.6065C181.38 57.8373 181.337 58.0735 181.245 58.3043C181.152 58.5351 181.011 58.7444 180.81 58.9269C180.609 59.1094 180.348 59.2597 180.022 59.3724C179.696 59.4905 179.3 59.5496 178.827 59.5496H174.59V58.9216H175.122V58.9162ZM178.409 55.6957C178.833 55.6957 179.169 55.5884 179.419 55.379C179.669 55.1697 179.794 54.8477 179.794 54.4183C179.794 54.1177 179.685 53.86 179.474 53.64C179.262 53.4199 178.892 53.3126 178.376 53.3126H176.888V55.6904H178.409V55.6957ZM178.409 58.9162C178.936 58.9162 179.332 58.8035 179.599 58.5727C179.865 58.3472 179.995 58.0252 179.995 57.6065C179.995 57.3757 179.952 57.1771 179.865 57.0161C179.778 56.8551 179.669 56.7209 179.523 56.6189C179.381 56.5169 179.213 56.4418 179.017 56.3989C178.822 56.3505 178.621 56.3291 178.403 56.3291H176.888V58.9216H178.409V58.9162Z" fill="#121212"/>
<path d="M182.662 57.7409C182.662 57.2954 182.766 56.925 182.967 56.6405C183.168 56.356 183.434 56.136 183.76 55.9803C184.086 55.8247 184.45 55.7227 184.852 55.6636C185.254 55.61 185.65 55.5778 186.047 55.5778H187.394V54.9498C187.394 54.3594 187.247 53.9246 186.948 53.6347C186.65 53.3449 186.286 53.2 185.851 53.2C185.688 53.2 185.525 53.2161 185.362 53.2483C185.199 53.2805 185.053 53.3395 184.922 53.4147C184.792 53.4952 184.689 53.5972 184.613 53.7314C184.531 53.8602 184.493 54.0266 184.493 54.2198V54.6653H183.32V53.5596C183.694 53.259 184.14 53.0121 184.651 52.8189C185.161 52.6203 185.742 52.5237 186.394 52.5237C186.802 52.5237 187.149 52.5827 187.443 52.7008C187.736 52.8189 187.975 52.9853 188.165 53.2C188.355 53.4147 188.491 53.6723 188.583 53.9675C188.676 54.2681 188.719 54.5955 188.719 54.9605V58.911H189.855V59.539H187.416V58.2937H187.388C187.258 58.444 187.1 58.5996 186.921 58.7607C186.742 58.9217 186.541 59.0773 186.313 59.2169C186.085 59.3565 185.84 59.4692 185.569 59.5604C185.297 59.6517 185.014 59.6946 184.71 59.6946C184.417 59.6946 184.145 59.6463 183.895 59.5551C183.646 59.4638 183.428 59.3296 183.249 59.1632C183.07 58.9968 182.929 58.7929 182.825 58.546C182.711 58.3098 182.662 58.0414 182.662 57.7409ZM187.394 56.2433H186.188C185.96 56.2433 185.721 56.2594 185.471 56.2916C185.221 56.3238 184.987 56.3936 184.775 56.4956C184.564 56.5976 184.39 56.7425 184.254 56.925C184.118 57.1075 184.048 57.3437 184.048 57.6335C184.048 57.9717 184.145 58.2293 184.335 58.4172C184.531 58.605 184.846 58.6963 185.292 58.6963C185.46 58.6963 185.666 58.6694 185.905 58.6104C186.144 58.5567 186.378 58.4655 186.601 58.3366C186.823 58.2078 187.008 58.0468 187.16 57.8482C187.312 57.6496 187.388 57.3973 187.388 57.0968V56.2433H187.394Z" fill="#121212"/>
<path d="M192.462 58.9162C192.641 58.9162 192.766 58.8625 192.832 58.7552C192.897 58.6478 192.929 58.4707 192.929 58.2184V53.3179H192.066C191.799 53.3179 191.577 53.3931 191.392 53.5487C191.207 53.7044 191.115 53.9459 191.115 54.268V54.8155H190.409V52.6899H196.77V54.8155H196.064V54.268C196.064 53.9406 195.971 53.699 195.787 53.5487C195.602 53.3931 195.379 53.3179 195.113 53.3179H194.249V58.9162H195.282V59.5442H191.897V58.9162H192.462Z" fill="#121212"/>
<path d="M197.693 56.1572C197.693 55.599 197.78 55.0945 197.954 54.6543C198.128 54.2088 198.372 53.8331 198.677 53.5111C198.986 53.1944 199.339 52.9528 199.747 52.7811C200.154 52.6147 200.594 52.5288 201.067 52.5288C201.632 52.5288 202.11 52.6147 202.495 52.7864C202.881 52.9582 203.191 53.189 203.424 53.4735C203.658 53.758 203.821 54.08 203.919 54.445C204.016 54.81 204.065 55.1803 204.065 55.5507V56.1518H199.079C199.079 56.431 199.111 56.7369 199.176 57.0643C199.242 57.3917 199.356 57.6923 199.524 57.9768C199.687 58.2559 199.915 58.4921 200.203 58.6746C200.491 58.8624 200.855 58.9537 201.3 58.9537C201.708 58.9537 202.093 58.8731 202.468 58.7175C202.843 58.5565 203.191 58.2881 203.522 57.907L203.989 58.3686C203.631 58.7873 203.207 59.1147 202.724 59.3509C202.24 59.5817 201.691 59.6997 201.088 59.6997C200.665 59.6997 200.247 59.6353 199.839 59.5011C199.432 59.3723 199.068 59.163 198.747 58.8785C198.427 58.594 198.166 58.2291 197.976 57.7782C197.791 57.3327 197.693 56.7906 197.693 56.1572ZM202.724 55.4863C202.713 54.7563 202.571 54.1874 202.3 53.7794C202.028 53.3661 201.615 53.1622 201.067 53.1622C200.839 53.1622 200.616 53.2158 200.393 53.3178C200.17 53.4198 199.975 53.5701 199.796 53.7633C199.622 53.9566 199.47 54.2035 199.35 54.4933C199.225 54.7831 199.149 55.1159 199.122 55.4863H202.724Z" fill="#121212"/>
<path d="M204.929 58.5673H205.749C205.966 58.5673 206.151 58.4922 206.309 58.3419C206.466 58.1916 206.602 57.9769 206.727 57.6978C206.852 57.4187 206.955 57.0752 207.037 56.6672C207.123 56.2593 207.2 55.8031 207.276 55.2878L207.46 54.0425C207.471 53.9942 207.477 53.9567 207.477 53.9245C207.477 53.8923 207.477 53.8547 207.477 53.8064C207.477 53.6668 207.439 53.5487 207.362 53.4575C207.286 53.3662 207.14 53.3179 206.922 53.3179H206.542V52.6899H212.963V53.3179H212.436C212.257 53.3179 212.132 53.3716 212.067 53.479C212.002 53.5863 211.969 53.7634 211.969 54.0157V58.9162H212.963V59.5442H209.649V58.9162H210.204C210.366 58.9162 210.481 58.8625 210.551 58.7552C210.622 58.6478 210.66 58.4707 210.66 58.2184V53.3179H209.03C208.764 53.3179 208.59 53.3877 208.498 53.5273C208.405 53.6668 208.351 53.8278 208.319 54.005L208.107 55.3361C208.003 55.9534 207.895 56.5277 207.786 57.0591C207.678 57.5904 207.531 58.052 207.341 58.4439C207.151 58.8357 206.912 59.1416 206.624 59.3671C206.336 59.5925 205.966 59.7052 205.51 59.7052C205.32 59.7052 205.13 59.6623 204.929 59.5764V58.5673Z" fill="#121212"/>
<path d="M214.604 58.9162C214.783 58.9162 214.908 58.8625 214.973 58.7552C215.038 58.6478 215.071 58.4707 215.071 58.2184V53.3179H214.077V52.6899H217.38V53.3179H216.858C216.679 53.3179 216.554 53.3716 216.489 53.479C216.424 53.5863 216.391 53.7634 216.391 54.0157V55.2341H218.021C218.352 55.2341 218.678 55.2663 218.998 55.3254C219.319 55.3844 219.607 55.4971 219.857 55.6528C220.107 55.8138 220.308 56.0285 220.46 56.2969C220.612 56.5653 220.688 56.9195 220.688 57.3489C220.688 57.7246 220.617 58.0467 220.471 58.3204C220.324 58.5942 220.123 58.825 219.868 59.0074C219.612 59.1899 219.319 59.3241 218.988 59.4154C218.656 59.5066 218.309 59.5496 217.939 59.5496H214.088V58.9216H214.604V58.9162ZM217.624 58.9162C217.841 58.9162 218.048 58.884 218.249 58.825C218.444 58.7659 218.624 58.6693 218.781 58.5458C218.939 58.4224 219.064 58.2614 219.156 58.0628C219.248 57.8695 219.297 57.6334 219.297 57.365C219.297 57.0966 219.248 56.8658 219.156 56.6726C219.064 56.4794 218.939 56.3291 218.781 56.211C218.624 56.0929 218.45 56.007 218.249 55.9534C218.048 55.8997 217.847 55.8675 217.64 55.8675H216.38V58.9216H217.624V58.9162Z" fill="#121212"/>
<path d="M222.073 58.9162C222.252 58.9162 222.377 58.8625 222.442 58.7552C222.508 58.6478 222.54 58.4707 222.54 58.2184V53.3179H221.546V52.6899H224.789V53.3179H224.322C224.143 53.3179 224.018 53.3716 223.952 53.479C223.887 53.5863 223.855 53.7634 223.855 54.0157V55.6957H227.397V53.3179H226.462V52.6899H229.705V53.3179H229.178C228.999 53.3179 228.874 53.3716 228.809 53.479C228.744 53.5863 228.711 53.7634 228.711 54.0157V58.9162H229.705V59.5442H226.462V58.9162H226.946C227.109 58.9162 227.223 58.8625 227.293 58.7552C227.364 58.6478 227.402 58.4707 227.402 58.2184V56.372H223.86V58.9216H224.794V59.5496H221.551V58.9216H222.073V58.9162Z" fill="#121212"/>
<path d="M231.226 58.9162C231.406 58.9162 231.531 58.8625 231.596 58.7552C231.661 58.6478 231.694 58.4707 231.694 58.2184V53.3179H230.699V52.6899H234.002V53.3179H233.481C233.301 53.3179 233.177 53.3716 233.111 53.479C233.046 53.5863 233.014 53.7634 233.014 54.0157V55.2341H234.475C234.806 55.2341 235.127 55.2663 235.447 55.3254C235.762 55.3844 236.045 55.4971 236.3 55.6528C236.55 55.8138 236.751 56.0285 236.903 56.2969C237.055 56.5653 237.131 56.9195 237.131 57.3489C237.131 57.7246 237.061 58.0467 236.914 58.3204C236.767 58.5942 236.572 58.825 236.316 59.0074C236.066 59.1899 235.773 59.3241 235.447 59.4154C235.116 59.5066 234.768 59.5496 234.399 59.5496H230.716V58.9216H231.226V58.9162ZM234.073 58.9162C234.29 58.9162 234.497 58.884 234.698 58.825C234.893 58.7659 235.072 58.6693 235.23 58.5458C235.387 58.4224 235.512 58.2614 235.605 58.0628C235.697 57.8695 235.746 57.6334 235.746 57.365C235.746 57.0966 235.697 56.8658 235.605 56.6726C235.512 56.4794 235.387 56.3291 235.23 56.211C235.072 56.0929 234.899 56.007 234.698 55.9534C234.502 55.8997 234.296 55.8675 234.089 55.8675H232.997V58.9216H234.073V58.9162ZM238.038 58.9162C238.201 58.9162 238.315 58.8625 238.386 58.7552C238.457 58.6478 238.495 58.4707 238.495 58.2184V53.3179H237.501V52.6899H240.803V53.3179H240.282C240.103 53.3179 239.978 53.3716 239.912 53.479C239.847 53.5863 239.815 53.7634 239.815 54.0157V58.9162H240.809V59.5442H237.506V58.9162H238.038Z" fill="#121212"/>
<path d="M242.319 58.916C242.498 58.916 242.623 58.8624 242.688 58.755C242.753 58.6477 242.786 58.4705 242.786 58.2183V53.3178H241.792V52.6898H245.035V53.3178H244.568C244.389 53.3178 244.264 53.3714 244.198 53.4788C244.133 53.5861 244.101 53.7633 244.101 54.0155V57.0535C244.101 57.2145 244.095 57.4024 244.079 57.6278C244.063 57.8533 244.046 58.0411 244.03 58.2022H244.074C244.16 58.0733 244.236 57.9499 244.302 57.8318C244.367 57.7137 244.432 57.6171 244.503 57.5312L247.86 52.6898H250V53.3178H249.473C249.294 53.3178 249.169 53.3714 249.104 53.4788C249.039 53.5861 249.006 53.7633 249.006 54.0155V58.916H250V59.544H246.757V58.916H247.24C247.403 58.916 247.518 58.8624 247.588 58.755C247.659 58.6477 247.697 58.4705 247.697 58.2183V55.1803C247.697 55.0193 247.702 54.8314 247.719 54.606C247.735 54.3805 247.751 54.1927 247.767 54.0316H247.724C247.637 54.1605 247.561 54.2839 247.496 54.402C247.431 54.5201 247.365 54.6167 247.3 54.7026L243.943 59.544H241.803V58.916H242.319ZM243.465 49.9148H244.796V50.2207C244.796 50.5589 244.883 50.8004 245.068 50.9507C245.247 51.101 245.518 51.1761 245.888 51.1761C246.263 51.1761 246.545 51.101 246.724 50.9507C246.904 50.8004 246.996 50.5589 246.996 50.2207V49.9148H248.327V50.0543C248.327 50.6126 248.115 51.042 247.697 51.3372C247.279 51.6324 246.676 51.7773 245.888 51.7773C245.111 51.7773 244.514 51.6324 244.095 51.3372C243.677 51.042 243.465 50.6179 243.465 50.0543V49.9148Z" fill="#121212"/>
<path d="M75.3653 76.5968C75.1752 76.4304 74.9036 76.3445 74.5451 76.3445H68.1079V75.7165H68.6294C68.8087 75.7165 68.9336 75.6628 68.9988 75.5555C69.064 75.4481 69.0966 75.271 69.0966 75.0187V70.1182H68.1025V69.4902H71.3455V70.1182H70.8783C70.6991 70.1182 70.5741 70.1719 70.5089 70.2793C70.4438 70.3866 70.4112 70.5637 70.4112 70.816V75.7165H73.6705V70.1182H72.7416V69.4902H75.9846V70.1182H75.4577C75.2784 70.1182 75.1535 70.1719 75.0883 70.2793C75.0231 70.3866 74.9905 70.5637 74.9905 70.816V75.7165H76.3486V78.1265H75.6424V77.4556C75.6478 77.0476 75.55 76.7632 75.3653 76.5968Z" fill="#121212"/>
<path d="M77.1146 72.9575C77.1146 72.3993 77.2015 71.8947 77.3754 71.4546C77.5492 71.0091 77.7936 70.6334 78.0979 70.3113C78.4075 69.9947 78.7606 69.7531 79.168 69.5814C79.5754 69.415 80.0154 69.3291 80.488 69.3291C81.053 69.3291 81.531 69.415 81.9167 69.5867C82.3024 69.7585 82.612 69.9893 82.8456 70.2738C83.0792 70.5583 83.2422 70.8803 83.3399 71.2453C83.4377 71.6103 83.4866 71.9806 83.4866 72.351V72.9521H78.4998C78.4998 73.2312 78.5324 73.5372 78.5976 73.8592C78.6628 74.1867 78.7769 74.4872 78.9453 74.7717C79.1082 75.0508 79.3364 75.287 79.6243 75.4695C79.9122 75.6573 80.2762 75.7486 80.7216 75.7486C81.129 75.7486 81.5147 75.6681 81.8895 75.5124C82.2644 75.3514 82.612 75.083 82.9434 74.7019L83.4105 75.1635C83.052 75.5822 82.6283 75.9096 82.1448 76.1458C81.6559 76.3766 81.1127 76.4947 80.5098 76.4947C80.086 76.4947 79.6678 76.4303 79.2603 76.2961C78.8529 76.1672 78.489 75.9579 78.1685 75.6734C77.848 75.389 77.5872 75.024 77.3971 74.5731C77.2124 74.133 77.1146 73.5909 77.1146 72.9575ZM82.1448 72.2866C82.134 71.5566 81.9927 70.9876 81.7211 70.5797C81.4495 70.1664 81.0367 69.9625 80.488 69.9625C80.2599 69.9625 80.0371 70.0161 79.8144 70.1181C79.5917 70.2201 79.3961 70.3704 79.2169 70.5636C79.0431 70.7568 78.891 71.0037 78.7714 71.2936C78.6465 71.5834 78.5705 71.9162 78.5433 72.2866H82.1448Z" fill="#121212"/>
<path d="M85.1054 75.7165C85.2847 75.7165 85.4096 75.6628 85.4748 75.5555C85.54 75.4481 85.5726 75.271 85.5726 75.0187V70.1182H84.5839V69.4902H87.8269V70.1182H87.3598C87.1805 70.1182 87.0556 70.1719 86.9904 70.2793C86.9252 70.3866 86.8926 70.5637 86.8926 70.816V72.496H90.4344V70.1182H89.5001V69.4902H92.7431V70.1182H92.2162C92.0369 70.1182 91.912 70.1719 91.8468 70.2793C91.7816 70.3866 91.749 70.5637 91.749 70.816V75.7165H92.7431V76.3445H89.5001V75.7165H89.9835C90.1465 75.7165 90.2606 75.6628 90.3312 75.5555C90.4018 75.4481 90.4398 75.271 90.4398 75.0187V73.1723H86.898V75.7219H87.8324V76.3499H84.5839V75.7219H85.1054V75.7165Z" fill="#121212"/>
<path d="M95.7906 75.7165C95.9698 75.7165 96.0948 75.6628 96.1599 75.5555C96.2251 75.4481 96.2577 75.271 96.2577 75.0187V70.1182H95.394C95.1278 70.1182 94.9051 70.1934 94.7204 70.349C94.5357 70.5047 94.4434 70.7462 94.4434 71.0683V71.6158H93.7372V69.4902H100.098V71.6158H99.3921V71.0683C99.3921 70.7409 99.2998 70.4993 99.1151 70.349C98.9304 70.1934 98.7076 70.1182 98.4415 70.1182H97.5778V75.7165H98.6099V76.3445H95.2256V75.7165H95.7906Z" fill="#121212"/>
<path d="M101.744 79.216C101.923 79.216 102.048 79.1623 102.113 79.0549C102.179 78.9476 102.211 78.7705 102.211 78.5182V70.1181H101.076V69.4901H103.515V70.8052H103.542C103.667 70.628 103.814 70.4509 103.982 70.2738C104.151 70.0967 104.346 69.9356 104.563 69.7961C104.781 69.6565 105.025 69.5438 105.291 69.4579C105.563 69.372 105.851 69.3345 106.16 69.3345C106.622 69.3345 107.024 69.4203 107.366 69.5867C107.709 69.7531 107.986 69.9893 108.208 70.2952C108.431 70.6012 108.594 70.9554 108.703 71.3687C108.811 71.782 108.866 72.2275 108.866 72.7106C108.866 73.2796 108.79 73.8002 108.632 74.2618C108.475 74.7288 108.257 75.126 107.975 75.4587C107.692 75.7915 107.35 76.0492 106.954 76.2263C106.557 76.4088 106.117 76.5 105.634 76.5C105.183 76.5 104.786 76.4195 104.449 76.2639C104.113 76.1028 103.803 75.9042 103.52 75.6627H103.493C103.504 75.7915 103.51 75.9311 103.515 76.076C103.52 76.2209 103.52 76.3283 103.52 76.4034V79.216H104.683V79.844H101.212V79.216H101.744ZM107.48 72.8448C107.48 72.5657 107.459 72.2758 107.41 71.9753C107.361 71.6747 107.269 71.4063 107.133 71.1648C106.997 70.9232 106.807 70.7246 106.573 70.569C106.34 70.4133 106.036 70.3382 105.666 70.3382C105.46 70.3382 105.232 70.3704 104.976 70.4455C104.726 70.5153 104.493 70.6227 104.275 70.7622C104.058 70.9018 103.874 71.0789 103.732 71.2936C103.586 71.5083 103.515 71.7606 103.515 72.0504V74.8898C103.607 74.9757 103.711 75.0616 103.819 75.1474C103.928 75.2387 104.058 75.3138 104.21 75.3836C104.362 75.4534 104.531 75.5124 104.721 75.55C104.911 75.5929 105.128 75.6144 105.373 75.6144C106.003 75.6144 106.514 75.3836 106.905 74.9274C107.29 74.4765 107.48 73.7787 107.48 72.8448Z" fill="#121212"/>
<path d="M114.51 75.7162C114.7 75.7162 114.836 75.6572 114.928 75.5391C115.015 75.421 115.075 75.2493 115.091 75.0131L115.515 70.1126H114.58V69.4846H117.057L118.589 72.9681C118.638 73.0701 118.676 73.1935 118.714 73.3331C118.752 73.4726 118.796 73.6068 118.845 73.741H118.888C118.937 73.5907 118.986 73.4512 119.046 73.3116C119.1 73.1774 119.154 73.054 119.203 72.9413L120.773 69.4846H123.353V70.1126H123C122.756 70.1126 122.582 70.1609 122.49 70.2575C122.397 70.3541 122.348 70.5152 122.348 70.7406C122.348 70.7782 122.348 70.8158 122.348 70.848C122.348 70.8802 122.354 70.9177 122.365 70.966L122.777 75.7109H123.772V76.3389H120.529V75.7109H120.925C121.088 75.7109 121.208 75.6733 121.284 75.6035C121.365 75.5338 121.403 75.3888 121.403 75.1741C121.403 75.1473 121.403 75.1097 121.398 75.0614C121.392 75.0131 121.392 74.9809 121.392 74.9648L121.137 72.1093C121.126 72.0342 121.121 71.9375 121.115 71.8141C121.11 71.6906 121.104 71.5672 121.099 71.4384C121.093 71.3096 121.093 71.1861 121.093 71.068C121.093 70.9499 121.093 70.8533 121.093 70.7835H121.023L119.181 74.8736H118.187L116.373 70.7728H116.302C116.291 70.9016 116.286 71.0895 116.281 71.3257C116.275 71.5618 116.264 71.7658 116.248 71.9322L115.965 75.0131C115.965 75.0292 115.965 75.0614 115.96 75.1044C115.955 75.1473 115.955 75.1795 115.955 75.2117C115.955 75.3513 115.987 75.4693 116.047 75.5713C116.107 75.6679 116.248 75.7162 116.465 75.7162H116.845V76.3442H114.097V75.7162H114.51Z" fill="#121212"/>
<path d="M125.206 75.7165C125.385 75.7165 125.51 75.6628 125.575 75.5555C125.64 75.4481 125.673 75.271 125.673 75.0187V70.1182H124.679V69.4902H127.922V70.1182H127.455C127.276 70.1182 127.151 70.1719 127.085 70.2793C127.02 70.3866 126.988 70.5637 126.988 70.816V73.854C126.988 74.015 126.982 74.2029 126.966 74.4283C126.95 74.6537 126.933 74.8416 126.917 75.0026H126.96C127.047 74.8738 127.123 74.7503 127.189 74.6323C127.254 74.5142 127.319 74.4176 127.39 74.3317L130.747 69.4902H132.887V70.1182H132.36C132.181 70.1182 132.056 70.1719 131.991 70.2793C131.926 70.3866 131.893 70.5637 131.893 70.816V75.7165H132.887V76.3445H129.644V75.7165H130.127C130.29 75.7165 130.405 75.6628 130.475 75.5555C130.546 75.4481 130.584 75.271 130.584 75.0187V71.9807C130.584 71.8197 130.589 71.6319 130.605 71.4064C130.622 71.181 130.638 70.9931 130.654 70.8321H130.611C130.524 70.9609 130.448 71.0844 130.383 71.2025C130.318 71.3205 130.252 71.4172 130.187 71.503L126.83 76.3445H124.69V75.7165H125.206Z" fill="#121212"/>
<path d="M134.566 79.216C134.745 79.216 134.87 79.1623 134.935 79.0549C135 78.9476 135.033 78.7705 135.033 78.5182V70.1181H133.897V69.4901H136.336V70.8052H136.364C136.489 70.628 136.635 70.4509 136.804 70.2738C136.972 70.0967 137.168 69.9356 137.385 69.7961C137.602 69.6565 137.847 69.5438 138.113 69.4579C138.384 69.372 138.672 69.3345 138.982 69.3345C139.444 69.3345 139.846 69.4203 140.188 69.5867C140.53 69.7531 140.807 69.9893 141.03 70.2952C141.253 70.6012 141.416 70.9554 141.524 71.3687C141.633 71.782 141.687 72.2275 141.687 72.7106C141.687 73.2796 141.611 73.8002 141.454 74.2618C141.296 74.7288 141.079 75.126 140.796 75.4587C140.514 75.7915 140.172 76.0492 139.775 76.2263C139.379 76.4088 138.938 76.5 138.455 76.5C138.004 76.5 137.608 76.4195 137.271 76.2639C136.934 76.1028 136.624 75.9042 136.342 75.6627H136.315C136.326 75.7915 136.331 75.9311 136.336 76.076C136.342 76.2209 136.342 76.3283 136.342 76.4034V79.216H137.504V79.844H134.033V79.216H134.566ZM140.302 72.8448C140.302 72.5657 140.28 72.2758 140.231 71.9753C140.182 71.6747 140.09 71.4063 139.954 71.1648C139.819 70.9232 139.628 70.7246 139.395 70.569C139.161 70.4133 138.857 70.3382 138.488 70.3382C138.281 70.3382 138.053 70.3704 137.798 70.4455C137.548 70.5153 137.314 70.6227 137.097 70.7622C136.88 70.9018 136.695 71.0789 136.554 71.2936C136.407 71.5083 136.336 71.7606 136.336 72.0504V74.8898C136.429 74.9757 136.532 75.0616 136.641 75.1474C136.749 75.2387 136.88 75.3138 137.032 75.3836C137.184 75.4534 137.352 75.5124 137.542 75.55C137.733 75.5929 137.95 75.6144 138.194 75.6144C138.824 75.6144 139.335 75.3836 139.726 74.9274C140.112 74.4765 140.302 73.7787 140.302 72.8448Z" fill="#121212"/>
<path d="M142.844 72.9304C142.844 72.3615 142.931 71.8516 143.116 71.4061C143.295 70.9606 143.545 70.5795 143.865 70.2735C144.186 69.9676 144.566 69.7314 145.001 69.5758C145.435 69.4147 145.903 69.3396 146.402 69.3396C146.913 69.3396 147.38 69.4201 147.815 69.5758C148.244 69.7368 148.619 69.9676 148.939 70.2735C149.26 70.5795 149.51 70.9606 149.689 71.4061C149.868 71.8516 149.96 72.3615 149.96 72.9304C149.96 73.4994 149.868 74.0039 149.689 74.4494C149.51 74.8949 149.26 75.2653 148.939 75.5712C148.619 75.8772 148.244 76.108 147.815 76.2636C147.386 76.4246 146.913 76.4998 146.402 76.4998C145.903 76.4998 145.435 76.4193 145.001 76.2636C144.566 76.1026 144.186 75.8718 143.865 75.5712C143.545 75.2653 143.295 74.8949 143.116 74.4494C142.937 74.0039 142.844 73.4994 142.844 72.9304ZM148.57 72.9304C148.57 72.7909 148.559 72.6191 148.543 72.4205C148.526 72.2219 148.488 72.0072 148.429 71.7925C148.374 71.5725 148.293 71.3524 148.195 71.1323C148.097 70.9123 147.967 70.719 147.804 70.5419C147.641 70.3702 147.445 70.2306 147.217 70.1232C146.984 70.0159 146.712 69.9622 146.402 69.9622C146.093 69.9622 145.821 70.0159 145.588 70.1232C145.354 70.2306 145.158 70.3702 145.001 70.5419C144.838 70.7137 144.713 70.9123 144.61 71.1323C144.512 71.3524 144.43 71.5725 144.376 71.7925C144.322 72.0126 144.284 72.2219 144.262 72.4205C144.246 72.6191 144.235 72.7909 144.235 72.9304C144.235 73.1344 144.257 73.4028 144.306 73.7356C144.354 74.0683 144.452 74.3904 144.604 74.7071C144.756 75.0237 144.974 75.2975 145.262 75.5283C145.549 75.7591 145.93 75.8718 146.402 75.8718C146.875 75.8718 147.255 75.7591 147.543 75.5283C147.831 75.2975 148.048 75.0291 148.2 74.7071C148.352 74.3904 148.45 74.063 148.499 73.7356C148.543 73.4028 148.57 73.1344 148.57 72.9304Z" fill="#121212"/>
<path d="M151.275 75.7165C151.454 75.7165 151.579 75.6628 151.644 75.5555C151.71 75.4481 151.742 75.271 151.742 75.0187V70.1182H150.748V69.4902H155.012C155.816 69.4902 156.403 69.6352 156.778 69.9304C157.153 70.2256 157.337 70.6389 157.337 71.1703C157.337 71.3313 157.31 71.4923 157.261 71.6533C157.207 71.8143 157.131 71.97 157.022 72.1149C156.914 72.2598 156.767 72.3833 156.588 72.496C156.408 72.6034 156.191 72.6839 155.936 72.7429V72.7698C156.463 72.8449 156.865 73.0167 157.131 73.2958C157.403 73.5695 157.533 73.9399 157.533 74.4068C157.533 74.6376 157.489 74.8738 157.397 75.1046C157.305 75.3354 157.164 75.5447 156.963 75.7272C156.762 75.9097 156.501 76.06 156.175 76.1727C155.849 76.2908 155.452 76.3499 154.98 76.3499H150.743V75.7219H151.275V75.7165ZM154.562 72.496C154.985 72.496 155.322 72.3887 155.572 72.1793C155.822 71.97 155.947 71.648 155.947 71.2186C155.947 70.918 155.838 70.6603 155.626 70.4403C155.414 70.2202 155.045 70.1129 154.529 70.1129H153.041V72.4906H154.562V72.496ZM154.562 75.7165C155.088 75.7165 155.485 75.6038 155.751 75.373C156.017 75.1475 156.148 74.8255 156.148 74.4068C156.148 74.176 156.104 73.9774 156.017 73.8164C155.93 73.6554 155.822 73.5212 155.675 73.4192C155.534 73.3172 155.365 73.2421 155.17 73.1992C154.974 73.1508 154.773 73.1294 154.556 73.1294H153.041V75.7219H154.562V75.7165Z" fill="#121212"/>
<path d="M158.701 72.9304C158.701 72.3615 158.788 71.8516 158.972 71.4061C159.152 70.9606 159.402 70.5795 159.722 70.2735C160.043 69.9676 160.423 69.7314 160.857 69.5758C161.292 69.4147 161.759 69.3396 162.259 69.3396C162.77 69.3396 163.237 69.4201 163.671 69.5758C164.1 69.7368 164.475 69.9676 164.796 70.2735C165.116 70.5795 165.366 70.9606 165.545 71.4061C165.725 71.8516 165.817 72.3615 165.817 72.9304C165.817 73.4994 165.725 74.0039 165.545 74.4494C165.366 74.8949 165.116 75.2653 164.796 75.5712C164.475 75.8772 164.1 76.108 163.671 76.2636C163.242 76.4246 162.77 76.4998 162.259 76.4998C161.759 76.4998 161.292 76.4193 160.857 76.2636C160.423 76.1026 160.043 75.8718 159.722 75.5712C159.402 75.2653 159.152 74.8949 158.972 74.4494C158.793 74.0039 158.701 73.4994 158.701 72.9304ZM164.426 72.9304C164.426 72.7909 164.415 72.6191 164.399 72.4205C164.383 72.2219 164.345 72.0072 164.285 71.7925C164.231 71.5725 164.149 71.3524 164.052 71.1323C163.954 70.9123 163.823 70.719 163.66 70.5419C163.497 70.3702 163.302 70.2306 163.074 70.1232C162.84 70.0159 162.569 69.9622 162.259 69.9622C161.949 69.9622 161.678 70.0159 161.444 70.1232C161.21 70.2306 161.015 70.3702 160.857 70.5419C160.694 70.7137 160.569 70.9123 160.466 71.1323C160.368 71.3524 160.287 71.5725 160.233 71.7925C160.178 72.0126 160.14 72.2219 160.119 72.4205C160.102 72.6191 160.091 72.7909 160.091 72.9304C160.091 73.1344 160.113 73.4028 160.162 73.7356C160.211 74.0683 160.309 74.3904 160.461 74.7071C160.613 75.0237 160.83 75.2975 161.118 75.5283C161.406 75.7591 161.786 75.8718 162.259 75.8718C162.731 75.8718 163.112 75.7591 163.4 75.5283C163.688 75.2975 163.905 75.0291 164.057 74.7071C164.209 74.3904 164.307 74.063 164.356 73.7356C164.405 73.4028 164.426 73.1344 164.426 72.9304Z" fill="#121212"/>
<path d="M167.333 75.7165C167.512 75.7165 167.637 75.6628 167.702 75.5555C167.767 75.4481 167.8 75.271 167.8 75.0187V70.1182H166.806V69.4902H172.461V71.5889H171.754V71.0683C171.754 70.7409 171.657 70.4993 171.456 70.349C171.26 70.1934 171.005 70.1182 170.706 70.1182H169.12V75.7165H170.212V76.3445H166.811V75.7165H167.333Z" fill="#121212"/>
<path d="M173.346 72.9304C173.346 72.3615 173.433 71.8516 173.618 71.4061C173.797 70.9606 174.047 70.5795 174.367 70.2735C174.688 69.9676 175.068 69.7314 175.503 69.5758C175.937 69.4147 176.405 69.3396 176.904 69.3396C177.415 69.3396 177.882 69.4201 178.317 69.5758C178.746 69.7368 179.121 69.9676 179.441 70.2735C179.762 70.5795 180.011 70.9606 180.191 71.4061C180.37 71.8516 180.462 72.3615 180.462 72.9304C180.462 73.4994 180.37 74.0039 180.191 74.4494C180.011 74.8949 179.762 75.2653 179.441 75.5712C179.121 75.8772 178.746 76.108 178.317 76.2636C177.888 76.4246 177.415 76.4998 176.904 76.4998C176.405 76.4998 175.937 76.4193 175.503 76.2636C175.068 76.1026 174.688 75.8718 174.367 75.5712C174.047 75.2653 173.797 74.8949 173.618 74.4494C173.433 74.0039 173.346 73.4994 173.346 72.9304ZM179.066 72.9304C179.066 72.7909 179.055 72.6191 179.039 72.4205C179.023 72.2219 178.985 72.0072 178.925 71.7925C178.871 71.5725 178.789 71.3524 178.691 71.1323C178.594 70.9123 178.463 70.719 178.3 70.5419C178.137 70.3702 177.942 70.2306 177.714 70.1232C177.48 70.0159 177.208 69.9622 176.899 69.9622C176.589 69.9622 176.318 70.0159 176.084 70.1232C175.85 70.2306 175.655 70.3702 175.497 70.5419C175.334 70.7137 175.209 70.9123 175.106 71.1323C175.008 71.3524 174.927 71.5725 174.873 71.7925C174.818 72.0126 174.78 72.2219 174.759 72.4205C174.742 72.6191 174.731 72.7909 174.731 72.9304C174.731 73.1344 174.753 73.4028 174.802 73.7356C174.851 74.0683 174.949 74.3904 175.101 74.7071C175.253 75.0237 175.47 75.2975 175.758 75.5283C176.046 75.7591 176.426 75.8718 176.899 75.8718C177.371 75.8718 177.752 75.7591 178.04 75.5283C178.328 75.2975 178.545 75.0291 178.697 74.7071C178.849 74.3904 178.947 74.063 178.996 73.7356C179.045 73.4028 179.066 73.1344 179.066 72.9304Z" fill="#121212"/>
<path d="M186.823 78.8672H187.828C187.942 78.8672 188.062 78.8511 188.182 78.8242C188.306 78.7974 188.426 78.7384 188.54 78.6471C188.66 78.5559 188.774 78.427 188.893 78.2553C189.013 78.0835 189.127 77.8527 189.241 77.5629L189.637 76.527L186.59 70.1129H185.612V69.4849H189.029V70.1129H188.687C188.404 70.1129 188.263 70.2202 188.263 70.4349C188.263 70.5369 188.312 70.6979 188.404 70.9126L189.849 74.0472C189.914 74.1868 189.98 74.3585 190.045 74.5625C190.11 74.7664 190.164 74.9382 190.202 75.0831H190.273C190.3 74.9704 190.338 74.8309 190.387 74.6698C190.436 74.5088 190.496 74.3156 190.572 74.1009L191.761 70.8804C191.81 70.7784 191.837 70.6872 191.848 70.612C191.859 70.5369 191.865 70.4725 191.865 70.4134C191.865 70.3007 191.832 70.2202 191.767 70.1773C191.702 70.129 191.62 70.1075 191.528 70.1075H191.044V69.4795H193.961V70.1075H193.706C193.434 70.1075 193.212 70.1934 193.049 70.3598C192.886 70.5261 192.761 70.7033 192.69 70.8911L190.24 77.3428C190.039 77.8742 189.838 78.3143 189.637 78.6579C189.436 79.0014 189.219 79.2751 189.002 79.4683C188.779 79.6616 188.551 79.8011 188.306 79.8763C188.067 79.9514 187.801 79.989 187.519 79.989C187.367 79.989 187.231 79.9729 187.117 79.946C186.997 79.9192 186.899 79.887 186.829 79.8494V78.8672H186.823Z" fill="#121212"/>
<path d="M195.265 79.216C195.444 79.216 195.569 79.1623 195.634 79.0549C195.7 78.9476 195.732 78.7705 195.732 78.5182V70.1181H194.597V69.4901H197.036V70.8052H197.063C197.188 70.628 197.335 70.4509 197.503 70.2738C197.672 70.0967 197.867 69.9356 198.084 69.7961C198.302 69.6565 198.546 69.5438 198.812 69.4579C199.084 69.372 199.372 69.3345 199.681 69.3345C200.143 69.3345 200.545 69.4203 200.887 69.5867C201.23 69.7531 201.507 69.9893 201.729 70.2952C201.952 70.6012 202.115 70.9554 202.224 71.3687C202.332 71.782 202.387 72.2275 202.387 72.7106C202.387 73.2796 202.311 73.8002 202.153 74.2618C201.996 74.7288 201.778 75.126 201.496 75.4587C201.213 75.7915 200.871 76.0492 200.475 76.2263C200.078 76.4088 199.638 76.5 199.155 76.5C198.704 76.5 198.307 76.4195 197.97 76.2639C197.634 76.1028 197.324 75.9042 197.041 75.6627H197.014C197.025 75.7915 197.031 75.9311 197.036 76.076C197.041 76.2209 197.041 76.3283 197.041 76.4034V79.216H198.204V79.844H194.733V79.216H195.265ZM201.001 72.8448C201.001 72.5657 200.98 72.2758 200.931 71.9753C200.882 71.6747 200.79 71.4063 200.654 71.1648C200.518 70.9232 200.328 70.7246 200.094 70.569C199.861 70.4133 199.557 70.3382 199.187 70.3382C198.981 70.3382 198.753 70.3704 198.497 70.4455C198.247 70.5153 198.014 70.6227 197.796 70.7622C197.579 70.9018 197.395 71.0789 197.253 71.2936C197.107 71.5083 197.036 71.7606 197.036 72.0504V74.8898C197.128 74.9757 197.232 75.0616 197.34 75.1474C197.449 75.2387 197.579 75.3138 197.731 75.3836C197.883 75.4534 198.052 75.5124 198.242 75.55C198.432 75.5929 198.649 75.6144 198.894 75.6144C199.524 75.6144 200.035 75.3836 200.426 74.9274C200.811 74.4765 201.001 73.7787 201.001 72.8448Z" fill="#121212"/>
<path d="M203.413 72.9304C203.413 72.3615 203.5 71.8516 203.685 71.4061C203.864 70.9606 204.114 70.5795 204.435 70.2735C204.755 69.9676 205.135 69.7314 205.57 69.5758C206.005 69.4147 206.472 69.3396 206.972 69.3396C207.482 69.3396 207.949 69.4201 208.384 69.5758C208.813 69.7368 209.188 69.9676 209.508 70.2735C209.829 70.5795 210.079 70.9606 210.258 71.4061C210.437 71.8516 210.53 72.3615 210.53 72.9304C210.53 73.4994 210.437 74.0039 210.258 74.4494C210.079 74.8949 209.829 75.2653 209.508 75.5712C209.188 75.8772 208.813 76.108 208.384 76.2636C207.955 76.4246 207.482 76.4998 206.972 76.4998C206.472 76.4998 206.005 76.4193 205.57 76.2636C205.135 76.1026 204.755 75.8718 204.435 75.5712C204.114 75.2653 203.864 74.8949 203.685 74.4494C203.5 74.0039 203.413 73.4994 203.413 72.9304ZM209.139 72.9304C209.139 72.7909 209.128 72.6191 209.112 72.4205C209.096 72.2219 209.058 72.0072 208.998 71.7925C208.943 71.5725 208.862 71.3524 208.764 71.1323C208.666 70.9123 208.536 70.719 208.373 70.5419C208.21 70.3702 208.015 70.2306 207.786 70.1232C207.553 70.0159 207.281 69.9622 206.972 69.9622C206.662 69.9622 206.39 70.0159 206.157 70.1232C205.923 70.2306 205.728 70.3702 205.57 70.5419C205.407 70.7137 205.282 70.9123 205.179 71.1323C205.081 71.3524 205 71.5725 204.945 71.7925C204.891 72.0126 204.853 72.2219 204.831 72.4205C204.815 72.6191 204.804 72.7909 204.804 72.9304C204.804 73.1344 204.826 73.4028 204.875 73.7356C204.924 74.0683 205.021 74.3904 205.173 74.7071C205.326 75.0237 205.543 75.2975 205.831 75.5283C206.119 75.7591 206.499 75.8718 206.972 75.8718C207.444 75.8718 207.824 75.7591 208.112 75.5283C208.4 75.2975 208.618 75.0291 208.77 74.7071C208.922 74.3904 209.019 74.063 209.068 73.7356C209.112 73.4028 209.139 73.1344 209.139 72.9304Z" fill="#121212"/>
<path d="M212.04 75.7165C212.219 75.7165 212.344 75.6628 212.409 75.5555C212.474 75.4481 212.507 75.271 212.507 75.0187V70.1182H211.513V69.4902H215.777C216.581 69.4902 217.168 69.6352 217.543 69.9304C217.917 70.2256 218.102 70.6389 218.102 71.1703C218.102 71.3313 218.075 71.4923 218.026 71.6533C217.972 71.8143 217.896 71.97 217.787 72.1149C217.678 72.2598 217.532 72.3833 217.352 72.496C217.173 72.6034 216.956 72.6839 216.701 72.7429V72.7698C217.228 72.8449 217.63 73.0167 217.896 73.2958C218.167 73.5695 218.298 73.9399 218.298 74.4068C218.298 74.6376 218.254 74.8738 218.162 75.1046C218.07 75.3354 217.928 75.5447 217.727 75.7272C217.526 75.9097 217.266 76.06 216.94 76.1727C216.614 76.2908 216.217 76.3499 215.745 76.3499H211.507V75.7219H212.04V75.7165ZM215.326 72.496C215.75 72.496 216.087 72.3887 216.337 72.1793C216.587 71.97 216.711 71.648 216.711 71.2186C216.711 70.918 216.603 70.6603 216.391 70.4403C216.179 70.2202 215.81 70.1129 215.294 70.1129H213.805V72.4906H215.326V72.496ZM215.326 75.7165C215.853 75.7165 216.25 75.6038 216.516 75.373C216.782 75.1475 216.912 74.8255 216.912 74.4068C216.912 74.176 216.869 73.9774 216.782 73.8164C216.695 73.6554 216.587 73.5212 216.44 73.4192C216.299 73.3172 216.13 73.2421 215.935 73.1992C215.739 73.1508 215.538 73.1294 215.321 73.1294H213.805V75.7219H215.326V75.7165Z" fill="#121212"/>
<path d="M219.851 75.7165C220.031 75.7165 220.155 75.6628 220.221 75.5555C220.286 75.4481 220.318 75.271 220.318 75.0187V70.1182H219.324V69.4902H222.567V70.1182H222.1C221.921 70.1182 221.796 70.1719 221.731 70.2793C221.666 70.3866 221.633 70.5637 221.633 70.816V72.496H225.175V70.1182H224.241V69.4902H227.484V70.1182H226.957C226.777 70.1182 226.652 70.1719 226.587 70.2793C226.522 70.3866 226.489 70.5637 226.489 70.816V75.7165H227.484V76.3445H224.241V75.7165H224.724C224.887 75.7165 225.001 75.6628 225.072 75.5555C225.142 75.4481 225.18 75.271 225.18 75.0187V73.1723H221.638V75.7219H222.573V76.3499H219.33V75.7219H219.851V75.7165Z" fill="#121212"/>
<path d="M229.423 75.7165L231.194 73.5051C230.824 73.4407 230.526 73.3387 230.287 73.1992C230.048 73.0596 229.863 72.9039 229.727 72.7322C229.591 72.5604 229.493 72.3779 229.445 72.1793C229.39 71.9861 229.369 71.7929 229.369 71.605C229.369 70.9341 229.597 70.4134 230.048 70.0431C230.498 69.6727 231.107 69.4902 231.862 69.4902H236.072V70.1182H235.55C235.371 70.1182 235.246 70.1719 235.181 70.2793C235.116 70.3866 235.083 70.5637 235.083 70.816V75.7165H236.077V76.3445H232.834V75.7165H233.318C233.481 75.7165 233.595 75.6628 233.665 75.5555C233.736 75.4481 233.774 75.271 233.774 75.0187V73.591H232.628L230.531 76.3499H228.489V75.7219H229.423V75.7165ZM233.785 70.1129H232.297C231.824 70.1129 231.449 70.2363 231.172 70.4778C230.895 70.7194 230.754 71.0897 230.754 71.5835C230.754 71.8519 230.797 72.0774 230.884 72.2491C230.971 72.4209 231.085 72.5604 231.232 72.6678C231.378 72.7751 231.547 72.8503 231.742 72.8932C231.938 72.9361 232.144 72.9576 232.373 72.9576H233.79V70.1129H233.785Z" fill="#121212"/>
<path d="M48.4596 47.4356C48.4596 43.2275 45.2274 39.7655 41.0772 39.3468V15.8212C41.0772 15.3704 40.7078 15 40.2461 15H40.2081C39.7518 15 39.3769 15.365 39.3769 15.8212V39.3468C35.2322 39.7655 32 43.2275 32 47.4356C32 51.6437 35.2322 55.1057 39.3824 55.5244V79.05C39.3824 79.5008 39.7518 79.8712 40.2135 79.8712H40.2515C40.7078 79.8712 41.0827 79.5062 41.0827 79.05V55.5244C45.2274 55.1057 48.4596 51.6437 48.4596 47.4356Z" fill="#121212"/>
</g>
<rect x="1" y="1" width="279" height="92" stroke="url(#paint0_radial)" stroke-width="2"/>
<defs>
<radialGradient id="paint0_radial" cx="0" cy="0" r="1" gradientUnits="userSpaceOnUse" gradientTransform="translate(5.6013 77.0965) rotate(-22.6874) scale(368.06 157.634)">
<stop stop-color="#5BB354"/>
<stop offset="0.1664" stop-color="#00AC8E"/>
<stop offset="0.4074" stop-color="#00A3CE"/>
<stop offset="0.5157" stop-color="#009FE3"/>
<stop offset="0.5569" stop-color="#009CE1"/>
<stop offset="0.6193" stop-color="#0095D8"/>
<stop offset="0.695" stop-color="#0088C9"/>
<stop offset="0.7813" stop-color="#0D72B3"/>
<stop offset="0.8764" stop-color="#515394"/>
<stop offset="0.9776" stop-color="#682472"/>
<stop offset="0.9924" stop-color="#6A196E"/>
</radialGradient>
<clipPath id="clip0">
<rect width="218" height="65" fill="white" transform="translate(32 15)"/>
</clipPath>
</defs>
</svg>
