<svg width="224" height="70" viewBox="0 0 224 70" fill="none" xmlns="http://www.w3.org/2000/svg">
<path d="M36.8108 10.931H38.0673V11.1748C38.0673 11.5498 38.1428 11.8498 38.2987 12.0749C38.4546 12.2999 38.6435 12.4734 38.8703 12.5952C39.097 12.7171 39.3426 12.7921 39.6072 12.825C39.8717 12.8578 40.1173 12.8765 40.3346 12.8765C41.1943 12.8765 41.8272 12.6562 42.2429 12.2202C42.6586 11.7842 42.8664 11.2169 42.8664 10.5137C42.8664 10.2184 42.8097 9.95116 42.6917 9.72145C42.5783 9.49173 42.4177 9.29952 42.2146 9.14481C42.0115 8.99011 41.7706 8.87759 41.4919 8.7979C41.2132 8.72289 40.9109 8.6807 40.5802 8.6807H39.2056V7.92123H40.5519C40.7928 7.92123 41.0384 7.87903 41.2887 7.79934C41.5391 7.71964 41.7658 7.59306 41.9689 7.42429C42.1721 7.25552 42.3327 7.04456 42.4602 6.78671C42.583 6.52887 42.6491 6.21945 42.6491 5.85378C42.6491 5.59594 42.6019 5.35685 42.5027 5.13651C42.4082 4.91617 42.2665 4.72396 42.0823 4.56456C41.8981 4.40048 41.6761 4.2739 41.4163 4.17545C41.1565 4.08169 40.8683 4.03012 40.5471 4.03012C40.3157 4.03012 40.0606 4.04887 39.7866 4.08638C39.5221 4.13326 39.2671 4.21764 39.0356 4.34422C38.8041 4.4708 38.6105 4.66301 38.4499 4.91617C38.2893 5.16932 38.209 5.51155 38.209 5.94286V6.14444H36.9525V4.52706C37.4626 4.12388 38.0342 3.81447 38.6672 3.60351C39.3001 3.38786 39.9756 3.28003 40.6983 3.28003C41.8178 3.28003 42.6728 3.51443 43.2727 3.98324C43.8678 4.45205 44.1701 5.07556 44.1701 5.85847C44.1701 6.19133 44.104 6.49605 43.967 6.76327C43.83 7.03049 43.66 7.2649 43.4521 7.45711C43.2443 7.65401 43.0176 7.8134 42.7672 7.93529C42.5169 8.06187 42.276 8.14625 42.0445 8.19313V8.24939C42.4319 8.29627 42.7672 8.39003 43.0648 8.53068C43.3577 8.67132 43.6033 8.84478 43.8017 9.05574C44.0001 9.26671 44.1465 9.50111 44.241 9.76833C44.3355 10.0309 44.3874 10.3028 44.3874 10.5794C44.3874 11.0294 44.2929 11.442 44.104 11.8123C43.9151 12.1874 43.6458 12.5062 43.2963 12.7734C42.9467 13.0406 42.5169 13.2516 42.0162 13.4063C41.5155 13.561 40.9581 13.636 40.3393 13.636C39.5788 13.636 38.9128 13.5329 38.346 13.3266C37.7791 13.1203 37.269 12.8296 36.8155 12.4546V10.931H36.8108Z" fill="#1D1E1C"/>
<path d="M45.7007 11.6248C45.7007 11.1654 45.8046 10.7903 46.0124 10.4997C46.2203 10.209 46.4895 9.984 46.8202 9.82461C47.1508 9.66521 47.524 9.55739 47.9349 9.50113C48.3459 9.44487 48.7521 9.41674 49.1583 9.41674H50.5329V8.76979C50.5329 8.16503 50.3818 7.71966 50.0794 7.41962C49.7771 7.12427 49.404 6.97425 48.96 6.97425C48.7946 6.97425 48.6293 6.99301 48.4593 7.02582C48.2892 7.05864 48.1428 7.1149 48.0105 7.19928C47.8783 7.27898 47.7743 7.3868 47.694 7.52276C47.6137 7.65871 47.5712 7.8228 47.5712 8.02438V8.48382H46.3714V7.3493C46.7588 7.04458 47.2075 6.79142 47.7318 6.58983C48.2514 6.38824 48.8466 6.28979 49.5079 6.28979C49.9236 6.28979 50.2778 6.35074 50.5754 6.46794C50.873 6.58983 51.1186 6.7586 51.3123 6.97894C51.506 7.19928 51.6477 7.46181 51.7374 7.76654C51.8272 8.07126 51.8744 8.41349 51.8744 8.78385V12.8297H53.0317V13.4766H50.5424V12.2015H50.514C50.377 12.3562 50.2212 12.5156 50.0369 12.6843C49.8527 12.8531 49.6449 13.0078 49.4134 13.1485C49.182 13.2938 48.9316 13.411 48.6529 13.5001C48.379 13.5891 48.0861 13.636 47.7791 13.636C47.4815 13.636 47.2028 13.5891 46.9477 13.4907C46.6926 13.3969 46.4706 13.261 46.2911 13.0875C46.1069 12.914 45.9652 12.7031 45.8566 12.4546C45.7526 12.2108 45.7007 11.9342 45.7007 11.6248ZM50.5282 10.0918H49.3001C49.0686 10.0918 48.823 10.1106 48.5679 10.1434C48.3128 10.1762 48.0766 10.2465 47.8594 10.3497C47.6421 10.4528 47.4626 10.6028 47.3256 10.7857C47.1839 10.9732 47.1178 11.2123 47.1178 11.5123C47.1178 11.8545 47.217 12.1265 47.4153 12.314C47.6137 12.5062 47.9397 12.5999 48.3931 12.5999C48.5679 12.5999 48.7757 12.5718 49.0214 12.5156C49.267 12.4593 49.5032 12.3655 49.7299 12.2343C49.9566 12.103 50.1456 11.9389 50.3015 11.7327C50.4573 11.5264 50.5329 11.2732 50.5329 10.9638V10.0918H50.5282Z" fill="#1D1E1C"/>
<path d="M54.7367 12.8297C54.9209 12.8297 55.0438 12.7734 55.1146 12.6656C55.1807 12.5578 55.2138 12.3703 55.2138 12.1124V7.09149H54.203V6.44922H62.4409V7.09617H61.9071C61.7229 7.09617 61.6001 7.15243 61.5292 7.26026C61.4631 7.36808 61.43 7.55561 61.43 7.81345V12.8344H62.4409V13.4813H59.1297V12.8344H59.6209C59.7862 12.8344 59.9043 12.7781 59.9752 12.6703C60.046 12.5625 60.0838 12.3749 60.0838 12.1171V7.09149H56.5553V12.8297H57.5095V13.4766H54.1982V12.8297H54.7367Z" fill="#1D1E1C"/>
<path d="M63.5133 11.6248C63.5133 11.1654 63.6172 10.7903 63.8251 10.4997C64.0329 10.209 64.3021 9.984 64.6328 9.82461C64.9634 9.66521 65.3366 9.55739 65.7476 9.50113C66.1585 9.44487 66.5647 9.41674 66.971 9.41674H68.3455V8.76979C68.3455 8.16503 68.1944 7.71966 67.8921 7.41962C67.5898 7.12427 67.2166 6.97425 66.7726 6.97425C66.6072 6.97425 66.4419 6.99301 66.2719 7.02582C66.1018 7.05864 65.9554 7.1149 65.8231 7.19928C65.6909 7.27898 65.587 7.3868 65.5066 7.52276C65.4263 7.65871 65.3838 7.8228 65.3838 8.02438V8.48382H64.1841V7.3493C64.5714 7.04458 65.0201 6.79142 65.5444 6.58983C66.064 6.38824 66.6592 6.28979 67.3205 6.28979C67.7362 6.28979 68.0905 6.35074 68.388 6.46794C68.6856 6.58983 68.9312 6.7586 69.1249 6.97894C69.3186 7.19928 69.4603 7.46181 69.55 7.76654C69.6398 8.07126 69.687 8.41349 69.687 8.78385V12.8297H70.8443V13.4766H68.3597V12.2015H68.3314C68.1944 12.3562 68.0385 12.5156 67.8543 12.6843C67.6701 12.8531 67.4622 13.0078 67.2308 13.1485C66.9993 13.2938 66.7442 13.411 66.4703 13.5001C66.1963 13.5891 65.9034 13.636 65.5964 13.636C65.2988 13.636 65.0201 13.5891 64.7651 13.4907C64.51 13.3969 64.288 13.261 64.1085 13.0875C63.9243 12.914 63.7825 12.7031 63.6739 12.4546C63.5653 12.2108 63.5133 11.9342 63.5133 11.6248ZM68.3408 10.0918H67.1127C66.8812 10.0918 66.6356 10.1106 66.3805 10.1434C66.1254 10.1762 65.8893 10.2465 65.672 10.3497C65.4547 10.4528 65.2752 10.6028 65.1382 10.7857C64.9965 10.9732 64.9304 11.2123 64.9304 11.5123C64.9304 11.8545 65.0296 12.1265 65.228 12.314C65.4264 12.5062 65.7523 12.5999 66.2057 12.5999C66.3805 12.5999 66.5884 12.5718 66.834 12.5156C67.0796 12.4593 67.3158 12.3655 67.5425 12.2343C67.7693 12.103 67.9582 11.9389 68.1141 11.7327C68.2699 11.5264 68.3455 11.2732 68.3455 10.9638V10.0918H68.3408Z" fill="#1D1E1C"/>
<path d="M72.6015 12.8297C72.7668 12.6187 72.9132 12.3937 73.0502 12.1546C73.1872 11.9155 73.31 11.6483 73.4186 11.3529C73.5273 11.0576 73.6265 10.7247 73.7162 10.3638C73.8013 9.99809 73.8816 9.58554 73.9477 9.11674L74.1366 7.84158C74.1461 7.7947 74.1508 7.7525 74.1508 7.71969C74.1508 7.68687 74.1508 7.64468 74.1508 7.5978C74.1508 7.45247 74.113 7.33527 74.0374 7.23682C73.9619 7.14305 73.8107 7.09149 73.5887 7.09149H73.1966V6.44922H79.6868V7.09617H79.1531C78.9689 7.09617 78.846 7.15243 78.7752 7.26026C78.7091 7.36808 78.676 7.55561 78.676 7.81345V12.8344H80.0647V15.3003H79.342V14.6112C79.342 14.1986 79.2475 13.908 79.0539 13.7345C78.8602 13.561 78.5815 13.4766 78.2178 13.4766H73.6501C73.2817 13.4766 73.003 13.561 72.8093 13.7345C72.6156 13.908 72.5212 14.1986 72.5212 14.6112V15.3003H71.7985V12.8344H72.6015V12.8297ZM77.3298 7.09149H75.7238C75.4545 7.09149 75.275 7.16181 75.1805 7.30714C75.0908 7.45247 75.0294 7.61186 75.001 7.7947L74.7838 9.11674C74.6373 9.99809 74.4673 10.7341 74.2689 11.3248C74.0705 11.9202 73.8296 12.4218 73.5415 12.8297H77.3298V7.09149Z" fill="#1D1E1C"/>
<path d="M81.7606 12.8297C81.9448 12.8297 82.0676 12.7734 82.1385 12.6656C82.2046 12.5578 82.2377 12.3703 82.2377 12.1124V7.09149H81.2268V6.44922H84.538V7.09617H84.061C83.8767 7.09617 83.7539 7.15243 83.6831 7.26026C83.6169 7.36808 83.5839 7.55561 83.5839 7.81345V9.53397H87.1974V7.09617H86.2432V6.44922H89.5545V7.09617H89.0207C88.8365 7.09617 88.7137 7.15243 88.6475 7.26026C88.5814 7.36808 88.5484 7.55561 88.5484 7.81345V12.8344H89.5592V13.4813H86.248V12.8344H86.7392C86.9045 12.8344 87.0226 12.7781 87.0935 12.6703C87.1643 12.5625 87.2021 12.3749 87.2021 12.1171V10.2231H83.5886V12.8344H84.5428V13.4813H81.2315V12.8344H81.7606V12.8297Z" fill="#1D1E1C"/>
<path d="M90.414 9.97462C90.414 9.3933 90.5038 8.86824 90.688 8.40881C90.8722 7.94937 91.1273 7.56026 91.4532 7.24616C91.7791 6.93206 92.1664 6.69297 92.6105 6.52889C93.0545 6.36949 93.5268 6.28979 94.0417 6.28979C94.5613 6.28979 95.0431 6.36949 95.4824 6.53357C95.9217 6.69766 96.3043 6.93675 96.6302 7.25085C96.9562 7.56495 97.2112 7.95406 97.3955 8.41349C97.5797 8.87293 97.6694 9.3933 97.6694 9.97931C97.6694 10.5653 97.5797 11.081 97.3955 11.5358C97.2112 11.9905 96.9562 12.3749 96.6302 12.6843C96.3043 12.9937 95.917 13.2328 95.4824 13.3922C95.0431 13.5563 94.566 13.636 94.0417 13.636C93.5316 13.636 93.0545 13.5563 92.6105 13.3922C92.1664 13.2282 91.7838 12.9937 91.4532 12.6843C91.1273 12.3749 90.8722 11.9905 90.688 11.5358C90.5038 11.081 90.414 10.5606 90.414 9.97462ZM96.2523 9.97462C96.2523 9.82929 96.2429 9.65583 96.224 9.44956C96.2051 9.24328 96.1673 9.02763 96.1059 8.8026C96.0492 8.57758 95.9689 8.35255 95.8697 8.12752C95.7705 7.90249 95.6383 7.70091 95.473 7.52276C95.3076 7.34461 95.1092 7.20397 94.8731 7.09146C94.6369 6.98363 94.3582 6.92737 94.0417 6.92737C93.7252 6.92737 93.4465 6.98363 93.2104 7.09146C92.9742 7.20397 92.7758 7.34461 92.6105 7.52276C92.4451 7.70091 92.3129 7.90249 92.2137 8.12752C92.1145 8.35255 92.0342 8.57758 91.9728 8.8026C91.9161 9.02763 91.8783 9.24328 91.8547 9.44956C91.8358 9.65583 91.8263 9.82929 91.8263 9.97462C91.8263 10.1856 91.85 10.4622 91.8972 10.7997C91.9444 11.1373 92.0484 11.4701 92.1995 11.7983C92.3554 12.1218 92.5774 12.403 92.8703 12.6375C93.1631 12.8719 93.5505 12.9891 94.0323 12.9891C94.5141 12.9891 94.9014 12.8719 95.1943 12.6375C95.4871 12.403 95.7139 12.1218 95.865 11.7983C96.0209 11.4748 96.1201 11.142 96.1673 10.7997C96.2287 10.4622 96.2523 10.1856 96.2523 9.97462Z" fill="#1D1E1C"/>
<path d="M103.914 9.14502V10.1764H99.4737V9.14502H103.914Z" fill="#1D1E1C"/>
<path d="M105.865 8.52609C105.865 7.72443 105.973 6.99777 106.191 6.35082C106.408 5.70386 106.725 5.15536 107.145 4.70062C107.565 4.24587 108.071 3.89427 108.671 3.6458C109.266 3.39733 109.951 3.27075 110.725 3.27075C111.354 3.27075 111.954 3.3692 112.525 3.57079C113.097 3.77238 113.63 4.09585 114.122 4.54591V6.16798H112.865V5.97577C112.865 5.54447 112.79 5.20224 112.634 4.94908C112.478 4.69593 112.294 4.49903 112.072 4.36307C111.85 4.22243 111.613 4.13805 111.354 4.09585C111.099 4.05835 110.862 4.0396 110.655 4.0396C110.078 4.0396 109.578 4.17555 109.167 4.44746C108.751 4.71937 108.411 5.07566 108.146 5.50696C107.882 5.94296 107.683 6.42583 107.556 6.95558C107.424 7.48533 107.362 8.0104 107.362 8.52609C107.362 9.12147 107.424 9.67936 107.551 10.2044C107.679 10.7295 107.868 11.1936 108.127 11.5874C108.387 11.9812 108.718 12.2953 109.124 12.525C109.53 12.7547 110.012 12.8672 110.57 12.8672C110.782 12.8672 111.018 12.8532 111.283 12.8251C111.547 12.7969 111.798 12.7266 112.034 12.6094C112.27 12.4969 112.468 12.3281 112.629 12.1078C112.79 11.8874 112.865 11.5921 112.865 11.217V10.9733H114.122V12.4922C113.649 12.8579 113.101 13.1345 112.483 13.3314C111.859 13.5283 111.221 13.6267 110.57 13.6267C109.913 13.6267 109.299 13.533 108.727 13.3407C108.156 13.1485 107.655 12.8532 107.23 12.4453C106.805 12.0375 106.474 11.5124 106.233 10.8654C105.983 10.2279 105.865 9.44495 105.865 8.52609Z" fill="#1D1E1C"/>
<path d="M115.808 12.8297C115.992 12.8297 116.115 12.7734 116.186 12.6656C116.252 12.5578 116.285 12.3703 116.285 12.1124V7.09149H115.274V6.44922H118.586V7.09617H118.108C117.924 7.09617 117.801 7.15243 117.731 7.26026C117.664 7.36808 117.631 7.55561 117.631 7.81345V10.9263C117.631 11.0904 117.622 11.2873 117.608 11.517C117.594 11.7467 117.575 11.9436 117.556 12.103H117.598C117.683 11.9671 117.764 11.8405 117.83 11.7233C117.896 11.6014 117.967 11.503 118.033 11.4139L121.457 6.44922H123.64V7.09617H123.106C122.922 7.09617 122.799 7.15243 122.728 7.26026C122.662 7.36808 122.629 7.55561 122.629 7.81345V12.8344H123.64V13.4813H120.329V12.8344H120.82C120.985 12.8344 121.103 12.7781 121.174 12.6703C121.245 12.5625 121.283 12.3749 121.283 12.1171V9.00422C121.283 8.84014 121.287 8.64324 121.306 8.41352C121.32 8.18381 121.339 7.98691 121.358 7.82751H121.316C121.231 7.96347 121.15 8.09005 121.084 8.20725C121.018 8.32914 120.947 8.42759 120.881 8.51666L117.457 13.4813H115.274V12.8344H115.808V12.8297Z" fill="#1D1E1C"/>
<path d="M124.726 9.56214C124.726 8.54014 124.83 7.69629 125.038 7.03527C125.246 6.37425 125.524 5.8445 125.869 5.43663C126.214 5.02877 126.62 4.72404 127.078 4.51308C127.537 4.30212 128.014 4.12866 128.519 3.99739C129.029 3.86613 129.445 3.74892 129.771 3.65516C130.092 3.5614 130.357 3.46764 130.56 3.37388C130.763 3.2848 130.928 3.17698 131.051 3.0504C131.178 2.92382 131.301 2.76912 131.429 2.5769L131.793 2.67535C131.717 3.0504 131.613 3.3645 131.49 3.62235C131.363 3.88019 131.188 4.10522 130.956 4.28805C130.725 4.47558 130.427 4.63497 130.068 4.77561C129.705 4.91626 129.256 5.05221 128.717 5.18348C128.217 5.31005 127.773 5.4507 127.385 5.6054C126.998 5.7648 126.672 5.97576 126.403 6.23829C126.134 6.50083 125.921 6.83837 125.76 7.24154C125.6 7.64941 125.496 8.15572 125.449 8.76986H125.52C125.742 8.12759 126.115 7.6119 126.639 7.22279C127.163 6.82899 127.815 6.63678 128.599 6.63678C129.648 6.63678 130.475 6.94619 131.079 7.56971C131.679 8.19322 131.981 9.06521 131.981 10.195C131.981 10.6826 131.892 11.1373 131.712 11.5593C131.533 11.9812 131.287 12.3422 130.966 12.6516C130.649 12.9563 130.272 13.2001 129.832 13.3782C129.393 13.5564 128.916 13.6455 128.396 13.6455C127.796 13.6455 127.272 13.547 126.814 13.3501C126.356 13.1532 125.973 12.8766 125.666 12.5156C125.359 12.1546 125.128 11.728 124.972 11.2264C124.806 10.7154 124.726 10.1622 124.726 9.56214ZM130.555 10.2044C130.555 9.80123 130.512 9.42619 130.432 9.07927C130.352 8.73235 130.224 8.42763 130.05 8.17447C129.875 7.92131 129.653 7.72441 129.383 7.57908C129.114 7.43375 128.793 7.36343 128.415 7.36343C128.061 7.36343 127.744 7.44782 127.475 7.61659C127.206 7.78536 126.974 8.0057 126.79 8.27761C126.601 8.54952 126.46 8.86362 126.365 9.21054C126.271 9.55745 126.219 9.90906 126.219 10.2654C126.219 10.5795 126.252 10.8982 126.318 11.2217C126.384 11.5405 126.502 11.8359 126.672 12.0984C126.842 12.3609 127.064 12.5766 127.338 12.7453C127.612 12.9141 127.962 12.9938 128.387 12.9938C128.802 12.9938 129.147 12.9047 129.426 12.7219C129.705 12.5391 129.931 12.314 130.097 12.0421C130.267 11.7702 130.385 11.4702 130.451 11.1373C130.522 10.7998 130.555 10.4951 130.555 10.2044Z" fill="#1D1E1C"/>
<path d="M133.517 12.8297C133.701 12.8297 133.824 12.7734 133.894 12.6656C133.961 12.5578 133.994 12.3703 133.994 12.1124V7.09149H132.983V6.44922H136.294V7.09617H135.817C135.633 7.09617 135.51 7.15243 135.439 7.26026C135.373 7.36808 135.34 7.55561 135.34 7.81345V10.9263C135.34 11.0904 135.33 11.2873 135.316 11.517C135.302 11.7467 135.283 11.9436 135.264 12.103H135.307C135.392 11.9671 135.472 11.8405 135.538 11.7233C135.604 11.6061 135.675 11.503 135.741 11.4139L139.166 6.44922H141.348V7.09617H140.815C140.63 7.09617 140.508 7.15243 140.437 7.26026C140.371 7.36808 140.337 7.55561 140.337 7.81345V12.8344H141.348V13.4813H138.037V12.8344H138.528C138.694 12.8344 138.812 12.7781 138.883 12.6703C138.953 12.5625 138.991 12.3749 138.991 12.1171V9.00422C138.991 8.84014 138.996 8.64324 139.015 8.41352C139.029 8.18381 139.048 7.98691 139.067 7.82751H139.024C138.939 7.96347 138.859 8.09005 138.793 8.20725C138.727 8.32914 138.656 8.42759 138.59 8.51666L135.165 13.4813H132.983V12.8344H133.517V12.8297Z" fill="#1D1E1C"/>
<path d="M143.091 16.4209C143.276 16.4209 143.398 16.3646 143.469 16.2568C143.535 16.149 143.568 15.9614 143.568 15.7036V7.0916H142.411V6.44933H144.896V7.7995H144.924C145.047 7.61667 145.198 7.43383 145.373 7.25568C145.548 7.07285 145.741 6.91345 145.963 6.76812C146.185 6.62279 146.431 6.51028 146.71 6.42589C146.984 6.34151 147.281 6.29932 147.598 6.29932C148.07 6.29932 148.481 6.3837 148.826 6.55716C149.171 6.73062 149.459 6.96971 149.686 7.28381C149.912 7.59323 150.082 7.9589 150.191 8.38082C150.3 8.80275 150.356 9.26218 150.356 9.75912C150.356 10.3404 150.276 10.8749 150.12 11.3531C149.959 11.8312 149.737 12.2391 149.449 12.5813C149.161 12.9189 148.812 13.1861 148.41 13.3689C148.004 13.5565 147.555 13.6502 147.064 13.6502C146.601 13.6502 146.2 13.5705 145.855 13.4064C145.515 13.2424 145.198 13.0408 144.91 12.7876H144.882C144.891 12.9236 144.901 13.0642 144.905 13.2095C144.91 13.3596 144.915 13.4721 144.915 13.5471V16.4303H146.1V17.0772H142.558V16.4303H143.091V16.4209ZM148.944 9.89038C148.944 9.60441 148.92 9.30906 148.873 8.99965C148.826 8.69492 148.731 8.41833 148.59 8.16517C148.448 7.9167 148.259 7.71512 148.018 7.55572C147.777 7.39633 147.47 7.32132 147.092 7.32132C146.88 7.32132 146.648 7.35882 146.393 7.42914C146.138 7.49946 145.897 7.60729 145.68 7.75262C145.458 7.89795 145.274 8.0761 145.123 8.29644C144.971 8.51678 144.901 8.77462 144.901 9.06997V11.9813C144.995 12.0657 145.099 12.1547 145.212 12.2485C145.321 12.3376 145.453 12.4219 145.609 12.4923C145.765 12.5626 145.935 12.6235 146.129 12.6657C146.322 12.7079 146.544 12.7314 146.795 12.7314C147.442 12.7314 147.961 12.497 148.353 12.0281C148.746 11.5593 148.944 10.8468 148.944 9.89038Z" fill="#1D1E1C"/>
<path d="M151.514 10.0637C151.514 9.41205 151.608 8.84949 151.797 8.37599C151.986 7.90249 152.241 7.5087 152.562 7.19928C152.883 6.88987 153.257 6.66015 153.682 6.51013C154.107 6.36012 154.556 6.28979 155.028 6.28979C155.335 6.28979 155.618 6.32261 155.878 6.38356C156.138 6.4445 156.374 6.52889 156.587 6.62734C156.799 6.72579 156.983 6.8383 157.135 6.96488C157.291 7.08677 157.413 7.20866 157.513 7.32586V8.57289H156.369V8.38537C156.369 8.09002 156.327 7.84624 156.237 7.65871C156.152 7.47119 156.039 7.32586 155.906 7.21335C155.77 7.10552 155.618 7.03051 155.453 6.99301C155.283 6.9555 155.118 6.93675 154.952 6.93675C154.574 6.93675 154.258 7.02113 153.998 7.19459C153.738 7.36805 153.526 7.59777 153.37 7.88374C153.209 8.16971 153.096 8.50257 153.03 8.8823C152.964 9.26204 152.931 9.65115 152.931 10.0496C152.931 10.4247 152.968 10.781 153.044 11.1185C153.12 11.4561 153.247 11.7561 153.427 12.0139C153.606 12.2718 153.833 12.4781 154.112 12.6375C154.39 12.7968 154.735 12.8765 155.137 12.8765C155.599 12.8765 155.987 12.7828 156.299 12.5906C156.61 12.3984 156.908 12.1452 157.187 11.8311L157.678 12.2905C157.541 12.4546 157.385 12.614 157.21 12.7781C157.031 12.9422 156.828 13.0875 156.596 13.2141C156.365 13.3454 156.105 13.4438 155.821 13.5235C155.538 13.5985 155.231 13.6407 154.905 13.6407C154.471 13.6407 154.05 13.5704 153.639 13.4344C153.228 13.2938 152.869 13.0828 152.553 12.7968C152.241 12.5109 151.986 12.1405 151.792 11.6905C151.608 11.2357 151.514 10.6966 151.514 10.0637Z" fill="#1D1E1C"/>
<path d="M159.161 12.8297C159.345 12.8297 159.468 12.7734 159.539 12.6656C159.605 12.5578 159.638 12.3703 159.638 12.1124V7.09149H158.627V6.44922H161.938V7.09617H161.461C161.277 7.09617 161.154 7.15243 161.083 7.26026C161.017 7.36808 160.984 7.55561 160.984 7.81345V9.46365H162.052L163.757 7.5978C163.88 7.47122 163.946 7.36808 163.946 7.2837C163.946 7.15712 163.861 7.09617 163.686 7.09617H163.195V6.44922H166.346V7.09617H166.26C166.038 7.09617 165.76 7.16649 165.429 7.30245C165.098 7.44309 164.791 7.66343 164.513 7.96816L162.949 9.66055L165.467 12.8297H166.435V13.4766H164.338L161.811 10.1481H160.989V12.8297H161.943V13.4766H158.632V12.8297H159.161Z" fill="#1D1E1C"/>
<path d="M167.763 12.8297C167.947 12.8297 168.07 12.7734 168.14 12.6656C168.207 12.5578 168.24 12.3703 168.24 12.1124V7.09149H167.229V6.44922H170.54V7.09617H170.063C169.879 7.09617 169.756 7.15243 169.685 7.26026C169.619 7.36808 169.586 7.55561 169.586 7.81345V10.9263C169.586 11.0904 169.576 11.2873 169.562 11.517C169.548 11.7467 169.529 11.9436 169.51 12.103H169.553C169.638 11.9671 169.718 11.8405 169.784 11.7233C169.85 11.6061 169.921 11.503 169.987 11.4139L173.412 6.44922H175.594V7.09617H175.06C174.876 7.09617 174.753 7.15243 174.683 7.26026C174.616 7.36808 174.583 7.55561 174.583 7.81345V12.8344H175.594V13.4813H172.283V12.8344H172.774C172.94 12.8344 173.058 12.7781 173.129 12.6703C173.199 12.5625 173.237 12.3749 173.237 12.1171V9.00422C173.237 8.84014 173.242 8.64324 173.261 8.41352C173.275 8.18381 173.294 7.98691 173.313 7.82751H173.27C173.185 7.96347 173.105 8.09005 173.039 8.20725C172.973 8.32914 172.902 8.42759 172.836 8.51666L169.411 13.4813H167.229V12.8344H167.763V12.8297Z" fill="#1D1E1C"/>
<path d="M177.144 12.8298C177.328 12.8298 177.451 12.7736 177.522 12.6658C177.588 12.5579 177.621 12.3704 177.621 12.1126V7.09164H176.61V6.44937H179.921V7.09633H179.444C179.26 7.09633 179.137 7.15259 179.066 7.26041C179 7.36824 178.967 7.55576 178.967 7.8136V10.9265C178.967 11.0906 178.958 11.2875 178.943 11.5172C178.929 11.7469 178.91 11.9438 178.891 12.1032H178.934C179.019 11.9672 179.099 11.8407 179.165 11.7235C179.232 11.6016 179.302 11.5031 179.369 11.414L182.793 6.44937H184.975V7.09633H184.442C184.257 7.09633 184.135 7.15259 184.064 7.26041C183.998 7.36824 183.965 7.55576 183.965 7.8136V12.8345H184.975V13.4815H181.664V12.8345H182.155C182.321 12.8345 182.439 12.7783 182.51 12.6705C182.581 12.5626 182.618 12.3751 182.618 12.1173V9.00438C182.618 8.84029 182.623 8.64339 182.642 8.41368C182.656 8.18396 182.675 7.98706 182.694 7.82767H182.651C182.566 7.96362 182.486 8.0902 182.42 8.2074C182.354 8.32929 182.283 8.42774 182.217 8.51682L178.792 13.4815H176.61V12.8345H177.144V12.8298ZM178.315 3.6084H179.676V3.9225C179.676 4.26473 179.765 4.51789 179.95 4.6679C180.134 4.82261 180.412 4.89762 180.79 4.89762C181.178 4.89762 181.461 4.82261 181.641 4.6679C181.825 4.5132 181.915 4.26473 181.915 3.9225V3.6084H183.275V3.75373C183.275 4.32567 183.062 4.76635 182.633 5.06639C182.203 5.36643 181.589 5.51645 180.79 5.51645C180.002 5.51645 179.392 5.36643 178.962 5.06639C178.532 4.76635 178.32 4.32567 178.32 3.75373V3.6084H178.315Z" fill="#1D1E1C"/>
<path d="M37.2501 30.049C37.4438 30.049 37.5855 29.988 37.6752 29.8708C37.765 29.7489 37.8216 29.5708 37.8405 29.3317L38.2751 24.3108H37.3209V23.6638H39.8528L41.4163 27.2361C41.4635 27.3393 41.506 27.4658 41.5438 27.6112C41.5816 27.7565 41.6241 27.8925 41.6761 28.0284H41.7186C41.7658 27.8737 41.8178 27.7284 41.8792 27.5924C41.9359 27.4518 41.9926 27.3252 42.0398 27.2127L43.6458 23.6685H46.2769V24.3155H45.9131C45.6628 24.3155 45.488 24.367 45.3935 24.4655C45.2991 24.5639 45.2471 24.7327 45.2471 24.9624C45.2471 24.9999 45.2471 25.0374 45.2471 25.0702C45.2471 25.1031 45.2518 25.1452 45.2613 25.1921L45.6817 30.0537H46.6925V30.7006H43.3813V30.0537H43.7875C43.9528 30.0537 44.0757 30.0162 44.156 29.9458C44.2363 29.8755 44.2788 29.7302 44.2788 29.5099C44.2788 29.4817 44.2741 29.4442 44.2693 29.3973C44.2646 29.3505 44.2646 29.3176 44.2646 29.2989L44.0048 26.3735C43.9954 26.2985 43.9859 26.1954 43.9812 26.0735C43.9765 25.9516 43.9717 25.8203 43.967 25.6844C43.9623 25.5531 43.9623 25.4218 43.9623 25.3046C43.9623 25.1828 43.9623 25.089 43.9623 25.0093H43.882L42.002 29.2004H40.9912L39.1395 24.9952H39.0687C39.0592 25.1312 39.0498 25.3187 39.045 25.5625C39.0403 25.8063 39.0262 26.0125 39.0073 26.186L38.7191 29.3411C38.7191 29.3598 38.7191 29.3926 38.7144 29.4348C38.7097 29.477 38.7049 29.5145 38.7049 29.5427C38.7049 29.688 38.738 29.8099 38.7994 29.9083C38.8608 30.0068 39.0025 30.0584 39.2245 30.0584H39.6166V30.7053H36.8108V30.0584H37.2501V30.049Z" fill="#1D1E1C"/>
<path d="M47.1838 27.2222C47.1838 26.6503 47.2735 26.1346 47.453 25.6799C47.6325 25.2251 47.8781 24.836 48.1899 24.5125C48.5017 24.189 48.8654 23.9406 49.281 23.7671C49.6967 23.5937 50.1455 23.5093 50.6273 23.5093C51.2035 23.5093 51.6901 23.5984 52.0869 23.7765C52.4836 23.9546 52.7954 24.189 53.0316 24.4797C53.2677 24.7704 53.4378 25.1032 53.537 25.4783C53.6362 25.8533 53.6882 26.2284 53.6882 26.6128V27.2316H48.6009C48.6009 27.5176 48.6339 27.827 48.7 28.1645C48.7662 28.4974 48.8843 28.8115 49.0543 29.0975C49.2244 29.3834 49.4558 29.6225 49.7487 29.8147C50.0415 30.007 50.4147 30.1007 50.8682 30.1007C51.2838 30.1007 51.6806 30.021 52.0585 29.8569C52.4411 29.6929 52.8001 29.4163 53.1355 29.0271L53.6126 29.5006C53.2441 29.9319 52.8143 30.2648 52.3183 30.5039C51.8223 30.743 51.265 30.8649 50.6509 30.8649C50.2163 30.8649 49.7912 30.7992 49.3802 30.6633C48.9646 30.5273 48.5961 30.3164 48.2655 30.0257C47.9396 29.735 47.675 29.36 47.4766 28.9006C47.283 28.4271 47.1838 27.8739 47.1838 27.2222ZM52.3136 26.5331C52.3041 25.7877 52.1577 25.2017 51.879 24.7844C51.6003 24.3625 51.1799 24.1515 50.6225 24.1515C50.3911 24.1515 50.1644 24.2031 49.9376 24.3109C49.7109 24.4141 49.5078 24.5688 49.3283 24.7704C49.1488 24.972 48.9976 25.2204 48.8748 25.5158C48.7473 25.8111 48.6717 26.1534 48.6434 26.5331H52.3136Z" fill="#1D1E1C"/>
<path d="M55.3697 30.0491L57.4387 26.9362L56.2389 25.1266C56.1349 24.9626 56.0121 24.8313 55.8751 24.7235C55.7382 24.6203 55.6012 24.5359 55.4547 24.4703C55.3083 24.4094 55.1713 24.3672 55.0344 24.339C54.8974 24.3156 54.7746 24.3015 54.6565 24.3015H54.5714V23.6546H57.5804V24.3015H57.1316C56.9568 24.3015 56.8718 24.3625 56.8718 24.4891C56.8718 24.5922 56.9285 24.7235 57.0466 24.8782L58.3786 26.8003H59.5643V24.3015H58.681V23.6546H61.7749V24.3015H61.3687C61.1845 24.3015 61.0616 24.3578 60.9908 24.4656C60.9247 24.5735 60.8916 24.761 60.8916 25.0188V26.7956H62.0772L63.4093 24.8735C63.5274 24.7188 63.584 24.5922 63.584 24.4844C63.584 24.3578 63.499 24.2969 63.3242 24.2969H62.8755V23.6499H65.8797V24.2969H65.7947C65.6766 24.2969 65.5538 24.3109 65.4168 24.3344C65.2798 24.3578 65.1428 24.4 64.9964 24.4656C64.85 24.5266 64.713 24.611 64.576 24.7188C64.439 24.8266 64.3209 24.9579 64.2123 25.122L63.0125 26.9316L65.0814 30.0444H66.0497V30.6914H63.9666L61.8694 27.4472H60.8869V30.0444H61.7702V30.6914H58.6762V30.0444H59.0825C59.2667 30.0444 59.3895 29.9882 59.4603 29.8804C59.5265 29.7725 59.5595 29.5897 59.5595 29.3319V27.4472H58.577L56.4798 30.6914H54.3967V30.0444H55.3697V30.0491Z" fill="#1D1E1C"/>
<path d="M67.7171 33.6355C67.9013 33.6355 68.0241 33.5792 68.095 33.4714C68.1611 33.3636 68.1941 33.176 68.1941 32.9182V24.3109H67.0369V23.6639H69.5215V25.0141H69.5498C69.6726 24.8313 69.8238 24.6484 69.9986 24.4703C70.1733 24.2874 70.367 24.1281 70.589 23.9827C70.811 23.8374 71.0566 23.7249 71.3353 23.6405C71.6093 23.5561 71.9069 23.5139 72.2234 23.5139C72.6957 23.5139 73.1067 23.5983 73.4515 23.7718C73.7963 23.9452 74.0845 24.1843 74.3112 24.4937C74.5379 24.8031 74.708 25.1688 74.8166 25.5907C74.9253 26.0127 74.9819 26.4721 74.9819 26.969C74.9819 27.5503 74.9016 28.0848 74.7458 28.563C74.5852 29.0412 74.3631 29.449 74.075 29.7913C73.7869 30.1288 73.4373 30.396 73.0358 30.5788C72.6296 30.7664 72.1809 30.8601 71.6896 30.8601C71.2267 30.8601 70.8252 30.7804 70.4804 30.6164C70.1403 30.4523 69.8238 30.2507 69.5356 29.9975H69.5073C69.5167 30.1335 69.5262 30.2741 69.5309 30.4195C69.5356 30.5695 69.5404 30.682 69.5404 30.757V33.6402H70.726V34.2871H67.1833V33.6402H67.7171V33.6355ZM73.5696 27.105C73.5696 26.819 73.546 26.5237 73.4987 26.2142C73.4515 25.9095 73.357 25.6329 73.2153 25.3798C73.0736 25.1313 72.8847 24.9297 72.6438 24.7703C72.4029 24.6109 72.0958 24.5359 71.7179 24.5359C71.5054 24.5359 71.2739 24.5734 71.0189 24.6437C70.7638 24.7141 70.5229 24.8219 70.3056 24.9672C70.0836 25.1125 69.8994 25.2907 69.7482 25.511C69.5971 25.7314 69.5262 25.9892 69.5262 26.2846V29.1959C69.6207 29.2802 69.7246 29.3693 69.838 29.4631C69.9466 29.5522 70.0789 29.6365 70.2347 29.7069C70.3906 29.7772 70.5607 29.8381 70.7543 29.8803C70.948 29.9225 71.17 29.946 71.4204 29.946C72.0675 29.946 72.5871 29.7116 72.9791 29.2427C73.3759 28.7786 73.5696 28.066 73.5696 27.105Z" fill="#1D1E1C"/>
<path d="M76.333 27.2222C76.333 26.6503 76.4228 26.1346 76.6022 25.6799C76.7817 25.2251 77.0274 24.836 77.3391 24.5125C77.6509 24.189 78.0146 23.9406 78.4303 23.7671C78.8459 23.5937 79.2947 23.5093 79.7765 23.5093C80.3528 23.5093 80.8393 23.5984 81.2361 23.7765C81.6329 23.9546 81.9446 24.189 82.1808 24.4797C82.417 24.7704 82.587 25.1032 82.6862 25.4783C82.7854 25.8533 82.8374 26.2284 82.8374 26.6128V27.2316H77.7501C77.7501 27.5176 77.7831 27.827 77.8493 28.1645C77.9154 28.4974 78.0335 28.8115 78.2035 29.0975C78.3736 29.3834 78.605 29.6225 78.8979 29.8147C79.1908 30.007 79.5639 30.1007 80.0174 30.1007C80.4331 30.1007 80.8299 30.021 81.2077 29.8569C81.5903 29.6929 81.9493 29.4163 82.2847 29.0271L82.7618 29.5006C82.3934 29.9319 81.9635 30.2648 81.4675 30.5039C80.9716 30.743 80.4142 30.8649 79.8001 30.8649C79.3655 30.8649 78.9404 30.7992 78.5295 30.6633C78.1138 30.5273 77.7454 30.3164 77.4147 30.0257C77.0888 29.735 76.8243 29.36 76.6259 28.9006C76.4322 28.4271 76.333 27.8739 76.333 27.2222ZM81.4628 26.5331C81.4534 25.7877 81.3069 25.2017 81.0282 24.7844C80.7495 24.3625 80.3292 24.1515 79.7718 24.1515C79.5403 24.1515 79.3136 24.2031 79.0868 24.3109C78.8601 24.4141 78.657 24.5688 78.4775 24.7704C78.298 24.972 78.1469 25.2204 78.024 25.5158C77.8965 25.8111 77.8209 26.1534 77.7926 26.5331H81.4628Z" fill="#1D1E1C"/>
<path d="M84.3819 30.049C84.5661 30.049 84.6889 29.9927 84.7598 29.8849C84.8259 29.7771 84.859 29.5895 84.859 29.3317V24.3108H83.8481V23.6638H89.6156V25.8156H88.8929V25.2859C88.8929 24.953 88.7937 24.7046 88.5906 24.5452C88.3875 24.3858 88.1324 24.3061 87.8254 24.3061H86.2052V30.0443H87.32V30.6912H83.8529V30.0443H84.3819V30.049Z" fill="#1D1E1C"/>
<path d="M91.1651 30.049C91.3493 30.049 91.4721 29.9927 91.5429 29.8849C91.6091 29.7771 91.6421 29.5895 91.6421 29.3317V24.3108H90.6313V23.6638H93.9425V24.3108H93.4654C93.2812 24.3108 93.1584 24.367 93.0876 24.4749C93.0214 24.5827 92.9884 24.7702 92.9884 25.028V28.1409C92.9884 28.305 92.9789 28.5019 92.9647 28.7316C92.9506 28.9613 92.9317 29.1582 92.9128 29.3176H92.9553C93.0403 29.1817 93.1206 29.0551 93.1867 28.9379C93.2529 28.816 93.3237 28.7176 93.3899 28.6285L96.8145 23.6638H98.9967V24.3108H98.463C98.2788 24.3108 98.1559 24.367 98.0851 24.4749C98.019 24.5827 97.9859 24.7702 97.9859 25.028V30.049H98.9967V30.6959H95.6855V30.049H96.1768C96.3421 30.049 96.4602 29.9927 96.531 29.8849C96.6019 29.7771 96.6397 29.5895 96.6397 29.3317V26.2188C96.6397 26.0547 96.6444 25.8578 96.6633 25.6281C96.6775 25.3984 96.6964 25.2015 96.7153 25.0421H96.6727C96.5877 25.1781 96.5074 25.3046 96.4413 25.4218C96.3752 25.5437 96.3043 25.6422 96.2382 25.7313L92.8136 30.6959H90.6313V30.049H91.1651Z" fill="#1D1E1C"/>
<path d="M100.012 27.1942C100.012 26.6128 100.102 26.0878 100.286 25.6283C100.471 25.1689 100.726 24.7798 101.052 24.4657C101.378 24.1516 101.765 23.9125 102.209 23.7484C102.653 23.5843 103.13 23.5046 103.64 23.5046C104.16 23.5046 104.642 23.5843 105.081 23.7484C105.52 23.9125 105.903 24.1516 106.229 24.4657C106.555 24.7798 106.81 25.1689 106.994 25.6283C107.178 26.0878 107.268 26.6081 107.268 27.1942C107.268 27.7802 107.178 28.2959 106.994 28.7506C106.81 29.2053 106.555 29.5898 106.229 29.8992C105.903 30.2086 105.515 30.4477 105.081 30.6071C104.642 30.7712 104.164 30.8509 103.64 30.8509C103.13 30.8509 102.653 30.7712 102.209 30.6071C101.765 30.443 101.382 30.2086 101.052 29.8992C100.726 29.5898 100.471 29.2053 100.286 28.7506C100.102 28.2959 100.012 27.7755 100.012 27.1942ZM105.851 27.1942C105.851 27.0488 105.841 26.8754 105.822 26.6691C105.804 26.4628 105.766 26.2472 105.704 26.0221C105.648 25.7971 105.567 25.5721 105.468 25.3471C105.369 25.122 105.237 24.9204 105.071 24.7423C104.906 24.5641 104.708 24.4235 104.471 24.311C104.235 24.2032 103.957 24.1469 103.64 24.1469C103.324 24.1469 103.045 24.2032 102.809 24.311C102.573 24.4235 102.374 24.5641 102.209 24.7423C102.044 24.9204 101.911 25.122 101.812 25.3471C101.713 25.5721 101.633 25.7971 101.571 26.0221C101.514 26.2472 101.477 26.4628 101.453 26.6691C101.434 26.8754 101.425 27.0488 101.425 27.1942C101.425 27.4051 101.448 27.6817 101.496 28.0193C101.543 28.3568 101.647 28.6897 101.798 29.0178C101.954 29.3413 102.176 29.6226 102.469 29.857C102.762 30.0914 103.149 30.2086 103.631 30.2086C104.112 30.2086 104.5 30.0914 104.793 29.857C105.086 29.6226 105.312 29.3413 105.463 29.0178C105.619 28.6943 105.718 28.3615 105.766 28.0193C105.827 27.677 105.851 27.4051 105.851 27.1942Z" fill="#1D1E1C"/>
<path d="M108.416 30.049C108.6 30.049 108.723 29.9927 108.793 29.8849C108.86 29.7771 108.893 29.5895 108.893 29.3317V24.3108H107.882V23.6638H111.193V24.3108H110.716C110.532 24.3108 110.409 24.367 110.338 24.4749C110.272 24.5827 110.239 24.7702 110.239 25.028V26.7486H113.852V24.3108H112.898V23.6638H116.21V24.3108H115.676C115.492 24.3108 115.369 24.367 115.303 24.4749C115.236 24.5827 115.203 24.7702 115.203 25.028V30.049H116.214V30.6959H112.903V30.049H113.394C113.56 30.049 113.678 29.9927 113.749 29.8849C113.819 29.7771 113.857 29.5895 113.857 29.3317V27.4377H110.244V30.049H111.198V30.6959H107.887V30.049H108.416Z" fill="#1D1E1C"/>
<path d="M117.442 28.8443C117.442 28.3849 117.546 28.0098 117.754 27.7192C117.962 27.4285 118.231 27.2035 118.562 27.0441C118.892 26.8847 119.266 26.7769 119.677 26.7206C120.087 26.6644 120.494 26.6362 120.9 26.6362H122.274V25.9893C122.274 25.3845 122.123 24.9391 121.821 24.6391C121.519 24.3438 121.146 24.1937 120.702 24.1937C120.536 24.1937 120.371 24.2125 120.201 24.2453C120.031 24.2781 119.884 24.3344 119.752 24.4188C119.62 24.4985 119.516 24.6063 119.436 24.7422C119.355 24.8782 119.313 25.0423 119.313 25.2439V25.7033H118.113V24.5688C118.5 24.2641 118.949 24.0109 119.473 23.8093C119.993 23.6077 120.588 23.5093 121.249 23.5093C121.665 23.5093 122.019 23.5702 122.317 23.6874C122.615 23.8093 122.86 23.9781 123.054 24.1984C123.248 24.4188 123.389 24.6813 123.479 24.986C123.569 25.2907 123.616 25.633 123.616 26.0033V30.0491H124.773V30.6961H122.289V29.4209H122.26C122.123 29.5756 121.967 29.735 121.783 29.9038C121.599 30.0726 121.391 30.2273 121.16 30.3679C120.928 30.5133 120.673 30.6305 120.399 30.7195C120.125 30.8086 119.832 30.8555 119.525 30.8555C119.228 30.8555 118.949 30.8086 118.694 30.7102C118.439 30.6164 118.217 30.4805 118.037 30.307C117.853 30.1335 117.712 29.9226 117.603 29.6741C117.494 29.4256 117.442 29.149 117.442 28.8443ZM122.27 27.3066H121.042C120.81 27.3066 120.565 27.3254 120.309 27.3582C120.054 27.391 119.818 27.4613 119.601 27.5645C119.384 27.6676 119.204 27.8176 119.067 28.0005C118.925 28.188 118.859 28.4271 118.859 28.7271C118.859 29.0693 118.959 29.3412 119.157 29.5288C119.355 29.721 119.681 29.8147 120.135 29.8147C120.309 29.8147 120.517 29.7866 120.763 29.7304C121.009 29.6741 121.245 29.5803 121.471 29.4491C121.698 29.3178 121.887 29.1537 122.043 28.9474C122.199 28.7412 122.274 28.488 122.274 28.1786V27.3066H122.27Z" fill="#1D1E1C"/>
<path d="M125.765 29.688H126.601C126.823 29.688 127.012 29.613 127.173 29.4583C127.333 29.3036 127.475 29.0833 127.598 28.7973C127.721 28.5113 127.829 28.1597 127.914 27.7425C127.999 27.3253 128.085 26.8564 128.16 26.3314L128.349 25.0562C128.358 25.0093 128.363 24.9672 128.363 24.9343C128.363 24.9015 128.363 24.8593 128.363 24.8124C128.363 24.6671 128.325 24.5499 128.25 24.4515C128.174 24.3577 128.023 24.3061 127.801 24.3061H127.409V23.6592H133.956V24.3061H133.422C133.238 24.3061 133.115 24.3624 133.044 24.4702C132.978 24.578 132.945 24.7656 132.945 25.0234V30.0443H133.956V30.6913H130.574V30.0443H131.136C131.301 30.0443 131.419 29.9881 131.49 29.8803C131.561 29.7724 131.599 29.5849 131.599 29.3271V24.3108H129.936C129.667 24.3108 129.487 24.3811 129.393 24.5265C129.303 24.6718 129.242 24.8312 129.213 25.014L128.996 26.3783C128.892 27.0112 128.784 27.5972 128.67 28.141C128.562 28.6848 128.406 29.1583 128.217 29.5615C128.023 29.9646 127.782 30.2787 127.485 30.5085C127.192 30.7382 126.814 30.8507 126.351 30.8507C126.157 30.8507 125.959 30.8085 125.76 30.7194V29.688H125.765Z" fill="#1D1E1C"/>
<path d="M135.874 30.049C136.058 30.049 136.181 29.9927 136.252 29.8849C136.318 29.7771 136.351 29.5895 136.351 29.3317V24.3108H135.34V23.6638H138.708V24.3108H138.174C137.99 24.3108 137.867 24.367 137.796 24.4749C137.73 24.5827 137.697 24.7702 137.697 25.028V26.2751H139.36C139.695 26.2751 140.031 26.3079 140.357 26.3688C140.683 26.4298 140.975 26.5423 141.23 26.7064C141.486 26.8705 141.689 27.0908 141.845 27.3674C142 27.644 142.076 28.005 142.076 28.441C142.076 28.8254 142 29.1582 141.854 29.4395C141.703 29.7208 141.5 29.9552 141.24 30.1427C140.98 30.3303 140.683 30.4662 140.342 30.56C140.007 30.6491 139.648 30.6959 139.275 30.6959H135.345V30.049H135.874ZM138.954 30.049C139.176 30.049 139.388 30.0162 139.591 29.9552C139.794 29.8943 139.974 29.7958 140.135 29.6692C140.295 29.5427 140.423 29.3739 140.517 29.1723C140.612 28.9707 140.664 28.7316 140.664 28.455C140.664 28.1784 140.616 27.9393 140.517 27.7471C140.423 27.5502 140.295 27.3955 140.135 27.2736C139.974 27.1564 139.794 27.0674 139.591 27.0064C139.388 26.9502 139.18 26.922 138.968 26.922H137.683V30.049H138.954Z" fill="#1D1E1C"/>
<path d="M143.521 30.049C143.706 30.049 143.828 29.9927 143.899 29.8849C143.965 29.7771 143.998 29.5895 143.998 29.3317V24.3108H142.988V23.6638H146.299V24.3108H145.822C145.638 24.3108 145.515 24.367 145.444 24.4749C145.378 24.5827 145.345 24.7702 145.345 25.028V26.7486H148.958V24.3108H148.004V23.6638H151.315V24.3108H150.782C150.597 24.3108 150.475 24.367 150.408 24.4749C150.342 24.5827 150.309 24.7702 150.309 25.028V30.049H151.32V30.6959H148.009V30.049H148.5C148.665 30.049 148.783 29.9927 148.854 29.8849C148.925 29.7771 148.963 29.5895 148.963 29.3317V27.4377H145.349V30.049H146.304V30.6959H142.992V30.049H143.521Z" fill="#1D1E1C"/>
<path d="M152.86 30.049C153.044 30.049 153.167 29.9927 153.238 29.8849C153.304 29.7771 153.337 29.5895 153.337 29.3317V24.3108H152.326V23.6638H155.694V24.3108H155.16C154.976 24.3108 154.853 24.367 154.782 24.4749C154.716 24.5827 154.683 24.7702 154.683 25.028V26.2751H156.171C156.507 26.2751 156.837 26.3079 157.163 26.3688C157.489 26.4298 157.777 26.5423 158.032 26.7064C158.287 26.8705 158.49 27.0908 158.646 27.3674C158.802 27.644 158.878 28.005 158.878 28.441C158.878 28.8254 158.802 29.1582 158.656 29.4395C158.505 29.7208 158.306 29.9552 158.046 30.1427C157.791 30.3303 157.494 30.4662 157.158 30.56C156.823 30.6491 156.464 30.6959 156.091 30.6959H152.331V30.049H152.86ZM155.765 30.049C155.987 30.049 156.199 30.0162 156.403 29.9552C156.606 29.8943 156.785 29.7958 156.946 29.6692C157.106 29.5427 157.234 29.3739 157.328 29.1723C157.423 28.9707 157.475 28.7316 157.475 28.455C157.475 28.1784 157.428 27.9393 157.328 27.7471C157.234 27.5502 157.106 27.3955 156.946 27.2736C156.785 27.1564 156.606 27.0674 156.403 27.0064C156.199 26.9502 155.992 26.922 155.779 26.922H154.664V30.049H155.765ZM159.813 30.049C159.978 30.049 160.096 29.9927 160.167 29.8849C160.238 29.7771 160.276 29.5895 160.276 29.3317V24.3108H159.265V23.6638H162.633V24.3108H162.099C161.915 24.3108 161.792 24.367 161.721 24.4749C161.655 24.5827 161.622 24.7702 161.622 25.028V30.049H162.633V30.6959H159.265V30.049H159.813Z" fill="#1D1E1C"/>
<path d="M164.177 30.0489C164.362 30.0489 164.484 29.9926 164.555 29.8848C164.621 29.777 164.654 29.5895 164.654 29.3316V24.3107H163.644V23.6637H166.955V24.3107H166.478C166.293 24.3107 166.171 24.3669 166.1 24.4748C166.034 24.5826 166.001 24.7701 166.001 25.028V28.1408C166.001 28.3049 165.991 28.5018 165.977 28.7315C165.963 28.9613 165.944 29.1582 165.925 29.3176H165.968C166.053 29.1816 166.133 29.055 166.199 28.9378C166.265 28.8159 166.336 28.7175 166.402 28.6284L169.827 23.6637H172.009V24.3107H171.475C171.291 24.3107 171.168 24.3669 171.097 24.4748C171.031 24.5826 170.998 24.7701 170.998 25.028V30.0489H172.009V30.6958H168.698V30.0489H169.189C169.354 30.0489 169.472 29.9926 169.543 29.8848C169.614 29.777 169.652 29.5895 169.652 29.3316V26.2187C169.652 26.0546 169.657 25.8577 169.676 25.628C169.69 25.3983 169.709 25.2014 169.728 25.042H169.685C169.6 25.178 169.52 25.3046 169.454 25.4218C169.387 25.5436 169.317 25.6421 169.25 25.7312L165.826 30.6958H163.644V30.0489H164.177ZM165.349 20.8228H166.709V21.1369C166.709 21.4791 166.799 21.7322 166.983 21.8823C167.167 22.037 167.446 22.112 167.824 22.112C168.211 22.112 168.495 22.037 168.679 21.8823C168.863 21.7276 168.953 21.4791 168.953 21.1369V20.8228H170.313V20.9681C170.313 21.54 170.101 21.9807 169.671 22.2807C169.241 22.5808 168.627 22.7308 167.829 22.7308C167.04 22.7308 166.43 22.5808 166.001 22.2807C165.571 21.9807 165.358 21.54 165.358 20.9681V20.8228H165.349Z" fill="#1D1E1C"/>
<path d="M37.3776 47.2638C37.5618 47.2638 37.6846 47.2076 37.7555 47.0997C37.8216 46.9919 37.8547 46.8044 37.8547 46.5466V41.5256H36.8438V40.8787H40.1503V41.5256H39.6733C39.489 41.5256 39.3662 41.5819 39.2954 41.6897C39.2292 41.7975 39.1962 41.9851 39.1962 42.2429V43.9634H42.8097V41.5256H41.8556V40.8787H45.1668V41.5256H44.633C44.4488 41.5256 44.326 41.5819 44.2599 41.6897C44.1937 41.7975 44.1607 41.9851 44.1607 42.2429V47.2638H45.1715V47.9108H41.8603V47.2638H42.3515C42.5169 47.2638 42.6349 47.2076 42.7058 47.0997C42.7767 46.9919 42.8144 46.8044 42.8144 46.5466V44.6526H39.2009V47.2638H40.1503V47.9108H36.8391V47.2638H37.3776Z" fill="#1D1E1C"/>
<path d="M46.2485 46.0589C46.2485 45.5995 46.3524 45.2244 46.5602 44.9338C46.7681 44.6431 47.0373 44.4181 47.368 44.2587C47.6986 44.0993 48.0718 43.9915 48.4827 43.9352C48.8937 43.879 49.2999 43.8508 49.7061 43.8508H51.0807V43.2039C51.0807 42.5991 50.9295 42.1537 50.6272 41.8537C50.3249 41.5584 49.9518 41.4083 49.5077 41.4083C49.3424 41.4083 49.1771 41.4271 49.007 41.4599C48.837 41.4927 48.6906 41.549 48.5583 41.6334C48.426 41.7131 48.3221 41.8209 48.2418 41.9568C48.1615 42.0928 48.119 42.2569 48.119 42.4585V42.9179H46.9192V41.7834C47.3066 41.4787 47.7553 41.2255 48.2796 41.0239C48.7992 40.8223 49.3944 40.7239 50.0557 40.7239C50.4714 40.7239 50.8256 40.7848 51.1232 40.902C51.4208 41.0239 51.6664 41.1927 51.8601 41.413C52.0538 41.6334 52.1955 41.8959 52.2852 42.2006C52.375 42.5053 52.4222 42.8476 52.4222 43.2179V47.2637H53.5795V47.9107H51.0949V46.6355H51.0665C50.9295 46.7902 50.7737 46.9496 50.5894 47.1137C50.4052 47.2825 50.1974 47.4372 49.9659 47.5778C49.7345 47.7232 49.4794 47.8404 49.2054 47.9294C48.9315 48.0185 48.6386 48.0654 48.3316 48.0654C48.034 48.0654 47.7553 48.0185 47.5002 47.9201C47.2451 47.8263 47.0231 47.6904 46.8436 47.5169C46.6594 47.3434 46.5177 47.1325 46.4091 46.884C46.3052 46.6449 46.2485 46.3636 46.2485 46.0589ZM51.0807 44.5259H49.8526C49.6211 44.5259 49.3755 44.5447 49.1204 44.5775C48.8653 44.6103 48.6292 44.6806 48.4119 44.7837C48.1946 44.8869 48.0151 45.0369 47.8781 45.2197C47.7364 45.4073 47.6703 45.6464 47.6703 45.9464C47.6703 46.2886 47.7695 46.5605 47.9679 46.7481C48.1662 46.9403 48.4922 47.034 48.9456 47.034C49.1204 47.034 49.3282 47.0059 49.5739 46.9496C49.8195 46.8934 50.0557 46.7996 50.2824 46.6684C50.5091 46.5371 50.6981 46.373 50.854 46.1667C51.0098 45.9605 51.0854 45.7073 51.0854 45.3979V44.5259H51.0807Z" fill="#1D1E1C"/>
<path d="M54.6516 50.4939H55.6766C55.79 50.4939 55.9128 50.4799 56.0404 50.4517C56.1632 50.4236 56.286 50.3626 56.4088 50.2736C56.5316 50.1845 56.6497 50.0485 56.7725 49.8704C56.8953 49.6923 57.0134 49.4579 57.1268 49.1578L57.533 48.0983L54.4249 41.5256H53.4282V40.8787H56.9142V41.5256H56.5694C56.2813 41.5256 56.1348 41.6334 56.1348 41.8538C56.1348 41.9569 56.1821 42.121 56.2813 42.3413L57.755 45.5574C57.8211 45.7027 57.892 45.8762 57.9581 46.0871C58.0243 46.2981 58.0809 46.4762 58.1187 46.6169H58.1896C58.2179 46.4997 58.2557 46.359 58.303 46.1949C58.3502 46.0262 58.4116 45.834 58.4919 45.6136L59.7059 42.3132C59.7531 42.2101 59.7814 42.1163 59.7909 42.0413C59.8003 41.9663 59.8051 41.896 59.8051 41.8397C59.8051 41.7272 59.772 41.6428 59.7059 41.5959C59.6397 41.5491 59.5547 41.5256 59.4602 41.5256H58.969V40.8787H61.9448V41.5256H61.685C61.4063 41.5256 61.1796 41.61 61.0143 41.7835C60.8442 41.9569 60.7214 42.1398 60.6459 42.3273L58.1471 48.9422C57.944 49.486 57.7409 49.936 57.533 50.2923C57.3252 50.6439 57.1079 50.9252 56.8812 51.1268C56.6544 51.3284 56.4182 51.4643 56.1726 51.544C55.927 51.6191 55.6578 51.6566 55.3696 51.6566C55.2137 51.6566 55.0768 51.6425 54.9587 51.6144C54.8358 51.5862 54.7414 51.5534 54.6611 51.5159V50.4939H54.6516Z" fill="#1D1E1C"/>
<path d="M67.7456 47.2639C67.911 47.2639 68.029 47.2076 68.0999 47.0998C68.1708 46.992 68.2085 46.8044 68.2085 46.5466V44.4651H68.1802C67.9299 44.7792 67.6039 45.0417 67.2024 45.2527C66.8009 45.4637 66.3711 45.5668 65.9082 45.5668C65.4925 45.5668 65.1524 45.5058 64.8831 45.3793C64.6139 45.2574 64.4013 45.0886 64.2455 44.8823C64.0896 44.6761 63.9809 44.437 63.9195 44.1604C63.8581 43.8838 63.8251 43.5884 63.8251 43.2696V41.521H62.8142V40.874H66.1113V41.521H65.6342C65.45 41.521 65.3272 41.5772 65.2563 41.6851C65.1902 41.7929 65.1571 41.9804 65.1571 42.2383V43.3587C65.1571 43.7806 65.2516 44.1041 65.4452 44.3291C65.6389 44.5542 65.9271 44.6667 66.3144 44.6667C66.5458 44.6667 66.7726 44.6385 66.9993 44.5823C67.226 44.526 67.4292 44.437 67.6087 44.3244C67.7881 44.2119 67.9299 44.0666 68.0432 43.8931C68.1519 43.7197 68.2085 43.5228 68.2085 43.2884V41.5257H67.2544V40.8787H70.5656V41.5257H70.0318C69.8476 41.5257 69.7248 41.5819 69.654 41.6897C69.5878 41.7976 69.5548 41.9851 69.5548 42.2429V47.2639H70.5656V47.9108H67.1127V47.2639H67.7456Z" fill="#1D1E1C"/>
<path d="M72.1101 47.2638C72.2943 47.2638 72.4171 47.2076 72.4879 47.0997C72.5541 46.9919 72.5871 46.8044 72.5871 46.5466V41.5256H71.5763V40.8787H74.8875V41.5256H74.4104C74.2262 41.5256 74.1034 41.5819 74.0326 41.6897C73.9664 41.7975 73.9334 41.9851 73.9334 42.2429V43.9634H77.5469V41.5256H76.5927V40.8787H79.904V41.5256H79.3702C79.186 41.5256 79.0632 41.5819 78.997 41.6897C78.9309 41.7975 78.8978 41.9851 78.8978 42.2429V47.2638H79.9087V47.9108H76.5975V47.2638H77.0887C77.254 47.2638 77.3721 47.2076 77.443 47.0997C77.5138 46.9919 77.5516 46.8044 77.5516 46.5466V44.6526H73.9381V47.2638H74.8923V47.9108H71.581V47.2638H72.1101Z" fill="#1D1E1C"/>
<path d="M80.5417 44.4088C80.5417 43.8274 80.6314 43.3024 80.8157 42.8429C80.9999 42.3835 81.255 41.9944 81.5809 41.6803C81.9068 41.3662 82.2941 41.1271 82.7382 40.963C83.1822 40.7989 83.6593 40.7192 84.1694 40.7192C84.689 40.7192 85.1708 40.7989 85.6101 40.963C86.0494 41.1271 86.432 41.3662 86.7579 41.6803C87.0839 41.9944 87.3389 42.3835 87.5231 42.8429C87.7074 43.3024 87.7971 43.8227 87.7971 44.4088C87.7971 44.9948 87.7074 45.5105 87.5231 45.9652C87.3389 46.4199 87.0839 46.8044 86.7579 47.1138C86.432 47.4232 86.0447 47.6623 85.6101 47.8217C85.1708 47.9858 84.6937 48.0655 84.1694 48.0655C83.6593 48.0655 83.1822 47.9858 82.7382 47.8217C82.2941 47.6576 81.9115 47.4232 81.5809 47.1138C81.255 46.8044 80.9952 46.4199 80.8157 45.9652C80.6362 45.5105 80.5417 44.9948 80.5417 44.4088ZM86.3848 44.4088C86.3848 44.2634 86.3753 44.09 86.3564 43.8837C86.3375 43.6774 86.2997 43.4618 86.2383 43.2367C86.1817 43.0117 86.1013 42.7867 86.0022 42.5617C85.903 42.3366 85.7707 42.135 85.6054 41.9569C85.44 41.7787 85.2417 41.6381 85.0055 41.5256C84.7693 41.4178 84.4906 41.3615 84.1741 41.3615C83.8576 41.3615 83.579 41.4178 83.3428 41.5256C83.1066 41.6381 82.9082 41.7787 82.7429 41.9569C82.5776 42.135 82.4453 42.3366 82.3461 42.5617C82.2469 42.7867 82.1666 43.0117 82.1052 43.2367C82.0485 43.4618 82.0107 43.6774 81.9871 43.8837C81.9682 44.09 81.9588 44.2634 81.9588 44.4088C81.9588 44.6197 81.9824 44.8963 82.0296 45.2339C82.0769 45.5714 82.1808 45.9043 82.3319 46.2324C82.4878 46.5559 82.7098 46.8372 83.0027 47.0716C83.2955 47.306 83.6829 47.4232 84.1647 47.4232C84.6465 47.4232 85.0338 47.306 85.3267 47.0716C85.6195 46.8372 85.8463 46.5559 85.9974 46.2324C86.1533 45.9089 86.2525 45.5761 86.2997 45.2339C86.3611 44.8963 86.3848 44.6197 86.3848 44.4088Z" fill="#1D1E1C"/>
<path d="M94.1173 43.5789V44.6102H89.6772V43.5789H94.1173Z" fill="#1D1E1C"/>
<path d="M95.9265 44.4088C95.9265 43.8274 96.0162 43.3024 96.2004 42.8429C96.3846 42.3835 96.6397 41.9944 96.9656 41.6803C97.2916 41.3662 97.6789 41.1271 98.1229 40.963C98.5669 40.7989 99.044 40.7192 99.5542 40.7192C100.074 40.7192 100.556 40.7989 100.995 40.963C101.434 41.1271 101.817 41.3662 102.143 41.6803C102.469 41.9944 102.724 42.3835 102.908 42.8429C103.092 43.3024 103.182 43.8227 103.182 44.4088C103.182 44.9948 103.092 45.5105 102.908 45.9652C102.724 46.4199 102.469 46.8044 102.143 47.1138C101.817 47.4232 101.429 47.6623 100.995 47.8217C100.556 47.9858 100.078 48.0655 99.5542 48.0655C99.044 48.0655 98.5669 47.9858 98.1229 47.8217C97.6789 47.6576 97.2963 47.4232 96.9656 47.1138C96.6397 46.8044 96.3799 46.4199 96.2004 45.9652C96.0162 45.5105 95.9265 44.9948 95.9265 44.4088ZM101.765 44.4088C101.765 44.2634 101.755 44.09 101.736 43.8837C101.718 43.6774 101.68 43.4618 101.618 43.2367C101.562 43.0117 101.481 42.7867 101.382 42.5617C101.283 42.3366 101.151 42.135 100.985 41.9569C100.82 41.7787 100.622 41.6381 100.386 41.5256C100.149 41.4178 99.8706 41.3615 99.5542 41.3615C99.2377 41.3615 98.959 41.4178 98.7228 41.5256C98.4866 41.6381 98.2882 41.7787 98.1229 41.9569C97.9576 42.135 97.8253 42.3366 97.7261 42.5617C97.6269 42.7867 97.5466 43.0117 97.4852 43.2367C97.4286 43.4618 97.3908 43.6774 97.3671 43.8837C97.3483 44.09 97.3388 44.2634 97.3388 44.4088C97.3388 44.6197 97.3624 44.8963 97.4097 45.2339C97.4569 45.5714 97.5608 45.9043 97.712 46.2324C97.8678 46.5559 98.0899 46.8372 98.3827 47.0716C98.6756 47.306 99.0629 47.4232 99.5447 47.4232C100.027 47.4232 100.414 47.306 100.707 47.0716C101 46.8372 101.226 46.5559 101.377 46.2324C101.533 45.9089 101.633 45.5761 101.68 45.2339C101.741 44.8963 101.765 44.6197 101.765 44.4088Z" fill="#1D1E1C"/>
<path d="M104.486 43.9913C104.486 42.9693 104.589 42.1255 104.797 41.4645C105.005 40.8034 105.284 40.2737 105.629 39.8658C105.973 39.458 106.38 39.1532 106.838 38.9423C107.296 38.7313 107.773 38.5579 108.279 38.4266C108.789 38.2906 109.204 38.1781 109.53 38.0844C109.852 37.9906 110.116 37.8968 110.319 37.8031C110.522 37.714 110.688 37.6062 110.81 37.4796C110.938 37.353 111.061 37.1983 111.188 37.0061L111.552 37.1046C111.476 37.4796 111.373 37.7937 111.25 38.0515C111.122 38.3094 110.947 38.5344 110.716 38.7172C110.484 38.9048 110.187 39.0642 109.828 39.2048C109.464 39.3455 109.015 39.4814 108.477 39.6127C107.976 39.7393 107.532 39.8799 107.145 40.0346C106.758 40.194 106.432 40.405 106.162 40.6675C105.893 40.93 105.676 41.2676 105.52 41.6707C105.359 42.0786 105.255 42.5849 105.208 43.1991H105.279C105.501 42.5568 105.874 42.0411 106.399 41.652C106.923 41.2582 107.575 41.066 108.359 41.066C109.408 41.066 110.234 41.3754 110.839 41.9989C111.439 42.6224 111.741 43.4944 111.741 44.6242C111.741 45.1118 111.651 45.5665 111.472 45.9885C111.292 46.4104 111.047 46.7714 110.725 47.0808C110.409 47.3855 110.031 47.6293 109.592 47.8074C109.152 47.9856 108.675 48.0747 108.156 48.0747C107.556 48.0747 107.032 47.9762 106.573 47.7793C106.115 47.5824 105.733 47.3058 105.426 46.9448C105.118 46.5838 104.887 46.1572 104.731 45.6556C104.561 45.1493 104.486 44.5961 104.486 43.9913ZM110.31 44.6383C110.31 44.2351 110.267 43.8601 110.187 43.5132C110.107 43.1662 109.979 42.8615 109.804 42.6084C109.63 42.3552 109.408 42.1583 109.138 42.013C108.869 41.8676 108.548 41.7973 108.17 41.7973C107.816 41.7973 107.499 41.8817 107.23 42.0505C106.961 42.2192 106.729 42.4396 106.545 42.7115C106.356 42.9834 106.214 43.2975 106.12 43.6444C106.025 43.9913 105.973 44.3429 105.973 44.6992C105.973 45.0133 106.007 45.3321 106.073 45.6556C106.139 45.9744 106.257 46.2697 106.427 46.5323C106.597 46.7948 106.819 47.0105 107.093 47.1792C107.367 47.348 107.716 47.4277 108.142 47.4277C108.557 47.4277 108.902 47.3386 109.181 47.1558C109.459 46.973 109.686 46.7479 109.852 46.476C110.022 46.2041 110.14 45.9041 110.206 45.5712C110.277 45.2337 110.31 44.9243 110.31 44.6383Z" fill="#1D1E1C"/>
<path d="M113.271 50.8503C113.455 50.8503 113.578 50.7941 113.649 50.6862C113.715 50.5784 113.748 50.3909 113.748 50.133V41.5257H112.591V40.8788H115.076V42.2289H115.104C115.227 42.0461 115.378 41.8633 115.553 41.6851C115.728 41.5023 115.921 41.3429 116.143 41.1976C116.365 41.0522 116.611 40.9397 116.89 40.8553C117.163 40.771 117.461 40.7288 117.778 40.7288C118.25 40.7288 118.661 40.8131 119.006 40.9866C119.35 41.1601 119.639 41.3992 119.865 41.7086C120.092 42.018 120.262 42.3837 120.371 42.8056C120.479 43.2275 120.536 43.6869 120.536 44.1839C120.536 44.7652 120.456 45.2996 120.3 45.7778C120.139 46.256 119.917 46.6639 119.629 47.0061C119.341 47.3436 118.992 47.6109 118.59 47.7937C118.184 47.9812 117.735 48.075 117.244 48.075C116.781 48.075 116.379 47.9953 116.035 47.8312C115.694 47.6671 115.378 47.4655 115.09 47.2124H115.061C115.071 47.3483 115.08 47.489 115.085 47.6343C115.09 47.7843 115.095 47.8968 115.095 47.9718V50.855H116.28V51.502H112.737V50.855H113.271V50.8503ZM119.128 44.3245C119.128 44.0385 119.105 43.7432 119.058 43.4338C119.01 43.1291 118.916 42.8525 118.774 42.5993C118.633 42.3508 118.444 42.1492 118.203 41.9899C117.962 41.8305 117.655 41.7554 117.277 41.7554C117.064 41.7554 116.833 41.793 116.578 41.8633C116.323 41.9336 116.082 42.0414 115.864 42.1868C115.642 42.3321 115.458 42.5102 115.307 42.7306C115.156 42.9509 115.085 43.2088 115.085 43.5041V46.4154C115.18 46.4998 115.284 46.5889 115.397 46.6826C115.506 46.7717 115.638 46.8561 115.794 46.9264C115.95 46.9967 116.12 47.0577 116.313 47.0999C116.507 47.142 116.729 47.1655 116.979 47.1655C117.626 47.1655 118.146 46.9311 118.538 46.4623C118.93 45.9935 119.128 45.2809 119.128 44.3245Z" fill="#1D1E1C"/>
<path d="M121.519 46.0589C121.519 45.5995 121.623 45.2244 121.831 44.9338C122.038 44.6431 122.308 44.4181 122.638 44.2587C122.969 44.0993 123.342 43.9915 123.753 43.9352C124.164 43.879 124.57 43.8508 124.976 43.8508H126.351V43.2039C126.351 42.5991 126.2 42.1537 125.898 41.8537C125.595 41.5584 125.222 41.4083 124.778 41.4083C124.613 41.4083 124.447 41.4271 124.277 41.4599C124.107 41.4927 123.961 41.549 123.829 41.6334C123.696 41.7131 123.592 41.8209 123.512 41.9568C123.432 42.0928 123.389 42.2569 123.389 42.4585V42.9179H122.19V41.7834C122.577 41.4787 123.026 41.2255 123.55 41.0239C124.07 40.8223 124.665 40.7239 125.326 40.7239C125.742 40.7239 126.096 40.7848 126.394 40.902C126.691 41.0239 126.937 41.1927 127.13 41.413C127.324 41.6334 127.466 41.8959 127.556 42.2006C127.645 42.5053 127.693 42.8476 127.693 43.2179V47.2637H128.85V47.9107H126.365V46.6355H126.337C126.2 46.7902 126.044 46.9496 125.86 47.1137C125.676 47.2825 125.468 47.4372 125.236 47.5778C125.005 47.7232 124.75 47.8404 124.476 47.9294C124.202 48.0185 123.909 48.0654 123.602 48.0654C123.304 48.0654 123.026 48.0185 122.771 47.9201C122.515 47.8263 122.293 47.6904 122.114 47.5169C121.93 47.3434 121.788 47.1325 121.679 46.884C121.571 46.6449 121.519 46.3636 121.519 46.0589ZM126.346 44.5259H125.118C124.887 44.5259 124.641 44.5447 124.386 44.5775C124.131 44.6103 123.895 44.6806 123.677 44.7837C123.46 44.8869 123.281 45.0369 123.144 45.2197C123.002 45.4073 122.936 45.6464 122.936 45.9464C122.936 46.2886 123.035 46.5605 123.233 46.7481C123.432 46.9403 123.758 47.034 124.211 47.034C124.386 47.034 124.594 47.0059 124.839 46.9496C125.085 46.8934 125.321 46.7996 125.548 46.6684C125.775 46.5371 125.964 46.373 126.12 46.1667C126.275 45.9605 126.351 45.7073 126.351 45.3979V44.5259H126.346Z" fill="#1D1E1C"/>
<path d="M130.012 45.8855H131.155V46.1433C131.155 46.5559 131.292 46.87 131.566 47.0903C131.84 47.3107 132.288 47.4185 132.917 47.4185C133.427 47.4185 133.857 47.2966 134.202 47.0528C134.546 46.8091 134.721 46.4387 134.721 45.9418C134.721 45.8058 134.702 45.6652 134.664 45.5105C134.627 45.3557 134.556 45.2151 134.447 45.0885C134.343 44.9573 134.192 44.8494 134.008 44.765C133.819 44.6807 133.583 44.6338 133.29 44.6338H131.977V43.9446H133.177C133.668 43.9446 134.013 43.8274 134.211 43.5883C134.409 43.3493 134.509 43.0445 134.509 42.6695C134.509 42.2757 134.372 41.9616 134.098 41.7225C133.824 41.4834 133.441 41.3615 132.95 41.3615C131.859 41.3615 131.315 41.7928 131.315 42.6507V42.8664H130.172V41.6615C130.276 41.5584 130.432 41.4459 130.635 41.3334C130.838 41.2162 131.07 41.1177 131.33 41.024C131.589 40.9349 131.868 40.8599 132.161 40.8036C132.454 40.7474 132.747 40.7192 133.035 40.7192C134.046 40.7192 134.783 40.8974 135.241 41.249C135.699 41.6006 135.926 42.0366 135.926 42.5523C135.926 42.7164 135.902 42.8758 135.86 43.0398C135.817 43.2039 135.737 43.3586 135.623 43.504C135.505 43.654 135.354 43.7852 135.16 43.9071C134.967 44.029 134.721 44.1228 134.424 44.2025V44.2306C134.749 44.2681 135.023 44.3384 135.245 44.4463C135.467 44.5494 135.642 44.676 135.774 44.826C135.902 44.976 135.997 45.1401 136.058 45.3229C136.115 45.5058 136.143 45.698 136.143 45.8949C136.143 46.2277 136.058 46.5325 135.883 46.7997C135.708 47.0669 135.472 47.2966 135.175 47.4794C134.877 47.667 134.532 47.8076 134.14 47.9107C133.748 48.0092 133.332 48.0608 132.888 48.0608C132.322 48.0608 131.783 47.9764 131.278 47.8029C130.772 47.6295 130.352 47.4044 130.012 47.1278V45.8855Z" fill="#1D1E1C"/>
<path d="M137.296 44.4088C137.296 43.8274 137.385 43.3024 137.57 42.8429C137.754 42.3835 138.009 41.9944 138.335 41.6803C138.661 41.3662 139.048 41.1271 139.492 40.963C139.936 40.7989 140.413 40.7192 140.923 40.7192C141.443 40.7192 141.925 40.7989 142.364 40.963C142.803 41.1271 143.186 41.3662 143.512 41.6803C143.838 41.9944 144.093 42.3835 144.277 42.8429C144.461 43.3024 144.551 43.8227 144.551 44.4088C144.551 44.9948 144.461 45.5105 144.277 45.9652C144.093 46.4199 143.838 46.8044 143.512 47.1138C143.186 47.4232 142.799 47.6623 142.364 47.8217C141.925 47.9858 141.448 48.0655 140.923 48.0655C140.413 48.0655 139.936 47.9858 139.492 47.8217C139.048 47.6576 138.665 47.4232 138.335 47.1138C138.009 46.8044 137.754 46.4199 137.57 45.9652C137.385 45.5105 137.296 44.9948 137.296 44.4088ZM143.134 44.4088C143.134 44.2634 143.124 44.09 143.106 43.8837C143.087 43.6774 143.049 43.4618 142.987 43.2367C142.931 43.0117 142.851 42.7867 142.751 42.5617C142.652 42.3366 142.52 42.135 142.355 41.9569C142.189 41.7787 141.991 41.6381 141.755 41.5256C141.518 41.4178 141.24 41.3615 140.923 41.3615C140.607 41.3615 140.328 41.4178 140.092 41.5256C139.856 41.6381 139.657 41.7787 139.492 41.9569C139.327 42.135 139.194 42.3366 139.095 42.5617C138.996 42.7867 138.916 43.0117 138.854 43.2367C138.798 43.4618 138.76 43.6774 138.736 43.8837C138.717 44.09 138.708 44.2634 138.708 44.4088C138.708 44.6197 138.732 44.8963 138.779 45.2339C138.826 45.5714 138.93 45.9043 139.081 46.2324C139.237 46.5559 139.459 46.8372 139.752 47.0716C140.045 47.306 140.432 47.4232 140.914 47.4232C141.396 47.4232 141.783 47.306 142.076 47.0716C142.369 46.8372 142.595 46.5559 142.747 46.2324C142.902 45.9089 143.002 45.5761 143.049 45.2339C143.11 44.8963 143.134 44.6197 143.134 44.4088Z" fill="#1D1E1C"/>
<path d="M146.025 47.2638C146.209 47.2638 146.332 47.2076 146.403 47.0997C146.469 46.9919 146.502 46.8044 146.502 46.5466V41.5256H145.491V40.8787H149.841C150.659 40.8787 151.258 41.0287 151.641 41.3334C152.024 41.6334 152.213 42.0601 152.213 42.6039C152.213 42.768 152.184 42.932 152.132 43.1008C152.08 43.2696 151.995 43.429 151.887 43.5743C151.778 43.7243 151.627 43.8509 151.447 43.9634C151.263 44.0712 151.041 44.1556 150.781 44.2166V44.2447C151.32 44.3197 151.726 44.4979 152.005 44.7838C152.279 45.0651 152.416 45.4449 152.416 45.923C152.416 46.1621 152.368 46.4012 152.279 46.6403C152.189 46.8794 152.038 47.0904 151.839 47.2779C151.636 47.4654 151.367 47.6154 151.036 47.7373C150.706 47.8545 150.295 47.9155 149.813 47.9155H145.491V47.2638H146.025ZM149.378 43.9634C149.813 43.9634 150.158 43.8556 150.413 43.6399C150.668 43.4243 150.796 43.0961 150.796 42.6554C150.796 42.3507 150.687 42.0835 150.47 41.8585C150.252 41.6334 149.879 41.5209 149.35 41.5209H147.834V43.9587H149.378V43.9634ZM149.378 47.2638C149.917 47.2638 150.323 47.1466 150.592 46.9122C150.862 46.6778 150.999 46.3497 150.999 45.9183C150.999 45.6793 150.956 45.4777 150.866 45.3136C150.781 45.1495 150.663 45.0135 150.522 44.9057C150.375 44.8026 150.205 44.7229 150.007 44.676C149.808 44.6291 149.6 44.6057 149.378 44.6057H147.834V47.2638H149.378Z" fill="#1D1E1C"/>
<path d="M153.715 46.0589C153.715 45.5995 153.819 45.2244 154.026 44.9338C154.234 44.6431 154.503 44.4181 154.834 44.2587C155.165 44.0993 155.538 43.9915 155.949 43.9352C156.36 43.879 156.766 43.8508 157.172 43.8508H158.547V43.2039C158.547 42.5991 158.396 42.1537 158.093 41.8537C157.791 41.5584 157.418 41.4083 156.974 41.4083C156.809 41.4083 156.643 41.4271 156.473 41.4599C156.303 41.4927 156.157 41.549 156.024 41.6334C155.892 41.7131 155.788 41.8209 155.708 41.9568C155.628 42.0928 155.585 42.2569 155.585 42.4585V42.9179H154.385V41.7834C154.773 41.4787 155.221 41.2255 155.746 41.0239C156.265 40.8223 156.861 40.7239 157.522 40.7239C157.937 40.7239 158.292 40.7848 158.589 40.902C158.887 41.0239 159.133 41.1927 159.326 41.413C159.52 41.6334 159.662 41.8959 159.751 42.2006C159.841 42.5053 159.888 42.8476 159.888 43.2179V47.2637H161.046V47.9107H158.561V46.6355H158.533C158.396 46.7902 158.24 46.9496 158.056 47.1137C157.871 47.2825 157.664 47.4372 157.432 47.5778C157.201 47.7232 156.946 47.8404 156.672 47.9294C156.398 48.0185 156.105 48.0654 155.798 48.0654C155.5 48.0654 155.221 48.0185 154.966 47.9201C154.711 47.8263 154.489 47.6904 154.31 47.5169C154.126 47.3434 153.984 47.1325 153.875 46.884C153.767 46.6449 153.715 46.3636 153.715 46.0589ZM158.542 44.5259H157.314C157.083 44.5259 156.837 44.5447 156.582 44.5775C156.327 44.6103 156.091 44.6806 155.873 44.7837C155.656 44.8869 155.476 45.0369 155.339 45.2197C155.198 45.4073 155.132 45.6464 155.132 45.9464C155.132 46.2886 155.231 46.5605 155.429 46.7481C155.628 46.9403 155.954 47.034 156.407 47.034C156.582 47.034 156.79 47.0059 157.035 46.9496C157.281 46.8934 157.517 46.7996 157.744 46.6684C157.971 46.5371 158.159 46.373 158.315 46.1667C158.471 45.9605 158.547 45.7073 158.547 45.3979V44.5259H158.542Z" fill="#1D1E1C"/>
<path d="M163.719 47.2638C163.904 47.2638 164.026 47.2075 164.097 47.0997C164.163 46.9919 164.196 46.8043 164.196 46.5465V41.5256H163.313C163.044 41.5256 162.812 41.6053 162.628 41.7647C162.439 41.9241 162.345 42.1678 162.345 42.5054V43.0633H161.622V40.8833H168.112V43.0633H167.39V42.5054C167.39 42.1725 167.295 41.9241 167.106 41.7647C166.917 41.6053 166.69 41.5256 166.421 41.5256H165.538V47.2638H166.591V47.9107H163.138V47.2638H163.719Z" fill="#1D1E1C"/>
<path d="M169.052 44.4368C169.052 43.8649 169.142 43.3492 169.321 42.8945C169.501 42.4397 169.747 42.0506 170.058 41.7271C170.37 41.4036 170.734 41.1552 171.15 40.9817C171.565 40.8083 172.014 40.7239 172.496 40.7239C173.072 40.7239 173.559 40.813 173.955 40.9911C174.352 41.1692 174.664 41.4036 174.9 41.6943C175.136 41.985 175.306 42.3178 175.405 42.6929C175.505 43.0679 175.557 43.443 175.557 43.8274V44.4462H170.469C170.469 44.7322 170.502 45.0416 170.569 45.3791C170.635 45.712 170.753 46.0261 170.923 46.3121C171.093 46.598 171.324 46.8371 171.617 47.0293C171.91 47.2215 172.283 47.3153 172.737 47.3153C173.152 47.3153 173.549 47.2356 173.927 47.0715C174.31 46.9074 174.669 46.6308 175.004 46.2417L175.481 46.7152C175.113 47.1465 174.683 47.4794 174.187 47.7185C173.691 47.9576 173.133 48.0795 172.519 48.0795C172.085 48.0795 171.66 48.0138 171.249 47.8779C170.833 47.7419 170.465 47.531 170.134 47.2403C169.808 46.9496 169.543 46.5746 169.345 46.1152C169.151 45.6417 169.052 45.0885 169.052 44.4368ZM174.187 43.7477C174.177 43.0023 174.031 42.4163 173.752 41.999C173.474 41.5771 173.053 41.3661 172.496 41.3661C172.264 41.3661 172.038 41.4177 171.811 41.5255C171.584 41.6287 171.381 41.7834 171.201 41.985C171.022 42.1866 170.871 42.435 170.748 42.7304C170.62 43.0257 170.545 43.3679 170.517 43.7477H174.187Z" fill="#1D1E1C"/>
<path d="M176.435 46.9075H177.271C177.493 46.9075 177.682 46.8325 177.843 46.6778C178.003 46.5231 178.145 46.3028 178.268 46.0168C178.391 45.7308 178.499 45.3792 178.584 44.962C178.669 44.5447 178.754 44.0759 178.83 43.5509L179.019 42.2757C179.028 42.2288 179.033 42.1866 179.033 42.1538C179.033 42.121 179.033 42.0788 179.033 42.0319C179.033 41.8866 178.995 41.7694 178.92 41.6709C178.844 41.5772 178.693 41.5256 178.471 41.5256H178.079V40.8787H184.626V41.5256H184.092C183.908 41.5256 183.785 41.5819 183.714 41.6897C183.648 41.7975 183.615 41.9851 183.615 42.2429V47.2638H184.626V47.9108H181.244V47.2638H181.806C181.971 47.2638 182.089 47.2076 182.16 47.0997C182.231 46.9919 182.269 46.8044 182.269 46.5466V41.5256H180.606C180.337 41.5256 180.157 41.5959 180.063 41.7413C179.973 41.8866 179.912 42.046 179.883 42.2288L179.666 43.5931C179.562 44.226 179.449 44.812 179.34 45.3558C179.232 45.8996 179.076 46.3731 178.887 46.7763C178.693 47.1794 178.452 47.4935 178.155 47.7233C177.862 47.953 177.484 48.0655 177.021 48.0655C176.827 48.0655 176.629 48.0233 176.43 47.9342V46.9075H176.435Z" fill="#1D1E1C"/>
<path d="M186.308 47.2638C186.492 47.2638 186.615 47.2076 186.685 47.0997C186.752 46.9919 186.785 46.8044 186.785 46.5466V41.5256H185.774V40.8787H189.142V41.5256H188.608C188.424 41.5256 188.301 41.5819 188.23 41.6897C188.164 41.7975 188.131 41.9851 188.131 42.2429V43.4899H189.794C190.129 43.4899 190.464 43.5227 190.79 43.5837C191.116 43.6446 191.409 43.7571 191.664 43.9212C191.919 44.0853 192.122 44.3056 192.278 44.5822C192.434 44.8588 192.51 45.2198 192.51 45.6558C192.51 46.0402 192.434 46.3731 192.288 46.6544C192.136 46.9357 191.933 47.1701 191.674 47.3576C191.414 47.5451 191.116 47.6811 190.776 47.7748C190.441 47.8639 190.082 47.9108 189.709 47.9108H185.779V47.2638H186.308ZM189.387 47.2638C189.609 47.2638 189.822 47.231 190.025 47.1701C190.228 47.1091 190.408 47.0107 190.568 46.8841C190.729 46.7575 190.856 46.5887 190.951 46.3872C191.045 46.1856 191.097 45.9465 191.097 45.6699C191.097 45.3933 191.05 45.1542 190.951 44.962C190.856 44.7651 190.729 44.6104 190.568 44.4885C190.408 44.3713 190.228 44.2822 190.025 44.2213C189.822 44.165 189.614 44.1369 189.402 44.1369H188.117V47.2638H189.387Z" fill="#1D1E1C"/>
<path d="M193.926 47.2638C194.111 47.2638 194.233 47.2076 194.304 47.0997C194.37 46.9919 194.404 46.8044 194.404 46.5466V41.5256H193.393V40.8787H196.704V41.5256H196.227C196.043 41.5256 195.92 41.5819 195.849 41.6897C195.783 41.7975 195.75 41.9851 195.75 42.2429V43.9634H199.363V41.5256H198.409V40.8787H201.72V41.5256H201.187C201.002 41.5256 200.88 41.5819 200.813 41.6897C200.747 41.7975 200.714 41.9851 200.714 42.2429V47.2638H201.725V47.9108H198.414V47.2638H198.905C199.07 47.2638 199.189 47.2076 199.259 47.0997C199.33 46.9919 199.368 46.8044 199.368 46.5466V44.6526H195.754V47.2638H196.709V47.9108H193.397V47.2638H193.926Z" fill="#1D1E1C"/>
<path d="M203.265 47.2638C203.449 47.2638 203.572 47.2076 203.643 47.0997C203.709 46.9919 203.742 46.8044 203.742 46.5466V41.5256H202.731V40.8787H206.099V41.5256H205.565C205.381 41.5256 205.258 41.5819 205.187 41.6897C205.121 41.7975 205.088 41.9851 205.088 42.2429V43.4899H206.576C206.912 43.4899 207.242 43.5227 207.568 43.5837C207.889 43.6446 208.182 43.7571 208.437 43.9212C208.692 44.0853 208.895 44.3056 209.051 44.5822C209.207 44.8588 209.283 45.2198 209.283 45.6558C209.283 46.0402 209.207 46.3731 209.061 46.6544C208.91 46.9357 208.711 47.1701 208.451 47.3576C208.196 47.5451 207.899 47.6811 207.563 47.7748C207.228 47.8639 206.869 47.9108 206.496 47.9108H202.736V47.2638H203.265ZM206.17 47.2638C206.392 47.2638 206.605 47.231 206.808 47.1701C207.011 47.1091 207.19 47.0107 207.351 46.8841C207.511 46.7575 207.639 46.5887 207.733 46.3872C207.828 46.1856 207.88 45.9465 207.88 45.6699C207.88 45.3933 207.833 45.1542 207.733 44.962C207.639 44.7651 207.511 44.6104 207.351 44.4885C207.19 44.3713 207.011 44.2822 206.808 44.2213C206.605 44.165 206.397 44.1369 206.184 44.1369H205.069V47.2638H206.17ZM210.218 47.2638C210.383 47.2638 210.501 47.2076 210.572 47.0997C210.643 46.9919 210.681 46.8044 210.681 46.5466V41.5256H209.67V40.8787H213.033V41.5256H212.5C212.315 41.5256 212.193 41.5819 212.122 41.6897C212.056 41.7975 212.022 41.9851 212.022 42.2429V47.2638H213.033V47.9108H209.665V47.2638H210.218Z" fill="#1D1E1C"/>
<path d="M214.583 47.2637C214.767 47.2637 214.89 47.2075 214.961 47.0996C215.027 46.9918 215.06 46.8043 215.06 46.5465V41.5255H214.049V40.8786H217.36V41.5255H216.883C216.699 41.5255 216.576 41.5818 216.505 41.6896C216.439 41.7974 216.406 41.985 216.406 42.2428V45.3557C216.406 45.5198 216.397 45.7167 216.382 45.9464C216.368 46.1761 216.349 46.373 216.33 46.5324H216.373C216.458 46.3964 216.538 46.2699 216.604 46.1527C216.671 46.0308 216.741 45.9323 216.808 45.8432L220.232 40.8786H222.414V41.5255H221.881C221.696 41.5255 221.574 41.5818 221.503 41.6896C221.437 41.7974 221.404 41.985 221.404 42.2428V47.2637H222.414V47.9107H219.103V47.2637H219.594C219.76 47.2637 219.878 47.2075 219.949 47.0996C220.02 46.9918 220.057 46.8043 220.057 46.5465V43.4336C220.057 43.2695 220.062 43.0726 220.081 42.8429C220.095 42.6132 220.114 42.4163 220.133 42.2569H220.09C220.005 42.3928 219.925 42.5194 219.859 42.6366C219.793 42.7538 219.722 42.8569 219.656 42.946L216.231 47.9107H214.049V47.2637H214.583ZM215.754 38.0376H217.115V38.3564C217.115 38.6986 217.204 38.9518 217.389 39.1018C217.573 39.2565 217.851 39.3315 218.229 39.3315C218.617 39.3315 218.9 39.2565 219.08 39.1018C219.264 38.9471 219.354 38.6986 219.354 38.3564V38.0423H220.714V38.1876C220.714 38.7596 220.501 39.2002 220.072 39.5003C219.642 39.8003 219.028 39.9503 218.229 39.9503C217.44 39.9503 216.831 39.8003 216.401 39.5003C215.971 39.2002 215.759 38.7596 215.759 38.1876V38.0376H215.754Z" fill="#1D1E1C"/>
<path d="M44.241 65.3832C44.0473 65.2098 43.7686 65.1254 43.4002 65.1254H36.8391V64.4784H37.3729C37.5571 64.4784 37.6799 64.4222 37.7508 64.3143C37.8169 64.2065 37.85 64.019 37.85 63.7611V58.7402H36.8391V58.0933H40.1503V58.7402H39.6733C39.489 58.7402 39.3662 58.7965 39.2954 58.9043C39.2292 59.0121 39.1962 59.1996 39.1962 59.4575V64.4784H42.5216V58.7402H41.5674V58.0933H44.8787V58.7402H44.3449C44.1607 58.7402 44.0379 58.7965 43.967 58.9043C43.9009 59.0121 43.8678 59.1996 43.8678 59.4575V64.4784H45.2565V66.9443H44.5338V66.2552C44.5291 65.8473 44.4346 65.5567 44.241 65.3832Z" fill="#1D1E1C"/>
<path d="M46.0312 61.6561C46.0312 61.0841 46.1209 60.5684 46.3004 60.1137C46.4799 59.659 46.7256 59.2698 47.0373 58.9464C47.3491 58.6229 47.7128 58.3744 48.1285 58.201C48.5441 58.0275 48.9929 57.9431 49.4747 57.9431C50.051 57.9431 50.5375 58.0322 50.9343 58.2103C51.331 58.3885 51.6428 58.6229 51.879 58.9135C52.1152 59.2042 52.2852 59.5371 52.3844 59.9121C52.4836 60.2872 52.5356 60.6622 52.5356 61.0466V61.6655H47.4483C47.4483 61.9514 47.4813 62.2608 47.5475 62.5984C47.6136 62.9312 47.7317 63.2453 47.9017 63.5313C48.0718 63.8173 48.3032 64.0564 48.5961 64.2486C48.889 64.4408 49.2621 64.5346 49.7156 64.5346C50.1313 64.5346 50.528 64.4549 50.9059 64.2908C51.2885 64.1267 51.6475 63.8501 51.9829 63.461L52.46 63.9345C52.0915 64.3658 51.6617 64.6986 51.1657 64.9377C50.6697 65.1768 50.1124 65.2987 49.4983 65.2987C49.0637 65.2987 48.6386 65.2331 48.2277 65.0971C47.812 64.9612 47.4435 64.7502 47.1129 64.4595C46.787 64.1689 46.5224 63.7938 46.3241 63.3344C46.1257 62.8609 46.0312 62.303 46.0312 61.6561ZM51.161 60.9669C51.1516 60.2215 51.0051 59.6355 50.7264 59.2183C50.4477 58.7963 50.0273 58.5854 49.47 58.5854C49.2385 58.5854 49.0118 58.637 48.785 58.7448C48.5583 58.8479 48.3552 59.0026 48.1757 59.2042C47.9962 59.4058 47.845 59.6543 47.7222 59.9496C47.5947 60.245 47.5191 60.5872 47.4908 60.9669H51.161Z" fill="#1D1E1C"/>
<path d="M54.1793 64.4833C54.3635 64.4833 54.4863 64.4271 54.5572 64.3192C54.6233 64.2114 54.6564 64.0239 54.6564 63.766V58.7451H53.6455V58.0981H56.9567V58.7451H56.4797C56.2954 58.7451 56.1726 58.8014 56.1018 58.9092C56.0356 59.017 56.0026 59.2045 56.0026 59.4624V61.1829H59.6161V58.7451H58.662V58.0981H61.9732V58.7451H61.4394C61.2552 58.7451 61.1324 58.8014 61.0663 58.9092C61.0001 59.017 60.9671 59.2045 60.9671 59.4624V64.4833H61.9779V65.1303H58.6667V64.4833H59.1579C59.3233 64.4833 59.4413 64.4271 59.5122 64.3192C59.5831 64.2114 59.6208 64.0239 59.6208 63.766V61.8721H56.0073V64.4833H56.9615V65.1303H53.6502V64.4833H54.1793Z" fill="#1D1E1C"/>
<path d="M65.0813 64.4833C65.2655 64.4833 65.3883 64.427 65.4592 64.3192C65.5253 64.2114 65.5584 64.0238 65.5584 63.766V58.745H64.6751C64.4058 58.745 64.1744 58.8247 63.9901 58.9841C63.8012 59.1435 63.7067 59.3873 63.7067 59.7249V60.2827H62.984V58.1028H69.4742V60.2827H68.7515V59.7249C68.7515 59.392 68.657 59.1435 68.4681 58.9841C68.2791 58.8247 68.0524 58.745 67.7832 58.745H66.8999V64.4833H67.9532V65.1302H64.5003V64.4833H65.0813Z" fill="#1D1E1C"/>
<path d="M71.156 68.0693C71.3402 68.0693 71.463 68.0131 71.5339 67.9052C71.6 67.7974 71.633 67.6099 71.633 67.3521V58.7447H70.4758V58.0978H72.9604V59.4479H72.9887C73.1115 59.2651 73.2627 59.0823 73.4375 58.9041C73.6122 58.7213 73.8059 58.5619 74.0279 58.4166C74.2499 58.2712 74.4955 58.1587 74.7742 58.0743C75.0482 57.9899 75.3458 57.9478 75.6623 57.9478C76.1346 57.9478 76.5456 58.0321 76.8904 58.2056C77.2352 58.3791 77.5234 58.6181 77.7501 58.9323C77.9768 59.2417 78.1469 59.6073 78.2555 60.0293C78.3642 60.4512 78.4208 60.9106 78.4208 61.4076C78.4208 61.9889 78.3405 62.5233 78.1847 63.0015C78.0241 63.4797 77.8021 63.8876 77.5139 64.2298C77.2258 64.5673 76.8762 64.8345 76.4747 65.0174C76.0685 65.2049 75.6198 65.2987 75.1285 65.2987C74.6656 65.2987 74.2641 65.219 73.9193 65.0549C73.5792 64.8908 73.2627 64.6892 72.9745 64.4361H72.9462C72.9556 64.572 72.9651 64.7127 72.9698 64.858C72.9745 65.008 72.9793 65.1205 72.9793 65.1955V68.0787H74.1649V68.7257H70.6222V68.0787H71.156V68.0693ZM77.0132 61.5388C77.0132 61.2529 76.9896 60.9575 76.9424 60.6481C76.8951 60.3434 76.8006 60.0668 76.6589 59.8136C76.5172 59.5651 76.3283 59.3636 76.0874 59.2042C75.8465 59.0448 75.5395 58.9698 75.1616 58.9698C74.949 58.9698 74.7175 59.0073 74.4625 59.0776C74.2074 59.1479 73.9665 59.2557 73.7492 59.4011C73.5272 59.5464 73.343 59.7245 73.1918 59.9449C73.0407 60.1652 72.9698 60.4231 72.9698 60.7184V63.6297C73.0643 63.7141 73.1682 63.8032 73.2816 63.8969C73.3902 63.986 73.5225 64.0704 73.6784 64.1407C73.8342 64.211 74.0043 64.272 74.198 64.3142C74.3916 64.3564 74.6136 64.3798 74.864 64.3798C75.5111 64.3798 76.0307 64.1454 76.4228 63.6766C76.8148 63.2078 77.0132 62.4952 77.0132 61.5388Z" fill="#1D1E1C"/>
<path d="M84.1836 64.4833C84.3773 64.4833 84.519 64.4224 84.6088 64.3052C84.6985 64.1833 84.7552 64.0051 84.7741 63.766L85.2086 58.7451H84.2545V58.0981H86.7863L88.3498 61.6705C88.3971 61.7736 88.4396 61.9002 88.4774 62.0455C88.5152 62.1908 88.5577 62.3268 88.6096 62.4627H88.6521C88.6994 62.308 88.7513 62.1627 88.8127 62.0268C88.8694 61.8861 88.9214 61.7595 88.9733 61.647L90.5794 58.1028H93.2104V58.7498H92.8467C92.5963 58.7498 92.4216 58.8014 92.3271 58.8998C92.2326 58.9983 92.1807 59.167 92.1807 59.3967C92.1807 59.4342 92.1807 59.4718 92.1807 59.5046C92.1807 59.5374 92.1854 59.5796 92.1948 59.6265L92.6152 64.488H93.6261V65.135H90.3148V64.488H90.7211C90.8864 64.488 91.0092 64.4505 91.0895 64.3802C91.1698 64.3098 91.2123 64.1645 91.2123 63.9442C91.2123 63.9161 91.2076 63.8785 91.2029 63.8317C91.1982 63.7848 91.1982 63.752 91.1982 63.7332L90.9384 60.8079C90.9289 60.7328 90.9195 60.6297 90.9147 60.5078C90.91 60.3859 90.9053 60.2547 90.9006 60.1187C90.8958 59.9828 90.8958 59.8562 90.8958 59.739C90.8958 59.6171 90.8958 59.5233 90.8958 59.4436H90.825L88.945 63.6348H87.9342L86.0825 59.4296H86.0117C86.0022 59.5655 85.9928 59.753 85.988 59.9968C85.9833 60.2406 85.9691 60.4469 85.9503 60.6203L85.6621 63.7754C85.6621 63.7942 85.6621 63.827 85.6574 63.8692C85.6527 63.9114 85.6479 63.9489 85.6479 63.977C85.6479 64.1223 85.681 64.2442 85.7424 64.3427C85.8038 64.4411 85.9455 64.4927 86.1675 64.4927H86.5596V65.1396H83.7538V64.4927H84.1836V64.4833Z" fill="#1D1E1C"/>
<path d="M95.0952 64.4833C95.2794 64.4833 95.4022 64.4271 95.473 64.3192C95.5392 64.2114 95.5722 64.0239 95.5722 63.766V58.7451H94.5614V58.0981H97.8726V58.7451H97.3956C97.2113 58.7451 97.0885 58.8014 97.0177 58.9092C96.9515 59.017 96.9185 59.2045 96.9185 59.4624V62.5753C96.9185 62.7393 96.909 62.9362 96.8949 63.166C96.8807 63.3957 96.8618 63.5926 96.8429 63.752H96.8854C96.9704 63.616 97.0507 63.4894 97.1169 63.3722C97.183 63.2503 97.2538 63.1519 97.32 63.0628L100.745 58.0981H102.927V58.7451H102.393C102.209 58.7451 102.086 58.8014 102.015 58.9092C101.949 59.017 101.916 59.2045 101.916 59.4624V64.4833H102.927V65.1303H99.6156V64.4833H100.107C100.272 64.4833 100.39 64.4271 100.461 64.3192C100.532 64.2114 100.57 64.0239 100.57 63.766V60.6531C100.57 60.4891 100.575 60.2969 100.593 60.0625C100.608 59.8327 100.626 59.6358 100.645 59.4764H100.603C100.518 59.6124 100.438 59.739 100.371 59.8562C100.305 59.9781 100.234 60.0765 100.168 60.1656L96.7437 65.1303H94.5614V64.4833H95.0952Z" fill="#1D1E1C"/>
<path d="M104.646 68.0693C104.83 68.0693 104.953 68.0131 105.024 67.9052C105.09 67.7974 105.123 67.6099 105.123 67.3521V58.7447H103.966V58.0978H106.451V59.4479H106.479C106.602 59.2651 106.753 59.0823 106.928 58.9041C107.102 58.7213 107.296 58.5619 107.518 58.4166C107.74 58.2712 107.986 58.1587 108.264 58.0743C108.538 57.9899 108.836 57.9478 109.152 57.9478C109.625 57.9478 110.036 58.0321 110.381 58.2056C110.725 58.3791 111.014 58.6181 111.24 58.9323C111.467 59.2417 111.637 59.6073 111.746 60.0293C111.854 60.4512 111.911 60.9106 111.911 61.4076C111.911 61.9889 111.831 62.5233 111.675 63.0015C111.514 63.4797 111.292 63.8876 111.004 64.2298C110.716 64.5673 110.366 64.8345 109.965 65.0174C109.559 65.2049 109.11 65.2987 108.619 65.2987C108.156 65.2987 107.754 65.219 107.409 65.0549C107.069 64.8908 106.753 64.6892 106.465 64.4361H106.436C106.446 64.572 106.455 64.7127 106.46 64.858C106.465 65.008 106.469 65.1205 106.469 65.1955V68.0787H107.655V68.7257H104.112V68.0787H104.646V68.0693ZM110.499 61.5388C110.499 61.2529 110.475 60.9575 110.428 60.6481C110.381 60.3434 110.286 60.0668 110.144 59.8136C110.003 59.5651 109.814 59.3636 109.573 59.2042C109.332 59.0448 109.025 58.9698 108.647 58.9698C108.435 58.9698 108.203 59.0073 107.948 59.0776C107.693 59.1479 107.452 59.2557 107.235 59.4011C107.013 59.5464 106.828 59.7245 106.677 59.9449C106.526 60.1652 106.455 60.4231 106.455 60.7184V63.6297C106.55 63.7141 106.654 63.8032 106.767 63.8969C106.876 63.986 107.008 64.0704 107.164 64.1407C107.32 64.211 107.49 64.272 107.683 64.3142C107.877 64.3564 108.099 64.3798 108.349 64.3798C108.997 64.3798 109.516 64.1454 109.908 63.6766C110.3 63.2078 110.499 62.4952 110.499 61.5388Z" fill="#1D1E1C"/>
<path d="M113.092 61.628C113.092 61.0467 113.182 60.5216 113.366 60.0622C113.55 59.6027 113.805 59.2136 114.131 58.8995C114.457 58.5854 114.844 58.3463 115.289 58.1823C115.733 58.0182 116.21 57.9385 116.72 57.9385C117.239 57.9385 117.721 58.0182 118.16 58.1823C118.6 58.3463 118.982 58.5854 119.308 58.8995C119.634 59.2136 119.889 59.6027 120.073 60.0622C120.258 60.5216 120.347 61.042 120.347 61.628C120.347 62.214 120.258 62.7297 120.073 63.1844C119.889 63.6392 119.634 64.0236 119.308 64.333C118.982 64.6424 118.595 64.8815 118.16 65.0409C117.721 65.205 117.244 65.2847 116.72 65.2847C116.21 65.2847 115.733 65.205 115.289 65.0409C114.844 64.8768 114.462 64.6424 114.131 64.333C113.805 64.0236 113.546 63.6392 113.366 63.1844C113.182 62.7297 113.092 62.2093 113.092 61.628ZM118.93 61.628C118.93 61.4827 118.921 61.3092 118.902 61.1029C118.883 60.8967 118.845 60.681 118.784 60.456C118.727 60.2309 118.647 60.0059 118.548 59.7809C118.449 59.5559 118.316 59.3543 118.151 59.1761C117.986 58.998 117.787 58.8573 117.551 58.7448C117.315 58.637 117.036 58.5807 116.72 58.5807C116.403 58.5807 116.125 58.637 115.888 58.7448C115.652 58.8573 115.454 58.998 115.289 59.1761C115.123 59.3543 114.991 59.5559 114.892 59.7809C114.793 60.0059 114.712 60.2309 114.651 60.456C114.594 60.681 114.556 60.8967 114.533 61.1029C114.514 61.3092 114.504 61.4827 114.504 61.628C114.504 61.839 114.528 62.1155 114.575 62.4531C114.622 62.7906 114.726 63.1235 114.878 63.4517C115.033 63.7751 115.255 64.0564 115.548 64.2908C115.841 64.5252 116.228 64.6424 116.71 64.6424C117.192 64.6424 117.579 64.5252 117.872 64.2908C118.165 64.0564 118.392 63.7751 118.543 63.4517C118.699 63.1282 118.798 62.7953 118.845 62.4531C118.907 62.1109 118.93 61.8343 118.93 61.628Z" fill="#1D1E1C"/>
<path d="M121.694 64.4833C121.878 64.4833 122.001 64.4271 122.072 64.3192C122.138 64.2114 122.171 64.0239 122.171 63.766V58.7451H121.16V58.0981H125.51C126.328 58.0981 126.927 58.2482 127.31 58.5529C127.693 58.8529 127.882 59.2795 127.882 59.8234C127.882 59.9874 127.853 60.1515 127.801 60.3203C127.749 60.4891 127.664 60.6485 127.556 60.7938C127.447 60.9438 127.296 61.0704 127.116 61.1829C126.932 61.2907 126.71 61.3751 126.45 61.4361V61.4642C126.989 61.5392 127.395 61.7173 127.674 62.0033C127.948 62.2846 128.085 62.6643 128.085 63.1425C128.085 63.3816 128.037 63.6207 127.948 63.8598C127.858 64.0989 127.707 64.3098 127.508 64.4974C127.305 64.6849 127.036 64.8349 126.705 64.9568C126.375 65.074 125.964 65.1349 125.482 65.1349H121.16V64.488H121.694V64.4833ZM125.047 61.1829C125.482 61.1829 125.827 61.0751 126.082 60.8594C126.337 60.6438 126.465 60.3156 126.465 59.8749C126.465 59.5702 126.356 59.303 126.139 59.078C125.921 58.8529 125.548 58.7404 125.019 58.7404H123.503V61.1782H125.047V61.1829ZM125.047 64.4833C125.586 64.4833 125.992 64.3661 126.261 64.1317C126.531 63.8973 126.668 63.5691 126.668 63.1378C126.668 62.8987 126.625 62.6972 126.535 62.5331C126.45 62.369 126.332 62.233 126.191 62.1252C126.044 62.0221 125.874 61.9424 125.676 61.8955C125.477 61.8486 125.269 61.8252 125.047 61.8252H123.503V64.4786H125.047V64.4833Z" fill="#1D1E1C"/>
<path d="M129.27 61.628C129.27 61.0467 129.36 60.5216 129.544 60.0622C129.728 59.6027 129.983 59.2136 130.309 58.8995C130.635 58.5854 131.023 58.3463 131.467 58.1823C131.911 58.0182 132.388 57.9385 132.898 57.9385C133.417 57.9385 133.899 58.0182 134.338 58.1823C134.778 58.3463 135.16 58.5854 135.486 58.8995C135.812 59.2136 136.067 59.6027 136.252 60.0622C136.436 60.5216 136.525 61.042 136.525 61.628C136.525 62.214 136.436 62.7297 136.252 63.1844C136.067 63.6392 135.812 64.0236 135.486 64.333C135.16 64.6424 134.773 64.8815 134.338 65.0409C133.899 65.205 133.422 65.2847 132.898 65.2847C132.388 65.2847 131.911 65.205 131.467 65.0409C131.023 64.8768 130.64 64.6424 130.309 64.333C129.983 64.0236 129.728 63.6392 129.544 63.1844C129.365 62.7297 129.27 62.2093 129.27 61.628ZM135.113 61.628C135.113 61.4827 135.104 61.3092 135.085 61.1029C135.066 60.8967 135.028 60.681 134.967 60.456C134.91 60.2309 134.83 60.0059 134.731 59.7809C134.631 59.5559 134.499 59.3543 134.334 59.1761C134.168 58.998 133.97 58.8573 133.734 58.7448C133.498 58.637 133.219 58.5807 132.902 58.5807C132.586 58.5807 132.307 58.637 132.071 58.7448C131.835 58.8573 131.637 58.998 131.471 59.1761C131.306 59.3543 131.174 59.5559 131.074 59.7809C130.975 60.0059 130.895 60.2309 130.834 60.456C130.777 60.681 130.739 60.8967 130.715 61.1029C130.697 61.3092 130.687 61.4827 130.687 61.628C130.687 61.839 130.711 62.1155 130.758 62.4531C130.805 62.7906 130.909 63.1235 131.06 63.4517C131.216 63.7751 131.438 64.0564 131.731 64.2908C132.024 64.5252 132.411 64.6424 132.893 64.6424C133.375 64.6424 133.762 64.5252 134.055 64.2908C134.348 64.0564 134.575 63.7751 134.726 63.4517C134.882 63.1282 134.981 62.7953 135.028 62.4531C135.09 62.1109 135.113 61.8343 135.113 61.628Z" fill="#1D1E1C"/>
<path d="M138.075 64.4833C138.259 64.4833 138.382 64.427 138.453 64.3192C138.519 64.2114 138.552 64.0239 138.552 63.766V58.7451H137.541V58.0981H143.309V60.25H142.586V59.7202C142.586 59.3874 142.487 59.1389 142.284 58.9795C142.081 58.8201 141.826 58.7404 141.518 58.7404H139.898V64.4786H141.013V65.1256H137.546V64.4786H138.075V64.4833Z" fill="#1D1E1C"/>
<path d="M144.211 61.628C144.211 61.0467 144.301 60.5216 144.485 60.0622C144.669 59.6027 144.924 59.2136 145.25 58.8995C145.576 58.5854 145.963 58.3463 146.407 58.1823C146.851 58.0182 147.328 57.9385 147.839 57.9385C148.358 57.9385 148.84 58.0182 149.279 58.1823C149.719 58.3463 150.101 58.5854 150.427 58.8995C150.753 59.2136 151.008 59.6027 151.192 60.0622C151.376 60.5216 151.466 61.042 151.466 61.628C151.466 62.214 151.376 62.7297 151.192 63.1844C151.008 63.6392 150.753 64.0236 150.427 64.333C150.101 64.6424 149.714 64.8815 149.279 65.0409C148.84 65.205 148.363 65.2847 147.839 65.2847C147.328 65.2847 146.851 65.205 146.407 65.0409C145.963 64.8768 145.581 64.6424 145.25 64.333C144.924 64.0236 144.669 63.6392 144.485 63.1844C144.301 62.7297 144.211 62.2093 144.211 61.628ZM150.049 61.628C150.049 61.4827 150.04 61.3092 150.021 61.1029C150.002 60.8967 149.964 60.681 149.903 60.456C149.846 60.2309 149.766 60.0059 149.667 59.7809C149.567 59.5559 149.435 59.3543 149.27 59.1761C149.104 58.998 148.906 58.8573 148.67 58.7448C148.434 58.637 148.155 58.5807 147.839 58.5807C147.522 58.5807 147.243 58.637 147.007 58.7448C146.771 58.8573 146.573 58.998 146.407 59.1761C146.242 59.3543 146.11 59.5559 146.01 59.7809C145.911 60.0059 145.831 60.2309 145.77 60.456C145.713 60.681 145.675 60.8967 145.652 61.1029C145.633 61.3092 145.623 61.4827 145.623 61.628C145.623 61.839 145.647 62.1155 145.694 62.4531C145.741 62.7906 145.845 63.1235 145.996 63.4517C146.152 63.7751 146.374 64.0564 146.667 64.2908C146.96 64.5252 147.347 64.6424 147.829 64.6424C148.311 64.6424 148.698 64.5252 148.991 64.2908C149.284 64.0564 149.511 63.7751 149.662 63.4517C149.818 63.1282 149.917 62.7953 149.964 62.4531C150.026 62.1109 150.049 61.8343 150.049 61.628Z" fill="#1D1E1C"/>
<path d="M157.961 67.7085H158.986C159.1 67.7085 159.222 67.6945 159.35 67.6663C159.473 67.6382 159.596 67.5773 159.718 67.4882C159.841 67.3991 159.959 67.2632 160.082 67.085C160.205 66.9069 160.323 66.6724 160.436 66.3724L160.843 65.3129L157.734 58.7402H156.738V58.0933H160.224V58.7402H159.879C159.591 58.7402 159.444 58.848 159.444 59.0684C159.444 59.1715 159.492 59.3356 159.591 59.5559L161.065 62.772C161.131 62.9173 161.202 63.0908 161.268 63.3017C161.334 63.5127 161.39 63.6908 161.428 63.8315H161.499C161.527 63.7143 161.565 63.5736 161.612 63.4095C161.66 63.2408 161.721 63.0486 161.801 62.8282L163.015 59.5278C163.063 59.4247 163.091 59.3309 163.1 59.2559C163.11 59.1809 163.115 59.1106 163.115 59.0543C163.115 58.9418 163.082 58.8574 163.015 58.8105C162.949 58.7637 162.864 58.7402 162.77 58.7402H162.278V58.0933H165.254V58.7402H164.995C164.716 58.7402 164.489 58.8246 164.324 58.9981C164.154 59.1715 164.031 59.3544 163.955 59.5419L161.457 66.1568C161.253 66.7006 161.05 67.1506 160.843 67.5069C160.635 67.8585 160.417 68.1398 160.191 68.3414C159.964 68.543 159.728 68.679 159.482 68.7587C159.237 68.8337 158.967 68.8712 158.679 68.8712C158.523 68.8712 158.386 68.8571 158.268 68.829C158.145 68.8008 158.051 68.768 157.971 68.7305V67.7085H157.961Z" fill="#1D1E1C"/>
<path d="M166.577 68.0693C166.761 68.0693 166.884 68.0131 166.955 67.9052C167.021 67.7974 167.054 67.6099 167.054 67.3521V58.7447H165.897V58.0978H168.382V59.4479H168.41C168.533 59.2651 168.684 59.0823 168.859 58.9041C169.033 58.7213 169.227 58.5619 169.449 58.4166C169.671 58.2712 169.917 58.1587 170.195 58.0743C170.469 57.9899 170.767 57.9478 171.083 57.9478C171.556 57.9478 171.967 58.0321 172.312 58.2056C172.656 58.3791 172.945 58.6181 173.171 58.9323C173.398 59.2417 173.568 59.6073 173.677 60.0293C173.785 60.4512 173.842 60.9106 173.842 61.4076C173.842 61.9889 173.762 62.5233 173.606 63.0015C173.445 63.4797 173.223 63.8876 172.935 64.2298C172.647 64.5673 172.297 64.8345 171.896 65.0174C171.49 65.2049 171.041 65.2987 170.55 65.2987C170.087 65.2987 169.685 65.219 169.34 65.0549C169 64.8908 168.684 64.6892 168.396 64.4361H168.367C168.377 64.572 168.386 64.7127 168.391 64.858C168.396 65.008 168.4 65.1205 168.4 65.1955V68.0787H169.586V68.7257H166.043V68.0787H166.577V68.0693ZM172.43 61.5388C172.43 61.2529 172.406 60.9575 172.359 60.6481C172.312 60.3434 172.217 60.0668 172.075 59.8136C171.934 59.5651 171.745 59.3636 171.504 59.2042C171.263 59.0448 170.956 58.9698 170.578 58.9698C170.365 58.9698 170.134 59.0073 169.879 59.0776C169.624 59.1479 169.383 59.2557 169.166 59.4011C168.944 59.5464 168.759 59.7245 168.608 59.9449C168.457 60.1652 168.386 60.4231 168.386 60.7184V63.6297C168.481 63.7141 168.585 63.8032 168.698 63.8969C168.807 63.986 168.939 64.0704 169.095 64.1407C169.251 64.211 169.421 64.272 169.614 64.3142C169.808 64.3564 170.03 64.3798 170.28 64.3798C170.928 64.3798 171.447 64.1454 171.839 63.6766C172.231 63.2078 172.43 62.4952 172.43 61.5388Z" fill="#1D1E1C"/>
<path d="M174.886 61.628C174.886 61.0467 174.975 60.5216 175.16 60.0622C175.344 59.6027 175.599 59.2136 175.925 58.8995C176.251 58.5854 176.638 58.3463 177.082 58.1823C177.526 58.0182 178.003 57.9385 178.513 57.9385C179.033 57.9385 179.515 58.0182 179.954 58.1823C180.393 58.3463 180.776 58.5854 181.102 58.8995C181.428 59.2136 181.683 59.6027 181.867 60.0622C182.051 60.5216 182.141 61.042 182.141 61.628C182.141 62.214 182.051 62.7297 181.867 63.1844C181.683 63.6392 181.428 64.0236 181.102 64.333C180.776 64.6424 180.389 64.8815 179.954 65.0409C179.515 65.205 179.038 65.2847 178.513 65.2847C178.003 65.2847 177.526 65.205 177.082 65.0409C176.638 64.8768 176.256 64.6424 175.925 64.333C175.599 64.0236 175.344 63.6392 175.16 63.1844C174.98 62.7297 174.886 62.2093 174.886 61.628ZM180.729 61.628C180.729 61.4827 180.719 61.3092 180.7 61.1029C180.682 60.8967 180.644 60.681 180.582 60.456C180.526 60.2309 180.445 60.0059 180.346 59.7809C180.247 59.5559 180.115 59.3543 179.949 59.1761C179.784 58.998 179.586 58.8573 179.35 58.7448C179.113 58.637 178.835 58.5807 178.518 58.5807C178.202 58.5807 177.923 58.637 177.687 58.7448C177.451 58.8573 177.252 58.998 177.087 59.1761C176.922 59.3543 176.789 59.5559 176.69 59.7809C176.591 60.0059 176.511 60.2309 176.449 60.456C176.393 60.681 176.355 60.8967 176.331 61.1029C176.312 61.3092 176.303 61.4827 176.303 61.628C176.303 61.839 176.326 62.1155 176.374 62.4531C176.421 62.7906 176.525 63.1235 176.676 63.4517C176.832 63.7751 177.054 64.0564 177.347 64.2908C177.64 64.5252 178.027 64.6424 178.509 64.6424C178.991 64.6424 179.378 64.5252 179.671 64.2908C179.964 64.0564 180.19 63.7751 180.342 63.4517C180.497 63.1282 180.597 62.7953 180.644 62.4531C180.705 62.1109 180.729 61.8343 180.729 61.628Z" fill="#1D1E1C"/>
<path d="M183.691 64.4833C183.875 64.4833 183.998 64.4271 184.069 64.3192C184.135 64.2114 184.168 64.0239 184.168 63.766V58.7451H183.157V58.0981H187.507C188.325 58.0981 188.924 58.2482 189.307 58.5529C189.69 58.8529 189.879 59.2795 189.879 59.8234C189.879 59.9874 189.85 60.1515 189.798 60.3203C189.746 60.4891 189.661 60.6485 189.553 60.7938C189.444 60.9438 189.293 61.0704 189.113 61.1829C188.929 61.2907 188.707 61.3751 188.447 61.4361V61.4642C188.986 61.5392 189.392 61.7173 189.671 62.0033C189.945 62.2846 190.082 62.6643 190.082 63.1425C190.082 63.3816 190.034 63.6207 189.945 63.8598C189.855 64.0989 189.704 64.3098 189.505 64.4974C189.302 64.6849 189.033 64.8349 188.702 64.9568C188.372 65.074 187.961 65.1349 187.479 65.1349H183.157V64.488H183.691V64.4833ZM187.044 61.1829C187.479 61.1829 187.824 61.0751 188.079 60.8594C188.334 60.6438 188.462 60.3156 188.462 59.8749C188.462 59.5702 188.353 59.303 188.136 59.078C187.918 58.8529 187.545 58.7404 187.016 58.7404H185.5V61.1782H187.044V61.1829ZM187.044 64.4833C187.583 64.4833 187.989 64.3661 188.258 64.1317C188.528 63.8973 188.665 63.5691 188.665 63.1378C188.665 62.8987 188.622 62.6972 188.532 62.5331C188.447 62.369 188.329 62.233 188.188 62.1252C188.041 62.0221 187.871 61.9424 187.673 61.8955C187.474 61.8486 187.266 61.8252 187.044 61.8252H185.5V64.4786H187.044V64.4833Z" fill="#1D1E1C"/>
<path d="M191.659 64.4833C191.843 64.4833 191.966 64.4271 192.037 64.3192C192.103 64.2114 192.136 64.0239 192.136 63.766V58.7451H191.125V58.0981H194.437V58.7451H193.96C193.775 58.7451 193.653 58.8014 193.582 58.9092C193.516 59.017 193.483 59.2045 193.483 59.4624V61.1829H197.096V58.7451H196.142V58.0981H199.453V58.7451H198.919C198.735 58.7451 198.612 58.8014 198.546 58.9092C198.48 59.017 198.447 59.2045 198.447 59.4624V64.4833H199.458V65.1303H196.147V64.4833H196.638C196.803 64.4833 196.921 64.4271 196.992 64.3192C197.063 64.2114 197.101 64.0239 197.101 63.766V61.8721H193.487V64.4833H194.441V65.1303H191.13V64.4833H191.659Z" fill="#1D1E1C"/>
<path d="M201.423 64.4833L203.232 62.2143C202.854 62.1486 202.547 62.0408 202.306 61.9002C202.065 61.7548 201.876 61.5955 201.735 61.4173C201.593 61.2392 201.499 61.0516 201.447 60.85C201.395 60.6485 201.366 60.4516 201.366 60.264C201.366 59.5749 201.598 59.0404 202.061 58.6654C202.524 58.2857 203.142 58.0981 203.912 58.0981H208.206V58.7451H207.672C207.488 58.7451 207.365 58.8014 207.294 58.9092C207.228 59.017 207.195 59.2045 207.195 59.4624V64.4833H208.206V65.1303H204.895V64.4833H205.386C205.551 64.4833 205.669 64.4271 205.74 64.3192C205.811 64.2114 205.849 64.0239 205.849 63.766V62.3034H204.677L202.538 65.1303H200.455V64.4833H201.423ZM205.877 58.7404H204.361C203.879 58.7404 203.497 58.867 203.213 59.1155C202.93 59.3639 202.788 59.7437 202.788 60.25C202.788 60.5266 202.831 60.7563 202.92 60.9297C203.005 61.1079 203.123 61.2485 203.275 61.361C203.426 61.4689 203.596 61.5486 203.794 61.5908C203.993 61.633 204.205 61.6564 204.437 61.6564H205.882V58.7404H205.877Z" fill="#1D1E1C"/>
<path d="M16.7971 35.5012C16.7971 31.1882 13.4953 27.6393 9.26767 27.2127V3.09722C9.26767 2.6331 8.88978 2.25806 8.42215 2.25806H8.37964C7.912 2.25806 7.53411 2.6331 7.53411 3.09722V27.208C3.30178 27.6393 0 31.1882 0 35.5012C0 39.8143 3.30178 43.3584 7.52939 43.7897V67.9005C7.52939 68.3646 7.90728 68.7397 8.37491 68.7397H8.41743C8.88506 68.7397 9.26295 68.3646 9.26295 67.9005V43.7897C13.4953 43.3584 16.7971 39.8143 16.7971 35.5012Z" fill="#1D1E1C"/>
</svg>
