<svg width="298" height="90" viewBox="0 0 298 90" fill="none" xmlns="http://www.w3.org/2000/svg">
<path d="M61.5515 40.9618C61.5515 40.9618 62.8574 26.0671 62.9858 24.6079C63.1829 22.2793 61.3317 18.0481 56.8741 18H43.4583V18.0114H35.4359H34.1529H19.473C14.9581 18.0114 12.7598 21.0905 12.4771 24.0437C12.3133 25.7949 9.22947 61.8071 9.02761 63.8879C9.01288 64.0415 9.00382 64.196 9 64.351V64.6793C9.078 67.7916 11.3223 71 15.1563 71H30.828H37.3722H52.2567C57.1733 71 59.0905 68.3769 59.5095 64.3271C59.7612 61.9002 60.9792 47.2402 60.9792 47.2402H38.5502L37.5798 58.5675H31.9042L34.3558 30.4374H40.0255L39.126 40.9618H61.5515Z" fill="#008993"/>
<path d="M97.0347 22.5474C96.2211 24.8702 89.5922 45.4564 89.5922 45.4564L92.5394 18.0046L69.7749 18L65 71H82.1644C86.4715 71 87.9411 68.5752 88.6659 66.6303C89.514 64.3056 95.8356 46.989 95.8356 46.989L93.5179 71H116.303L121 18C121 18 104.665 18.0046 103.112 18.0046C99.1663 18.0046 97.6094 20.8984 97.0347 22.5474Z" fill="#008993"/>
<path d="M211.203 18L209.071 42.1665H203.289L205.429 18H182.624C182.624 18 180.431 43.5781 180.213 46.0595C179.931 49.0055 181.611 53.1919 186.666 53.1919H208.09L207.628 58.5701H179.097L178 71H207.419H208.717H223.374C226.449 71 229.424 69.0096 229.82 64.7613C230.082 62.0272 234 18 234 18H211.203Z" fill="#008993"/>
<path d="M260.024 43.5802L261.17 30.4346H266.838L265.685 43.5802H260.024ZM290 24.1223V23.8319C289.922 20.265 286.928 18 283.268 18H270.364H262.251H239.638L235 71H257.618L259.048 54.5946H267.151L265.64 54.6041H281.031C284.916 54.6041 287.499 52.6217 287.912 48.0725C288.077 46.316 289.861 26.222 289.986 24.4415C289.993 24.3339 289.998 24.2276 290 24.1223Z" fill="#008993"/>
<path d="M151.041 59.9821H145.324L146.463 46.8276H152.18L151.041 59.9821ZM147.425 35.8042L147.891 30.4304H175.915L177 18H148.964H147.691H126.591L122 70.995H130.403V71C130.403 71 163.947 70.995 166.655 70.995C169.482 70.995 172.563 69.3051 172.965 64.8719C173.269 61.538 174.644 45.7819 174.9 42.9292C175.226 39.1062 172.825 35.8042 168.113 35.8042H147.425Z" fill="#008993"/>
</svg>
