<svg width="245" height="136" viewBox="0 0 245 136" fill="none" xmlns="http://www.w3.org/2000/svg">
<g clip-path="url(#clip0)">
<g filter="url(#filter0_f)">
<path fill-rule="evenodd" clip-rule="evenodd" d="M191.802 66.1939C232.43 71.585 272.257 78.502 306.765 101.339C343.008 125.323 377.409 155.874 391.098 198.081C404.852 240.489 396.361 286.94 380.449 328.533C365.282 368.178 335.349 397.293 304.205 425.209C270.007 455.862 236.923 494.206 191.802 497.625C145.576 501.128 96.6909 479.832 66.7661 443.202C38.9731 409.182 58.0013 356.879 42.7754 315.209C26.2437 269.965 -26.9819 240.538 -24.943 192.214C-22.8043 141.525 10.4763 92.5455 53.2185 67.6943C94.5048 43.6895 144.83 59.961 191.802 66.1939Z" fill="#9F248E"/>
</g>
<g filter="url(#filter1_f)">
<path fill-rule="evenodd" clip-rule="evenodd" d="M346.725 101.803C385.065 94.011 504.857 -100.242 541.92 -87.3896C581.521 -73.6574 535.181 125.754 540.249 168.91C545.295 211.888 500.668 241.478 482.192 280.263C467.469 311.169 467.513 349.297 443.17 372.692C417.294 397.559 381.917 409.451 346.725 410.45C310.865 411.468 277.194 397.42 246.384 378.279C212.839 357.438 171.542 336.267 163.303 296.495C155.106 256.932 187.51 222.193 206.765 187.039C221.936 159.342 236.606 130.51 263.033 114.416C287.978 99.2244 318.365 107.567 346.725 101.803Z" fill="#2E3192"/>
</g>
<path d="M161 91.8635C161 98.013 155.914 103 149.637 103C143.361 103 138.275 98.0155 138.275 91.8635C138.275 85.7115 143.361 80.7271 149.637 80.7271C155.914 80.7271 161 85.714 161 91.8635ZM103.66 42.5826L84 44.6358V83.1769H103.66V42.5826ZM138.471 32L118.81 34.0532V80.7271H138.471V32Z" fill="black"/>
</g>
<defs>
<filter id="filter0_f" x="-225" y="-145" width="823" height="843" filterUnits="userSpaceOnUse" color-interpolation-filters="sRGB">
<feFlood flood-opacity="0" result="BackgroundImageFix"/>
<feBlend mode="normal" in="SourceGraphic" in2="BackgroundImageFix" result="shape"/>
<feGaussianBlur stdDeviation="100" result="effect1_foregroundBlur"/>
</filter>
<filter id="filter1_f" x="-70" y="-320" width="860.068" height="962.502" filterUnits="userSpaceOnUse" color-interpolation-filters="sRGB">
<feFlood flood-opacity="0" result="BackgroundImageFix"/>
<feBlend mode="normal" in="SourceGraphic" in2="BackgroundImageFix" result="shape"/>
<feGaussianBlur stdDeviation="116" result="effect1_foregroundBlur"/>
</filter>
<clipPath id="clip0">
<rect width="245" height="136" fill="white"/>
</clipPath>
</defs>
</svg>
