<svg width="245" height="136" viewBox="0 0 245 136" fill="none" xmlns="http://www.w3.org/2000/svg">
<g clip-path="url(#clip0)">
<mask id="mask0" mask-type="alpha" maskUnits="userSpaceOnUse" x="-4" y="0" width="720" height="846">
<rect x="-4" width="720" height="846" fill="#C4C4C4"/>
</mask>
<g mask="url(#mask0)">
<g filter="url(#filter0_f)">
<path fill-rule="evenodd" clip-rule="evenodd" d="M177.838 54.6234C214.912 60.2214 251.255 67.4039 282.746 91.1169C315.818 116.021 347.21 147.745 359.702 191.572C372.252 235.608 364.504 283.841 349.984 327.029C336.143 368.196 308.829 398.428 280.409 427.416C249.203 459.245 219.012 499.061 177.838 502.611C135.656 506.249 91.0465 484.135 63.7392 446.1C38.3774 410.774 55.7411 356.464 41.847 313.195C26.7614 266.215 -21.8085 235.658 -19.948 185.479C-17.9964 132.845 12.3732 81.9863 51.3766 56.1814C89.0517 31.2555 134.975 48.1514 177.838 54.6234Z" fill="#D66E14"/>
</g>
<g filter="url(#filter1_f)">
<path fill-rule="evenodd" clip-rule="evenodd" d="M364.559 113.901C403.279 106.351 524.261 -81.8609 561.692 -69.4085C601.686 -56.1034 554.886 137.107 560.004 178.921C565.101 220.562 520.031 249.232 501.37 286.811C486.501 316.756 486.546 353.698 461.961 376.366C435.829 400.46 400.101 411.982 364.559 412.95C328.343 413.936 294.338 400.325 263.222 381.778C229.344 361.586 187.637 341.073 179.316 302.538C171.038 264.205 203.763 230.547 223.209 196.486C238.531 169.65 253.346 141.715 280.036 126.121C305.229 111.402 335.917 119.485 364.559 113.901Z" fill="#FA3E3E"/>
</g>
</g>
<path d="M161 91.8635C161 98.013 155.914 103 149.637 103C143.361 103 138.275 98.0155 138.275 91.8635C138.275 85.7115 143.361 80.7271 149.637 80.7271C155.914 80.7271 161 85.714 161 91.8635ZM103.66 42.5826L84 44.6358V83.1769H103.66V42.5826ZM138.471 32L118.81 34.0532V80.7271H138.471V32Z" fill="black"/>
</g>
<defs>
<filter id="filter0_f" x="-220" y="-157" width="786" height="860" filterUnits="userSpaceOnUse" color-interpolation-filters="sRGB">
<feFlood flood-opacity="0" result="BackgroundImageFix"/>
<feBlend mode="normal" in="SourceGraphic" in2="BackgroundImageFix" result="shape"/>
<feGaussianBlur stdDeviation="100" result="effect1_foregroundBlur"/>
</filter>
<filter id="filter1_f" x="-54" y="-302" width="864" height="947" filterUnits="userSpaceOnUse" color-interpolation-filters="sRGB">
<feFlood flood-opacity="0" result="BackgroundImageFix"/>
<feBlend mode="normal" in="SourceGraphic" in2="BackgroundImageFix" result="shape"/>
<feGaussianBlur stdDeviation="116" result="effect1_foregroundBlur"/>
</filter>
<clipPath id="clip0">
<rect width="245" height="136" fill="white"/>
</clipPath>
</defs>
</svg>
